<?xml version="1.0" encoding="UTF-8" standalone="no"?>
<!-- Created with Inkscape (http://www.inkscape.org/) -->

<svg
   version="1.1"
   id="svg2"
   width="137.55858"
   height="175.2704"
   viewBox="0 0 137.55858 175.27041"
   sodipodi:docname="book_closed.svg"
   inkscape:version="1.2 (dc2aedaf03, 2022-05-15)"
   xmlns:inkscape="http://www.inkscape.org/namespaces/inkscape"
   xmlns:sodipodi="http://sodipodi.sourceforge.net/DTD/sodipodi-0.dtd"
   xmlns="http://www.w3.org/2000/svg"
   xmlns:svg="http://www.w3.org/2000/svg">
  <defs
     id="defs6">
    <clipPath
       clipPathUnits="userSpaceOnUse"
       id="clipPath48">
      <path
         d="m 171.309,1180.93 h 3824.81 V 3248.38 H 171.309 Z"
         id="path46" />
    </clipPath>
    <clipPath
       clipPathUnits="userSpaceOnUse"
       id="clipPath574">
      <path
         d="m 3535.79,1963.04 c 0.15,1.64 -0.31,3.28 -1.3,4.59 l 0.41,0.62 c 0.61,0.93 0.95,1.95 1.05,2.98 2.39,0.51 4.68,1.58 6.67,3.2 l 0.52,0.43 c 2.59,2.1 4.84,4.6 6.68,7.39 l 1.35,2.07 c 1.6,-2.14 1.82,-5.18 0.24,-7.59 l -1.75,-2.67 c -1.84,-2.79 -4.09,-5.29 -6.68,-7.39 l -0.52,-0.43 c -1.98,-1.62 -4.28,-2.69 -6.67,-3.2"
         id="path572" />
    </clipPath>
    <clipPath
       clipPathUnits="userSpaceOnUse"
       id="clipPath736">
      <path
         d="m 890.316,1399.57 -378.488,1.14 1.684,560.24 378.488,-1.13 -1.684,-560.25 m -42.054,250.56 14.211,-0.05 0.757,252.81 0.071,23.99 -323.262,0.98 -0.004,-1.13 v 0 l -0.269,-88.21 -0.016,-5.31 -0.086,-29.2 -0.047,-15.61 -0.027,-8.15 v 0 0 l -0.02,-6.99 -0.031,-11.7 -0.023,-6.09 v 0 0 l -0.036,-12.39 -0.039,-12.39 h 0.004 -0.004 l -0.039,-12.39 -0.031,-12.39 -0.168,-54.86 218.86,-0.66 v 0 l 90.199,-0.26 v 0"
         id="path734" />
    </clipPath>
    <linearGradient
       x1="0"
       y1="0"
       x2="1"
       y2="0"
       gradientUnits="userSpaceOnUse"
       gradientTransform="matrix(122.53542,-0.36770833,-0.36770833,-122.53542,799.45417,1679.9708)"
       spreadMethod="pad"
       id="linearGradient742">
      <stop
         style="stop-opacity:1;stop-color:#f9f9f9"
         offset="0"
         id="stop738" />
      <stop
         style="stop-opacity:1;stop-color:#cac8c7"
         offset="1"
         id="stop740" />
    </linearGradient>
    <clipPath
       clipPathUnits="userSpaceOnUse"
       id="clipPath816">
      <path
         d="m 862.473,1650.08 -14.211,0.05 v 0 l 14.203,-0.05 0.426,141.59 h 0.004 l -0.422,-141.59 m -104.41,0.31 -217.887,0.66 217.883,-0.66 c 0.004,0 0.004,0 0.004,0 m -217.348,142.25 h -0.039 -1.047 1.086"
         id="path814" />
    </clipPath>
    <clipPath
       clipPathUnits="userSpaceOnUse"
       id="clipPath828">
      <path
         d="m 862.465,1650.08 -14.203,0.05 c 0.953,2.22 3.168,3.78 5.738,3.78 0.004,0 0.012,0 0.016,0 v 0 0 h -0.766 c 3.434,0.01 6.227,2.79 6.234,6.22 0.012,3.44 -2.777,6.25 -6.222,6.26 l -106.153,0.31 c -0.007,0 -0.011,0 -0.023,0 -3.434,0 -6.223,-2.77 -6.234,-6.21 -0.012,-3.45 2.773,-6.25 6.218,-6.26 l 76.344,-0.23 -71.086,0.21 c 2.582,0 4.789,-1.58 5.731,-3.82 l -217.883,0.66 h -0.973 l 0.168,54.86 73.379,-0.22 c 0.004,0 0.012,0 0.016,0 3.304,0 5.992,2.68 6,5.98 v 0.39 c 0.011,3.32 -2.664,6.01 -5.977,6.02 l -24.101,0.07 c -3.313,0.01 -5.989,2.71 -5.981,6.02 v 0.39 c 0.016,3.31 2.695,5.98 6,5.98 0.004,0 0.016,0 0.02,0 v 0 l 109.527,-0.33 c 0.008,0 0.012,0 0.019,0 3.305,0 5.989,2.68 5.997,5.99 l 0.003,0.39 c 0.012,3.31 -2.668,6.01 -5.98,6.02 l -21.391,0.06 c -3.312,0.01 -5.988,2.7 -5.976,6.02 v 0.39 c 0.012,3.3 2.695,5.98 6,5.98 0.004,0 0.012,0 0.015,0 v 0 0 l -137.425,0.41 v 0 l 137.425,-0.41 34.059,-0.1 c 0.008,0 0.012,0 0.02,0 3.304,0 5.988,2.67 5.996,5.98 v 0.39 c 0.011,3.31 -2.664,6.01 -5.977,6.02 l -6.281,0.02 v 0 c -3.317,0.01 -5.992,2.7 -5.985,6.01 l 0.004,0.39 c 0.012,3.31 2.696,5.98 5.996,5.98 0.012,0 0.016,0 0.024,0 v 0 0 l -165.207,0.5 v 0 l 165.207,-0.5 22.621,-0.06 c 0.004,0 0.012,0 0.016,0 3.304,0 5.988,2.67 5.996,5.98 l 0.004,0.39 c 0.007,3.31 -2.657,5.99 -5.957,6.02 l 1.832,-0.01 h 0.339 v 0 l 133.247,-0.4 -0.43,-141.59 m -101.11,16.58 76.504,-0.23 c -3.445,0.02 -6.234,2.82 -6.222,6.26 0.008,3.44 2.801,6.22 6.234,6.22 l 17.094,-0.05 c 0.012,0 0.015,0 0.023,0 3.434,0 6.223,2.78 6.239,6.22 0.007,3.44 -2.778,6.24 -6.223,6.25 l -29.609,0.1 c -3.407,0.05 -6.145,2.83 -6.137,6.25 0.008,3.43 2.793,6.21 6.222,6.22 l 15.165,-0.04 c 0.003,0 0.015,0 0.019,0 3.438,0 6.227,2.77 6.238,6.21 0.012,3.45 -2.773,6.25 -6.218,6.26 l -72.18,0.22 c -0.008,0 -0.012,0 -0.02,0 -3.437,0 -6.226,-2.78 -6.238,-6.22 -0.008,-3.45 2.774,-6.25 6.219,-6.26 l 2.453,-0.01 -3.215,0.01 c 3.445,-0.01 6.231,-2.81 6.219,-6.25 -0.008,-3.44 -2.797,-6.21 -6.227,-6.22 l -10.277,0.03 c -0.008,0 -0.016,0 -0.023,0 -3.438,0 -6.227,-2.78 -6.235,-6.22 -0.015,-3.45 2.774,-6.25 6.219,-6.26 l 74.746,-0.22 -70.734,0.21 c 3.441,-0.01 6.23,-2.81 6.218,-6.26 -0.007,-3.43 -2.8,-6.22 -6.234,-6.22 -0.008,0 -0.016,0 -0.02,0 m -10.769,49.94 c -3.434,0 -6.223,-2.78 -6.234,-6.22 -0.012,-3.44 2.773,-6.25 6.218,-6.25 l 0.68,-0.01 c 0.004,0 0.012,0 0.016,0 3.437,0 6.23,2.78 6.242,6.22 v 0 c 0.008,3.45 -2.774,6.25 -6.219,6.26 h -0.68 c -0.007,0 -0.011,0 -0.023,0 m -16.449,0.05 c -3.438,0 -6.227,-2.78 -6.242,-6.22 -0.008,-3.45 2.777,-6.25 6.222,-6.25 l 0.68,-0.01 c 0.008,0 0.012,0 0.019,0 3.438,0 6.227,2.78 6.239,6.22 0.008,3.45 -2.778,6.25 -6.223,6.26 h -0.68 c -0.004,0 -0.011,0 -0.015,0 m 43.273,-0.13 56.633,-0.17 c -3.445,0.01 -6.23,2.81 -6.223,6.26 0.012,3.44 2.805,6.21 6.243,6.21 0.003,0 0.011,0 0.015,0 v 0 0 l -2.18,0.01 c 3.395,0.05 6.129,2.81 6.145,6.22 0.008,3.45 -2.777,6.25 -6.223,6.26 l -5.785,0.01 c -3.433,0.03 -6.207,2.82 -6.195,6.26 0.012,3.44 2.801,6.22 6.238,6.22 0.004,0 0.012,0 0.02,0 v 0 0 h -0.418 c 3.429,0.02 6.207,2.79 6.218,6.22 0.012,3.45 -2.773,6.25 -6.218,6.26 l -41.871,0.12 c -0.008,0 -0.012,0 -0.02,0 -3.437,0 -6.226,-2.77 -6.238,-6.21 -0.008,-3.45 2.773,-6.25 6.219,-6.26 l 34.097,-0.1 -29.801,0.09 c 3.442,-0.01 6.231,-2.81 6.219,-6.26 -0.012,-3.43 -2.789,-6.21 -6.219,-6.22 l -12.128,0.04 c -0.004,0 -0.012,0 -0.016,0 -3.438,0 -6.231,-2.78 -6.238,-6.22 -0.012,-3.45 2.769,-6.25 6.214,-6.26 h 1.559 c 3.441,-0.02 6.219,-2.82 6.211,-6.26 -0.016,-3.44 -2.801,-6.22 -6.238,-6.22 -0.008,0 -0.012,0 -0.02,0 m -18.601,25.01 c -3.438,0 -6.231,-2.78 -6.239,-6.22 -0.007,-3.45 2.778,-6.25 6.223,-6.26 h 0.68 c 0.004,0 0.011,0 0.015,0 3.438,0 6.227,2.78 6.239,6.22 0.011,3.44 -2.774,6.25 -6.219,6.25 l -0.68,0.01 c -0.008,0 -0.012,0 -0.019,0 m -32.911,0.1 c -3.433,0 -6.222,-2.78 -6.23,-6.22 -0.016,-3.45 2.77,-6.25 6.215,-6.26 h 0.68 c 0.007,0 0.011,0 0.019,0 3.434,0 6.227,2.78 6.238,6.22 0.008,3.44 -2.773,6.24 -6.218,6.26 h -0.68 c -0.008,0 -0.012,0 -0.024,0 m 116.981,24.6 c -3.438,0 -6.231,-2.78 -6.242,-6.22 -0.008,-3.45 2.777,-6.25 6.222,-6.26 h 0.68 c 0.008,0 0.012,0 0.02,0 3.433,0 6.226,2.79 6.238,6.22 0.008,3.45 -2.777,6.25 -6.223,6.26 h -0.679 c -0.004,0 -0.012,0 -0.016,0 m -50.59,0.15 24.91,-0.07 c -3.445,0.01 -6.234,2.81 -6.219,6.25 0.008,3.44 2.797,6.23 6.235,6.23 0.012,0 0.015,0 0.023,0 v 0 0 l -24.914,0.07 c 3.446,-0.01 6.231,-2.81 6.223,-6.26 -0.012,-3.44 -2.801,-6.22 -6.238,-6.22 -0.008,0 -0.012,0 -0.02,0 m -0.43,24.95 c -3.437,0 -6.226,-2.78 -6.238,-6.21 -0.008,-3.45 2.774,-6.25 6.219,-6.26 l 25.883,-0.08 c 0.004,0 0.011,0 0.015,0 3.438,0 6.227,2.78 6.239,6.22 0.011,3.45 -2.774,6.25 -6.219,6.26 l -25.879,0.07 c -0.008,0 -0.012,0 -0.02,0 m -252.312,-26.35 0.016,5.22 -0.008,-2.34 -0.008,-2.88 m 162.152,27.17 -6.691,0.03 -154.332,0.46 h 0.039 l 155.828,-0.47 v 0 0 l 5.156,-0.02"
         id="path826" />
    </clipPath>
    <clipPath
       clipPathUnits="userSpaceOnUse"
       id="clipPath840">
      <path
         d="m 862.895,1791.67 v 0 l -133.247,0.4 v 0 l 133.243,-0.4 0.41,135.22 v -0.01 l -0.406,-135.21"
         id="path838" />
    </clipPath>
    <clipPath
       clipPathUnits="userSpaceOnUse"
       id="clipPath852">
      <path
         d="m 862.891,1791.67 -133.243,0.4 -27.074,9.74 -36.16,8.65 c -3.148,0.75 -6.211,1.8 -9.152,3.15 l -11.742,5.37 c -5.961,2.72 -12.344,4.41 -18.875,5.01 l -21.137,1.93 c -2.82,0.26 -5.586,0.95 -8.199,2.04 l -0.176,0.08 c -5.168,2.15 -10.68,3.37 -16.274,3.59 l -9.16,0.35 6.098,-1.87 c 5.164,-1.6 9.906,-4.33 13.867,-8.01 3.719,-3.45 8.344,-5.75 13.328,-6.65 v 0 c -4.984,0.9 -9.609,3.2 -13.328,6.65 -3.961,3.68 -8.703,6.41 -13.867,8.01 l -6.098,1.87 -13.941,4.29 c -3.055,0.94 -6.192,1.59 -9.367,1.93 l -8.621,0.94 0.269,88.72 323.262,-0.98 -0.41,-135.21"
         id="path850" />
    </clipPath>
    <clipPath
       clipPathUnits="userSpaceOnUse"
       id="clipPath910">
      <path
         d="m 539.59,1780.25 v 0 l 0.027,8.15 -0.027,-8.15"
         id="path908" />
    </clipPath>
    <linearGradient
       x1="0"
       y1="0"
       x2="1"
       y2="0"
       gradientUnits="userSpaceOnUse"
       gradientTransform="matrix(122.53542,-0.36770833,-0.36770833,-122.53542,799.45417,1679.9708)"
       spreadMethod="pad"
       id="linearGradient916">
      <stop
         style="stop-opacity:1;stop-color:#d4c4a4"
         offset="0"
         id="stop912" />
      <stop
         style="stop-opacity:1;stop-color:#b8a88b"
         offset="1"
         id="stop914" />
    </linearGradient>
    <clipPath
       clipPathUnits="userSpaceOnUse"
       id="clipPath928">
      <path
         d="m 540.676,1792.64 h -1.047 v 0 h 1.047"
         id="path926" />
    </clipPath>
    <clipPath
       clipPathUnits="userSpaceOnUse"
       id="clipPath940">
      <path
         d="m 727.434,1779.69 c -0.004,0 -0.012,0 -0.016,0 l -22.621,0.06 -165.207,0.5 0.039,12.39 h 1.047 l 154.332,-0.46 6.691,-0.03 25.778,-0.07 c 3.3,-0.03 5.964,-2.71 5.957,-6.02 l -0.004,-0.39 c -0.008,-3.31 -2.692,-5.98 -5.996,-5.98"
         id="path938" />
    </clipPath>
    <clipPath
       clipPathUnits="userSpaceOnUse"
       id="clipPath954">
      <path
         d="m 539.516,1755.47 v 0 l 0.023,6.09 -0.023,-6.09"
         id="path952" />
    </clipPath>
    <linearGradient
       x1="0"
       y1="0"
       x2="1"
       y2="0"
       gradientUnits="userSpaceOnUse"
       gradientTransform="matrix(122.53542,-0.36770833,-0.36770833,-122.53542,799.45417,1679.9708)"
       spreadMethod="pad"
       id="linearGradient960">
      <stop
         style="stop-opacity:1;stop-color:#d4c4a4"
         offset="0"
         id="stop956" />
      <stop
         style="stop-opacity:1;stop-color:#b8a88b"
         offset="1"
         id="stop958" />
    </linearGradient>
    <clipPath
       clipPathUnits="userSpaceOnUse"
       id="clipPath972">
      <path
         d="m 711.02,1754.96 c -0.008,0 -0.012,0 -0.02,0 l -34.059,0.1 -137.425,0.41 0.031,9.51 0.008,2.88 165.203,-0.49 6.281,-0.02 c 3.313,-0.01 5.988,-2.71 5.977,-6.02 v -0.39 c -0.008,-3.31 -2.692,-5.98 -5.996,-5.98 m -6.262,12.41 v 0 c -0.004,0 -0.004,0 -0.004,0 h 0.004"
         id="path970" />
    </clipPath>
    <clipPath
       clipPathUnits="userSpaceOnUse"
       id="clipPath984">
      <path
         d="m 539.441,1730.69 v 0 l 0.039,12.39 -0.035,-12.39"
         id="path982" />
    </clipPath>
    <linearGradient
       x1="0"
       y1="0"
       x2="1"
       y2="0"
       gradientUnits="userSpaceOnUse"
       gradientTransform="matrix(122.53542,-0.36770833,-0.36770833,-122.53542,799.45417,1679.9708)"
       spreadMethod="pad"
       id="linearGradient990">
      <stop
         style="stop-opacity:1;stop-color:#d4c4a4"
         offset="0"
         id="stop986" />
      <stop
         style="stop-opacity:1;stop-color:#b8a88b"
         offset="1"
         id="stop988" />
    </linearGradient>
    <clipPath
       clipPathUnits="userSpaceOnUse"
       id="clipPath1002">
      <path
         d="m 698.273,1730.21 c -0.007,0 -0.011,0 -0.019,0 l -109.527,0.33 v 0 l -49.286,0.15 0.039,12.39 137.422,-0.41 v 0 l 21.391,-0.06 c 3.312,-0.01 5.992,-2.71 5.98,-6.02 l -0.003,-0.39 c -0.008,-3.31 -2.692,-5.99 -5.997,-5.99"
         id="path1000" />
    </clipPath>
    <clipPath
       clipPathUnits="userSpaceOnUse"
       id="clipPath1014">
      <path
         d="m 539.371,1705.91 v 0 l 0.031,12.39 -0.031,-12.39"
         id="path1012" />
    </clipPath>
    <linearGradient
       x1="0"
       y1="0"
       x2="1"
       y2="0"
       gradientUnits="userSpaceOnUse"
       gradientTransform="matrix(122.53542,-0.36770833,-0.36770833,-122.53542,799.45417,1679.9708)"
       spreadMethod="pad"
       id="linearGradient1020">
      <stop
         style="stop-opacity:1;stop-color:#d4c4a4"
         offset="0"
         id="stop1016" />
      <stop
         style="stop-opacity:1;stop-color:#b8a88b"
         offset="1"
         id="stop1018" />
    </linearGradient>
    <clipPath
       clipPathUnits="userSpaceOnUse"
       id="clipPath1032">
      <path
         d="m 612.766,1705.69 c -0.004,0 -0.012,0 -0.016,0 l -73.379,0.22 0.039,12.39 49.278,-0.15 v 0 l 24.101,-0.07 c 3.313,-0.01 5.988,-2.7 5.977,-6.02 v -0.39 c -0.008,-3.3 -2.696,-5.98 -6,-5.98"
         id="path1030" />
    </clipPath>
    <clipPath
       clipPathUnits="userSpaceOnUse"
       id="clipPath1046">
      <path
         d="m 704.758,1767.37 -165.203,0.49 0.008,2.34 0.027,10.05 165.207,-0.5 c -0.008,0 -0.012,0 -0.024,0 -3.3,0 -5.984,-2.67 -5.996,-5.98 l -0.004,-0.39 c -0.007,-3.31 2.668,-6 5.981,-6.01 v 0"
         id="path1044" />
    </clipPath>
    <clipPath
       clipPathUnits="userSpaceOnUse"
       id="clipPath1058">
      <path
         d="m 704.758,1767.37 v 0 l -165.203,0.49 165.203,-0.49"
         id="path1056" />
    </clipPath>
    <clipPath
       clipPathUnits="userSpaceOnUse"
       id="clipPath1070">
      <path
         d="m 539.402,1718.3 v 0 l 0.039,12.39 -0.031,-12.39"
         id="path1068" />
    </clipPath>
    <linearGradient
       x1="0"
       y1="0"
       x2="1"
       y2="0"
       gradientUnits="userSpaceOnUse"
       gradientTransform="matrix(122.53542,-0.36770833,-0.36770833,-122.53542,799.45417,1679.9708)"
       spreadMethod="pad"
       id="linearGradient1076">
      <stop
         style="stop-opacity:1;stop-color:#d4c4a4"
         offset="0"
         id="stop1072" />
      <stop
         style="stop-opacity:1;stop-color:#b8a88b"
         offset="1"
         id="stop1074" />
    </linearGradient>
    <clipPath
       clipPathUnits="userSpaceOnUse"
       id="clipPath1088">
      <path
         d="m 588.688,1718.15 -49.286,0.15 0.043,12.39 49.282,-0.15 c -0.004,0 -0.016,0 -0.02,0 -3.305,0 -5.984,-2.67 -6,-5.98 v -0.39 c -0.008,-3.31 2.668,-6.01 5.981,-6.02 v 0"
         id="path1086" />
    </clipPath>
    <clipPath
       clipPathUnits="userSpaceOnUse"
       id="clipPath1100">
      <path
         d="m 588.727,1730.54 v 0 l -49.286,0.15 h 0.004 l 49.282,-0.15"
         id="path1098" />
    </clipPath>
    <clipPath
       clipPathUnits="userSpaceOnUse"
       id="clipPath1112">
      <path
         d="m 539.48,1743.08 v 0 l 0.036,12.39 -0.036,-12.39"
         id="path1110" />
    </clipPath>
    <linearGradient
       x1="0"
       y1="0"
       x2="1"
       y2="0"
       gradientUnits="userSpaceOnUse"
       gradientTransform="matrix(122.53542,-0.36770833,-0.36770833,-122.53542,799.45417,1679.9708)"
       spreadMethod="pad"
       id="linearGradient1118">
      <stop
         style="stop-opacity:1;stop-color:#d4c4a4"
         offset="0"
         id="stop1114" />
      <stop
         style="stop-opacity:1;stop-color:#b8a88b"
         offset="1"
         id="stop1116" />
    </linearGradient>
    <clipPath
       clipPathUnits="userSpaceOnUse"
       id="clipPath1130">
      <path
         d="m 676.902,1742.67 -137.422,0.41 0.036,12.39 137.425,-0.41 c -0.003,0 -0.011,0 -0.015,0 -3.305,0 -5.988,-2.68 -6,-5.98 v -0.39 c -0.012,-3.32 2.664,-6.01 5.976,-6.02 v 0"
         id="path1128" />
    </clipPath>
    <clipPath
       clipPathUnits="userSpaceOnUse"
       id="clipPath1142">
      <path
         d="m 817.738,1778.78 c -0.004,0 -0.011,0 -0.015,0 l -25.883,0.08 c -3.445,0.01 -6.227,2.81 -6.219,6.26 0.012,3.43 2.801,6.21 6.238,6.21 0.008,0 0.012,0 0.02,0 l 25.879,-0.07 c 3.445,-0.01 6.23,-2.81 6.219,-6.26 -0.012,-3.44 -2.801,-6.22 -6.239,-6.22"
         id="path1140" />
    </clipPath>
    <clipPath
       clipPathUnits="userSpaceOnUse"
       id="clipPath1154">
      <path
         d="m 843.559,1753.75 c -0.008,0 -0.012,0 -0.02,0 h -0.68 c -3.445,0.01 -6.23,2.81 -6.222,6.26 0.011,3.44 2.804,6.22 6.242,6.22 0.004,0 0.012,0 0.016,0 h 0.679 c 3.446,-0.01 6.231,-2.81 6.223,-6.26 -0.012,-3.43 -2.805,-6.22 -6.238,-6.22"
         id="path1152" />
    </clipPath>
    <clipPath
       clipPathUnits="userSpaceOnUse"
       id="clipPath1166">
      <path
         d="m 759.488,1729.05 c -0.004,0 -0.011,0 -0.015,0 h -0.68 c -3.445,0.01 -6.23,2.81 -6.223,6.26 0.008,3.44 2.801,6.22 6.239,6.22 0.007,0 0.011,0 0.019,0 l 0.68,-0.01 c 3.445,0 6.23,-2.81 6.219,-6.25 -0.012,-3.44 -2.801,-6.22 -6.239,-6.22"
         id="path1164" />
    </clipPath>
    <clipPath
       clipPathUnits="userSpaceOnUse"
       id="clipPath1178">
      <path
         d="m 726.582,1729.15 c -0.008,0 -0.012,0 -0.019,0 h -0.68 c -3.445,0.01 -6.231,2.81 -6.215,6.26 0.008,3.44 2.797,6.22 6.23,6.22 0.012,0 0.016,0 0.024,0 h 0.68 c 3.445,-0.02 6.226,-2.82 6.218,-6.26 -0.011,-3.44 -2.804,-6.22 -6.238,-6.22"
         id="path1176" />
    </clipPath>
    <clipPath
       clipPathUnits="userSpaceOnUse"
       id="clipPath1190">
      <path
         d="m 751.266,1704.12 c -0.004,0 -0.012,0 -0.016,0 l -0.68,0.01 c -3.445,0 -6.23,2.81 -6.218,6.25 0.011,3.44 2.8,6.22 6.234,6.22 0.012,0 0.016,0 0.023,0 h 0.68 c 3.445,-0.01 6.227,-2.81 6.219,-6.26 v 0 c -0.012,-3.44 -2.805,-6.22 -6.242,-6.22"
         id="path1188" />
    </clipPath>
    <clipPath
       clipPathUnits="userSpaceOnUse"
       id="clipPath1202">
      <path
         d="m 734.816,1704.17 c -0.007,0 -0.011,0 -0.019,0 l -0.68,0.01 c -3.445,0 -6.23,2.8 -6.222,6.25 0.015,3.44 2.804,6.22 6.242,6.22 0.004,0 0.011,0 0.015,0 h 0.68 c 3.445,-0.01 6.231,-2.81 6.223,-6.26 -0.012,-3.44 -2.801,-6.22 -6.239,-6.22"
         id="path1200" />
    </clipPath>
    <clipPath
       clipPathUnits="userSpaceOnUse"
       id="clipPath1214">
      <path
         d="m 817.199,1766.31 -24.91,0.07 c 0.008,0 0.012,0 0.02,0 3.437,0 6.226,2.78 6.238,6.22 0.008,3.45 -2.777,6.25 -6.223,6.26 l 24.914,-0.07 c -0.008,0 -0.011,0 -0.023,0 -3.438,0 -6.227,-2.79 -6.235,-6.23 -0.015,-3.44 2.774,-6.24 6.219,-6.25"
         id="path1212" />
    </clipPath>
    <clipPath
       clipPathUnits="userSpaceOnUse"
       id="clipPath1226">
      <path
         d="m 825.68,1753.8 -7.813,0.03 -34.097,0.1 c -3.446,0.01 -6.227,2.81 -6.219,6.26 0.012,3.44 2.801,6.21 6.238,6.21 0.008,0 0.012,0 0.02,0 l 41.871,-0.12 c 3.445,-0.01 6.23,-2.81 6.218,-6.26 -0.011,-3.43 -2.789,-6.2 -6.218,-6.22"
         id="path1224" />
    </clipPath>
    <clipPath
       clipPathUnits="userSpaceOnUse"
       id="clipPath1238">
      <path
         d="m 826.035,1741.32 -37.969,0.12 c 3.43,0.01 6.207,2.79 6.219,6.22 0.012,3.45 -2.777,6.25 -6.219,6.26 l 29.801,-0.09 7.813,-0.03 h 0.418 c -0.008,0 -0.016,0 -0.02,0 -3.437,0 -6.226,-2.78 -6.238,-6.22 -0.012,-3.44 2.762,-6.23 6.195,-6.26"
         id="path1236" />
    </clipPath>
    <clipPath
       clipPathUnits="userSpaceOnUse"
       id="clipPath1250">
      <path
         d="m 831.898,1728.83 -54.453,0.17 c 0.004,0 0.008,0 0.012,0 h -1.559 c -3.445,0.01 -6.226,2.81 -6.214,6.26 0.007,3.44 2.8,6.22 6.238,6.22 0.004,0 0.012,0 0.016,0 l 12.128,-0.04 37.969,-0.12 5.785,-0.01 c 3.446,-0.01 6.231,-2.81 6.223,-6.26 -0.016,-3.41 -2.75,-6.17 -6.145,-6.22"
         id="path1248" />
    </clipPath>
    <clipPath
       clipPathUnits="userSpaceOnUse"
       id="clipPath1262">
      <path
         d="m 834.043,1716.35 -56.633,0.17 c 0.008,0 0.012,0 0.02,0 3.437,0 6.222,2.78 6.238,6.22 0.008,3.44 -2.77,6.24 -6.211,6.26 -0.004,0 -0.008,0 -0.012,0 l 54.453,-0.17 2.18,-0.01 c -0.004,0 -0.012,0 -0.015,0 -3.438,0 -6.231,-2.77 -6.243,-6.21 -0.007,-3.45 2.778,-6.25 6.223,-6.26"
         id="path1260" />
    </clipPath>
    <clipPath
       clipPathUnits="userSpaceOnUse"
       id="clipPath1274">
      <path
         d="m 840.664,1703.86 c -0.004,0 -0.016,0 -0.019,0 l -15.165,0.04 c 0.004,0 0.008,0 0.016,0 0.004,0 0.012,0 0.016,0 v 0 0 l -54.594,0.16 -2.453,0.01 c -3.445,0.01 -6.227,2.81 -6.219,6.26 0.012,3.44 2.801,6.22 6.238,6.22 0.008,0 0.012,0 0.02,0 l 72.18,-0.22 c 3.445,-0.01 6.23,-2.81 6.218,-6.26 -0.011,-3.44 -2.8,-6.21 -6.238,-6.21"
         id="path1272" />
    </clipPath>
    <clipPath
       clipPathUnits="userSpaceOnUse"
       id="clipPath1286">
      <path
         d="m 825.395,1691.43 -57.7,0.17 c 3.43,0.01 6.219,2.78 6.227,6.22 0.012,3.44 -2.774,6.24 -6.219,6.25 l 3.215,-0.01 54.594,-0.16 c -0.004,0 -0.012,0 -0.016,0 -0.008,0 -0.012,0 -0.016,0 -3.429,-0.01 -6.214,-2.79 -6.222,-6.22 -0.008,-3.42 2.73,-6.2 6.137,-6.25"
         id="path1284" />
    </clipPath>
    <clipPath
       clipPathUnits="userSpaceOnUse"
       id="clipPath1298">
      <path
         d="m 854.988,1678.86 c -0.008,0 -0.011,0 -0.023,0 l -17.094,0.05 c 0.004,0 0.004,0 0.004,0 0.004,0 0.012,0 0.016,0 v 0 0 l -5.766,0.02 -74.746,0.22 c -3.445,0.01 -6.234,2.81 -6.219,6.26 0.008,3.44 2.797,6.22 6.235,6.22 0.007,0 0.015,0 0.023,0 l 10.277,-0.03 57.7,-0.17 29.609,-0.1 c 3.445,-0.01 6.23,-2.81 6.223,-6.25 -0.016,-3.44 -2.805,-6.22 -6.239,-6.22"
         id="path1296" />
    </clipPath>
    <clipPath
       clipPathUnits="userSpaceOnUse"
       id="clipPath1310">
      <path
         d="m 837.859,1666.43 -76.504,0.23 c 0.004,0 0.012,0 0.02,0 3.434,0 6.227,2.79 6.234,6.22 0.012,3.45 -2.777,6.25 -6.218,6.26 l 70.734,-0.21 5.766,-0.02 c -0.004,0 -0.012,0 -0.016,0 0,0 0,0 -0.004,0 -3.433,0 -6.226,-2.78 -6.234,-6.22 -0.012,-3.44 2.777,-6.24 6.222,-6.26"
         id="path1308" />
    </clipPath>
    <clipPath
       clipPathUnits="userSpaceOnUse"
       id="clipPath1322">
      <path
         d="m 853.25,1653.91 -29.836,0.09 -76.344,0.23 c -3.445,0.01 -6.23,2.81 -6.218,6.26 0.011,3.44 2.8,6.21 6.234,6.21 0.012,0 0.016,0 0.023,0 l 106.153,-0.31 c 3.445,-0.01 6.234,-2.82 6.222,-6.26 -0.007,-3.43 -2.8,-6.21 -6.234,-6.22"
         id="path1320" />
    </clipPath>
    <clipPath
       clipPathUnits="userSpaceOnUse"
       id="clipPath1334">
      <path
         d="m 848.262,1650.13 -90.199,0.26 v 0 l 90.199,-0.26 v 0"
         id="path1332" />
    </clipPath>
    <linearGradient
       x1="0"
       y1="0"
       x2="1"
       y2="0"
       gradientUnits="userSpaceOnUse"
       gradientTransform="matrix(122.53542,-0.36770833,-0.36770833,-122.53542,799.45417,1679.9708)"
       spreadMethod="pad"
       id="linearGradient1340">
      <stop
         style="stop-opacity:1;stop-color:#f9f5d5"
         offset="0"
         id="stop1336" />
      <stop
         style="stop-opacity:1;stop-color:#d4cfae"
         offset="1"
         id="stop1338" />
    </linearGradient>
    <clipPath
       clipPathUnits="userSpaceOnUse"
       id="clipPath1350">
      <path
         d="m 848.262,1650.13 -90.199,0.26 c 0,0 0,0 -0.004,0 l 90.203,-0.26 v 0"
         id="path1348" />
    </clipPath>
    <clipPath
       clipPathUnits="userSpaceOnUse"
       id="clipPath1362">
      <path
         d="m 848.262,1650.13 -90.203,0.26 c -0.942,2.24 -3.149,3.82 -5.731,3.82 l 71.086,-0.21 29.836,-0.09 h 0.766 c -0.004,0 -0.012,0 -0.016,0 -2.57,0 -4.785,-1.56 -5.738,-3.78"
         id="path1360" />
    </clipPath>
  </defs>
  <sodipodi:namedview
     id="namedview4"
     pagecolor="#ffffff"
     bordercolor="#000000"
     borderopacity="0.25"
     inkscape:showpageshadow="2"
     inkscape:pageopacity="0.0"
     inkscape:pagecheckerboard="0"
     inkscape:deskcolor="#d1d1d1"
     showgrid="false"
     inkscape:zoom="0.62175006"
     inkscape:cx="481.70482"
     inkscape:cy="466.42537"
     inkscape:window-width="1920"
     inkscape:window-height="1009"
     inkscape:window-x="-8"
     inkscape:window-y="-8"
     inkscape:window-maximized="1"
     inkscape:current-layer="g10">
    <inkscape:page
       x="0"
       y="0"
       id="page8"
       width="137.55858"
       height="175.27042" />
  </sodipodi:namedview>
  <g
     id="g10"
     inkscape:groupmode="layer"
     inkscape:label="Page 1"
     transform="matrix(1.3333333,0,0,-1.3333333,0,1333.3333)">
    <g
       id="g12"
       transform="scale(0.24)">
      <g
         id="g2153"
         style="display:inline"
         inkscape:label="book_closed"
         transform="translate(-1002.64,1506.5767)">
        <path
           d="m 1413.5,2604.8 c -0.11,20.24 -16.61,36.56 -36.84,36.46 l -38.82,-0.21 -0.01,2.38 -42.12,-0.23 0.01,-2.36 -254.29,-1.32 -2.38,-0.01 -2.63,-0.02 -33.78,-0.17 0.84,-162.78 0.89,-171.11 1,-193.06 293.08,1.51 0.01,-1.31 42.12,0.22 -0.01,1.32 38.82,0.19 c 20.24,0.11 36.56,16.6 36.46,36.84 l -2.35,453.66"
           style="fill:#af6364;fill-opacity:1;fill-rule:nonzero;stroke:none"
           id="path514" />
        <path
           d="m 1396.05,2130.97 -374.01,-1.93 -2.74,526.94 374.02,1.95 c 20.24,0.1 36.74,-16.23 36.84,-36.47 l 2.35,-453.65 c 0.11,-20.24 -16.21,-36.74 -36.46,-36.84"
           style="fill:#4a6071;fill-opacity:1;fill-rule:nonzero;stroke:none"
           id="path516" />
        <path
           d="m 1053.09,2656.16 v 0 l 2.63,0.02 -2.63,-0.02"
           style="fill:#eaaf8b;fill-opacity:1;fill-rule:nonzero;stroke:none"
           id="path518" />
        <path
           d="m 1055.82,2129.21 -2.73,526.95 2.63,0.02 2.73,-526.95 -2.63,-0.02"
           style="fill:#638195;fill-opacity:1;fill-rule:nonzero;stroke:none"
           id="path520" />
        <path
           d="m 1055.72,2656.18 v 0 l 2.63,0.01 -2.63,-0.01"
           style="fill:#d96944;fill-opacity:1;fill-rule:nonzero;stroke:none"
           id="path522" />
        <path
           d="m 1058.45,2129.23 v 0 l -2.73,526.95 2.63,0.01 2.73,-526.95 -2.63,-0.01"
           style="fill:#33414c;fill-opacity:1;fill-rule:nonzero;stroke:none"
           id="path524" />
        <path
           d="m 1058.45,2129.23 -2.73,526.95 v 0 l 2.73,-526.95"
           style="fill:#445873;fill-opacity:1;fill-rule:nonzero;stroke:none"
           id="path526" />
        <path
           d="m 1431.7,2324.23 -410.66,-2.13 -0.9,171.11 410.68,2.13 0.88,-171.11"
           style="fill:#a3da5f;fill-opacity:1;fill-rule:nonzero;stroke:none"
           id="path528" />
        <path
           d="m 1357.25,2129.45 -42.12,-0.22 -2.75,530.64 42.12,0.22 2.75,-530.64"
           style="fill:#344958;fill-opacity:1;fill-rule:nonzero;stroke:none"
           id="path530" />
        <path
           d="m 1207.22,2462.05 -147.42,-0.76 -0.03,6.68 147.42,0.76 0.03,-6.68"
           style="fill:#72ae34;fill-opacity:1;fill-rule:nonzero;stroke:none"
           id="path532" />
        <path
           d="m 1153.16,2443.62 -93.27,-0.48 -0.03,6.67 93.26,0.49 0.04,-6.68"
           style="fill:#72ae34;fill-opacity:1;fill-rule:nonzero;stroke:none"
           id="path534" />
        <path
           d="m 1179.61,2425.61 -119.62,-0.63 -0.04,6.68 119.63,0.63 0.03,-6.68"
           style="fill:#72ae34;fill-opacity:1;fill-rule:nonzero;stroke:none"
           id="path536" />
      </g>
    </g>
  </g>
</svg>
