<?xml version="1.0" encoding="UTF-8" standalone="no"?>
<!-- Created with Inkscape (http://www.inkscape.org/) -->

<svg
   version="1.1"
   id="svg2"
   width="113.18379"
   height="103.39851"
   viewBox="0 0 113.1838 103.39851"
   sodipodi:docname="cup.svg"
   inkscape:version="1.2 (dc2aedaf03, 2022-05-15)"
   xmlns:inkscape="http://www.inkscape.org/namespaces/inkscape"
   xmlns:sodipodi="http://sodipodi.sourceforge.net/DTD/sodipodi-0.dtd"
   xmlns="http://www.w3.org/2000/svg"
   xmlns:svg="http://www.w3.org/2000/svg">
  <defs
     id="defs6">
    <clipPath
       clipPathUnits="userSpaceOnUse"
       id="clipPath48">
      <path
         d="m 171.309,1180.93 h 3824.81 V 3248.38 H 171.309 Z"
         id="path46" />
    </clipPath>
    <clipPath
       clipPathUnits="userSpaceOnUse"
       id="clipPath574">
      <path
         d="m 3535.79,1963.04 c 0.15,1.64 -0.31,3.28 -1.3,4.59 l 0.41,0.62 c 0.61,0.93 0.95,1.95 1.05,2.98 2.39,0.51 4.68,1.58 6.67,3.2 l 0.52,0.43 c 2.59,2.1 4.84,4.6 6.68,7.39 l 1.35,2.07 c 1.6,-2.14 1.82,-5.18 0.24,-7.59 l -1.75,-2.67 c -1.84,-2.79 -4.09,-5.29 -6.68,-7.39 l -0.52,-0.43 c -1.98,-1.62 -4.28,-2.69 -6.67,-3.2"
         id="path572" />
    </clipPath>
    <clipPath
       clipPathUnits="userSpaceOnUse"
       id="clipPath736">
      <path
         d="m 890.316,1399.57 -378.488,1.14 1.684,560.24 378.488,-1.13 -1.684,-560.25 m -42.054,250.56 14.211,-0.05 0.757,252.81 0.071,23.99 -323.262,0.98 -0.004,-1.13 v 0 l -0.269,-88.21 -0.016,-5.31 -0.086,-29.2 -0.047,-15.61 -0.027,-8.15 v 0 0 l -0.02,-6.99 -0.031,-11.7 -0.023,-6.09 v 0 0 l -0.036,-12.39 -0.039,-12.39 h 0.004 -0.004 l -0.039,-12.39 -0.031,-12.39 -0.168,-54.86 218.86,-0.66 v 0 l 90.199,-0.26 v 0"
         id="path734" />
    </clipPath>
    <linearGradient
       x1="0"
       y1="0"
       x2="1"
       y2="0"
       gradientUnits="userSpaceOnUse"
       gradientTransform="matrix(122.53542,-0.36770833,-0.36770833,-122.53542,799.45417,1679.9708)"
       spreadMethod="pad"
       id="linearGradient742">
      <stop
         style="stop-opacity:1;stop-color:#f9f9f9"
         offset="0"
         id="stop738" />
      <stop
         style="stop-opacity:1;stop-color:#cac8c7"
         offset="1"
         id="stop740" />
    </linearGradient>
    <clipPath
       clipPathUnits="userSpaceOnUse"
       id="clipPath816">
      <path
         d="m 862.473,1650.08 -14.211,0.05 v 0 l 14.203,-0.05 0.426,141.59 h 0.004 l -0.422,-141.59 m -104.41,0.31 -217.887,0.66 217.883,-0.66 c 0.004,0 0.004,0 0.004,0 m -217.348,142.25 h -0.039 -1.047 1.086"
         id="path814" />
    </clipPath>
    <clipPath
       clipPathUnits="userSpaceOnUse"
       id="clipPath828">
      <path
         d="m 862.465,1650.08 -14.203,0.05 c 0.953,2.22 3.168,3.78 5.738,3.78 0.004,0 0.012,0 0.016,0 v 0 0 h -0.766 c 3.434,0.01 6.227,2.79 6.234,6.22 0.012,3.44 -2.777,6.25 -6.222,6.26 l -106.153,0.31 c -0.007,0 -0.011,0 -0.023,0 -3.434,0 -6.223,-2.77 -6.234,-6.21 -0.012,-3.45 2.773,-6.25 6.218,-6.26 l 76.344,-0.23 -71.086,0.21 c 2.582,0 4.789,-1.58 5.731,-3.82 l -217.883,0.66 h -0.973 l 0.168,54.86 73.379,-0.22 c 0.004,0 0.012,0 0.016,0 3.304,0 5.992,2.68 6,5.98 v 0.39 c 0.011,3.32 -2.664,6.01 -5.977,6.02 l -24.101,0.07 c -3.313,0.01 -5.989,2.71 -5.981,6.02 v 0.39 c 0.016,3.31 2.695,5.98 6,5.98 0.004,0 0.016,0 0.02,0 v 0 l 109.527,-0.33 c 0.008,0 0.012,0 0.019,0 3.305,0 5.989,2.68 5.997,5.99 l 0.003,0.39 c 0.012,3.31 -2.668,6.01 -5.98,6.02 l -21.391,0.06 c -3.312,0.01 -5.988,2.7 -5.976,6.02 v 0.39 c 0.012,3.3 2.695,5.98 6,5.98 0.004,0 0.012,0 0.015,0 v 0 0 l -137.425,0.41 v 0 l 137.425,-0.41 34.059,-0.1 c 0.008,0 0.012,0 0.02,0 3.304,0 5.988,2.67 5.996,5.98 v 0.39 c 0.011,3.31 -2.664,6.01 -5.977,6.02 l -6.281,0.02 v 0 c -3.317,0.01 -5.992,2.7 -5.985,6.01 l 0.004,0.39 c 0.012,3.31 2.696,5.98 5.996,5.98 0.012,0 0.016,0 0.024,0 v 0 0 l -165.207,0.5 v 0 l 165.207,-0.5 22.621,-0.06 c 0.004,0 0.012,0 0.016,0 3.304,0 5.988,2.67 5.996,5.98 l 0.004,0.39 c 0.007,3.31 -2.657,5.99 -5.957,6.02 l 1.832,-0.01 h 0.339 v 0 l 133.247,-0.4 -0.43,-141.59 m -101.11,16.58 76.504,-0.23 c -3.445,0.02 -6.234,2.82 -6.222,6.26 0.008,3.44 2.801,6.22 6.234,6.22 l 17.094,-0.05 c 0.012,0 0.015,0 0.023,0 3.434,0 6.223,2.78 6.239,6.22 0.007,3.44 -2.778,6.24 -6.223,6.25 l -29.609,0.1 c -3.407,0.05 -6.145,2.83 -6.137,6.25 0.008,3.43 2.793,6.21 6.222,6.22 l 15.165,-0.04 c 0.003,0 0.015,0 0.019,0 3.438,0 6.227,2.77 6.238,6.21 0.012,3.45 -2.773,6.25 -6.218,6.26 l -72.18,0.22 c -0.008,0 -0.012,0 -0.02,0 -3.437,0 -6.226,-2.78 -6.238,-6.22 -0.008,-3.45 2.774,-6.25 6.219,-6.26 l 2.453,-0.01 -3.215,0.01 c 3.445,-0.01 6.231,-2.81 6.219,-6.25 -0.008,-3.44 -2.797,-6.21 -6.227,-6.22 l -10.277,0.03 c -0.008,0 -0.016,0 -0.023,0 -3.438,0 -6.227,-2.78 -6.235,-6.22 -0.015,-3.45 2.774,-6.25 6.219,-6.26 l 74.746,-0.22 -70.734,0.21 c 3.441,-0.01 6.23,-2.81 6.218,-6.26 -0.007,-3.43 -2.8,-6.22 -6.234,-6.22 -0.008,0 -0.016,0 -0.02,0 m -10.769,49.94 c -3.434,0 -6.223,-2.78 -6.234,-6.22 -0.012,-3.44 2.773,-6.25 6.218,-6.25 l 0.68,-0.01 c 0.004,0 0.012,0 0.016,0 3.437,0 6.23,2.78 6.242,6.22 v 0 c 0.008,3.45 -2.774,6.25 -6.219,6.26 h -0.68 c -0.007,0 -0.011,0 -0.023,0 m -16.449,0.05 c -3.438,0 -6.227,-2.78 -6.242,-6.22 -0.008,-3.45 2.777,-6.25 6.222,-6.25 l 0.68,-0.01 c 0.008,0 0.012,0 0.019,0 3.438,0 6.227,2.78 6.239,6.22 0.008,3.45 -2.778,6.25 -6.223,6.26 h -0.68 c -0.004,0 -0.011,0 -0.015,0 m 43.273,-0.13 56.633,-0.17 c -3.445,0.01 -6.23,2.81 -6.223,6.26 0.012,3.44 2.805,6.21 6.243,6.21 0.003,0 0.011,0 0.015,0 v 0 0 l -2.18,0.01 c 3.395,0.05 6.129,2.81 6.145,6.22 0.008,3.45 -2.777,6.25 -6.223,6.26 l -5.785,0.01 c -3.433,0.03 -6.207,2.82 -6.195,6.26 0.012,3.44 2.801,6.22 6.238,6.22 0.004,0 0.012,0 0.02,0 v 0 0 h -0.418 c 3.429,0.02 6.207,2.79 6.218,6.22 0.012,3.45 -2.773,6.25 -6.218,6.26 l -41.871,0.12 c -0.008,0 -0.012,0 -0.02,0 -3.437,0 -6.226,-2.77 -6.238,-6.21 -0.008,-3.45 2.773,-6.25 6.219,-6.26 l 34.097,-0.1 -29.801,0.09 c 3.442,-0.01 6.231,-2.81 6.219,-6.26 -0.012,-3.43 -2.789,-6.21 -6.219,-6.22 l -12.128,0.04 c -0.004,0 -0.012,0 -0.016,0 -3.438,0 -6.231,-2.78 -6.238,-6.22 -0.012,-3.45 2.769,-6.25 6.214,-6.26 h 1.559 c 3.441,-0.02 6.219,-2.82 6.211,-6.26 -0.016,-3.44 -2.801,-6.22 -6.238,-6.22 -0.008,0 -0.012,0 -0.02,0 m -18.601,25.01 c -3.438,0 -6.231,-2.78 -6.239,-6.22 -0.007,-3.45 2.778,-6.25 6.223,-6.26 h 0.68 c 0.004,0 0.011,0 0.015,0 3.438,0 6.227,2.78 6.239,6.22 0.011,3.44 -2.774,6.25 -6.219,6.25 l -0.68,0.01 c -0.008,0 -0.012,0 -0.019,0 m -32.911,0.1 c -3.433,0 -6.222,-2.78 -6.23,-6.22 -0.016,-3.45 2.77,-6.25 6.215,-6.26 h 0.68 c 0.007,0 0.011,0 0.019,0 3.434,0 6.227,2.78 6.238,6.22 0.008,3.44 -2.773,6.24 -6.218,6.26 h -0.68 c -0.008,0 -0.012,0 -0.024,0 m 116.981,24.6 c -3.438,0 -6.231,-2.78 -6.242,-6.22 -0.008,-3.45 2.777,-6.25 6.222,-6.26 h 0.68 c 0.008,0 0.012,0 0.02,0 3.433,0 6.226,2.79 6.238,6.22 0.008,3.45 -2.777,6.25 -6.223,6.26 h -0.679 c -0.004,0 -0.012,0 -0.016,0 m -50.59,0.15 24.91,-0.07 c -3.445,0.01 -6.234,2.81 -6.219,6.25 0.008,3.44 2.797,6.23 6.235,6.23 0.012,0 0.015,0 0.023,0 v 0 0 l -24.914,0.07 c 3.446,-0.01 6.231,-2.81 6.223,-6.26 -0.012,-3.44 -2.801,-6.22 -6.238,-6.22 -0.008,0 -0.012,0 -0.02,0 m -0.43,24.95 c -3.437,0 -6.226,-2.78 -6.238,-6.21 -0.008,-3.45 2.774,-6.25 6.219,-6.26 l 25.883,-0.08 c 0.004,0 0.011,0 0.015,0 3.438,0 6.227,2.78 6.239,6.22 0.011,3.45 -2.774,6.25 -6.219,6.26 l -25.879,0.07 c -0.008,0 -0.012,0 -0.02,0 m -252.312,-26.35 0.016,5.22 -0.008,-2.34 -0.008,-2.88 m 162.152,27.17 -6.691,0.03 -154.332,0.46 h 0.039 l 155.828,-0.47 v 0 0 l 5.156,-0.02"
         id="path826" />
    </clipPath>
    <clipPath
       clipPathUnits="userSpaceOnUse"
       id="clipPath840">
      <path
         d="m 862.895,1791.67 v 0 l -133.247,0.4 v 0 l 133.243,-0.4 0.41,135.22 v -0.01 l -0.406,-135.21"
         id="path838" />
    </clipPath>
    <clipPath
       clipPathUnits="userSpaceOnUse"
       id="clipPath852">
      <path
         d="m 862.891,1791.67 -133.243,0.4 -27.074,9.74 -36.16,8.65 c -3.148,0.75 -6.211,1.8 -9.152,3.15 l -11.742,5.37 c -5.961,2.72 -12.344,4.41 -18.875,5.01 l -21.137,1.93 c -2.82,0.26 -5.586,0.95 -8.199,2.04 l -0.176,0.08 c -5.168,2.15 -10.68,3.37 -16.274,3.59 l -9.16,0.35 6.098,-1.87 c 5.164,-1.6 9.906,-4.33 13.867,-8.01 3.719,-3.45 8.344,-5.75 13.328,-6.65 v 0 c -4.984,0.9 -9.609,3.2 -13.328,6.65 -3.961,3.68 -8.703,6.41 -13.867,8.01 l -6.098,1.87 -13.941,4.29 c -3.055,0.94 -6.192,1.59 -9.367,1.93 l -8.621,0.94 0.269,88.72 323.262,-0.98 -0.41,-135.21"
         id="path850" />
    </clipPath>
    <clipPath
       clipPathUnits="userSpaceOnUse"
       id="clipPath910">
      <path
         d="m 539.59,1780.25 v 0 l 0.027,8.15 -0.027,-8.15"
         id="path908" />
    </clipPath>
    <linearGradient
       x1="0"
       y1="0"
       x2="1"
       y2="0"
       gradientUnits="userSpaceOnUse"
       gradientTransform="matrix(122.53542,-0.36770833,-0.36770833,-122.53542,799.45417,1679.9708)"
       spreadMethod="pad"
       id="linearGradient916">
      <stop
         style="stop-opacity:1;stop-color:#d4c4a4"
         offset="0"
         id="stop912" />
      <stop
         style="stop-opacity:1;stop-color:#b8a88b"
         offset="1"
         id="stop914" />
    </linearGradient>
    <clipPath
       clipPathUnits="userSpaceOnUse"
       id="clipPath928">
      <path
         d="m 540.676,1792.64 h -1.047 v 0 h 1.047"
         id="path926" />
    </clipPath>
    <clipPath
       clipPathUnits="userSpaceOnUse"
       id="clipPath940">
      <path
         d="m 727.434,1779.69 c -0.004,0 -0.012,0 -0.016,0 l -22.621,0.06 -165.207,0.5 0.039,12.39 h 1.047 l 154.332,-0.46 6.691,-0.03 25.778,-0.07 c 3.3,-0.03 5.964,-2.71 5.957,-6.02 l -0.004,-0.39 c -0.008,-3.31 -2.692,-5.98 -5.996,-5.98"
         id="path938" />
    </clipPath>
    <clipPath
       clipPathUnits="userSpaceOnUse"
       id="clipPath954">
      <path
         d="m 539.516,1755.47 v 0 l 0.023,6.09 -0.023,-6.09"
         id="path952" />
    </clipPath>
    <linearGradient
       x1="0"
       y1="0"
       x2="1"
       y2="0"
       gradientUnits="userSpaceOnUse"
       gradientTransform="matrix(122.53542,-0.36770833,-0.36770833,-122.53542,799.45417,1679.9708)"
       spreadMethod="pad"
       id="linearGradient960">
      <stop
         style="stop-opacity:1;stop-color:#d4c4a4"
         offset="0"
         id="stop956" />
      <stop
         style="stop-opacity:1;stop-color:#b8a88b"
         offset="1"
         id="stop958" />
    </linearGradient>
    <clipPath
       clipPathUnits="userSpaceOnUse"
       id="clipPath972">
      <path
         d="m 711.02,1754.96 c -0.008,0 -0.012,0 -0.02,0 l -34.059,0.1 -137.425,0.41 0.031,9.51 0.008,2.88 165.203,-0.49 6.281,-0.02 c 3.313,-0.01 5.988,-2.71 5.977,-6.02 v -0.39 c -0.008,-3.31 -2.692,-5.98 -5.996,-5.98 m -6.262,12.41 v 0 c -0.004,0 -0.004,0 -0.004,0 h 0.004"
         id="path970" />
    </clipPath>
    <clipPath
       clipPathUnits="userSpaceOnUse"
       id="clipPath984">
      <path
         d="m 539.441,1730.69 v 0 l 0.039,12.39 -0.035,-12.39"
         id="path982" />
    </clipPath>
    <linearGradient
       x1="0"
       y1="0"
       x2="1"
       y2="0"
       gradientUnits="userSpaceOnUse"
       gradientTransform="matrix(122.53542,-0.36770833,-0.36770833,-122.53542,799.45417,1679.9708)"
       spreadMethod="pad"
       id="linearGradient990">
      <stop
         style="stop-opacity:1;stop-color:#d4c4a4"
         offset="0"
         id="stop986" />
      <stop
         style="stop-opacity:1;stop-color:#b8a88b"
         offset="1"
         id="stop988" />
    </linearGradient>
    <clipPath
       clipPathUnits="userSpaceOnUse"
       id="clipPath1002">
      <path
         d="m 698.273,1730.21 c -0.007,0 -0.011,0 -0.019,0 l -109.527,0.33 v 0 l -49.286,0.15 0.039,12.39 137.422,-0.41 v 0 l 21.391,-0.06 c 3.312,-0.01 5.992,-2.71 5.98,-6.02 l -0.003,-0.39 c -0.008,-3.31 -2.692,-5.99 -5.997,-5.99"
         id="path1000" />
    </clipPath>
    <clipPath
       clipPathUnits="userSpaceOnUse"
       id="clipPath1014">
      <path
         d="m 539.371,1705.91 v 0 l 0.031,12.39 -0.031,-12.39"
         id="path1012" />
    </clipPath>
    <linearGradient
       x1="0"
       y1="0"
       x2="1"
       y2="0"
       gradientUnits="userSpaceOnUse"
       gradientTransform="matrix(122.53542,-0.36770833,-0.36770833,-122.53542,799.45417,1679.9708)"
       spreadMethod="pad"
       id="linearGradient1020">
      <stop
         style="stop-opacity:1;stop-color:#d4c4a4"
         offset="0"
         id="stop1016" />
      <stop
         style="stop-opacity:1;stop-color:#b8a88b"
         offset="1"
         id="stop1018" />
    </linearGradient>
    <clipPath
       clipPathUnits="userSpaceOnUse"
       id="clipPath1032">
      <path
         d="m 612.766,1705.69 c -0.004,0 -0.012,0 -0.016,0 l -73.379,0.22 0.039,12.39 49.278,-0.15 v 0 l 24.101,-0.07 c 3.313,-0.01 5.988,-2.7 5.977,-6.02 v -0.39 c -0.008,-3.3 -2.696,-5.98 -6,-5.98"
         id="path1030" />
    </clipPath>
    <clipPath
       clipPathUnits="userSpaceOnUse"
       id="clipPath1046">
      <path
         d="m 704.758,1767.37 -165.203,0.49 0.008,2.34 0.027,10.05 165.207,-0.5 c -0.008,0 -0.012,0 -0.024,0 -3.3,0 -5.984,-2.67 -5.996,-5.98 l -0.004,-0.39 c -0.007,-3.31 2.668,-6 5.981,-6.01 v 0"
         id="path1044" />
    </clipPath>
    <clipPath
       clipPathUnits="userSpaceOnUse"
       id="clipPath1058">
      <path
         d="m 704.758,1767.37 v 0 l -165.203,0.49 165.203,-0.49"
         id="path1056" />
    </clipPath>
    <clipPath
       clipPathUnits="userSpaceOnUse"
       id="clipPath1070">
      <path
         d="m 539.402,1718.3 v 0 l 0.039,12.39 -0.031,-12.39"
         id="path1068" />
    </clipPath>
    <linearGradient
       x1="0"
       y1="0"
       x2="1"
       y2="0"
       gradientUnits="userSpaceOnUse"
       gradientTransform="matrix(122.53542,-0.36770833,-0.36770833,-122.53542,799.45417,1679.9708)"
       spreadMethod="pad"
       id="linearGradient1076">
      <stop
         style="stop-opacity:1;stop-color:#d4c4a4"
         offset="0"
         id="stop1072" />
      <stop
         style="stop-opacity:1;stop-color:#b8a88b"
         offset="1"
         id="stop1074" />
    </linearGradient>
    <clipPath
       clipPathUnits="userSpaceOnUse"
       id="clipPath1088">
      <path
         d="m 588.688,1718.15 -49.286,0.15 0.043,12.39 49.282,-0.15 c -0.004,0 -0.016,0 -0.02,0 -3.305,0 -5.984,-2.67 -6,-5.98 v -0.39 c -0.008,-3.31 2.668,-6.01 5.981,-6.02 v 0"
         id="path1086" />
    </clipPath>
    <clipPath
       clipPathUnits="userSpaceOnUse"
       id="clipPath1100">
      <path
         d="m 588.727,1730.54 v 0 l -49.286,0.15 h 0.004 l 49.282,-0.15"
         id="path1098" />
    </clipPath>
    <clipPath
       clipPathUnits="userSpaceOnUse"
       id="clipPath1112">
      <path
         d="m 539.48,1743.08 v 0 l 0.036,12.39 -0.036,-12.39"
         id="path1110" />
    </clipPath>
    <linearGradient
       x1="0"
       y1="0"
       x2="1"
       y2="0"
       gradientUnits="userSpaceOnUse"
       gradientTransform="matrix(122.53542,-0.36770833,-0.36770833,-122.53542,799.45417,1679.9708)"
       spreadMethod="pad"
       id="linearGradient1118">
      <stop
         style="stop-opacity:1;stop-color:#d4c4a4"
         offset="0"
         id="stop1114" />
      <stop
         style="stop-opacity:1;stop-color:#b8a88b"
         offset="1"
         id="stop1116" />
    </linearGradient>
    <clipPath
       clipPathUnits="userSpaceOnUse"
       id="clipPath1130">
      <path
         d="m 676.902,1742.67 -137.422,0.41 0.036,12.39 137.425,-0.41 c -0.003,0 -0.011,0 -0.015,0 -3.305,0 -5.988,-2.68 -6,-5.98 v -0.39 c -0.012,-3.32 2.664,-6.01 5.976,-6.02 v 0"
         id="path1128" />
    </clipPath>
    <clipPath
       clipPathUnits="userSpaceOnUse"
       id="clipPath1142">
      <path
         d="m 817.738,1778.78 c -0.004,0 -0.011,0 -0.015,0 l -25.883,0.08 c -3.445,0.01 -6.227,2.81 -6.219,6.26 0.012,3.43 2.801,6.21 6.238,6.21 0.008,0 0.012,0 0.02,0 l 25.879,-0.07 c 3.445,-0.01 6.23,-2.81 6.219,-6.26 -0.012,-3.44 -2.801,-6.22 -6.239,-6.22"
         id="path1140" />
    </clipPath>
    <clipPath
       clipPathUnits="userSpaceOnUse"
       id="clipPath1154">
      <path
         d="m 843.559,1753.75 c -0.008,0 -0.012,0 -0.02,0 h -0.68 c -3.445,0.01 -6.23,2.81 -6.222,6.26 0.011,3.44 2.804,6.22 6.242,6.22 0.004,0 0.012,0 0.016,0 h 0.679 c 3.446,-0.01 6.231,-2.81 6.223,-6.26 -0.012,-3.43 -2.805,-6.22 -6.238,-6.22"
         id="path1152" />
    </clipPath>
    <clipPath
       clipPathUnits="userSpaceOnUse"
       id="clipPath1166">
      <path
         d="m 759.488,1729.05 c -0.004,0 -0.011,0 -0.015,0 h -0.68 c -3.445,0.01 -6.23,2.81 -6.223,6.26 0.008,3.44 2.801,6.22 6.239,6.22 0.007,0 0.011,0 0.019,0 l 0.68,-0.01 c 3.445,0 6.23,-2.81 6.219,-6.25 -0.012,-3.44 -2.801,-6.22 -6.239,-6.22"
         id="path1164" />
    </clipPath>
    <clipPath
       clipPathUnits="userSpaceOnUse"
       id="clipPath1178">
      <path
         d="m 726.582,1729.15 c -0.008,0 -0.012,0 -0.019,0 h -0.68 c -3.445,0.01 -6.231,2.81 -6.215,6.26 0.008,3.44 2.797,6.22 6.23,6.22 0.012,0 0.016,0 0.024,0 h 0.68 c 3.445,-0.02 6.226,-2.82 6.218,-6.26 -0.011,-3.44 -2.804,-6.22 -6.238,-6.22"
         id="path1176" />
    </clipPath>
    <clipPath
       clipPathUnits="userSpaceOnUse"
       id="clipPath1190">
      <path
         d="m 751.266,1704.12 c -0.004,0 -0.012,0 -0.016,0 l -0.68,0.01 c -3.445,0 -6.23,2.81 -6.218,6.25 0.011,3.44 2.8,6.22 6.234,6.22 0.012,0 0.016,0 0.023,0 h 0.68 c 3.445,-0.01 6.227,-2.81 6.219,-6.26 v 0 c -0.012,-3.44 -2.805,-6.22 -6.242,-6.22"
         id="path1188" />
    </clipPath>
    <clipPath
       clipPathUnits="userSpaceOnUse"
       id="clipPath1202">
      <path
         d="m 734.816,1704.17 c -0.007,0 -0.011,0 -0.019,0 l -0.68,0.01 c -3.445,0 -6.23,2.8 -6.222,6.25 0.015,3.44 2.804,6.22 6.242,6.22 0.004,0 0.011,0 0.015,0 h 0.68 c 3.445,-0.01 6.231,-2.81 6.223,-6.26 -0.012,-3.44 -2.801,-6.22 -6.239,-6.22"
         id="path1200" />
    </clipPath>
    <clipPath
       clipPathUnits="userSpaceOnUse"
       id="clipPath1214">
      <path
         d="m 817.199,1766.31 -24.91,0.07 c 0.008,0 0.012,0 0.02,0 3.437,0 6.226,2.78 6.238,6.22 0.008,3.45 -2.777,6.25 -6.223,6.26 l 24.914,-0.07 c -0.008,0 -0.011,0 -0.023,0 -3.438,0 -6.227,-2.79 -6.235,-6.23 -0.015,-3.44 2.774,-6.24 6.219,-6.25"
         id="path1212" />
    </clipPath>
    <clipPath
       clipPathUnits="userSpaceOnUse"
       id="clipPath1226">
      <path
         d="m 825.68,1753.8 -7.813,0.03 -34.097,0.1 c -3.446,0.01 -6.227,2.81 -6.219,6.26 0.012,3.44 2.801,6.21 6.238,6.21 0.008,0 0.012,0 0.02,0 l 41.871,-0.12 c 3.445,-0.01 6.23,-2.81 6.218,-6.26 -0.011,-3.43 -2.789,-6.2 -6.218,-6.22"
         id="path1224" />
    </clipPath>
    <clipPath
       clipPathUnits="userSpaceOnUse"
       id="clipPath1238">
      <path
         d="m 826.035,1741.32 -37.969,0.12 c 3.43,0.01 6.207,2.79 6.219,6.22 0.012,3.45 -2.777,6.25 -6.219,6.26 l 29.801,-0.09 7.813,-0.03 h 0.418 c -0.008,0 -0.016,0 -0.02,0 -3.437,0 -6.226,-2.78 -6.238,-6.22 -0.012,-3.44 2.762,-6.23 6.195,-6.26"
         id="path1236" />
    </clipPath>
    <clipPath
       clipPathUnits="userSpaceOnUse"
       id="clipPath1250">
      <path
         d="m 831.898,1728.83 -54.453,0.17 c 0.004,0 0.008,0 0.012,0 h -1.559 c -3.445,0.01 -6.226,2.81 -6.214,6.26 0.007,3.44 2.8,6.22 6.238,6.22 0.004,0 0.012,0 0.016,0 l 12.128,-0.04 37.969,-0.12 5.785,-0.01 c 3.446,-0.01 6.231,-2.81 6.223,-6.26 -0.016,-3.41 -2.75,-6.17 -6.145,-6.22"
         id="path1248" />
    </clipPath>
    <clipPath
       clipPathUnits="userSpaceOnUse"
       id="clipPath1262">
      <path
         d="m 834.043,1716.35 -56.633,0.17 c 0.008,0 0.012,0 0.02,0 3.437,0 6.222,2.78 6.238,6.22 0.008,3.44 -2.77,6.24 -6.211,6.26 -0.004,0 -0.008,0 -0.012,0 l 54.453,-0.17 2.18,-0.01 c -0.004,0 -0.012,0 -0.015,0 -3.438,0 -6.231,-2.77 -6.243,-6.21 -0.007,-3.45 2.778,-6.25 6.223,-6.26"
         id="path1260" />
    </clipPath>
    <clipPath
       clipPathUnits="userSpaceOnUse"
       id="clipPath1274">
      <path
         d="m 840.664,1703.86 c -0.004,0 -0.016,0 -0.019,0 l -15.165,0.04 c 0.004,0 0.008,0 0.016,0 0.004,0 0.012,0 0.016,0 v 0 0 l -54.594,0.16 -2.453,0.01 c -3.445,0.01 -6.227,2.81 -6.219,6.26 0.012,3.44 2.801,6.22 6.238,6.22 0.008,0 0.012,0 0.02,0 l 72.18,-0.22 c 3.445,-0.01 6.23,-2.81 6.218,-6.26 -0.011,-3.44 -2.8,-6.21 -6.238,-6.21"
         id="path1272" />
    </clipPath>
    <clipPath
       clipPathUnits="userSpaceOnUse"
       id="clipPath1286">
      <path
         d="m 825.395,1691.43 -57.7,0.17 c 3.43,0.01 6.219,2.78 6.227,6.22 0.012,3.44 -2.774,6.24 -6.219,6.25 l 3.215,-0.01 54.594,-0.16 c -0.004,0 -0.012,0 -0.016,0 -0.008,0 -0.012,0 -0.016,0 -3.429,-0.01 -6.214,-2.79 -6.222,-6.22 -0.008,-3.42 2.73,-6.2 6.137,-6.25"
         id="path1284" />
    </clipPath>
    <clipPath
       clipPathUnits="userSpaceOnUse"
       id="clipPath1298">
      <path
         d="m 854.988,1678.86 c -0.008,0 -0.011,0 -0.023,0 l -17.094,0.05 c 0.004,0 0.004,0 0.004,0 0.004,0 0.012,0 0.016,0 v 0 0 l -5.766,0.02 -74.746,0.22 c -3.445,0.01 -6.234,2.81 -6.219,6.26 0.008,3.44 2.797,6.22 6.235,6.22 0.007,0 0.015,0 0.023,0 l 10.277,-0.03 57.7,-0.17 29.609,-0.1 c 3.445,-0.01 6.23,-2.81 6.223,-6.25 -0.016,-3.44 -2.805,-6.22 -6.239,-6.22"
         id="path1296" />
    </clipPath>
    <clipPath
       clipPathUnits="userSpaceOnUse"
       id="clipPath1310">
      <path
         d="m 837.859,1666.43 -76.504,0.23 c 0.004,0 0.012,0 0.02,0 3.434,0 6.227,2.79 6.234,6.22 0.012,3.45 -2.777,6.25 -6.218,6.26 l 70.734,-0.21 5.766,-0.02 c -0.004,0 -0.012,0 -0.016,0 0,0 0,0 -0.004,0 -3.433,0 -6.226,-2.78 -6.234,-6.22 -0.012,-3.44 2.777,-6.24 6.222,-6.26"
         id="path1308" />
    </clipPath>
    <clipPath
       clipPathUnits="userSpaceOnUse"
       id="clipPath1322">
      <path
         d="m 853.25,1653.91 -29.836,0.09 -76.344,0.23 c -3.445,0.01 -6.23,2.81 -6.218,6.26 0.011,3.44 2.8,6.21 6.234,6.21 0.012,0 0.016,0 0.023,0 l 106.153,-0.31 c 3.445,-0.01 6.234,-2.82 6.222,-6.26 -0.007,-3.43 -2.8,-6.21 -6.234,-6.22"
         id="path1320" />
    </clipPath>
    <clipPath
       clipPathUnits="userSpaceOnUse"
       id="clipPath1334">
      <path
         d="m 848.262,1650.13 -90.199,0.26 v 0 l 90.199,-0.26 v 0"
         id="path1332" />
    </clipPath>
    <linearGradient
       x1="0"
       y1="0"
       x2="1"
       y2="0"
       gradientUnits="userSpaceOnUse"
       gradientTransform="matrix(122.53542,-0.36770833,-0.36770833,-122.53542,799.45417,1679.9708)"
       spreadMethod="pad"
       id="linearGradient1340">
      <stop
         style="stop-opacity:1;stop-color:#f9f5d5"
         offset="0"
         id="stop1336" />
      <stop
         style="stop-opacity:1;stop-color:#d4cfae"
         offset="1"
         id="stop1338" />
    </linearGradient>
    <clipPath
       clipPathUnits="userSpaceOnUse"
       id="clipPath1350">
      <path
         d="m 848.262,1650.13 -90.199,0.26 c 0,0 0,0 -0.004,0 l 90.203,-0.26 v 0"
         id="path1348" />
    </clipPath>
    <clipPath
       clipPathUnits="userSpaceOnUse"
       id="clipPath1362">
      <path
         d="m 848.262,1650.13 -90.203,0.26 c -0.942,2.24 -3.149,3.82 -5.731,3.82 l 71.086,-0.21 29.836,-0.09 h 0.766 c -0.004,0 -0.012,0 -0.016,0 -2.57,0 -4.785,-1.56 -5.738,-3.78"
         id="path1360" />
    </clipPath>
  </defs>
  <sodipodi:namedview
     id="namedview4"
     pagecolor="#ffffff"
     bordercolor="#000000"
     borderopacity="0.25"
     inkscape:showpageshadow="2"
     inkscape:pageopacity="0.0"
     inkscape:pagecheckerboard="0"
     inkscape:deskcolor="#d1d1d1"
     showgrid="false"
     inkscape:zoom="0.62175006"
     inkscape:cx="481.70482"
     inkscape:cy="466.42537"
     inkscape:window-width="1920"
     inkscape:window-height="1009"
     inkscape:window-x="-8"
     inkscape:window-y="-8"
     inkscape:window-maximized="1"
     inkscape:current-layer="g10">
    <inkscape:page
       x="0"
       y="0"
       id="page8"
       width="113.1838"
       height="103.39851" />
  </sodipodi:namedview>
  <g
     id="g10"
     inkscape:groupmode="layer"
     inkscape:label="Page 1"
     transform="matrix(1.3333333,0,0,-1.3333333,-8.839807e-6,1333.3333)">
    <g
       id="g12"
       transform="scale(0.24)">
      <g
         id="g1822"
         style="display:inline"
         inkscape:label="cup"
         transform="translate(-3010.5101,2458.8062)">
        <path
           d="m 3211.46,1690.98 c -79.39,4.35 -147.27,-56.48 -151.62,-135.87 -1.53,-27.89 5.02,-54.35 17.55,-77.15 l -0.06,-0.04 -59.19,-53.04 c -9.43,-8.45 -10.23,-23.08 -1.78,-32.51 8.45,-9.43 23.08,-10.23 32.51,-1.78 l 56.92,51.01 c 23.76,-22.02 55.04,-36.2 89.91,-38.11 79.39,-4.35 147.28,56.48 151.62,135.87 4.36,79.39 -56.47,147.27 -135.86,151.62"
           style="fill:#af6364;fill-opacity:1;fill-rule:nonzero;stroke:none"
           id="path1368" />
        <path
           d="m 3212.37,1420.16 c -79.39,4.35 -140.22,72.23 -135.86,151.62 4.35,79.39 72.23,140.22 151.62,135.86 79.38,-4.34 140.21,-72.23 135.86,-151.62 -4.35,-79.38 -72.23,-140.21 -151.62,-135.86"
           style="fill:#fffefe;fill-opacity:1;fill-rule:nonzero;stroke:none"
           id="path1370" />
        <path
           d="m 3034.81,1441.55 59.19,53.03 c 9.43,8.46 24.05,7.65 32.5,-1.78 8.46,-9.43 7.65,-24.06 -1.77,-32.51 l -59.19,-53.04 c -9.43,-8.45 -24.06,-7.64 -32.52,1.79 -8.45,9.42 -7.64,24.06 1.79,32.51"
           style="fill:#fffefe;fill-opacity:1;fill-rule:nonzero;stroke:none"
           id="path1372" />
        <path
           d="m 3103.27,1570.31 c 3.54,64.5 58.89,114.1 123.39,110.57 64.5,-3.54 114.09,-58.89 110.56,-123.39 -3.54,-64.49 -58.88,-114.1 -123.38,-110.56 -64.5,3.53 -114.1,58.89 -110.57,123.38"
           style="fill:#372216;fill-opacity:1;fill-rule:nonzero;stroke:none"
           id="path1374" />
        <path
           d="m 3158.36,1497.79 c -19.14,14.63 -48.33,36.16 -45.19,58.77 3.13,22.61 32.68,24.79 46.91,42.04 14.24,17.26 -8.54,34.64 5.28,44.32 13.82,9.69 45.95,23.16 65.34,25.84 19.37,2.69 14.87,-16.95 37.07,-27.65 22.19,-10.72 41.84,-6.47 41.29,-25.95 -0.37,-13.13 2.66,-34.2 4.68,-46.55 1.21,-7.41 1.12,-14.96 -0.38,-22.31 -2.71,-13.37 -8.26,-33.67 -17.89,-40.55 -8.18,-5.83 -17.67,-3.93 -27.93,-2.02 -8.34,1.56 -17.18,3.1 -26.25,0.51 -20.25,-5.8 -14.45,-38.38 -35.22,-36.3 -20.76,2.09 -28.59,15.2 -47.71,29.85 m -7.92,-10.15 c 0.13,2.32 2.11,4.09 4.43,3.97 2.32,-0.13 4.09,-2.11 3.97,-4.43 -0.13,-2.32 -2.11,-4.1 -4.43,-3.97 -2.32,0.13 -4.1,2.11 -3.97,4.43 m -32.08,114.7 c 0.25,4.79 4.34,8.45 9.13,8.18 4.78,-0.26 8.45,-4.34 8.19,-9.13 -0.27,-4.78 -4.36,-8.45 -9.14,-8.19 -4.79,0.26 -8.45,4.36 -8.18,9.14 m 18.55,21.64 c 0.22,3.87 3.52,6.84 7.39,6.63 3.88,-0.22 6.84,-3.53 6.63,-7.4 -0.22,-3.87 -3.52,-6.83 -7.39,-6.62 -3.87,0.21 -6.84,3.52 -6.63,7.39 m 129.94,34.96 c -0.13,-2.29 -2.08,-4.04 -4.37,-3.92 -2.29,0.13 -4.04,2.09 -3.91,4.37 0.12,2.29 2.07,4.04 4.36,3.92 2.29,-0.13 4.04,-2.08 3.92,-4.37 m 21.56,-9.69 c -0.22,-3.97 -3.61,-7.01 -7.58,-6.79 -3.97,0.22 -7.01,3.61 -6.79,7.58 0.22,3.96 3.61,7 7.58,6.78 3.97,-0.21 7.01,-3.61 6.79,-7.57 m 43.05,-75.08 c -0.19,-3.48 -3.17,-6.15 -6.64,-5.96 -3.48,0.19 -6.15,3.17 -5.96,6.65 0.19,3.47 3.16,6.14 6.64,5.95 3.48,-0.19 6.14,-3.17 5.96,-6.64 m -86.76,-78.99 c -0.11,-2.13 -1.93,-3.76 -4.06,-3.64 -2.13,0.11 -3.76,1.93 -3.65,4.06 0.12,2.13 1.94,3.76 4.07,3.65 2.13,-0.12 3.76,-1.94 3.64,-4.07 m 35.16,-14.5 c -0.32,-5.75 -5.23,-10.15 -10.98,-9.83 -5.75,0.31 -10.15,5.22 -9.84,10.97 0.32,5.75 5.23,10.16 10.98,9.84 5.75,-0.31 10.15,-5.23 9.84,-10.98 m -41.12,-11.37 c -0.1,-1.75 -1.6,-3.09 -3.35,-3 -1.76,0.1 -3.1,1.6 -3,3.35 0.09,1.75 1.59,3.1 3.35,3 1.75,-0.1 3.09,-1.59 3,-3.35 m 98.48,88.18 c 3.53,64.5 -46.06,119.85 -110.56,123.39 -64.5,3.53 -119.85,-46.07 -123.39,-110.57 -3.53,-64.49 46.07,-119.85 110.57,-123.38 64.5,-3.54 119.84,46.07 123.38,110.56"
           style="fill:#603017;fill-opacity:1;fill-rule:nonzero;stroke:none"
           id="path1376" />
        <path
           d="m 3326.08,1568.27 c -1.5,3.75 -3.18,7.42 -5.04,11.02 1.1,0.95 2.55,1.53 4.11,1.53 0.12,0 0.24,0 0.35,-0.01 1.18,-0.06 2.25,-0.44 3.16,-1.05 0.27,-3.41 0.37,-6.84 0.3,-10.28 -0.82,-0.62 -1.81,-1.05 -2.88,-1.21 m -16.13,28.58 c -7.91,10.45 -17.63,19.82 -29.05,27.59 -21.3,14.5 -45.53,21.44 -69.58,21.44 -17.34,0 -34.6,-3.61 -50.57,-10.62 0.23,2.89 1.48,5.47 4.61,7.66 13.82,9.69 45.95,23.16 65.34,25.84 1.21,0.17 2.34,0.25 3.38,0.25 15.54,0 12.89,-17.87 33.69,-27.9 22.19,-10.72 41.84,-6.47 41.29,-25.95 -0.15,-5.21 0.24,-11.66 0.89,-18.31 m -172.8,24.87 c -0.19,0.72 -0.28,1.48 -0.24,2.26 0.21,3.74 3.3,6.64 7,6.64 0.13,0 0.27,-0.01 0.39,-0.01 1.56,-0.09 2.97,-0.68 4.08,-1.6 -3.84,-2.21 -7.59,-4.65 -11.23,-7.29 m 144.08,20.73 c -0.13,0 -0.27,0 -0.4,0.01 -3.97,0.22 -7.01,3.61 -6.79,7.58 0.21,3.83 3.39,6.8 7.18,6.8 0.13,0 0.26,-0.01 0.4,-0.02 3.97,-0.21 7.01,-3.61 6.79,-7.57 -0.21,-3.84 -3.39,-6.8 -7.18,-6.8 m -18.52,12.57 c -0.08,0 -0.15,0 -0.23,0 -2.29,0.13 -4.04,2.09 -3.91,4.37 0.12,2.22 1.95,3.92 4.13,3.92 0.08,0 0.16,0 0.23,0 2.29,-0.13 4.04,-2.08 3.92,-4.37 -0.12,-2.21 -1.96,-3.92 -4.14,-3.92"
           style="fill:#342015;fill-opacity:1;fill-rule:nonzero;stroke:none"
           id="path1378" />
        <path
           d="m 3328.54,1561.63 c -0.75,2.23 -1.58,4.45 -2.46,6.64 1.07,0.16 2.06,0.59 2.88,1.21 -0.04,-2.61 -0.19,-5.24 -0.42,-7.85 m -7.5,17.66 c -3.18,6.11 -6.89,11.99 -11.09,17.56 -0.65,6.65 -1.04,13.1 -0.89,18.31 0.55,19.48 -19.1,15.23 -41.29,25.95 -20.8,10.03 -18.15,27.9 -33.69,27.9 -1.04,0 -2.17,-0.08 -3.38,-0.25 -19.39,-2.68 -51.52,-16.15 -65.34,-25.84 -3.13,-2.19 -4.38,-4.77 -4.61,-7.66 -4.22,-1.85 -8.35,-3.93 -12.37,-6.25 -1.11,0.92 -2.52,1.51 -4.08,1.6 -0.12,0 -0.26,0.01 -0.39,0.01 -3.7,0 -6.79,-2.9 -7,-6.64 -0.04,-0.78 0.05,-1.54 0.24,-2.26 -4.69,-3.42 -9.19,-7.18 -13.44,-11.3 2.84,7.25 6.5,14.29 11.06,20.99 20.56,30.2 54.03,46.47 88.07,46.47 20.61,0 41.41,-5.96 59.7,-18.4 27.72,-18.87 43.69,-48.63 46.12,-79.72 -0.91,0.61 -1.98,0.99 -3.16,1.05 -0.11,0.01 -0.23,0.01 -0.35,0.01 -1.56,0 -3.01,-0.58 -4.11,-1.53 m -39.82,77.55 c -3.79,0 -6.97,-2.97 -7.18,-6.8 -0.22,-3.97 2.82,-7.36 6.79,-7.58 0.13,-0.01 0.27,-0.01 0.4,-0.01 3.79,0 6.97,2.96 7.18,6.8 0.22,3.96 -2.82,7.36 -6.79,7.57 -0.14,0.01 -0.27,0.02 -0.4,0.02 m -18.52,6.47 c -2.18,0 -4.01,-1.7 -4.13,-3.92 -0.13,-2.28 1.62,-4.24 3.91,-4.37 0.08,0 0.15,0 0.23,0 2.18,0 4.02,1.71 4.14,3.92 0.12,2.29 -1.63,4.24 -3.92,4.37 -0.07,0 -0.15,0 -0.23,0"
           style="fill:#502916;fill-opacity:1;fill-rule:nonzero;stroke:none"
           id="path1380" />
      </g>
    </g>
  </g>
</svg>
