<?xml version="1.0" encoding="UTF-8" standalone="no"?>
<!-- Created with Inkscape (http://www.inkscape.org/) -->

<svg
   version="1.1"
   id="svg2"
   width="251.10019"
   height="320.8826"
   viewBox="0 0 251.1002 320.88261"
   sodipodi:docname="lamp.svg"
   inkscape:version="1.2 (dc2aedaf03, 2022-05-15)"
   xmlns:inkscape="http://www.inkscape.org/namespaces/inkscape"
   xmlns:sodipodi="http://sodipodi.sourceforge.net/DTD/sodipodi-0.dtd"
   xmlns="http://www.w3.org/2000/svg"
   xmlns:svg="http://www.w3.org/2000/svg">
  <defs
     id="defs6">
    <clipPath
       clipPathUnits="userSpaceOnUse"
       id="clipPath48">
      <path
         d="m 171.309,1180.93 h 3824.81 V 3248.38 H 171.309 Z"
         id="path46" />
    </clipPath>
    <clipPath
       clipPathUnits="userSpaceOnUse"
       id="clipPath574">
      <path
         d="m 3535.79,1963.04 c 0.15,1.64 -0.31,3.28 -1.3,4.59 l 0.41,0.62 c 0.61,0.93 0.95,1.95 1.05,2.98 2.39,0.51 4.68,1.58 6.67,3.2 l 0.52,0.43 c 2.59,2.1 4.84,4.6 6.68,7.39 l 1.35,2.07 c 1.6,-2.14 1.82,-5.18 0.24,-7.59 l -1.75,-2.67 c -1.84,-2.79 -4.09,-5.29 -6.68,-7.39 l -0.52,-0.43 c -1.98,-1.62 -4.28,-2.69 -6.67,-3.2"
         id="path572" />
    </clipPath>
    <clipPath
       clipPathUnits="userSpaceOnUse"
       id="clipPath736">
      <path
         d="m 890.316,1399.57 -378.488,1.14 1.684,560.24 378.488,-1.13 -1.684,-560.25 m -42.054,250.56 14.211,-0.05 0.757,252.81 0.071,23.99 -323.262,0.98 -0.004,-1.13 v 0 l -0.269,-88.21 -0.016,-5.31 -0.086,-29.2 -0.047,-15.61 -0.027,-8.15 v 0 0 l -0.02,-6.99 -0.031,-11.7 -0.023,-6.09 v 0 0 l -0.036,-12.39 -0.039,-12.39 h 0.004 -0.004 l -0.039,-12.39 -0.031,-12.39 -0.168,-54.86 218.86,-0.66 v 0 l 90.199,-0.26 v 0"
         id="path734" />
    </clipPath>
    <linearGradient
       x1="0"
       y1="0"
       x2="1"
       y2="0"
       gradientUnits="userSpaceOnUse"
       gradientTransform="matrix(122.53542,-0.36770833,-0.36770833,-122.53542,799.45417,1679.9708)"
       spreadMethod="pad"
       id="linearGradient742">
      <stop
         style="stop-opacity:1;stop-color:#f9f9f9"
         offset="0"
         id="stop738" />
      <stop
         style="stop-opacity:1;stop-color:#cac8c7"
         offset="1"
         id="stop740" />
    </linearGradient>
    <clipPath
       clipPathUnits="userSpaceOnUse"
       id="clipPath816">
      <path
         d="m 862.473,1650.08 -14.211,0.05 v 0 l 14.203,-0.05 0.426,141.59 h 0.004 l -0.422,-141.59 m -104.41,0.31 -217.887,0.66 217.883,-0.66 c 0.004,0 0.004,0 0.004,0 m -217.348,142.25 h -0.039 -1.047 1.086"
         id="path814" />
    </clipPath>
    <clipPath
       clipPathUnits="userSpaceOnUse"
       id="clipPath828">
      <path
         d="m 862.465,1650.08 -14.203,0.05 c 0.953,2.22 3.168,3.78 5.738,3.78 0.004,0 0.012,0 0.016,0 v 0 0 h -0.766 c 3.434,0.01 6.227,2.79 6.234,6.22 0.012,3.44 -2.777,6.25 -6.222,6.26 l -106.153,0.31 c -0.007,0 -0.011,0 -0.023,0 -3.434,0 -6.223,-2.77 -6.234,-6.21 -0.012,-3.45 2.773,-6.25 6.218,-6.26 l 76.344,-0.23 -71.086,0.21 c 2.582,0 4.789,-1.58 5.731,-3.82 l -217.883,0.66 h -0.973 l 0.168,54.86 73.379,-0.22 c 0.004,0 0.012,0 0.016,0 3.304,0 5.992,2.68 6,5.98 v 0.39 c 0.011,3.32 -2.664,6.01 -5.977,6.02 l -24.101,0.07 c -3.313,0.01 -5.989,2.71 -5.981,6.02 v 0.39 c 0.016,3.31 2.695,5.98 6,5.98 0.004,0 0.016,0 0.02,0 v 0 l 109.527,-0.33 c 0.008,0 0.012,0 0.019,0 3.305,0 5.989,2.68 5.997,5.99 l 0.003,0.39 c 0.012,3.31 -2.668,6.01 -5.98,6.02 l -21.391,0.06 c -3.312,0.01 -5.988,2.7 -5.976,6.02 v 0.39 c 0.012,3.3 2.695,5.98 6,5.98 0.004,0 0.012,0 0.015,0 v 0 0 l -137.425,0.41 v 0 l 137.425,-0.41 34.059,-0.1 c 0.008,0 0.012,0 0.02,0 3.304,0 5.988,2.67 5.996,5.98 v 0.39 c 0.011,3.31 -2.664,6.01 -5.977,6.02 l -6.281,0.02 v 0 c -3.317,0.01 -5.992,2.7 -5.985,6.01 l 0.004,0.39 c 0.012,3.31 2.696,5.98 5.996,5.98 0.012,0 0.016,0 0.024,0 v 0 0 l -165.207,0.5 v 0 l 165.207,-0.5 22.621,-0.06 c 0.004,0 0.012,0 0.016,0 3.304,0 5.988,2.67 5.996,5.98 l 0.004,0.39 c 0.007,3.31 -2.657,5.99 -5.957,6.02 l 1.832,-0.01 h 0.339 v 0 l 133.247,-0.4 -0.43,-141.59 m -101.11,16.58 76.504,-0.23 c -3.445,0.02 -6.234,2.82 -6.222,6.26 0.008,3.44 2.801,6.22 6.234,6.22 l 17.094,-0.05 c 0.012,0 0.015,0 0.023,0 3.434,0 6.223,2.78 6.239,6.22 0.007,3.44 -2.778,6.24 -6.223,6.25 l -29.609,0.1 c -3.407,0.05 -6.145,2.83 -6.137,6.25 0.008,3.43 2.793,6.21 6.222,6.22 l 15.165,-0.04 c 0.003,0 0.015,0 0.019,0 3.438,0 6.227,2.77 6.238,6.21 0.012,3.45 -2.773,6.25 -6.218,6.26 l -72.18,0.22 c -0.008,0 -0.012,0 -0.02,0 -3.437,0 -6.226,-2.78 -6.238,-6.22 -0.008,-3.45 2.774,-6.25 6.219,-6.26 l 2.453,-0.01 -3.215,0.01 c 3.445,-0.01 6.231,-2.81 6.219,-6.25 -0.008,-3.44 -2.797,-6.21 -6.227,-6.22 l -10.277,0.03 c -0.008,0 -0.016,0 -0.023,0 -3.438,0 -6.227,-2.78 -6.235,-6.22 -0.015,-3.45 2.774,-6.25 6.219,-6.26 l 74.746,-0.22 -70.734,0.21 c 3.441,-0.01 6.23,-2.81 6.218,-6.26 -0.007,-3.43 -2.8,-6.22 -6.234,-6.22 -0.008,0 -0.016,0 -0.02,0 m -10.769,49.94 c -3.434,0 -6.223,-2.78 -6.234,-6.22 -0.012,-3.44 2.773,-6.25 6.218,-6.25 l 0.68,-0.01 c 0.004,0 0.012,0 0.016,0 3.437,0 6.23,2.78 6.242,6.22 v 0 c 0.008,3.45 -2.774,6.25 -6.219,6.26 h -0.68 c -0.007,0 -0.011,0 -0.023,0 m -16.449,0.05 c -3.438,0 -6.227,-2.78 -6.242,-6.22 -0.008,-3.45 2.777,-6.25 6.222,-6.25 l 0.68,-0.01 c 0.008,0 0.012,0 0.019,0 3.438,0 6.227,2.78 6.239,6.22 0.008,3.45 -2.778,6.25 -6.223,6.26 h -0.68 c -0.004,0 -0.011,0 -0.015,0 m 43.273,-0.13 56.633,-0.17 c -3.445,0.01 -6.23,2.81 -6.223,6.26 0.012,3.44 2.805,6.21 6.243,6.21 0.003,0 0.011,0 0.015,0 v 0 0 l -2.18,0.01 c 3.395,0.05 6.129,2.81 6.145,6.22 0.008,3.45 -2.777,6.25 -6.223,6.26 l -5.785,0.01 c -3.433,0.03 -6.207,2.82 -6.195,6.26 0.012,3.44 2.801,6.22 6.238,6.22 0.004,0 0.012,0 0.02,0 v 0 0 h -0.418 c 3.429,0.02 6.207,2.79 6.218,6.22 0.012,3.45 -2.773,6.25 -6.218,6.26 l -41.871,0.12 c -0.008,0 -0.012,0 -0.02,0 -3.437,0 -6.226,-2.77 -6.238,-6.21 -0.008,-3.45 2.773,-6.25 6.219,-6.26 l 34.097,-0.1 -29.801,0.09 c 3.442,-0.01 6.231,-2.81 6.219,-6.26 -0.012,-3.43 -2.789,-6.21 -6.219,-6.22 l -12.128,0.04 c -0.004,0 -0.012,0 -0.016,0 -3.438,0 -6.231,-2.78 -6.238,-6.22 -0.012,-3.45 2.769,-6.25 6.214,-6.26 h 1.559 c 3.441,-0.02 6.219,-2.82 6.211,-6.26 -0.016,-3.44 -2.801,-6.22 -6.238,-6.22 -0.008,0 -0.012,0 -0.02,0 m -18.601,25.01 c -3.438,0 -6.231,-2.78 -6.239,-6.22 -0.007,-3.45 2.778,-6.25 6.223,-6.26 h 0.68 c 0.004,0 0.011,0 0.015,0 3.438,0 6.227,2.78 6.239,6.22 0.011,3.44 -2.774,6.25 -6.219,6.25 l -0.68,0.01 c -0.008,0 -0.012,0 -0.019,0 m -32.911,0.1 c -3.433,0 -6.222,-2.78 -6.23,-6.22 -0.016,-3.45 2.77,-6.25 6.215,-6.26 h 0.68 c 0.007,0 0.011,0 0.019,0 3.434,0 6.227,2.78 6.238,6.22 0.008,3.44 -2.773,6.24 -6.218,6.26 h -0.68 c -0.008,0 -0.012,0 -0.024,0 m 116.981,24.6 c -3.438,0 -6.231,-2.78 -6.242,-6.22 -0.008,-3.45 2.777,-6.25 6.222,-6.26 h 0.68 c 0.008,0 0.012,0 0.02,0 3.433,0 6.226,2.79 6.238,6.22 0.008,3.45 -2.777,6.25 -6.223,6.26 h -0.679 c -0.004,0 -0.012,0 -0.016,0 m -50.59,0.15 24.91,-0.07 c -3.445,0.01 -6.234,2.81 -6.219,6.25 0.008,3.44 2.797,6.23 6.235,6.23 0.012,0 0.015,0 0.023,0 v 0 0 l -24.914,0.07 c 3.446,-0.01 6.231,-2.81 6.223,-6.26 -0.012,-3.44 -2.801,-6.22 -6.238,-6.22 -0.008,0 -0.012,0 -0.02,0 m -0.43,24.95 c -3.437,0 -6.226,-2.78 -6.238,-6.21 -0.008,-3.45 2.774,-6.25 6.219,-6.26 l 25.883,-0.08 c 0.004,0 0.011,0 0.015,0 3.438,0 6.227,2.78 6.239,6.22 0.011,3.45 -2.774,6.25 -6.219,6.26 l -25.879,0.07 c -0.008,0 -0.012,0 -0.02,0 m -252.312,-26.35 0.016,5.22 -0.008,-2.34 -0.008,-2.88 m 162.152,27.17 -6.691,0.03 -154.332,0.46 h 0.039 l 155.828,-0.47 v 0 0 l 5.156,-0.02"
         id="path826" />
    </clipPath>
    <clipPath
       clipPathUnits="userSpaceOnUse"
       id="clipPath840">
      <path
         d="m 862.895,1791.67 v 0 l -133.247,0.4 v 0 l 133.243,-0.4 0.41,135.22 v -0.01 l -0.406,-135.21"
         id="path838" />
    </clipPath>
    <clipPath
       clipPathUnits="userSpaceOnUse"
       id="clipPath852">
      <path
         d="m 862.891,1791.67 -133.243,0.4 -27.074,9.74 -36.16,8.65 c -3.148,0.75 -6.211,1.8 -9.152,3.15 l -11.742,5.37 c -5.961,2.72 -12.344,4.41 -18.875,5.01 l -21.137,1.93 c -2.82,0.26 -5.586,0.95 -8.199,2.04 l -0.176,0.08 c -5.168,2.15 -10.68,3.37 -16.274,3.59 l -9.16,0.35 6.098,-1.87 c 5.164,-1.6 9.906,-4.33 13.867,-8.01 3.719,-3.45 8.344,-5.75 13.328,-6.65 v 0 c -4.984,0.9 -9.609,3.2 -13.328,6.65 -3.961,3.68 -8.703,6.41 -13.867,8.01 l -6.098,1.87 -13.941,4.29 c -3.055,0.94 -6.192,1.59 -9.367,1.93 l -8.621,0.94 0.269,88.72 323.262,-0.98 -0.41,-135.21"
         id="path850" />
    </clipPath>
    <clipPath
       clipPathUnits="userSpaceOnUse"
       id="clipPath910">
      <path
         d="m 539.59,1780.25 v 0 l 0.027,8.15 -0.027,-8.15"
         id="path908" />
    </clipPath>
    <linearGradient
       x1="0"
       y1="0"
       x2="1"
       y2="0"
       gradientUnits="userSpaceOnUse"
       gradientTransform="matrix(122.53542,-0.36770833,-0.36770833,-122.53542,799.45417,1679.9708)"
       spreadMethod="pad"
       id="linearGradient916">
      <stop
         style="stop-opacity:1;stop-color:#d4c4a4"
         offset="0"
         id="stop912" />
      <stop
         style="stop-opacity:1;stop-color:#b8a88b"
         offset="1"
         id="stop914" />
    </linearGradient>
    <clipPath
       clipPathUnits="userSpaceOnUse"
       id="clipPath928">
      <path
         d="m 540.676,1792.64 h -1.047 v 0 h 1.047"
         id="path926" />
    </clipPath>
    <clipPath
       clipPathUnits="userSpaceOnUse"
       id="clipPath940">
      <path
         d="m 727.434,1779.69 c -0.004,0 -0.012,0 -0.016,0 l -22.621,0.06 -165.207,0.5 0.039,12.39 h 1.047 l 154.332,-0.46 6.691,-0.03 25.778,-0.07 c 3.3,-0.03 5.964,-2.71 5.957,-6.02 l -0.004,-0.39 c -0.008,-3.31 -2.692,-5.98 -5.996,-5.98"
         id="path938" />
    </clipPath>
    <clipPath
       clipPathUnits="userSpaceOnUse"
       id="clipPath954">
      <path
         d="m 539.516,1755.47 v 0 l 0.023,6.09 -0.023,-6.09"
         id="path952" />
    </clipPath>
    <linearGradient
       x1="0"
       y1="0"
       x2="1"
       y2="0"
       gradientUnits="userSpaceOnUse"
       gradientTransform="matrix(122.53542,-0.36770833,-0.36770833,-122.53542,799.45417,1679.9708)"
       spreadMethod="pad"
       id="linearGradient960">
      <stop
         style="stop-opacity:1;stop-color:#d4c4a4"
         offset="0"
         id="stop956" />
      <stop
         style="stop-opacity:1;stop-color:#b8a88b"
         offset="1"
         id="stop958" />
    </linearGradient>
    <clipPath
       clipPathUnits="userSpaceOnUse"
       id="clipPath972">
      <path
         d="m 711.02,1754.96 c -0.008,0 -0.012,0 -0.02,0 l -34.059,0.1 -137.425,0.41 0.031,9.51 0.008,2.88 165.203,-0.49 6.281,-0.02 c 3.313,-0.01 5.988,-2.71 5.977,-6.02 v -0.39 c -0.008,-3.31 -2.692,-5.98 -5.996,-5.98 m -6.262,12.41 v 0 c -0.004,0 -0.004,0 -0.004,0 h 0.004"
         id="path970" />
    </clipPath>
    <clipPath
       clipPathUnits="userSpaceOnUse"
       id="clipPath984">
      <path
         d="m 539.441,1730.69 v 0 l 0.039,12.39 -0.035,-12.39"
         id="path982" />
    </clipPath>
    <linearGradient
       x1="0"
       y1="0"
       x2="1"
       y2="0"
       gradientUnits="userSpaceOnUse"
       gradientTransform="matrix(122.53542,-0.36770833,-0.36770833,-122.53542,799.45417,1679.9708)"
       spreadMethod="pad"
       id="linearGradient990">
      <stop
         style="stop-opacity:1;stop-color:#d4c4a4"
         offset="0"
         id="stop986" />
      <stop
         style="stop-opacity:1;stop-color:#b8a88b"
         offset="1"
         id="stop988" />
    </linearGradient>
    <clipPath
       clipPathUnits="userSpaceOnUse"
       id="clipPath1002">
      <path
         d="m 698.273,1730.21 c -0.007,0 -0.011,0 -0.019,0 l -109.527,0.33 v 0 l -49.286,0.15 0.039,12.39 137.422,-0.41 v 0 l 21.391,-0.06 c 3.312,-0.01 5.992,-2.71 5.98,-6.02 l -0.003,-0.39 c -0.008,-3.31 -2.692,-5.99 -5.997,-5.99"
         id="path1000" />
    </clipPath>
    <clipPath
       clipPathUnits="userSpaceOnUse"
       id="clipPath1014">
      <path
         d="m 539.371,1705.91 v 0 l 0.031,12.39 -0.031,-12.39"
         id="path1012" />
    </clipPath>
    <linearGradient
       x1="0"
       y1="0"
       x2="1"
       y2="0"
       gradientUnits="userSpaceOnUse"
       gradientTransform="matrix(122.53542,-0.36770833,-0.36770833,-122.53542,799.45417,1679.9708)"
       spreadMethod="pad"
       id="linearGradient1020">
      <stop
         style="stop-opacity:1;stop-color:#d4c4a4"
         offset="0"
         id="stop1016" />
      <stop
         style="stop-opacity:1;stop-color:#b8a88b"
         offset="1"
         id="stop1018" />
    </linearGradient>
    <clipPath
       clipPathUnits="userSpaceOnUse"
       id="clipPath1032">
      <path
         d="m 612.766,1705.69 c -0.004,0 -0.012,0 -0.016,0 l -73.379,0.22 0.039,12.39 49.278,-0.15 v 0 l 24.101,-0.07 c 3.313,-0.01 5.988,-2.7 5.977,-6.02 v -0.39 c -0.008,-3.3 -2.696,-5.98 -6,-5.98"
         id="path1030" />
    </clipPath>
    <clipPath
       clipPathUnits="userSpaceOnUse"
       id="clipPath1046">
      <path
         d="m 704.758,1767.37 -165.203,0.49 0.008,2.34 0.027,10.05 165.207,-0.5 c -0.008,0 -0.012,0 -0.024,0 -3.3,0 -5.984,-2.67 -5.996,-5.98 l -0.004,-0.39 c -0.007,-3.31 2.668,-6 5.981,-6.01 v 0"
         id="path1044" />
    </clipPath>
    <clipPath
       clipPathUnits="userSpaceOnUse"
       id="clipPath1058">
      <path
         d="m 704.758,1767.37 v 0 l -165.203,0.49 165.203,-0.49"
         id="path1056" />
    </clipPath>
    <clipPath
       clipPathUnits="userSpaceOnUse"
       id="clipPath1070">
      <path
         d="m 539.402,1718.3 v 0 l 0.039,12.39 -0.031,-12.39"
         id="path1068" />
    </clipPath>
    <linearGradient
       x1="0"
       y1="0"
       x2="1"
       y2="0"
       gradientUnits="userSpaceOnUse"
       gradientTransform="matrix(122.53542,-0.36770833,-0.36770833,-122.53542,799.45417,1679.9708)"
       spreadMethod="pad"
       id="linearGradient1076">
      <stop
         style="stop-opacity:1;stop-color:#d4c4a4"
         offset="0"
         id="stop1072" />
      <stop
         style="stop-opacity:1;stop-color:#b8a88b"
         offset="1"
         id="stop1074" />
    </linearGradient>
    <clipPath
       clipPathUnits="userSpaceOnUse"
       id="clipPath1088">
      <path
         d="m 588.688,1718.15 -49.286,0.15 0.043,12.39 49.282,-0.15 c -0.004,0 -0.016,0 -0.02,0 -3.305,0 -5.984,-2.67 -6,-5.98 v -0.39 c -0.008,-3.31 2.668,-6.01 5.981,-6.02 v 0"
         id="path1086" />
    </clipPath>
    <clipPath
       clipPathUnits="userSpaceOnUse"
       id="clipPath1100">
      <path
         d="m 588.727,1730.54 v 0 l -49.286,0.15 h 0.004 l 49.282,-0.15"
         id="path1098" />
    </clipPath>
    <clipPath
       clipPathUnits="userSpaceOnUse"
       id="clipPath1112">
      <path
         d="m 539.48,1743.08 v 0 l 0.036,12.39 -0.036,-12.39"
         id="path1110" />
    </clipPath>
    <linearGradient
       x1="0"
       y1="0"
       x2="1"
       y2="0"
       gradientUnits="userSpaceOnUse"
       gradientTransform="matrix(122.53542,-0.36770833,-0.36770833,-122.53542,799.45417,1679.9708)"
       spreadMethod="pad"
       id="linearGradient1118">
      <stop
         style="stop-opacity:1;stop-color:#d4c4a4"
         offset="0"
         id="stop1114" />
      <stop
         style="stop-opacity:1;stop-color:#b8a88b"
         offset="1"
         id="stop1116" />
    </linearGradient>
    <clipPath
       clipPathUnits="userSpaceOnUse"
       id="clipPath1130">
      <path
         d="m 676.902,1742.67 -137.422,0.41 0.036,12.39 137.425,-0.41 c -0.003,0 -0.011,0 -0.015,0 -3.305,0 -5.988,-2.68 -6,-5.98 v -0.39 c -0.012,-3.32 2.664,-6.01 5.976,-6.02 v 0"
         id="path1128" />
    </clipPath>
    <clipPath
       clipPathUnits="userSpaceOnUse"
       id="clipPath1142">
      <path
         d="m 817.738,1778.78 c -0.004,0 -0.011,0 -0.015,0 l -25.883,0.08 c -3.445,0.01 -6.227,2.81 -6.219,6.26 0.012,3.43 2.801,6.21 6.238,6.21 0.008,0 0.012,0 0.02,0 l 25.879,-0.07 c 3.445,-0.01 6.23,-2.81 6.219,-6.26 -0.012,-3.44 -2.801,-6.22 -6.239,-6.22"
         id="path1140" />
    </clipPath>
    <clipPath
       clipPathUnits="userSpaceOnUse"
       id="clipPath1154">
      <path
         d="m 843.559,1753.75 c -0.008,0 -0.012,0 -0.02,0 h -0.68 c -3.445,0.01 -6.23,2.81 -6.222,6.26 0.011,3.44 2.804,6.22 6.242,6.22 0.004,0 0.012,0 0.016,0 h 0.679 c 3.446,-0.01 6.231,-2.81 6.223,-6.26 -0.012,-3.43 -2.805,-6.22 -6.238,-6.22"
         id="path1152" />
    </clipPath>
    <clipPath
       clipPathUnits="userSpaceOnUse"
       id="clipPath1166">
      <path
         d="m 759.488,1729.05 c -0.004,0 -0.011,0 -0.015,0 h -0.68 c -3.445,0.01 -6.23,2.81 -6.223,6.26 0.008,3.44 2.801,6.22 6.239,6.22 0.007,0 0.011,0 0.019,0 l 0.68,-0.01 c 3.445,0 6.23,-2.81 6.219,-6.25 -0.012,-3.44 -2.801,-6.22 -6.239,-6.22"
         id="path1164" />
    </clipPath>
    <clipPath
       clipPathUnits="userSpaceOnUse"
       id="clipPath1178">
      <path
         d="m 726.582,1729.15 c -0.008,0 -0.012,0 -0.019,0 h -0.68 c -3.445,0.01 -6.231,2.81 -6.215,6.26 0.008,3.44 2.797,6.22 6.23,6.22 0.012,0 0.016,0 0.024,0 h 0.68 c 3.445,-0.02 6.226,-2.82 6.218,-6.26 -0.011,-3.44 -2.804,-6.22 -6.238,-6.22"
         id="path1176" />
    </clipPath>
    <clipPath
       clipPathUnits="userSpaceOnUse"
       id="clipPath1190">
      <path
         d="m 751.266,1704.12 c -0.004,0 -0.012,0 -0.016,0 l -0.68,0.01 c -3.445,0 -6.23,2.81 -6.218,6.25 0.011,3.44 2.8,6.22 6.234,6.22 0.012,0 0.016,0 0.023,0 h 0.68 c 3.445,-0.01 6.227,-2.81 6.219,-6.26 v 0 c -0.012,-3.44 -2.805,-6.22 -6.242,-6.22"
         id="path1188" />
    </clipPath>
    <clipPath
       clipPathUnits="userSpaceOnUse"
       id="clipPath1202">
      <path
         d="m 734.816,1704.17 c -0.007,0 -0.011,0 -0.019,0 l -0.68,0.01 c -3.445,0 -6.23,2.8 -6.222,6.25 0.015,3.44 2.804,6.22 6.242,6.22 0.004,0 0.011,0 0.015,0 h 0.68 c 3.445,-0.01 6.231,-2.81 6.223,-6.26 -0.012,-3.44 -2.801,-6.22 -6.239,-6.22"
         id="path1200" />
    </clipPath>
    <clipPath
       clipPathUnits="userSpaceOnUse"
       id="clipPath1214">
      <path
         d="m 817.199,1766.31 -24.91,0.07 c 0.008,0 0.012,0 0.02,0 3.437,0 6.226,2.78 6.238,6.22 0.008,3.45 -2.777,6.25 -6.223,6.26 l 24.914,-0.07 c -0.008,0 -0.011,0 -0.023,0 -3.438,0 -6.227,-2.79 -6.235,-6.23 -0.015,-3.44 2.774,-6.24 6.219,-6.25"
         id="path1212" />
    </clipPath>
    <clipPath
       clipPathUnits="userSpaceOnUse"
       id="clipPath1226">
      <path
         d="m 825.68,1753.8 -7.813,0.03 -34.097,0.1 c -3.446,0.01 -6.227,2.81 -6.219,6.26 0.012,3.44 2.801,6.21 6.238,6.21 0.008,0 0.012,0 0.02,0 l 41.871,-0.12 c 3.445,-0.01 6.23,-2.81 6.218,-6.26 -0.011,-3.43 -2.789,-6.2 -6.218,-6.22"
         id="path1224" />
    </clipPath>
    <clipPath
       clipPathUnits="userSpaceOnUse"
       id="clipPath1238">
      <path
         d="m 826.035,1741.32 -37.969,0.12 c 3.43,0.01 6.207,2.79 6.219,6.22 0.012,3.45 -2.777,6.25 -6.219,6.26 l 29.801,-0.09 7.813,-0.03 h 0.418 c -0.008,0 -0.016,0 -0.02,0 -3.437,0 -6.226,-2.78 -6.238,-6.22 -0.012,-3.44 2.762,-6.23 6.195,-6.26"
         id="path1236" />
    </clipPath>
    <clipPath
       clipPathUnits="userSpaceOnUse"
       id="clipPath1250">
      <path
         d="m 831.898,1728.83 -54.453,0.17 c 0.004,0 0.008,0 0.012,0 h -1.559 c -3.445,0.01 -6.226,2.81 -6.214,6.26 0.007,3.44 2.8,6.22 6.238,6.22 0.004,0 0.012,0 0.016,0 l 12.128,-0.04 37.969,-0.12 5.785,-0.01 c 3.446,-0.01 6.231,-2.81 6.223,-6.26 -0.016,-3.41 -2.75,-6.17 -6.145,-6.22"
         id="path1248" />
    </clipPath>
    <clipPath
       clipPathUnits="userSpaceOnUse"
       id="clipPath1262">
      <path
         d="m 834.043,1716.35 -56.633,0.17 c 0.008,0 0.012,0 0.02,0 3.437,0 6.222,2.78 6.238,6.22 0.008,3.44 -2.77,6.24 -6.211,6.26 -0.004,0 -0.008,0 -0.012,0 l 54.453,-0.17 2.18,-0.01 c -0.004,0 -0.012,0 -0.015,0 -3.438,0 -6.231,-2.77 -6.243,-6.21 -0.007,-3.45 2.778,-6.25 6.223,-6.26"
         id="path1260" />
    </clipPath>
    <clipPath
       clipPathUnits="userSpaceOnUse"
       id="clipPath1274">
      <path
         d="m 840.664,1703.86 c -0.004,0 -0.016,0 -0.019,0 l -15.165,0.04 c 0.004,0 0.008,0 0.016,0 0.004,0 0.012,0 0.016,0 v 0 0 l -54.594,0.16 -2.453,0.01 c -3.445,0.01 -6.227,2.81 -6.219,6.26 0.012,3.44 2.801,6.22 6.238,6.22 0.008,0 0.012,0 0.02,0 l 72.18,-0.22 c 3.445,-0.01 6.23,-2.81 6.218,-6.26 -0.011,-3.44 -2.8,-6.21 -6.238,-6.21"
         id="path1272" />
    </clipPath>
    <clipPath
       clipPathUnits="userSpaceOnUse"
       id="clipPath1286">
      <path
         d="m 825.395,1691.43 -57.7,0.17 c 3.43,0.01 6.219,2.78 6.227,6.22 0.012,3.44 -2.774,6.24 -6.219,6.25 l 3.215,-0.01 54.594,-0.16 c -0.004,0 -0.012,0 -0.016,0 -0.008,0 -0.012,0 -0.016,0 -3.429,-0.01 -6.214,-2.79 -6.222,-6.22 -0.008,-3.42 2.73,-6.2 6.137,-6.25"
         id="path1284" />
    </clipPath>
    <clipPath
       clipPathUnits="userSpaceOnUse"
       id="clipPath1298">
      <path
         d="m 854.988,1678.86 c -0.008,0 -0.011,0 -0.023,0 l -17.094,0.05 c 0.004,0 0.004,0 0.004,0 0.004,0 0.012,0 0.016,0 v 0 0 l -5.766,0.02 -74.746,0.22 c -3.445,0.01 -6.234,2.81 -6.219,6.26 0.008,3.44 2.797,6.22 6.235,6.22 0.007,0 0.015,0 0.023,0 l 10.277,-0.03 57.7,-0.17 29.609,-0.1 c 3.445,-0.01 6.23,-2.81 6.223,-6.25 -0.016,-3.44 -2.805,-6.22 -6.239,-6.22"
         id="path1296" />
    </clipPath>
    <clipPath
       clipPathUnits="userSpaceOnUse"
       id="clipPath1310">
      <path
         d="m 837.859,1666.43 -76.504,0.23 c 0.004,0 0.012,0 0.02,0 3.434,0 6.227,2.79 6.234,6.22 0.012,3.45 -2.777,6.25 -6.218,6.26 l 70.734,-0.21 5.766,-0.02 c -0.004,0 -0.012,0 -0.016,0 0,0 0,0 -0.004,0 -3.433,0 -6.226,-2.78 -6.234,-6.22 -0.012,-3.44 2.777,-6.24 6.222,-6.26"
         id="path1308" />
    </clipPath>
    <clipPath
       clipPathUnits="userSpaceOnUse"
       id="clipPath1322">
      <path
         d="m 853.25,1653.91 -29.836,0.09 -76.344,0.23 c -3.445,0.01 -6.23,2.81 -6.218,6.26 0.011,3.44 2.8,6.21 6.234,6.21 0.012,0 0.016,0 0.023,0 l 106.153,-0.31 c 3.445,-0.01 6.234,-2.82 6.222,-6.26 -0.007,-3.43 -2.8,-6.21 -6.234,-6.22"
         id="path1320" />
    </clipPath>
    <clipPath
       clipPathUnits="userSpaceOnUse"
       id="clipPath1334">
      <path
         d="m 848.262,1650.13 -90.199,0.26 v 0 l 90.199,-0.26 v 0"
         id="path1332" />
    </clipPath>
    <linearGradient
       x1="0"
       y1="0"
       x2="1"
       y2="0"
       gradientUnits="userSpaceOnUse"
       gradientTransform="matrix(122.53542,-0.36770833,-0.36770833,-122.53542,799.45417,1679.9708)"
       spreadMethod="pad"
       id="linearGradient1340">
      <stop
         style="stop-opacity:1;stop-color:#f9f5d5"
         offset="0"
         id="stop1336" />
      <stop
         style="stop-opacity:1;stop-color:#d4cfae"
         offset="1"
         id="stop1338" />
    </linearGradient>
    <clipPath
       clipPathUnits="userSpaceOnUse"
       id="clipPath1350">
      <path
         d="m 848.262,1650.13 -90.199,0.26 c 0,0 0,0 -0.004,0 l 90.203,-0.26 v 0"
         id="path1348" />
    </clipPath>
    <clipPath
       clipPathUnits="userSpaceOnUse"
       id="clipPath1362">
      <path
         d="m 848.262,1650.13 -90.203,0.26 c -0.942,2.24 -3.149,3.82 -5.731,3.82 l 71.086,-0.21 29.836,-0.09 h 0.766 c -0.004,0 -0.012,0 -0.016,0 -2.57,0 -4.785,-1.56 -5.738,-3.78"
         id="path1360" />
    </clipPath>
  </defs>
  <sodipodi:namedview
     id="namedview4"
     pagecolor="#ffffff"
     bordercolor="#000000"
     borderopacity="0.25"
     inkscape:showpageshadow="2"
     inkscape:pageopacity="0.0"
     inkscape:pagecheckerboard="0"
     inkscape:deskcolor="#d1d1d1"
     showgrid="false"
     inkscape:zoom="0.62175006"
     inkscape:cx="481.70482"
     inkscape:cy="595.09443"
     inkscape:window-width="1920"
     inkscape:window-height="1009"
     inkscape:window-x="-8"
     inkscape:window-y="-8"
     inkscape:window-maximized="1"
     inkscape:current-layer="g10">
    <inkscape:page
       x="0"
       y="0"
       id="page8"
       width="251.1002"
       height="320.8826" />
  </sodipodi:namedview>
  <g
     id="g10"
     inkscape:groupmode="layer"
     inkscape:label="Page 1"
     transform="matrix(1.3333333,0,0,-1.3333333,3.1894496e-6,1333.3333)">
    <g
       id="g12"
       transform="scale(0.24)">
      <g
         id="g1738"
         inkscape:label="lamp"
         style="display:inline"
         transform="translate(-2957.6319,887.49667)">
        <path
           d="m 3582.13,2940.28 v 0 c -5.74,0 -10.42,4.68 -10.42,10.42 v 318.05 c 0,5.73 4.68,10.42 10.42,10.42 5.73,0 10.41,-4.69 10.41,-10.42 V 2950.7 c 0,-5.74 -4.68,-10.42 -10.41,-10.42"
           style="fill:#343434;fill-opacity:1;fill-rule:nonzero;stroke:none"
           id="path1418" />
        <path
           d="m 3723.32,2428.11 c -0.77,1.98 -1.75,3.89 -2.89,5.71 -1.73,2.72 -3.86,5.2 -6.37,7.36 -1.68,1.43 -3.51,2.72 -5.51,3.83 l -286.47,158.84 34.13,61.54 c 71.67,-19.34 149.95,11.65 187.57,79.5 44.28,79.86 15.43,180.5 -64.42,224.78 -79.87,44.28 -180.5,15.44 -224.79,-64.42 -37.62,-67.85 -22.44,-150.67 31.94,-201.21 l -34.13,-61.55 -286.46,158.83 c -3,1.67 -6.16,2.81 -9.36,3.48 -13.87,2.85 -28.65,-3.44 -35.86,-16.43 l -8.22,-14.83 -50.7,-91.45 c -8.87,-16 -3.04,-36.34 12.96,-45.21 l 642.62,-356.32 c 16,-8.87 36.35,-3.04 45.21,12.96 l 12.44,22.42 34.06,61.44 12.43,22.42 c 1.67,3 2.81,6.15 3.47,9.35 1.32,6.4 0.69,13 -1.65,18.96"
           style="fill:#af6364;fill-opacity:1;fill-rule:nonzero;stroke:none"
           id="path1420" />
        <path
           d="m 3660.45,2761.55 c -44.28,-79.86 -144.92,-108.7 -224.78,-64.42 -79.87,44.28 -108.71,144.92 -64.43,224.78 44.28,79.86 144.92,108.71 224.78,64.43 79.86,-44.29 108.71,-144.92 64.43,-224.79"
           style="fill:#ebdcc4;fill-opacity:1;fill-rule:nonzero;stroke:none"
           id="path1422" />
        <path
           d="m 3572.71,2773.25 c 22.21,40.06 7.74,90.55 -32.32,112.76 -40.06,22.21 -90.54,7.74 -112.75,-32.32 -22.21,-40.06 -7.75,-90.55 32.31,-112.76 40.06,-22.21 90.55,-7.74 112.76,32.32"
           style="fill:#f3eadd;fill-opacity:1;fill-rule:nonzero;stroke:none"
           id="path1424" />
        <path
           d="m 3358.31,2557.61 c -19.17,10.63 -26.16,35.01 -15.53,54.18 l 110.42,199.14 c 10.63,19.17 35,26.15 54.17,15.53 v -0.01 c 19.17,-10.62 26.16,-35 15.53,-54.16 l -110.42,-199.15 c -10.62,-19.17 -35,-26.16 -54.17,-15.53"
           style="fill:#f3eadd;fill-opacity:1;fill-rule:nonzero;stroke:none"
           id="path1426" />
        <path
           d="m 3453.2,2810.93 c 0.44,0.8 0.92,1.59 1.41,2.36 -0.49,-0.77 -0.97,-1.56 -1.41,-2.36"
           style="fill:#dad1c4;fill-opacity:1;fill-rule:nonzero;stroke:none"
           id="path1428" />
        <path
           d="m 3387.68,2648.83 -18.63,10.33 84.15,151.77 v 0 c 0.44,0.8 0.92,1.59 1.41,2.36 7.53,11.6 20.38,18.11 33.55,18.11 0.25,0 0.5,0 0.75,0 l -101.23,-182.57"
           style="fill:#dad1c4;fill-opacity:1;fill-rule:nonzero;stroke:none"
           id="path1430" />
        <path
           d="m 3499.74,2730.52 v 0 l 23.16,41.77 v 0 0 l -23.16,-41.77 m 23.24,41.9 c 0,0.02 0.01,0.03 0.02,0.04 -0.01,-0.01 -0.02,-0.03 -0.02,-0.04 m 0.07,0.14 c 0.01,0.02 0.02,0.04 0.03,0.05 -0.01,-0.01 -0.02,-0.03 -0.03,-0.05 m 0.1,0.18 c 0.01,0.01 0.02,0.03 0.02,0.05 0,-0.02 -0.01,-0.04 -0.02,-0.05 m 0.08,0.14 c 0,0.01 0.01,0.04 0.02,0.05 -0.01,-0.01 -0.02,-0.04 -0.02,-0.05 m 0.07,0.16 c 0.01,0.01 0.02,0.02 0.03,0.04 -0.01,-0.02 -0.02,-0.03 -0.03,-0.04 m 0.09,0.16 c 0.01,0.02 0.02,0.04 0.03,0.05 -0.01,-0.01 -0.02,-0.03 -0.03,-0.05 m 0.08,0.15 c 0.01,0.01 0.02,0.03 0.03,0.04 -0.01,-0.01 -0.02,-0.03 -0.03,-0.04 m 0.09,0.17 c 0.01,0.02 0.02,0.04 0.03,0.05 -0.01,-0.01 -0.02,-0.03 -0.03,-0.05 m 0.07,0.15 c 0.01,0.02 0.02,0.03 0.03,0.04 -0.01,-0.01 -0.02,-0.02 -0.03,-0.04 m 0.08,0.16 c 0.01,0.01 0.02,0.02 0.02,0.03 0,-0.01 -0.01,-0.02 -0.02,-0.03 m 0.09,0.17 c 0,0.01 0.01,0.02 0.01,0.03 0,-0.01 -0.01,-0.02 -0.01,-0.03 m 0.08,0.15 c 0,0.01 0,0.02 0.01,0.03 -0.01,-0.01 -0.01,-0.02 -0.01,-0.03 m 0.15,0.33 c 0.01,0.01 0.01,0.01 0.01,0.02 0,-0.01 0,-0.01 -0.01,-0.02"
           style="fill:#fdfdfb;fill-opacity:1;fill-rule:nonzero;stroke:none"
           id="path1432" />
        <path
           d="m 3438.75,2620.51 -18.63,10.33 101.23,182.57 c 7.36,-11.33 8.79,-26.09 2.69,-38.91 0,-0.01 0,-0.01 -0.01,-0.02 -0.05,-0.1 -0.09,-0.2 -0.14,-0.3 -0.01,-0.01 -0.01,-0.02 -0.01,-0.03 -0.02,-0.04 -0.05,-0.08 -0.07,-0.12 0,-0.01 -0.01,-0.02 -0.01,-0.03 -0.03,-0.05 -0.05,-0.09 -0.07,-0.14 0,-0.01 -0.01,-0.02 -0.02,-0.03 -0.01,-0.03 -0.03,-0.07 -0.05,-0.12 -0.01,-0.01 -0.02,-0.02 -0.03,-0.04 -0.01,-0.03 -0.03,-0.06 -0.04,-0.1 -0.01,-0.01 -0.02,-0.03 -0.03,-0.05 -0.02,-0.04 -0.04,-0.08 -0.06,-0.13 -0.01,-0.01 -0.02,-0.03 -0.03,-0.04 -0.02,-0.03 -0.03,-0.06 -0.05,-0.1 -0.01,-0.01 -0.02,-0.03 -0.03,-0.05 -0.01,-0.04 -0.04,-0.08 -0.06,-0.12 -0.01,-0.02 -0.02,-0.03 -0.03,-0.04 -0.01,-0.04 -0.03,-0.08 -0.05,-0.11 -0.01,-0.01 -0.02,-0.04 -0.02,-0.05 -0.03,-0.03 -0.04,-0.07 -0.06,-0.09 0,-0.02 -0.01,-0.04 -0.02,-0.05 -0.02,-0.04 -0.04,-0.09 -0.07,-0.13 -0.01,-0.01 -0.02,-0.03 -0.03,-0.05 -0.01,-0.03 -0.03,-0.06 -0.05,-0.1 -0.01,-0.01 -0.02,-0.02 -0.02,-0.04 -0.03,-0.04 -0.05,-0.09 -0.08,-0.13 v 0 l -23.16,-41.77 -26.88,-48.48 -10.12,-18.27 -23.99,-43.26"
           style="fill:#fdfdfb;fill-opacity:1;fill-rule:nonzero;stroke:none"
           id="path1434" />
        <path
           d="m 3634.03,2297.23 -642.63,356.32 c -16,8.86 -21.83,29.21 -12.96,45.21 l 58.93,106.28 c 8.87,15.99 29.22,21.82 45.21,12.95 l 642.63,-356.31 c 16,-8.87 21.83,-29.22 12.96,-45.22 l -58.93,-106.27 c -8.87,-16 -29.21,-21.83 -45.21,-12.96"
           style="fill:#f3eadd;fill-opacity:1;fill-rule:nonzero;stroke:none"
           id="path1436"
           inkscape:label="path1436" />
        <path
           d="m 3037.37,2805.04 c 6.05,10.9 17.43,17.09 29.14,17.1 -11.71,-0.01 -23.09,-6.2 -29.14,-17.1 m 29.21,17.1 c -0.01,0 -0.02,0 -0.03,0 v 0 c 0.01,0 0.02,0 0.03,0"
           style="fill:#faebe2;fill-opacity:1;fill-rule:nonzero;stroke:none"
           id="path1438" />
        <path
           d="m 3725.74,2394.05 -700.8,388.56 10.99,19.82 1.44,2.61 v 0 c 6.05,10.9 17.43,17.09 29.14,17.1 0.01,0 0.03,0 0.04,0 0.01,0 0.02,0 0.03,0 5.44,-0.01 10.94,-1.34 16,-4.15 l 642.63,-356.31 c 10.93,-6.07 17.12,-17.49 17.11,-29.23 -0.01,-5.43 -1.34,-10.93 -4.15,-15.99 v 0 l -12.43,-22.41"
           style="fill:#fdfdfb;fill-opacity:1;fill-rule:nonzero;stroke:none"
           id="path1440" />
        <path
           d="m 3664.02,2296.12 v 0 c 6.11,2.79 11.43,7.43 14.99,13.65 -3.56,-6.22 -8.88,-10.86 -14.99,-13.65"
           style="fill:#bb7351;fill-opacity:1;fill-rule:nonzero;stroke:none"
           id="path1442" />
        <path
           d="m 3650.11,2293.08 c 4.8,0.01 9.56,1.05 13.91,3.04 v 0 c -4.35,-1.99 -9.11,-3.03 -13.91,-3.04 m -15.92,4.06 c -0.05,0.03 -0.11,0.06 -0.16,0.09 l -642.63,356.32 c -10.94,6.06 -17.11,17.49 -17.1,29.22 -0.01,-11.73 6.16,-23.16 17.1,-29.22 l 642.63,-356.32 c 0.05,-0.03 0.11,-0.06 0.16,-0.09"
           style="fill:#9c5859;fill-opacity:1;fill-rule:nonzero;stroke:none"
           id="path1444" />
        <path
           d="m 3650.06,2293.08 c -0.01,0 -0.02,0 -0.02,0 -5.38,0.01 -10.83,1.31 -15.85,4.06 -0.05,0.03 -0.11,0.06 -0.16,0.09 l -642.63,356.32 c -10.94,6.06 -17.11,17.49 -17.1,29.22 0,5.43 1.34,10.93 4.14,15.99 l 12.44,22.42 700.79,-388.57 -12.43,-22.42 c -0.06,-0.11 -0.11,-0.21 -0.18,-0.32 -0.01,-0.03 -0.03,-0.06 -0.05,-0.1 -3.56,-6.22 -8.88,-10.86 -14.99,-13.65 -4.35,-1.99 -9.11,-3.03 -13.91,-3.04 -0.02,0 -0.04,0 -0.05,0"
           style="fill:#dad1c4;fill-opacity:1;fill-rule:nonzero;stroke:none"
           id="path1446" />
      </g>
    </g>
  </g>
</svg>
