<?xml version="1.0" encoding="UTF-8" standalone="no"?>
<!-- Created with Inkscape (http://www.inkscape.org/) -->

<svg
   version="1.1"
   id="svg2"
   width="330.27252"
   height="335.40488"
   viewBox="0 0 330.27253 335.40489"
   sodipodi:docname="laptop.svg"
   inkscape:version="1.2 (dc2aedaf03, 2022-05-15)"
   xmlns:inkscape="http://www.inkscape.org/namespaces/inkscape"
   xmlns:sodipodi="http://sodipodi.sourceforge.net/DTD/sodipodi-0.dtd"
   xmlns="http://www.w3.org/2000/svg"
   xmlns:svg="http://www.w3.org/2000/svg">
  <defs
     id="defs6">
    <clipPath
       clipPathUnits="userSpaceOnUse"
       id="clipPath48">
      <path
         d="m 171.309,1180.93 h 3824.81 V 3248.38 H 171.309 Z"
         id="path46" />
    </clipPath>
    <clipPath
       clipPathUnits="userSpaceOnUse"
       id="clipPath574">
      <path
         d="m 3535.79,1963.04 c 0.15,1.64 -0.31,3.28 -1.3,4.59 l 0.41,0.62 c 0.61,0.93 0.95,1.95 1.05,2.98 2.39,0.51 4.68,1.58 6.67,3.2 l 0.52,0.43 c 2.59,2.1 4.84,4.6 6.68,7.39 l 1.35,2.07 c 1.6,-2.14 1.82,-5.18 0.24,-7.59 l -1.75,-2.67 c -1.84,-2.79 -4.09,-5.29 -6.68,-7.39 l -0.52,-0.43 c -1.98,-1.62 -4.28,-2.69 -6.67,-3.2"
         id="path572" />
    </clipPath>
    <clipPath
       clipPathUnits="userSpaceOnUse"
       id="clipPath736">
      <path
         d="m 890.316,1399.57 -378.488,1.14 1.684,560.24 378.488,-1.13 -1.684,-560.25 m -42.054,250.56 14.211,-0.05 0.757,252.81 0.071,23.99 -323.262,0.98 -0.004,-1.13 v 0 l -0.269,-88.21 -0.016,-5.31 -0.086,-29.2 -0.047,-15.61 -0.027,-8.15 v 0 0 l -0.02,-6.99 -0.031,-11.7 -0.023,-6.09 v 0 0 l -0.036,-12.39 -0.039,-12.39 h 0.004 -0.004 l -0.039,-12.39 -0.031,-12.39 -0.168,-54.86 218.86,-0.66 v 0 l 90.199,-0.26 v 0"
         id="path734" />
    </clipPath>
    <linearGradient
       x1="0"
       y1="0"
       x2="1"
       y2="0"
       gradientUnits="userSpaceOnUse"
       gradientTransform="matrix(122.53542,-0.36770833,-0.36770833,-122.53542,799.45417,1679.9708)"
       spreadMethod="pad"
       id="linearGradient742">
      <stop
         style="stop-opacity:1;stop-color:#f9f9f9"
         offset="0"
         id="stop738" />
      <stop
         style="stop-opacity:1;stop-color:#cac8c7"
         offset="1"
         id="stop740" />
    </linearGradient>
    <clipPath
       clipPathUnits="userSpaceOnUse"
       id="clipPath816">
      <path
         d="m 862.473,1650.08 -14.211,0.05 v 0 l 14.203,-0.05 0.426,141.59 h 0.004 l -0.422,-141.59 m -104.41,0.31 -217.887,0.66 217.883,-0.66 c 0.004,0 0.004,0 0.004,0 m -217.348,142.25 h -0.039 -1.047 1.086"
         id="path814" />
    </clipPath>
    <clipPath
       clipPathUnits="userSpaceOnUse"
       id="clipPath828">
      <path
         d="m 862.465,1650.08 -14.203,0.05 c 0.953,2.22 3.168,3.78 5.738,3.78 0.004,0 0.012,0 0.016,0 v 0 0 h -0.766 c 3.434,0.01 6.227,2.79 6.234,6.22 0.012,3.44 -2.777,6.25 -6.222,6.26 l -106.153,0.31 c -0.007,0 -0.011,0 -0.023,0 -3.434,0 -6.223,-2.77 -6.234,-6.21 -0.012,-3.45 2.773,-6.25 6.218,-6.26 l 76.344,-0.23 -71.086,0.21 c 2.582,0 4.789,-1.58 5.731,-3.82 l -217.883,0.66 h -0.973 l 0.168,54.86 73.379,-0.22 c 0.004,0 0.012,0 0.016,0 3.304,0 5.992,2.68 6,5.98 v 0.39 c 0.011,3.32 -2.664,6.01 -5.977,6.02 l -24.101,0.07 c -3.313,0.01 -5.989,2.71 -5.981,6.02 v 0.39 c 0.016,3.31 2.695,5.98 6,5.98 0.004,0 0.016,0 0.02,0 v 0 l 109.527,-0.33 c 0.008,0 0.012,0 0.019,0 3.305,0 5.989,2.68 5.997,5.99 l 0.003,0.39 c 0.012,3.31 -2.668,6.01 -5.98,6.02 l -21.391,0.06 c -3.312,0.01 -5.988,2.7 -5.976,6.02 v 0.39 c 0.012,3.3 2.695,5.98 6,5.98 0.004,0 0.012,0 0.015,0 v 0 0 l -137.425,0.41 v 0 l 137.425,-0.41 34.059,-0.1 c 0.008,0 0.012,0 0.02,0 3.304,0 5.988,2.67 5.996,5.98 v 0.39 c 0.011,3.31 -2.664,6.01 -5.977,6.02 l -6.281,0.02 v 0 c -3.317,0.01 -5.992,2.7 -5.985,6.01 l 0.004,0.39 c 0.012,3.31 2.696,5.98 5.996,5.98 0.012,0 0.016,0 0.024,0 v 0 0 l -165.207,0.5 v 0 l 165.207,-0.5 22.621,-0.06 c 0.004,0 0.012,0 0.016,0 3.304,0 5.988,2.67 5.996,5.98 l 0.004,0.39 c 0.007,3.31 -2.657,5.99 -5.957,6.02 l 1.832,-0.01 h 0.339 v 0 l 133.247,-0.4 -0.43,-141.59 m -101.11,16.58 76.504,-0.23 c -3.445,0.02 -6.234,2.82 -6.222,6.26 0.008,3.44 2.801,6.22 6.234,6.22 l 17.094,-0.05 c 0.012,0 0.015,0 0.023,0 3.434,0 6.223,2.78 6.239,6.22 0.007,3.44 -2.778,6.24 -6.223,6.25 l -29.609,0.1 c -3.407,0.05 -6.145,2.83 -6.137,6.25 0.008,3.43 2.793,6.21 6.222,6.22 l 15.165,-0.04 c 0.003,0 0.015,0 0.019,0 3.438,0 6.227,2.77 6.238,6.21 0.012,3.45 -2.773,6.25 -6.218,6.26 l -72.18,0.22 c -0.008,0 -0.012,0 -0.02,0 -3.437,0 -6.226,-2.78 -6.238,-6.22 -0.008,-3.45 2.774,-6.25 6.219,-6.26 l 2.453,-0.01 -3.215,0.01 c 3.445,-0.01 6.231,-2.81 6.219,-6.25 -0.008,-3.44 -2.797,-6.21 -6.227,-6.22 l -10.277,0.03 c -0.008,0 -0.016,0 -0.023,0 -3.438,0 -6.227,-2.78 -6.235,-6.22 -0.015,-3.45 2.774,-6.25 6.219,-6.26 l 74.746,-0.22 -70.734,0.21 c 3.441,-0.01 6.23,-2.81 6.218,-6.26 -0.007,-3.43 -2.8,-6.22 -6.234,-6.22 -0.008,0 -0.016,0 -0.02,0 m -10.769,49.94 c -3.434,0 -6.223,-2.78 -6.234,-6.22 -0.012,-3.44 2.773,-6.25 6.218,-6.25 l 0.68,-0.01 c 0.004,0 0.012,0 0.016,0 3.437,0 6.23,2.78 6.242,6.22 v 0 c 0.008,3.45 -2.774,6.25 -6.219,6.26 h -0.68 c -0.007,0 -0.011,0 -0.023,0 m -16.449,0.05 c -3.438,0 -6.227,-2.78 -6.242,-6.22 -0.008,-3.45 2.777,-6.25 6.222,-6.25 l 0.68,-0.01 c 0.008,0 0.012,0 0.019,0 3.438,0 6.227,2.78 6.239,6.22 0.008,3.45 -2.778,6.25 -6.223,6.26 h -0.68 c -0.004,0 -0.011,0 -0.015,0 m 43.273,-0.13 56.633,-0.17 c -3.445,0.01 -6.23,2.81 -6.223,6.26 0.012,3.44 2.805,6.21 6.243,6.21 0.003,0 0.011,0 0.015,0 v 0 0 l -2.18,0.01 c 3.395,0.05 6.129,2.81 6.145,6.22 0.008,3.45 -2.777,6.25 -6.223,6.26 l -5.785,0.01 c -3.433,0.03 -6.207,2.82 -6.195,6.26 0.012,3.44 2.801,6.22 6.238,6.22 0.004,0 0.012,0 0.02,0 v 0 0 h -0.418 c 3.429,0.02 6.207,2.79 6.218,6.22 0.012,3.45 -2.773,6.25 -6.218,6.26 l -41.871,0.12 c -0.008,0 -0.012,0 -0.02,0 -3.437,0 -6.226,-2.77 -6.238,-6.21 -0.008,-3.45 2.773,-6.25 6.219,-6.26 l 34.097,-0.1 -29.801,0.09 c 3.442,-0.01 6.231,-2.81 6.219,-6.26 -0.012,-3.43 -2.789,-6.21 -6.219,-6.22 l -12.128,0.04 c -0.004,0 -0.012,0 -0.016,0 -3.438,0 -6.231,-2.78 -6.238,-6.22 -0.012,-3.45 2.769,-6.25 6.214,-6.26 h 1.559 c 3.441,-0.02 6.219,-2.82 6.211,-6.26 -0.016,-3.44 -2.801,-6.22 -6.238,-6.22 -0.008,0 -0.012,0 -0.02,0 m -18.601,25.01 c -3.438,0 -6.231,-2.78 -6.239,-6.22 -0.007,-3.45 2.778,-6.25 6.223,-6.26 h 0.68 c 0.004,0 0.011,0 0.015,0 3.438,0 6.227,2.78 6.239,6.22 0.011,3.44 -2.774,6.25 -6.219,6.25 l -0.68,0.01 c -0.008,0 -0.012,0 -0.019,0 m -32.911,0.1 c -3.433,0 -6.222,-2.78 -6.23,-6.22 -0.016,-3.45 2.77,-6.25 6.215,-6.26 h 0.68 c 0.007,0 0.011,0 0.019,0 3.434,0 6.227,2.78 6.238,6.22 0.008,3.44 -2.773,6.24 -6.218,6.26 h -0.68 c -0.008,0 -0.012,0 -0.024,0 m 116.981,24.6 c -3.438,0 -6.231,-2.78 -6.242,-6.22 -0.008,-3.45 2.777,-6.25 6.222,-6.26 h 0.68 c 0.008,0 0.012,0 0.02,0 3.433,0 6.226,2.79 6.238,6.22 0.008,3.45 -2.777,6.25 -6.223,6.26 h -0.679 c -0.004,0 -0.012,0 -0.016,0 m -50.59,0.15 24.91,-0.07 c -3.445,0.01 -6.234,2.81 -6.219,6.25 0.008,3.44 2.797,6.23 6.235,6.23 0.012,0 0.015,0 0.023,0 v 0 0 l -24.914,0.07 c 3.446,-0.01 6.231,-2.81 6.223,-6.26 -0.012,-3.44 -2.801,-6.22 -6.238,-6.22 -0.008,0 -0.012,0 -0.02,0 m -0.43,24.95 c -3.437,0 -6.226,-2.78 -6.238,-6.21 -0.008,-3.45 2.774,-6.25 6.219,-6.26 l 25.883,-0.08 c 0.004,0 0.011,0 0.015,0 3.438,0 6.227,2.78 6.239,6.22 0.011,3.45 -2.774,6.25 -6.219,6.26 l -25.879,0.07 c -0.008,0 -0.012,0 -0.02,0 m -252.312,-26.35 0.016,5.22 -0.008,-2.34 -0.008,-2.88 m 162.152,27.17 -6.691,0.03 -154.332,0.46 h 0.039 l 155.828,-0.47 v 0 0 l 5.156,-0.02"
         id="path826" />
    </clipPath>
    <clipPath
       clipPathUnits="userSpaceOnUse"
       id="clipPath840">
      <path
         d="m 862.895,1791.67 v 0 l -133.247,0.4 v 0 l 133.243,-0.4 0.41,135.22 v -0.01 l -0.406,-135.21"
         id="path838" />
    </clipPath>
    <clipPath
       clipPathUnits="userSpaceOnUse"
       id="clipPath852">
      <path
         d="m 862.891,1791.67 -133.243,0.4 -27.074,9.74 -36.16,8.65 c -3.148,0.75 -6.211,1.8 -9.152,3.15 l -11.742,5.37 c -5.961,2.72 -12.344,4.41 -18.875,5.01 l -21.137,1.93 c -2.82,0.26 -5.586,0.95 -8.199,2.04 l -0.176,0.08 c -5.168,2.15 -10.68,3.37 -16.274,3.59 l -9.16,0.35 6.098,-1.87 c 5.164,-1.6 9.906,-4.33 13.867,-8.01 3.719,-3.45 8.344,-5.75 13.328,-6.65 v 0 c -4.984,0.9 -9.609,3.2 -13.328,6.65 -3.961,3.68 -8.703,6.41 -13.867,8.01 l -6.098,1.87 -13.941,4.29 c -3.055,0.94 -6.192,1.59 -9.367,1.93 l -8.621,0.94 0.269,88.72 323.262,-0.98 -0.41,-135.21"
         id="path850" />
    </clipPath>
    <clipPath
       clipPathUnits="userSpaceOnUse"
       id="clipPath910">
      <path
         d="m 539.59,1780.25 v 0 l 0.027,8.15 -0.027,-8.15"
         id="path908" />
    </clipPath>
    <linearGradient
       x1="0"
       y1="0"
       x2="1"
       y2="0"
       gradientUnits="userSpaceOnUse"
       gradientTransform="matrix(122.53542,-0.36770833,-0.36770833,-122.53542,799.45417,1679.9708)"
       spreadMethod="pad"
       id="linearGradient916">
      <stop
         style="stop-opacity:1;stop-color:#d4c4a4"
         offset="0"
         id="stop912" />
      <stop
         style="stop-opacity:1;stop-color:#b8a88b"
         offset="1"
         id="stop914" />
    </linearGradient>
    <clipPath
       clipPathUnits="userSpaceOnUse"
       id="clipPath928">
      <path
         d="m 540.676,1792.64 h -1.047 v 0 h 1.047"
         id="path926" />
    </clipPath>
    <clipPath
       clipPathUnits="userSpaceOnUse"
       id="clipPath940">
      <path
         d="m 727.434,1779.69 c -0.004,0 -0.012,0 -0.016,0 l -22.621,0.06 -165.207,0.5 0.039,12.39 h 1.047 l 154.332,-0.46 6.691,-0.03 25.778,-0.07 c 3.3,-0.03 5.964,-2.71 5.957,-6.02 l -0.004,-0.39 c -0.008,-3.31 -2.692,-5.98 -5.996,-5.98"
         id="path938" />
    </clipPath>
    <clipPath
       clipPathUnits="userSpaceOnUse"
       id="clipPath954">
      <path
         d="m 539.516,1755.47 v 0 l 0.023,6.09 -0.023,-6.09"
         id="path952" />
    </clipPath>
    <linearGradient
       x1="0"
       y1="0"
       x2="1"
       y2="0"
       gradientUnits="userSpaceOnUse"
       gradientTransform="matrix(122.53542,-0.36770833,-0.36770833,-122.53542,799.45417,1679.9708)"
       spreadMethod="pad"
       id="linearGradient960">
      <stop
         style="stop-opacity:1;stop-color:#d4c4a4"
         offset="0"
         id="stop956" />
      <stop
         style="stop-opacity:1;stop-color:#b8a88b"
         offset="1"
         id="stop958" />
    </linearGradient>
    <clipPath
       clipPathUnits="userSpaceOnUse"
       id="clipPath972">
      <path
         d="m 711.02,1754.96 c -0.008,0 -0.012,0 -0.02,0 l -34.059,0.1 -137.425,0.41 0.031,9.51 0.008,2.88 165.203,-0.49 6.281,-0.02 c 3.313,-0.01 5.988,-2.71 5.977,-6.02 v -0.39 c -0.008,-3.31 -2.692,-5.98 -5.996,-5.98 m -6.262,12.41 v 0 c -0.004,0 -0.004,0 -0.004,0 h 0.004"
         id="path970" />
    </clipPath>
    <clipPath
       clipPathUnits="userSpaceOnUse"
       id="clipPath984">
      <path
         d="m 539.441,1730.69 v 0 l 0.039,12.39 -0.035,-12.39"
         id="path982" />
    </clipPath>
    <linearGradient
       x1="0"
       y1="0"
       x2="1"
       y2="0"
       gradientUnits="userSpaceOnUse"
       gradientTransform="matrix(122.53542,-0.36770833,-0.36770833,-122.53542,799.45417,1679.9708)"
       spreadMethod="pad"
       id="linearGradient990">
      <stop
         style="stop-opacity:1;stop-color:#d4c4a4"
         offset="0"
         id="stop986" />
      <stop
         style="stop-opacity:1;stop-color:#b8a88b"
         offset="1"
         id="stop988" />
    </linearGradient>
    <clipPath
       clipPathUnits="userSpaceOnUse"
       id="clipPath1002">
      <path
         d="m 698.273,1730.21 c -0.007,0 -0.011,0 -0.019,0 l -109.527,0.33 v 0 l -49.286,0.15 0.039,12.39 137.422,-0.41 v 0 l 21.391,-0.06 c 3.312,-0.01 5.992,-2.71 5.98,-6.02 l -0.003,-0.39 c -0.008,-3.31 -2.692,-5.99 -5.997,-5.99"
         id="path1000" />
    </clipPath>
    <clipPath
       clipPathUnits="userSpaceOnUse"
       id="clipPath1014">
      <path
         d="m 539.371,1705.91 v 0 l 0.031,12.39 -0.031,-12.39"
         id="path1012" />
    </clipPath>
    <linearGradient
       x1="0"
       y1="0"
       x2="1"
       y2="0"
       gradientUnits="userSpaceOnUse"
       gradientTransform="matrix(122.53542,-0.36770833,-0.36770833,-122.53542,799.45417,1679.9708)"
       spreadMethod="pad"
       id="linearGradient1020">
      <stop
         style="stop-opacity:1;stop-color:#d4c4a4"
         offset="0"
         id="stop1016" />
      <stop
         style="stop-opacity:1;stop-color:#b8a88b"
         offset="1"
         id="stop1018" />
    </linearGradient>
    <clipPath
       clipPathUnits="userSpaceOnUse"
       id="clipPath1032">
      <path
         d="m 612.766,1705.69 c -0.004,0 -0.012,0 -0.016,0 l -73.379,0.22 0.039,12.39 49.278,-0.15 v 0 l 24.101,-0.07 c 3.313,-0.01 5.988,-2.7 5.977,-6.02 v -0.39 c -0.008,-3.3 -2.696,-5.98 -6,-5.98"
         id="path1030" />
    </clipPath>
    <clipPath
       clipPathUnits="userSpaceOnUse"
       id="clipPath1046">
      <path
         d="m 704.758,1767.37 -165.203,0.49 0.008,2.34 0.027,10.05 165.207,-0.5 c -0.008,0 -0.012,0 -0.024,0 -3.3,0 -5.984,-2.67 -5.996,-5.98 l -0.004,-0.39 c -0.007,-3.31 2.668,-6 5.981,-6.01 v 0"
         id="path1044" />
    </clipPath>
    <clipPath
       clipPathUnits="userSpaceOnUse"
       id="clipPath1058">
      <path
         d="m 704.758,1767.37 v 0 l -165.203,0.49 165.203,-0.49"
         id="path1056" />
    </clipPath>
    <clipPath
       clipPathUnits="userSpaceOnUse"
       id="clipPath1070">
      <path
         d="m 539.402,1718.3 v 0 l 0.039,12.39 -0.031,-12.39"
         id="path1068" />
    </clipPath>
    <linearGradient
       x1="0"
       y1="0"
       x2="1"
       y2="0"
       gradientUnits="userSpaceOnUse"
       gradientTransform="matrix(122.53542,-0.36770833,-0.36770833,-122.53542,799.45417,1679.9708)"
       spreadMethod="pad"
       id="linearGradient1076">
      <stop
         style="stop-opacity:1;stop-color:#d4c4a4"
         offset="0"
         id="stop1072" />
      <stop
         style="stop-opacity:1;stop-color:#b8a88b"
         offset="1"
         id="stop1074" />
    </linearGradient>
    <clipPath
       clipPathUnits="userSpaceOnUse"
       id="clipPath1088">
      <path
         d="m 588.688,1718.15 -49.286,0.15 0.043,12.39 49.282,-0.15 c -0.004,0 -0.016,0 -0.02,0 -3.305,0 -5.984,-2.67 -6,-5.98 v -0.39 c -0.008,-3.31 2.668,-6.01 5.981,-6.02 v 0"
         id="path1086" />
    </clipPath>
    <clipPath
       clipPathUnits="userSpaceOnUse"
       id="clipPath1100">
      <path
         d="m 588.727,1730.54 v 0 l -49.286,0.15 h 0.004 l 49.282,-0.15"
         id="path1098" />
    </clipPath>
    <clipPath
       clipPathUnits="userSpaceOnUse"
       id="clipPath1112">
      <path
         d="m 539.48,1743.08 v 0 l 0.036,12.39 -0.036,-12.39"
         id="path1110" />
    </clipPath>
    <linearGradient
       x1="0"
       y1="0"
       x2="1"
       y2="0"
       gradientUnits="userSpaceOnUse"
       gradientTransform="matrix(122.53542,-0.36770833,-0.36770833,-122.53542,799.45417,1679.9708)"
       spreadMethod="pad"
       id="linearGradient1118">
      <stop
         style="stop-opacity:1;stop-color:#d4c4a4"
         offset="0"
         id="stop1114" />
      <stop
         style="stop-opacity:1;stop-color:#b8a88b"
         offset="1"
         id="stop1116" />
    </linearGradient>
    <clipPath
       clipPathUnits="userSpaceOnUse"
       id="clipPath1130">
      <path
         d="m 676.902,1742.67 -137.422,0.41 0.036,12.39 137.425,-0.41 c -0.003,0 -0.011,0 -0.015,0 -3.305,0 -5.988,-2.68 -6,-5.98 v -0.39 c -0.012,-3.32 2.664,-6.01 5.976,-6.02 v 0"
         id="path1128" />
    </clipPath>
    <clipPath
       clipPathUnits="userSpaceOnUse"
       id="clipPath1142">
      <path
         d="m 817.738,1778.78 c -0.004,0 -0.011,0 -0.015,0 l -25.883,0.08 c -3.445,0.01 -6.227,2.81 -6.219,6.26 0.012,3.43 2.801,6.21 6.238,6.21 0.008,0 0.012,0 0.02,0 l 25.879,-0.07 c 3.445,-0.01 6.23,-2.81 6.219,-6.26 -0.012,-3.44 -2.801,-6.22 -6.239,-6.22"
         id="path1140" />
    </clipPath>
    <clipPath
       clipPathUnits="userSpaceOnUse"
       id="clipPath1154">
      <path
         d="m 843.559,1753.75 c -0.008,0 -0.012,0 -0.02,0 h -0.68 c -3.445,0.01 -6.23,2.81 -6.222,6.26 0.011,3.44 2.804,6.22 6.242,6.22 0.004,0 0.012,0 0.016,0 h 0.679 c 3.446,-0.01 6.231,-2.81 6.223,-6.26 -0.012,-3.43 -2.805,-6.22 -6.238,-6.22"
         id="path1152" />
    </clipPath>
    <clipPath
       clipPathUnits="userSpaceOnUse"
       id="clipPath1166">
      <path
         d="m 759.488,1729.05 c -0.004,0 -0.011,0 -0.015,0 h -0.68 c -3.445,0.01 -6.23,2.81 -6.223,6.26 0.008,3.44 2.801,6.22 6.239,6.22 0.007,0 0.011,0 0.019,0 l 0.68,-0.01 c 3.445,0 6.23,-2.81 6.219,-6.25 -0.012,-3.44 -2.801,-6.22 -6.239,-6.22"
         id="path1164" />
    </clipPath>
    <clipPath
       clipPathUnits="userSpaceOnUse"
       id="clipPath1178">
      <path
         d="m 726.582,1729.15 c -0.008,0 -0.012,0 -0.019,0 h -0.68 c -3.445,0.01 -6.231,2.81 -6.215,6.26 0.008,3.44 2.797,6.22 6.23,6.22 0.012,0 0.016,0 0.024,0 h 0.68 c 3.445,-0.02 6.226,-2.82 6.218,-6.26 -0.011,-3.44 -2.804,-6.22 -6.238,-6.22"
         id="path1176" />
    </clipPath>
    <clipPath
       clipPathUnits="userSpaceOnUse"
       id="clipPath1190">
      <path
         d="m 751.266,1704.12 c -0.004,0 -0.012,0 -0.016,0 l -0.68,0.01 c -3.445,0 -6.23,2.81 -6.218,6.25 0.011,3.44 2.8,6.22 6.234,6.22 0.012,0 0.016,0 0.023,0 h 0.68 c 3.445,-0.01 6.227,-2.81 6.219,-6.26 v 0 c -0.012,-3.44 -2.805,-6.22 -6.242,-6.22"
         id="path1188" />
    </clipPath>
    <clipPath
       clipPathUnits="userSpaceOnUse"
       id="clipPath1202">
      <path
         d="m 734.816,1704.17 c -0.007,0 -0.011,0 -0.019,0 l -0.68,0.01 c -3.445,0 -6.23,2.8 -6.222,6.25 0.015,3.44 2.804,6.22 6.242,6.22 0.004,0 0.011,0 0.015,0 h 0.68 c 3.445,-0.01 6.231,-2.81 6.223,-6.26 -0.012,-3.44 -2.801,-6.22 -6.239,-6.22"
         id="path1200" />
    </clipPath>
    <clipPath
       clipPathUnits="userSpaceOnUse"
       id="clipPath1214">
      <path
         d="m 817.199,1766.31 -24.91,0.07 c 0.008,0 0.012,0 0.02,0 3.437,0 6.226,2.78 6.238,6.22 0.008,3.45 -2.777,6.25 -6.223,6.26 l 24.914,-0.07 c -0.008,0 -0.011,0 -0.023,0 -3.438,0 -6.227,-2.79 -6.235,-6.23 -0.015,-3.44 2.774,-6.24 6.219,-6.25"
         id="path1212" />
    </clipPath>
    <clipPath
       clipPathUnits="userSpaceOnUse"
       id="clipPath1226">
      <path
         d="m 825.68,1753.8 -7.813,0.03 -34.097,0.1 c -3.446,0.01 -6.227,2.81 -6.219,6.26 0.012,3.44 2.801,6.21 6.238,6.21 0.008,0 0.012,0 0.02,0 l 41.871,-0.12 c 3.445,-0.01 6.23,-2.81 6.218,-6.26 -0.011,-3.43 -2.789,-6.2 -6.218,-6.22"
         id="path1224" />
    </clipPath>
    <clipPath
       clipPathUnits="userSpaceOnUse"
       id="clipPath1238">
      <path
         d="m 826.035,1741.32 -37.969,0.12 c 3.43,0.01 6.207,2.79 6.219,6.22 0.012,3.45 -2.777,6.25 -6.219,6.26 l 29.801,-0.09 7.813,-0.03 h 0.418 c -0.008,0 -0.016,0 -0.02,0 -3.437,0 -6.226,-2.78 -6.238,-6.22 -0.012,-3.44 2.762,-6.23 6.195,-6.26"
         id="path1236" />
    </clipPath>
    <clipPath
       clipPathUnits="userSpaceOnUse"
       id="clipPath1250">
      <path
         d="m 831.898,1728.83 -54.453,0.17 c 0.004,0 0.008,0 0.012,0 h -1.559 c -3.445,0.01 -6.226,2.81 -6.214,6.26 0.007,3.44 2.8,6.22 6.238,6.22 0.004,0 0.012,0 0.016,0 l 12.128,-0.04 37.969,-0.12 5.785,-0.01 c 3.446,-0.01 6.231,-2.81 6.223,-6.26 -0.016,-3.41 -2.75,-6.17 -6.145,-6.22"
         id="path1248" />
    </clipPath>
    <clipPath
       clipPathUnits="userSpaceOnUse"
       id="clipPath1262">
      <path
         d="m 834.043,1716.35 -56.633,0.17 c 0.008,0 0.012,0 0.02,0 3.437,0 6.222,2.78 6.238,6.22 0.008,3.44 -2.77,6.24 -6.211,6.26 -0.004,0 -0.008,0 -0.012,0 l 54.453,-0.17 2.18,-0.01 c -0.004,0 -0.012,0 -0.015,0 -3.438,0 -6.231,-2.77 -6.243,-6.21 -0.007,-3.45 2.778,-6.25 6.223,-6.26"
         id="path1260" />
    </clipPath>
    <clipPath
       clipPathUnits="userSpaceOnUse"
       id="clipPath1274">
      <path
         d="m 840.664,1703.86 c -0.004,0 -0.016,0 -0.019,0 l -15.165,0.04 c 0.004,0 0.008,0 0.016,0 0.004,0 0.012,0 0.016,0 v 0 0 l -54.594,0.16 -2.453,0.01 c -3.445,0.01 -6.227,2.81 -6.219,6.26 0.012,3.44 2.801,6.22 6.238,6.22 0.008,0 0.012,0 0.02,0 l 72.18,-0.22 c 3.445,-0.01 6.23,-2.81 6.218,-6.26 -0.011,-3.44 -2.8,-6.21 -6.238,-6.21"
         id="path1272" />
    </clipPath>
    <clipPath
       clipPathUnits="userSpaceOnUse"
       id="clipPath1286">
      <path
         d="m 825.395,1691.43 -57.7,0.17 c 3.43,0.01 6.219,2.78 6.227,6.22 0.012,3.44 -2.774,6.24 -6.219,6.25 l 3.215,-0.01 54.594,-0.16 c -0.004,0 -0.012,0 -0.016,0 -0.008,0 -0.012,0 -0.016,0 -3.429,-0.01 -6.214,-2.79 -6.222,-6.22 -0.008,-3.42 2.73,-6.2 6.137,-6.25"
         id="path1284" />
    </clipPath>
    <clipPath
       clipPathUnits="userSpaceOnUse"
       id="clipPath1298">
      <path
         d="m 854.988,1678.86 c -0.008,0 -0.011,0 -0.023,0 l -17.094,0.05 c 0.004,0 0.004,0 0.004,0 0.004,0 0.012,0 0.016,0 v 0 0 l -5.766,0.02 -74.746,0.22 c -3.445,0.01 -6.234,2.81 -6.219,6.26 0.008,3.44 2.797,6.22 6.235,6.22 0.007,0 0.015,0 0.023,0 l 10.277,-0.03 57.7,-0.17 29.609,-0.1 c 3.445,-0.01 6.23,-2.81 6.223,-6.25 -0.016,-3.44 -2.805,-6.22 -6.239,-6.22"
         id="path1296" />
    </clipPath>
    <clipPath
       clipPathUnits="userSpaceOnUse"
       id="clipPath1310">
      <path
         d="m 837.859,1666.43 -76.504,0.23 c 0.004,0 0.012,0 0.02,0 3.434,0 6.227,2.79 6.234,6.22 0.012,3.45 -2.777,6.25 -6.218,6.26 l 70.734,-0.21 5.766,-0.02 c -0.004,0 -0.012,0 -0.016,0 0,0 0,0 -0.004,0 -3.433,0 -6.226,-2.78 -6.234,-6.22 -0.012,-3.44 2.777,-6.24 6.222,-6.26"
         id="path1308" />
    </clipPath>
    <clipPath
       clipPathUnits="userSpaceOnUse"
       id="clipPath1322">
      <path
         d="m 853.25,1653.91 -29.836,0.09 -76.344,0.23 c -3.445,0.01 -6.23,2.81 -6.218,6.26 0.011,3.44 2.8,6.21 6.234,6.21 0.012,0 0.016,0 0.023,0 l 106.153,-0.31 c 3.445,-0.01 6.234,-2.82 6.222,-6.26 -0.007,-3.43 -2.8,-6.21 -6.234,-6.22"
         id="path1320" />
    </clipPath>
    <clipPath
       clipPathUnits="userSpaceOnUse"
       id="clipPath1334">
      <path
         d="m 848.262,1650.13 -90.199,0.26 v 0 l 90.199,-0.26 v 0"
         id="path1332" />
    </clipPath>
    <linearGradient
       x1="0"
       y1="0"
       x2="1"
       y2="0"
       gradientUnits="userSpaceOnUse"
       gradientTransform="matrix(122.53542,-0.36770833,-0.36770833,-122.53542,799.45417,1679.9708)"
       spreadMethod="pad"
       id="linearGradient1340">
      <stop
         style="stop-opacity:1;stop-color:#f9f5d5"
         offset="0"
         id="stop1336" />
      <stop
         style="stop-opacity:1;stop-color:#d4cfae"
         offset="1"
         id="stop1338" />
    </linearGradient>
    <clipPath
       clipPathUnits="userSpaceOnUse"
       id="clipPath1350">
      <path
         d="m 848.262,1650.13 -90.199,0.26 c 0,0 0,0 -0.004,0 l 90.203,-0.26 v 0"
         id="path1348" />
    </clipPath>
    <clipPath
       clipPathUnits="userSpaceOnUse"
       id="clipPath1362">
      <path
         d="m 848.262,1650.13 -90.203,0.26 c -0.942,2.24 -3.149,3.82 -5.731,3.82 l 71.086,-0.21 29.836,-0.09 h 0.766 c -0.004,0 -0.012,0 -0.016,0 -2.57,0 -4.785,-1.56 -5.738,-3.78"
         id="path1360" />
    </clipPath>
  </defs>
  <sodipodi:namedview
     id="namedview4"
     pagecolor="#ffffff"
     bordercolor="#000000"
     borderopacity="0.25"
     inkscape:showpageshadow="2"
     inkscape:pageopacity="0.0"
     inkscape:pagecheckerboard="0"
     inkscape:deskcolor="#d1d1d1"
     showgrid="false"
     inkscape:zoom="0.62175006"
     inkscape:cx="578.20662"
     inkscape:cy="487.33409"
     inkscape:window-width="1920"
     inkscape:window-height="1009"
     inkscape:window-x="-8"
     inkscape:window-y="-8"
     inkscape:window-maximized="1"
     inkscape:current-layer="g10">
    <inkscape:page
       x="0"
       y="0"
       id="page8"
       width="330.27252"
       height="335.40488" />
  </sodipodi:namedview>
  <g
     id="g10"
     inkscape:groupmode="layer"
     inkscape:label="Page 1"
     transform="matrix(1.3333333,0,0,-1.3333333,1.5004857e-5,1333.3333)">
    <g
       id="g12"
       transform="scale(0.24)">
      <g
         id="g2251"
         style="display:inline"
         inkscape:label="laptop"
         transform="translate(-1547.4751,1750.7965)">
        <path
           d="m 2502.59,1988.2 59.93,374.02 c 2.06,11.69 -4.28,22.62 -14.29,27.21 -6.17,6.12 -14.62,9.8 -24.75,9.77 l -936.35,-2.47 c -9.43,-0.03 -17.4,-3.51 -23.42,-9.21 -10.94,-4.14 -18.07,-15.66 -15.82,-27.98 l 61.9,-373.71 c 0.89,-4.9 5.17,-8.46 10.15,-8.45 l 163.18,0.44 -151.94,-0.41 c -10.96,-0.03 -19.82,-8.93 -19.8,-19.9 l 1.51,-569.98 c 0.04,-10.96 8.94,-19.83 19.91,-19.8 l 850.06,2.25 c 10.96,0.03 19.83,8.95 19.8,19.91 l -1.51,569.98 c -0.03,10.96 -8.94,19.82 -19.9,19.8 l 11.24,0.03 c 4.98,0.01 9.24,3.59 10.1,8.5"
           style="fill:#af6364;fill-opacity:1;fill-rule:nonzero;stroke:none"
           id="path322" />
        <path
           d="m 2499.53,1386.65 -850.07,-2.25 c -10.96,-0.03 -19.87,8.83 -19.9,19.8 l -1.51,569.98 c -0.03,10.96 8.84,19.87 19.8,19.9 l 850.06,2.25 c 10.97,0.03 19.88,-8.83 19.91,-19.79 l 1.5,-569.99 c 0.04,-10.96 -8.83,-19.87 -19.79,-19.9"
           style="fill:#e7e5e6;fill-opacity:1;fill-rule:nonzero;stroke:none"
           id="path324" />
        <path
           d="m 2196.65,1583.93 -243.34,-0.64 c -6.24,-0.02 -11.27,-5.09 -11.26,-11.33 l 0.37,-137.57 c 0.01,-6.23 5.08,-11.27 11.31,-11.25 l 243.34,0.65 c 6.24,0.01 11.28,5.08 11.26,11.31 l -0.37,137.57 c -0.01,6.23 -5.08,11.28 -11.31,11.26"
           style="fill:#fafafa;fill-opacity:1;fill-rule:nonzero;stroke:none"
           id="path326" />
        <path
           d="m 1953.74,1420.88 c -7.47,-0.02 -13.56,6.04 -13.58,13.51 l -0.36,137.57 c -0.03,7.47 6.03,13.56 13.5,13.58 l 243.34,0.65 c 7.47,0.02 13.57,-6.05 13.59,-13.51 l 0.36,-137.57 c 0.02,-7.47 -6.04,-13.56 -13.51,-13.59 l -243.34,-0.64"
           style="fill:#d9d7d8;fill-opacity:1;fill-rule:nonzero;stroke:none"
           id="path328" />
        <path
           d="m 2196.65,1583.93 -243.34,-0.64 c -6.24,-0.02 -11.27,-5.09 -11.26,-11.33 l 0.37,-137.57 c 0.01,-6.23 5.08,-11.27 11.31,-11.25 l 243.34,0.65 c 6.24,0.01 11.28,5.08 11.26,11.31 l -0.37,137.57 c -0.01,6.23 -5.08,11.28 -11.31,11.26"
           style="fill:#fafafa;fill-opacity:1;fill-rule:nonzero;stroke:none"
           id="path330" />
        <path
           d="m 2197.07,1423.79 -243.34,-0.65 c -6.23,-0.02 -11.3,5.02 -11.31,11.25 l -0.08,27.52 265.92,0.71 0.07,-27.52 c 0.02,-6.23 -5.02,-11.3 -11.26,-11.31"
           style="fill:#c0bdc2;fill-opacity:1;fill-rule:nonzero;stroke:none"
           id="path332" />
        <path
           d="m 2077.13,1423.47 -3.45,-0.01 -0.11,38.8 3.46,0.01 0.1,-38.8"
           style="fill:#d5d3d6;fill-opacity:1;fill-rule:nonzero;stroke:none"
           id="path334" />
        <path
           d="m 1687.46,1675.34 54.36,0.15 c 2.76,0 5,-2.01 5,-4.51 l 0.13,-49.67 c 0.01,-2.49 -2.22,-4.52 -4.97,-4.52 l -54.36,-0.15 c -2.76,-0.01 -4.99,2.01 -5,4.5 l -0.13,49.67 c -0.01,2.5 2.22,4.52 4.97,4.53"
           style="fill:#6b6c6e;fill-opacity:1;fill-rule:nonzero;stroke:none"
           id="path336" />
        <path
           d="m 1759.28,1675.54 54.36,0.14 c 2.75,0 4.99,-2.01 5,-4.5 l 0.13,-49.68 c 0.01,-2.49 -2.22,-4.52 -4.97,-4.52 l -54.37,-0.15 c -2.75,-0.01 -4.99,2.01 -4.99,4.5 l -0.14,49.67 c 0,2.5 2.22,4.52 4.98,4.54"
           style="fill:#6b6c6e;fill-opacity:1;fill-rule:nonzero;stroke:none"
           id="path338" />
        <path
           d="m 1831.1,1675.72 54.36,0.15 c 2.75,0.01 4.99,-2.01 5,-4.51 l 0.13,-49.66 c 0.01,-2.5 -2.22,-4.52 -4.98,-4.53 l -54.36,-0.15 c -2.75,-0.01 -4.99,2.01 -5,4.5 l -0.13,49.67 c -0.01,2.5 2.22,4.52 4.98,4.53"
           style="fill:#6b6c6e;fill-opacity:1;fill-rule:nonzero;stroke:none"
           id="path340" />
        <path
           d="m 2120.57,1676.49 -7.19,-0.02 -7.49,-0.02 -64.33,-0.17 -7.48,-0.02 -64.34,-0.17 -66.83,-0.18 c -2.75,-0.01 -4.98,-2.03 -4.97,-4.53 l 0.13,-49.67 c 0,-2.49 2.24,-4.51 5,-4.5 l 66.82,0.18 64.34,0.17 7.48,0.02 64.34,0.17 7.48,0.02 7.19,0.02 52.16,0.14 c 2.75,0 4.98,2.03 4.98,4.52 l -0.13,49.68 c -0.02,2.49 -2.25,4.5 -5,4.5 l -52.16,-0.14"
           style="fill:#6b6c6e;fill-opacity:1;fill-rule:nonzero;stroke:none"
           id="path342" />
        <path
           d="m 2190.18,1676.68 54.36,0.14 c 2.76,0 5,-2.01 5,-4.5 l 0.13,-49.68 c 0.01,-2.49 -2.22,-4.51 -4.97,-4.52 l -54.37,-0.14 c -2.75,-0.02 -4.99,2 -5,4.5 l -0.13,49.66 c 0,2.5 2.23,4.53 4.98,4.54"
           style="fill:#6b6c6e;fill-opacity:1;fill-rule:nonzero;stroke:none"
           id="path344" />
        <path
           d="m 2262,1676.86 54.36,0.15 c 2.75,0.01 4.99,-2.01 5,-4.51 l 0.13,-49.66 c 0.01,-2.5 -2.22,-4.52 -4.98,-4.53 l -54.36,-0.15 c -2.76,-0.01 -4.99,2.01 -5,4.51 l -0.13,49.66 c -0.01,2.5 2.22,4.53 4.98,4.53"
           style="fill:#6b6c6e;fill-opacity:1;fill-rule:nonzero;stroke:none"
           id="path346" />
        <path
           d="m 2333.81,1677.05 54.37,0.15 c 2.75,0 4.99,-2.01 4.99,-4.5 l 0.13,-49.68 c 0.01,-2.48 -2.22,-4.52 -4.97,-4.52 l -54.37,-0.14 c -2.75,-0.01 -4.98,2 -4.99,4.5 l -0.13,49.66 c -0.01,2.5 2.22,4.53 4.97,4.53"
           style="fill:#6b6c6e;fill-opacity:1;fill-rule:nonzero;stroke:none"
           id="path348" />
        <path
           d="m 2405.63,1677.25 54.36,0.14 c 2.76,0 4.99,-2.01 5,-4.5 l 0.13,-49.67 c 0.01,-2.5 -2.22,-4.52 -4.98,-4.53 l -54.35,-0.14 c -2.76,-0.01 -5,2 -5,4.5 l -0.14,49.67 c -0.01,2.49 2.23,4.52 4.98,4.53"
           style="fill:#6b6c6e;fill-opacity:1;fill-rule:nonzero;stroke:none"
           id="path350" />
        <path
           d="m 1795.01,1741.1 54.37,0.15 c 2.75,0 4.99,-2.01 5,-4.51 l 0.13,-49.67 c 0,-2.49 -2.22,-4.52 -4.98,-4.52 l -54.36,-0.15 c -2.75,-0.01 -4.99,2.01 -5,4.5 l -0.13,49.67 c 0,2.5 2.22,4.52 4.97,4.53"
           style="fill:#6b6c6e;fill-opacity:1;fill-rule:nonzero;stroke:none"
           id="path352" />
        <path
           d="m 1866.83,1741.29 54.36,0.14 c 2.76,0.01 4.99,-2 5,-4.5 l 0.13,-49.67 c 0.01,-2.49 -2.21,-4.52 -4.97,-4.53 l -54.36,-0.14 c -2.76,-0.01 -4.99,2.01 -5,4.5 l -0.13,49.67 c -0.01,2.49 2.21,4.53 4.97,4.53"
           style="fill:#6b6c6e;fill-opacity:1;fill-rule:nonzero;stroke:none"
           id="path354" />
        <path
           d="m 1938.64,1741.48 54.37,0.15 c 2.75,0 4.99,-2.01 5,-4.51 l 0.13,-49.67 c 0,-2.49 -2.22,-4.52 -4.98,-4.52 l -54.36,-0.15 c -2.75,-0.01 -4.99,2.01 -5,4.51 l -0.13,49.66 c 0,2.5 2.22,4.53 4.97,4.53"
           style="fill:#6b6c6e;fill-opacity:1;fill-rule:nonzero;stroke:none"
           id="path356" />
        <path
           d="m 2010.46,1741.67 54.36,0.15 c 2.76,0 5,-2.01 5,-4.51 l 0.13,-49.67 c 0.01,-2.49 -2.22,-4.52 -4.97,-4.52 l -54.36,-0.15 c -2.75,-0.01 -4.99,2.01 -5,4.51 l -0.13,49.66 c -0.01,2.5 2.22,4.52 4.97,4.53"
           style="fill:#6b6c6e;fill-opacity:1;fill-rule:nonzero;stroke:none"
           id="path358" />
        <path
           d="m 2082.28,1741.86 54.36,0.14 c 2.75,0.01 4.99,-2 5,-4.5 l 0.13,-49.67 c 0.01,-2.49 -2.22,-4.52 -4.97,-4.53 l -54.36,-0.14 c -2.76,-0.01 -5,2.01 -5,4.5 l -0.14,49.67 c 0,2.49 2.22,4.53 4.98,4.53"
           style="fill:#6b6c6e;fill-opacity:1;fill-rule:nonzero;stroke:none"
           id="path360" />
        <path
           d="m 2154.1,1742.05 54.36,0.15 c 2.75,0 4.99,-2.01 5,-4.51 l 0.13,-49.67 c 0.01,-2.49 -2.22,-4.52 -4.98,-4.52 l -54.36,-0.15 c -2.75,0 -4.99,2.01 -5,4.51 l -0.13,49.66 c 0,2.5 2.22,4.53 4.98,4.53"
           style="fill:#6b6c6e;fill-opacity:1;fill-rule:nonzero;stroke:none"
           id="path362" />
        <path
           d="m 2225.91,1742.24 54.36,0.14 c 2.76,0.01 5,-2 5,-4.5 l 0.13,-49.67 c 0.01,-2.49 -2.22,-4.52 -4.97,-4.53 l -54.36,-0.14 c -2.75,0 -5,2.01 -5,4.5 l -0.13,49.67 c -0.01,2.5 2.22,4.52 4.97,4.53"
           style="fill:#6b6c6e;fill-opacity:1;fill-rule:nonzero;stroke:none"
           id="path364" />
        <path
           d="m 2297.73,1742.43 54.36,0.14 c 2.76,0.01 4.99,-2 5,-4.5 l 0.13,-49.67 c 0.01,-2.49 -2.22,-4.52 -4.97,-4.52 l -54.36,-0.15 c -2.76,0 -5,2.01 -5,4.5 l -0.14,49.67 c 0,2.49 2.23,4.53 4.98,4.53"
           style="fill:#6b6c6e;fill-opacity:1;fill-rule:nonzero;stroke:none"
           id="path366" />
        <path
           d="m 1902.57,1806.86 54.36,0.14 c 2.75,0.01 4.99,-2 5,-4.5 l 0.13,-49.67 c 0,-2.49 -2.22,-4.52 -4.98,-4.53 l -54.36,-0.14 c -2.76,-0.01 -4.99,2.01 -5,4.5 l -0.13,49.67 c -0.01,2.49 2.22,4.52 4.98,4.53"
           style="fill:#6b6c6e;fill-opacity:1;fill-rule:nonzero;stroke:none"
           id="path368" />
        <path
           d="m 1830.75,1806.67 54.36,0.14 c 2.76,0.01 5,-2.01 5,-4.5 l 0.13,-49.67 c 0.01,-2.5 -2.22,-4.52 -4.97,-4.53 l -54.37,-0.14 c -2.75,-0.01 -4.99,2.01 -5,4.5 l -0.13,49.67 c 0,2.49 2.23,4.52 4.98,4.53"
           style="fill:#6b6c6e;fill-opacity:1;fill-rule:nonzero;stroke:none"
           id="path370" />
        <path
           d="m 1758.93,1806.48 54.37,0.14 c 2.75,0.01 4.99,-2.01 4.99,-4.5 l 0.14,-49.67 c 0,-2.49 -2.23,-4.52 -4.98,-4.53 l -54.36,-0.14 c -2.76,-0.01 -4.99,2.01 -5,4.5 l -0.13,49.67 c -0.01,2.49 2.22,4.52 4.97,4.53"
           style="fill:#6b6c6e;fill-opacity:1;fill-rule:nonzero;stroke:none"
           id="path372" />
        <path
           d="m 1687.12,1806.29 54.36,0.14 c 2.75,0.01 4.99,-2 5,-4.5 l 0.13,-49.67 c 0.01,-2.49 -2.22,-4.52 -4.98,-4.53 l -54.36,-0.14 c -2.75,-0.01 -4.99,2.01 -5,4.5 l -0.13,49.67 c -0.01,2.49 2.22,4.52 4.98,4.53"
           style="fill:#6b6c6e;fill-opacity:1;fill-rule:nonzero;stroke:none"
           id="path374" />
        <path
           d="m 1974.38,1807.05 54.36,0.14 c 2.76,0.01 5,-2.01 5,-4.5 l 0.14,-49.67 c 0,-2.49 -2.23,-4.52 -4.98,-4.53 l -54.36,-0.14 c -2.75,-0.01 -4.99,2.01 -5,4.5 l -0.13,49.67 c -0.01,2.49 2.22,4.52 4.97,4.53"
           style="fill:#6b6c6e;fill-opacity:1;fill-rule:nonzero;stroke:none"
           id="path376" />
        <path
           d="m 2046.2,1807.24 54.36,0.14 c 2.76,0.01 4.99,-2 5,-4.5 l 0.13,-49.67 c 0.01,-2.5 -2.22,-4.52 -4.98,-4.53 l -54.35,-0.14 c -2.76,0 -5,2.01 -5,4.5 l -0.13,49.67 c -0.02,2.49 2.22,4.52 4.97,4.53"
           style="fill:#6b6c6e;fill-opacity:1;fill-rule:nonzero;stroke:none"
           id="path378" />
        <path
           d="m 2118.02,1807.43 54.36,0.14 c 2.75,0.01 4.99,-2 5,-4.5 l 0.13,-49.67 c 0,-2.49 -2.22,-4.52 -4.97,-4.52 l -54.37,-0.15 c -2.75,-0.01 -4.99,2.01 -5,4.5 l -0.13,49.67 c 0,2.49 2.22,4.52 4.98,4.53"
           style="fill:#6b6c6e;fill-opacity:1;fill-rule:nonzero;stroke:none"
           id="path380" />
        <path
           d="m 2189.83,1807.62 54.36,0.14 c 2.76,0.01 5,-2.01 5,-4.5 l 0.13,-49.67 c 0.01,-2.49 -2.21,-4.52 -4.97,-4.53 l -54.36,-0.14 c -2.76,-0.01 -4.99,2.01 -5,4.5 l -0.13,49.67 c -0.01,2.49 2.22,4.52 4.97,4.53"
           style="fill:#6b6c6e;fill-opacity:1;fill-rule:nonzero;stroke:none"
           id="path382" />
        <path
           d="m 2261.65,1807.81 54.36,0.14 c 2.75,0.01 4.99,-2 5,-4.5 l 0.13,-49.66 c 0,-2.5 -2.22,-4.53 -4.97,-4.54 l -54.37,-0.14 c -2.75,0 -4.99,2.01 -5,4.5 l -0.12,49.67 c -0.01,2.49 2.21,4.52 4.97,4.53"
           style="fill:#6b6c6e;fill-opacity:1;fill-rule:nonzero;stroke:none"
           id="path384" />
        <path
           d="m 2010.12,1872.62 54.36,0.14 c 2.75,0.01 4.99,-2.01 5,-4.5 l 0.13,-49.67 c 0.01,-2.49 -2.22,-4.52 -4.98,-4.53 l -54.36,-0.14 c -2.75,-0.01 -4.99,2.01 -5,4.5 l -0.13,49.67 c 0,2.49 2.22,4.52 4.98,4.53"
           style="fill:#6b6c6e;fill-opacity:1;fill-rule:nonzero;stroke:none"
           id="path386" />
        <path
           d="m 1938.3,1872.43 54.36,0.14 c 2.76,0.01 4.99,-2.01 5,-4.5 l 0.13,-49.67 c 0.01,-2.5 -2.22,-4.52 -4.97,-4.53 l -54.37,-0.14 c -2.75,-0.01 -4.99,2 -4.99,4.5 l -0.14,49.67 c 0,2.49 2.23,4.52 4.98,4.53"
           style="fill:#6b6c6e;fill-opacity:1;fill-rule:nonzero;stroke:none"
           id="path388" />
        <path
           d="m 1866.48,1872.24 54.37,0.14 c 2.75,0.01 4.99,-2.01 5,-4.5 l 0.13,-49.67 c 0,-2.5 -2.23,-4.52 -4.98,-4.53 l -54.36,-0.14 c -2.76,-0.01 -5,2.01 -5,4.5 l -0.13,49.67 c -0.01,2.49 2.22,4.52 4.97,4.53"
           style="fill:#6b6c6e;fill-opacity:1;fill-rule:nonzero;stroke:none"
           id="path390" />
        <path
           d="m 1794.67,1872.05 54.36,0.14 c 2.76,0.01 4.99,-2.01 5,-4.5 l 0.13,-49.67 c 0.01,-2.5 -2.22,-4.52 -4.98,-4.53 l -54.36,-0.14 c -2.75,-0.01 -4.99,2.01 -5,4.5 l -0.13,49.67 c 0,2.49 2.22,4.52 4.98,4.53"
           style="fill:#6b6c6e;fill-opacity:1;fill-rule:nonzero;stroke:none"
           id="path392" />
        <path
           d="m 2081.93,1872.81 54.37,0.14 c 2.75,0.01 4.99,-2.01 5,-4.5 l 0.13,-49.67 c 0,-2.49 -2.23,-4.52 -4.98,-4.53 l -54.36,-0.14 c -2.76,-0.01 -4.99,2.01 -5,4.5 l -0.13,49.67 c -0.01,2.49 2.22,4.52 4.97,4.53"
           style="fill:#6b6c6e;fill-opacity:1;fill-rule:nonzero;stroke:none"
           id="path394" />
        <path
           d="m 2153.75,1873 54.36,0.14 c 2.76,0.01 5,-2.01 5,-4.5 l 0.13,-49.67 c 0.01,-2.49 -2.22,-4.52 -4.97,-4.53 l -54.37,-0.14 c -2.75,-0.01 -4.99,2 -4.99,4.5 l -0.14,49.67 c 0,2.49 2.23,4.52 4.98,4.53"
           style="fill:#6b6c6e;fill-opacity:1;fill-rule:nonzero;stroke:none"
           id="path396" />
        <path
           d="m 2225.57,1873.19 54.36,0.14 c 2.75,0.01 4.99,-2.01 5,-4.5 l 0.13,-49.67 c 0.01,-2.49 -2.22,-4.52 -4.98,-4.53 l -54.36,-0.14 c -2.75,-0.01 -4.99,2.01 -4.99,4.5 l -0.14,49.67 c -0.01,2.5 2.22,4.52 4.98,4.53"
           style="fill:#6b6c6e;fill-opacity:1;fill-rule:nonzero;stroke:none"
           id="path398" />
        <path
           d="m 2297.38,1873.38 54.37,0.14 c 2.75,0.01 4.99,-2.01 5,-4.5 l 0.13,-49.67 c 0,-2.49 -2.23,-4.52 -4.98,-4.53 l -54.36,-0.14 c -2.75,-0.01 -4.99,2.01 -5,4.5 l -0.13,49.67 c -0.01,2.49 2.22,4.52 4.97,4.53"
           style="fill:#6b6c6e;fill-opacity:1;fill-rule:nonzero;stroke:none"
           id="path400" />
        <path
           d="m 1902.22,1937.8 54.36,0.15 c 2.75,0 4.99,-2.01 5,-4.5 l 0.13,-49.67 c 0,-2.49 -2.22,-4.53 -4.97,-4.53 l -54.36,-0.14 c -2.76,-0.01 -5,2 -5,4.5 l -0.13,49.66 c -0.01,2.5 2.21,4.53 4.97,4.53"
           style="fill:#6b6c6e;fill-opacity:1;fill-rule:nonzero;stroke:none"
           id="path402" />
        <path
           d="m 1830.4,1937.62 54.36,0.14 c 2.76,0.01 5,-2.01 5,-4.5 l 0.13,-49.67 c 0.01,-2.5 -2.21,-4.52 -4.97,-4.53 l -54.36,-0.14 c -2.76,-0.01 -4.99,2.01 -5,4.5 l -0.13,49.67 c -0.01,2.49 2.22,4.52 4.97,4.53"
           style="fill:#6b6c6e;fill-opacity:1;fill-rule:nonzero;stroke:none"
           id="path404" />
        <path
           d="m 1758.59,1937.43 54.36,0.14 c 2.75,0 4.99,-2.01 5,-4.5 l 0.13,-49.68 c 0,-2.49 -2.22,-4.51 -4.97,-4.52 l -54.37,-0.14 c -2.75,-0.01 -4.99,2 -5,4.5 l -0.13,49.66 c 0,2.5 2.22,4.53 4.98,4.54"
           style="fill:#6b6c6e;fill-opacity:1;fill-rule:nonzero;stroke:none"
           id="path406" />
        <path
           d="m 1686.77,1937.23 54.36,0.15 c 2.75,0.01 5,-2.01 5,-4.5 l 0.13,-49.67 c 0.01,-2.5 -2.22,-4.52 -4.97,-4.53 l -54.36,-0.14 c -2.76,-0.02 -5,2 -5,4.5 l -0.13,49.66 c -0.01,2.5 2.22,4.53 4.97,4.53"
           style="fill:#6b6c6e;fill-opacity:1;fill-rule:nonzero;stroke:none"
           id="path408" />
        <path
           d="m 1974.04,1938 54.35,0.14 c 2.76,0 5,-2.01 5,-4.5 l 0.14,-49.68 c 0.01,-2.48 -2.22,-4.51 -4.98,-4.52 l -54.36,-0.14 c -2.75,-0.01 -4.99,2 -5,4.5 l -0.13,49.66 c -0.01,2.5 2.23,4.53 4.98,4.54"
           style="fill:#6b6c6e;fill-opacity:1;fill-rule:nonzero;stroke:none"
           id="path410" />
        <path
           d="m 2045.86,1938.19 54.35,0.14 c 2.75,0.01 4.99,-2.01 5,-4.5 l 0.14,-49.67 c 0,-2.5 -2.22,-4.52 -4.98,-4.53 l -54.36,-0.15 c -2.76,0 -4.99,2.01 -5,4.51 l -0.13,49.67 c -0.01,2.49 2.22,4.52 4.98,4.53"
           style="fill:#6b6c6e;fill-opacity:1;fill-rule:nonzero;stroke:none"
           id="path412" />
        <path
           d="m 2117.67,1938.38 54.36,0.14 c 2.76,0 4.99,-2.01 5,-4.5 l 0.13,-49.67 c 0.01,-2.49 -2.22,-4.53 -4.97,-4.53 l -54.37,-0.14 c -2.75,-0.01 -4.99,2 -5,4.5 l -0.13,49.67 c 0,2.49 2.22,4.52 4.98,4.53"
           style="fill:#6b6c6e;fill-opacity:1;fill-rule:nonzero;stroke:none"
           id="path414" />
        <path
           d="m 2189.49,1938.57 54.36,0.14 c 2.75,0 4.99,-2.01 5,-4.5 l 0.13,-49.67 c 0,-2.49 -2.22,-4.52 -4.98,-4.53 l -54.36,-0.14 c -2.75,-0.01 -4.99,2.01 -5,4.5 l -0.13,49.67 c -0.01,2.49 2.22,4.52 4.98,4.53"
           style="fill:#6b6c6e;fill-opacity:1;fill-rule:nonzero;stroke:none"
           id="path416" />
        <path
           d="m 2261.3,1938.75 54.36,0.15 c 2.76,0.01 4.99,-2.01 5,-4.51 l 0.14,-49.66 c 0,-2.5 -2.23,-4.52 -4.98,-4.53 l -54.36,-0.15 c -2.76,0 -5,2.01 -5,4.51 l -0.14,49.67 c 0,2.49 2.23,4.52 4.98,4.52"
           style="fill:#6b6c6e;fill-opacity:1;fill-rule:nonzero;stroke:none"
           id="path418" />
        <path
           d="m 2333.12,1938.95 54.36,0.14 c 2.75,0.01 4.99,-2.01 5,-4.5 l 0.13,-49.67 c 0.01,-2.49 -2.22,-4.53 -4.98,-4.53 l -54.36,-0.14 c -2.75,-0.01 -4.98,2 -5,4.5 l -0.13,49.67 c 0,2.49 2.22,4.52 4.98,4.53"
           style="fill:#6b6c6e;fill-opacity:1;fill-rule:nonzero;stroke:none"
           id="path420" />
        <path
           d="m 2404.93,1939.14 54.37,0.14 c 2.75,0.01 4.99,-2.01 5,-4.5 l 0.13,-49.67 c 0,-2.49 -2.23,-4.52 -4.98,-4.53 l -54.36,-0.14 c -2.75,-0.01 -4.99,2.01 -5,4.5 l -0.13,49.67 c -0.01,2.49 2.22,4.52 4.97,4.53"
           style="fill:#6b6c6e;fill-opacity:1;fill-rule:nonzero;stroke:none"
           id="path422" />
        <path
           d="m 2369.2,1873.57 90.27,0.24 c 2.76,0.01 4.99,-2.01 5,-4.51 l 0.13,-49.66 c 0.01,-2.5 -2.22,-4.53 -4.97,-4.53 l -90.27,-0.24 c -2.76,-0.01 -5,2.01 -5,4.5 l -0.13,49.67 c -0.02,2.5 2.22,4.52 4.97,4.53"
           style="fill:#6b6c6e;fill-opacity:1;fill-rule:nonzero;stroke:none"
           id="path424" />
        <path
           d="m 2414.51,1808.21 -14.21,-0.03 -66.84,-0.18 c -2.75,-0.01 -4.98,-2.04 -4.97,-4.53 l 0.13,-49.67 c 0.01,-2.49 2.25,-4.51 5,-4.5 l 66.83,0.18 14.21,0.04 45.14,0.11 c 2.75,0.01 4.98,2.04 4.97,4.53 l -0.13,49.67 c 0,2.49 -2.25,4.51 -5,4.5 l -45.13,-0.12"
           style="fill:#6b6c6e;fill-opacity:1;fill-rule:nonzero;stroke:none"
           id="path426" />
        <path
           d="m 1745.3,1871.92 -10.47,-0.03 -47.89,-0.13 c -2.75,-0.01 -4.98,-2.03 -4.98,-4.53 l 0.14,-49.67 c 0.01,-2.49 2.25,-4.51 5,-4.5 l 47.89,0.13 10.46,0.02 31.92,0.09 c 2.75,0.01 4.98,2.03 4.97,4.53 l -0.13,49.67 c -0.01,2.49 -2.25,4.51 -5,4.5 l -31.91,-0.08"
           style="fill:#6b6c6e;fill-opacity:1;fill-rule:nonzero;stroke:none"
           id="path428" />
        <path
           d="m 1777.8,1741.05 -90.75,-0.24 c -2.62,0 -4.74,-2.13 -4.73,-4.75 l 0.13,-49.21 c 0,-2.62 2.13,-4.74 4.75,-4.74 l 90.76,0.25 c 2.62,0 4.74,2.13 4.73,4.75 l -0.13,49.21 c -0.01,2.62 -2.14,4.74 -4.76,4.73"
           style="fill:#6b6c6e;fill-opacity:1;fill-rule:nonzero;stroke:none"
           id="path430" />
        <path
           d="m 2460.06,1742.86 -90.76,-0.24 c -2.62,-0.01 -4.73,-2.14 -4.73,-4.76 l 0.13,-49.21 c 0.01,-2.61 2.14,-4.74 4.76,-4.73 l 90.75,0.24 c 2.62,0.01 4.74,2.14 4.74,4.76 l -0.13,49.21 c -0.01,2.62 -2.14,4.74 -4.76,4.73"
           style="fill:#6b6c6e;fill-opacity:1;fill-rule:nonzero;stroke:none"
           id="path432" />
        <path
           d="m 2540.14,2415.87 -936.34,-2.48 c -21.73,-0.06 -35.77,-18.41 -35.71,-40.14 v 0 l 1007.97,4.07 c -0.05,21.73 -14.18,38.61 -35.92,38.55"
           style="fill:#e7e5e6;fill-opacity:1;fill-rule:nonzero;stroke:none"
           id="path434" />
        <path
           d="m 1636.61,1994.05 872.54,2.31 c 4.99,0.02 9.24,3.59 10.11,8.5 l 59.93,374.03 c 2.71,15.41 -9.17,29.54 -24.82,29.49 l -965.16,-2.55 c -15.65,-0.04 -27.46,-14.23 -24.66,-29.63 l 61.91,-373.7 c 0.89,-4.9 5.17,-8.46 10.15,-8.45"
           style="fill:#5e6061;fill-opacity:1;fill-rule:nonzero;stroke:none"
           id="path436" />
        <path
           d="m 1646.84,2014.39 -55.54,356.83 c -0.14,0.78 0.05,1.48 0.56,2.09 0.5,0.61 1.16,0.92 1.95,0.92 l 956.13,2.53 c 0.79,0.01 1.45,-0.3 1.96,-0.9 0.51,-0.61 0.7,-1.31 0.56,-2.09 l -53.64,-357.12 -851.98,-2.26"
           style="fill:#ffffff;fill-opacity:1;fill-rule:nonzero;stroke:none"
           id="path438" />
        <path
           d="m 2337.67,1983.36 -529.51,-1.4 c -4.61,-0.01 -8.35,3.71 -8.36,8.32 l -0.03,8.41 c -0.01,4.61 3.72,8.35 8.32,8.36 l 529.52,1.4 c 4.6,0.01 8.35,-3.71 8.36,-8.32 l 0.02,-8.4 c 0.01,-4.61 -3.71,-8.36 -8.32,-8.37"
           style="fill:#373737;fill-opacity:1;fill-rule:nonzero;stroke:none"
           id="path440" />
        <path
           d="m 2425.95,2047.86 -706.77,-2.06 -44.47,294.82 c -0.57,3.76 4.95,6.82 12.31,6.81 l 767.53,-1.33 c 7.2,-0.02 12.6,-3.05 12.08,-6.77 z m 28.89,300.34 -768.13,1.35 c -9.66,0.02 -16.88,-3.99 -16.13,-8.92 l 45.18,-296.52 713.56,2.1 41.35,293.11 c 0.69,4.88 -6.4,8.86 -15.83,8.88"
           style="fill:#6f8ccc;fill-opacity:1;fill-rule:nonzero;stroke:none"
           id="path442" />
        <path
           d="m 2425.95,2047.86 -706.77,-2.06 -44.47,294.82 c -0.57,3.76 4.95,6.82 12.31,6.81 l 767.53,-1.33 c 7.2,-0.02 12.6,-3.05 12.08,-6.77 l -40.68,-291.47"
           style="fill:#f7f7f7;fill-opacity:1;fill-rule:nonzero;stroke:none"
           id="path444" />
        <path
           d="m 2464.33,2322.84 -787.1,1.07 -0.31,2.09 787.7,-1.1 -0.29,-2.06"
           style="fill:#6f8ccc;fill-opacity:1;fill-rule:nonzero;stroke:none"
           id="path446" />
        <path
           d="m 2454.55,2346.1 -767.53,1.33 c -7.36,0.01 -12.88,-3.05 -12.31,-6.81 l 2.21,-14.62 787.7,-1.1 2.01,14.43 c 0.52,3.72 -4.88,6.75 -12.08,6.77"
           style="fill:#ffffff;fill-opacity:1;fill-rule:nonzero;stroke:none"
           id="path448" />
        <path
           d="m 1711.45,2336.27 c 0.35,-2.61 -3.5,-4.72 -8.61,-4.72 -5.12,0.01 -9.57,2.14 -9.95,4.75 -0.38,2.63 3.48,4.75 8.61,4.74 5.13,0 9.58,-2.15 9.95,-4.77"
           style="fill:#6f8ccc;fill-opacity:1;fill-rule:nonzero;stroke:none"
           id="path450" />
        <path
           d="m 1738.23,2336.23 c 0.33,-2.61 -3.54,-4.72 -8.65,-4.71 -5.12,0 -9.54,2.12 -9.89,4.74 -0.36,2.62 3.52,4.74 8.65,4.74 5.12,-0.01 9.55,-2.14 9.89,-4.77"
           style="fill:#6f8ccc;fill-opacity:1;fill-rule:nonzero;stroke:none"
           id="path452" />
        <path
           d="m 1764.98,2336.19 c 0.31,-2.61 -3.58,-4.72 -8.68,-4.71 -5.11,0 -9.51,2.13 -9.84,4.74 -0.33,2.62 3.56,4.74 8.69,4.73 5.12,0 9.53,-2.14 9.83,-4.76"
           style="fill:#6f8ccc;fill-opacity:1;fill-rule:nonzero;stroke:none"
           id="path454" />
        <path
           d="m 2451.13,2228.26 -759.45,-0.08 -12.1,80.15 782.6,-0.88 -11.05,-79.19"
           style="fill:#f68667;fill-opacity:1;fill-rule:nonzero;stroke:none"
           id="path456" />
        <path
           d="m 2462.09,2306.77 -782.4,0.87 -2.46,16.27 787.1,-1.07 -2.24,-16.07"
           style="fill:#5f6471;fill-opacity:1;fill-rule:nonzero;stroke:none"
           id="path458" />
        <path
           d="m 2450.68,2227.3 -759.19,-0.09 -0.15,0.97 759.47,0.08 -0.13,-0.96"
           style="fill:#ed684e;fill-opacity:1;fill-rule:nonzero;stroke:none"
           id="path460" />
        <path
           d="m 1739.11,2156.21 -7.17,52.52 191.82,0.08 3.28,-52.36 -187.93,-0.24"
           style="fill:#fbc149;fill-opacity:1;fill-rule:nonzero;stroke:none"
           id="path462" />
        <path
           d="m 1925.07,2157.36 -184.17,-0.22 -6.86,50.64 187.83,0.08 3.2,-50.5"
           style="fill:#fcd45e;fill-opacity:1;fill-rule:nonzero;stroke:none"
           id="path464" />
        <path
           d="m 2220.25,2156.8 2.75,52.13 188.93,0.08 -6.52,-51.99 -185.16,-0.22"
           style="fill:#434b57;fill-opacity:1;fill-rule:nonzero;stroke:none"
           id="path466" />
        <path
           d="m 2403.64,2157.93 -181.45,-0.22 2.69,50.27 185.01,0.08 -6.25,-50.13"
           style="fill:#5f6572;fill-opacity:1;fill-rule:nonzero;stroke:none"
           id="path468" />
        <path
           d="m 2087.3,2156.64 0.02,52.24 108.59,0.04 -2.21,-52.15 -106.4,-0.13"
           style="fill:#ed684e;fill-opacity:1;fill-rule:nonzero;stroke:none"
           id="path470" />
        <path
           d="m 2191.84,2157.68 -102.64,-0.13 0.06,50.38 104.67,0.04 -2.09,-50.29"
           style="fill:#f68667;fill-opacity:1;fill-rule:nonzero;stroke:none"
           id="path472" />
        <path
           d="m 1953.8,2156.48 -2.72,52.34 109.04,0.05 0.52,-52.26 -106.84,-0.13"
           style="fill:#87c1c6;fill-opacity:1;fill-rule:nonzero;stroke:none"
           id="path474" />
        <path
           d="m 2058.73,2157.52 -103.06,-0.13 -2.59,50.48 105.11,0.04 0.54,-50.39"
           style="fill:#e5f6f7;fill-opacity:1;fill-rule:nonzero;stroke:none"
           id="path476" />
        <path
           d="m 1747.67,2093.49 -6.81,49.93 186.98,0.26 3.11,-49.8 -183.28,-0.39"
           style="fill:#ed684e;fill-opacity:1;fill-rule:nonzero;stroke:none"
           id="path478" />
        <path
           d="m 1929.03,2094.75 -179.6,-0.38 -6.54,48.14 183.1,0.26 3.04,-48.02"
           style="fill:#f68667;fill-opacity:1;fill-rule:nonzero;stroke:none"
           id="path480" />
        <path
           d="m 2216.96,2094.51 2.61,49.58 184.25,0.26 -6.21,-49.45 -180.65,-0.39"
           style="fill:#87c1c6;fill-opacity:1;fill-rule:nonzero;stroke:none"
           id="path482" />
        <path
           d="m 2395.88,2095.76 -177.02,-0.38 2.55,47.81 180.42,0.26 -5.95,-47.69"
           style="fill:#e5f6f7;fill-opacity:1;fill-rule:nonzero;stroke:none"
           id="path484" />
        <path
           d="m 2087.27,2094.23 0.02,49.68 105.87,0.14 -2.1,-49.6 -103.79,-0.22"
           style="fill:#fbc149;fill-opacity:1;fill-rule:nonzero;stroke:none"
           id="path486" />
        <path
           d="m 2189.25,2095.32 -100.12,-0.22 0.06,47.9 102.05,0.15 -1.99,-47.83"
           style="fill:#fcd45e;fill-opacity:1;fill-rule:nonzero;stroke:none"
           id="path488" />
        <path
           d="m 1957.06,2093.94 -2.6,49.78 106.31,0.15 0.5,-49.7 -104.21,-0.23"
           style="fill:#434b57;fill-opacity:1;fill-rule:nonzero;stroke:none"
           id="path490" />
        <path
           d="m 2059.4,2095.04 -100.52,-0.22 -2.46,48 102.47,0.14 0.51,-47.92"
           style="fill:#5f6572;fill-opacity:1;fill-rule:nonzero;stroke:none"
           id="path492" />
        <path
           d="m 2345.82,2261.05 -543,0.22 -2.15,20.06 547.1,-0.39 -1.95,-19.89"
           style="fill:#ffffff;fill-opacity:1;fill-rule:nonzero;stroke:none"
           id="path494" />
        <path
           d="m 2323.57,2270.01 c -3.26,1.72 -3.02,4.51 0.56,6.24 3.57,1.72 9.12,1.71 12.38,-0.01 3.26,-1.73 2.99,-4.53 -0.58,-6.24 -3.57,-1.71 -9.11,-1.71 -12.36,0.01 z m 14.53,6.99 c -4.06,2.16 -10.97,2.16 -15.42,0.01 -4.45,-2.15 -4.75,-5.62 -0.69,-7.76 4.05,-2.14 10.93,-2.14 15.37,-0.01 4.45,2.14 4.78,5.61 0.74,7.76"
           style="fill:#5f6471;fill-opacity:1;fill-rule:nonzero;stroke:none"
           id="path496" />
        <path
           d="m 2319.85,2269.24 2.15,-1.14 -8.43,-4.06 -2.16,1.14 8.44,4.06"
           style="fill:#5f6471;fill-opacity:1;fill-rule:nonzero;stroke:none"
           id="path498" />
        <path
           d="m 2310.82,2264.83 c -0.39,-0.29 -0.35,-0.69 0.14,-0.95 0.49,-0.26 1.28,-0.29 1.89,-0.11 l -2.03,1.06"
           style="fill:#5f6471;fill-opacity:1;fill-rule:nonzero;stroke:none"
           id="path500" />
        <path
           d="m 2429.05,2072.25 -713.59,-1.8 3.72,-24.65 706.47,2.06 3.4,24.39"
           style="fill:#5f6471;fill-opacity:1;fill-rule:nonzero;stroke:none"
           id="path502" />
        <path
           d="m 1960.86,2056.12 -208.01,-0.57 -0.7,5.09 208.45,0.56 0.26,-5.08"
           style="fill:#ffffff;fill-opacity:1;fill-rule:nonzero;stroke:none"
           id="path504" />
        <path
           d="m 2180.36,2056.73 -49,-0.14 0.09,5.07 49.1,0.13 -0.19,-5.06"
           style="fill:#ffffff;fill-opacity:1;fill-rule:nonzero;stroke:none"
           id="path506" />
        <path
           d="m 2112.84,2056.54 -49.11,-0.14 -0.05,5.08 49.21,0.13 -0.05,-5.07"
           style="fill:#ffffff;fill-opacity:1;fill-rule:nonzero;stroke:none"
           id="path508" />
        <path
           d="m 2324,2057.12 -125.17,-0.35 0.24,5.07 125.43,0.34 -0.5,-5.06"
           style="fill:#ffffff;fill-opacity:1;fill-rule:nonzero;stroke:none"
           id="path510" />
        <path
           d="m 2391.08,2057.3 -48.69,-0.13 0.54,5.06 48.78,0.13 -0.63,-5.06"
           style="fill:#ffffff;fill-opacity:1;fill-rule:nonzero;stroke:none"
           id="path512" />
      </g>
    </g>
  </g>
</svg>
