<?xml version="1.0" encoding="UTF-8" standalone="no"?>
<!-- Created with Inkscape (http://www.inkscape.org/) -->

<svg
   version="1.1"
   id="svg2"
   width="159.23909"
   height="57.436527"
   viewBox="0 0 159.2391 57.436529"
   sodipodi:docname="shades.svg"
   inkscape:version="1.2 (dc2aedaf03, 2022-05-15)"
   xmlns:inkscape="http://www.inkscape.org/namespaces/inkscape"
   xmlns:sodipodi="http://sodipodi.sourceforge.net/DTD/sodipodi-0.dtd"
   xmlns="http://www.w3.org/2000/svg"
   xmlns:svg="http://www.w3.org/2000/svg">
  <defs
     id="defs6">
    <clipPath
       clipPathUnits="userSpaceOnUse"
       id="clipPath48">
      <path
         d="m 171.309,1180.93 h 3824.81 V 3248.38 H 171.309 Z"
         id="path46" />
    </clipPath>
    <clipPath
       clipPathUnits="userSpaceOnUse"
       id="clipPath574">
      <path
         d="m 3535.79,1963.04 c 0.15,1.64 -0.31,3.28 -1.3,4.59 l 0.41,0.62 c 0.61,0.93 0.95,1.95 1.05,2.98 2.39,0.51 4.68,1.58 6.67,3.2 l 0.52,0.43 c 2.59,2.1 4.84,4.6 6.68,7.39 l 1.35,2.07 c 1.6,-2.14 1.82,-5.18 0.24,-7.59 l -1.75,-2.67 c -1.84,-2.79 -4.09,-5.29 -6.68,-7.39 l -0.52,-0.43 c -1.98,-1.62 -4.28,-2.69 -6.67,-3.2"
         id="path572" />
    </clipPath>
    <clipPath
       clipPathUnits="userSpaceOnUse"
       id="clipPath736">
      <path
         d="m 890.316,1399.57 -378.488,1.14 1.684,560.24 378.488,-1.13 -1.684,-560.25 m -42.054,250.56 14.211,-0.05 0.757,252.81 0.071,23.99 -323.262,0.98 -0.004,-1.13 v 0 l -0.269,-88.21 -0.016,-5.31 -0.086,-29.2 -0.047,-15.61 -0.027,-8.15 v 0 0 l -0.02,-6.99 -0.031,-11.7 -0.023,-6.09 v 0 0 l -0.036,-12.39 -0.039,-12.39 h 0.004 -0.004 l -0.039,-12.39 -0.031,-12.39 -0.168,-54.86 218.86,-0.66 v 0 l 90.199,-0.26 v 0"
         id="path734" />
    </clipPath>
    <linearGradient
       x1="0"
       y1="0"
       x2="1"
       y2="0"
       gradientUnits="userSpaceOnUse"
       gradientTransform="matrix(122.53542,-0.36770833,-0.36770833,-122.53542,799.45417,1679.9708)"
       spreadMethod="pad"
       id="linearGradient742">
      <stop
         style="stop-opacity:1;stop-color:#f9f9f9"
         offset="0"
         id="stop738" />
      <stop
         style="stop-opacity:1;stop-color:#cac8c7"
         offset="1"
         id="stop740" />
    </linearGradient>
    <clipPath
       clipPathUnits="userSpaceOnUse"
       id="clipPath816">
      <path
         d="m 862.473,1650.08 -14.211,0.05 v 0 l 14.203,-0.05 0.426,141.59 h 0.004 l -0.422,-141.59 m -104.41,0.31 -217.887,0.66 217.883,-0.66 c 0.004,0 0.004,0 0.004,0 m -217.348,142.25 h -0.039 -1.047 1.086"
         id="path814" />
    </clipPath>
    <clipPath
       clipPathUnits="userSpaceOnUse"
       id="clipPath828">
      <path
         d="m 862.465,1650.08 -14.203,0.05 c 0.953,2.22 3.168,3.78 5.738,3.78 0.004,0 0.012,0 0.016,0 v 0 0 h -0.766 c 3.434,0.01 6.227,2.79 6.234,6.22 0.012,3.44 -2.777,6.25 -6.222,6.26 l -106.153,0.31 c -0.007,0 -0.011,0 -0.023,0 -3.434,0 -6.223,-2.77 -6.234,-6.21 -0.012,-3.45 2.773,-6.25 6.218,-6.26 l 76.344,-0.23 -71.086,0.21 c 2.582,0 4.789,-1.58 5.731,-3.82 l -217.883,0.66 h -0.973 l 0.168,54.86 73.379,-0.22 c 0.004,0 0.012,0 0.016,0 3.304,0 5.992,2.68 6,5.98 v 0.39 c 0.011,3.32 -2.664,6.01 -5.977,6.02 l -24.101,0.07 c -3.313,0.01 -5.989,2.71 -5.981,6.02 v 0.39 c 0.016,3.31 2.695,5.98 6,5.98 0.004,0 0.016,0 0.02,0 v 0 l 109.527,-0.33 c 0.008,0 0.012,0 0.019,0 3.305,0 5.989,2.68 5.997,5.99 l 0.003,0.39 c 0.012,3.31 -2.668,6.01 -5.98,6.02 l -21.391,0.06 c -3.312,0.01 -5.988,2.7 -5.976,6.02 v 0.39 c 0.012,3.3 2.695,5.98 6,5.98 0.004,0 0.012,0 0.015,0 v 0 0 l -137.425,0.41 v 0 l 137.425,-0.41 34.059,-0.1 c 0.008,0 0.012,0 0.02,0 3.304,0 5.988,2.67 5.996,5.98 v 0.39 c 0.011,3.31 -2.664,6.01 -5.977,6.02 l -6.281,0.02 v 0 c -3.317,0.01 -5.992,2.7 -5.985,6.01 l 0.004,0.39 c 0.012,3.31 2.696,5.98 5.996,5.98 0.012,0 0.016,0 0.024,0 v 0 0 l -165.207,0.5 v 0 l 165.207,-0.5 22.621,-0.06 c 0.004,0 0.012,0 0.016,0 3.304,0 5.988,2.67 5.996,5.98 l 0.004,0.39 c 0.007,3.31 -2.657,5.99 -5.957,6.02 l 1.832,-0.01 h 0.339 v 0 l 133.247,-0.4 -0.43,-141.59 m -101.11,16.58 76.504,-0.23 c -3.445,0.02 -6.234,2.82 -6.222,6.26 0.008,3.44 2.801,6.22 6.234,6.22 l 17.094,-0.05 c 0.012,0 0.015,0 0.023,0 3.434,0 6.223,2.78 6.239,6.22 0.007,3.44 -2.778,6.24 -6.223,6.25 l -29.609,0.1 c -3.407,0.05 -6.145,2.83 -6.137,6.25 0.008,3.43 2.793,6.21 6.222,6.22 l 15.165,-0.04 c 0.003,0 0.015,0 0.019,0 3.438,0 6.227,2.77 6.238,6.21 0.012,3.45 -2.773,6.25 -6.218,6.26 l -72.18,0.22 c -0.008,0 -0.012,0 -0.02,0 -3.437,0 -6.226,-2.78 -6.238,-6.22 -0.008,-3.45 2.774,-6.25 6.219,-6.26 l 2.453,-0.01 -3.215,0.01 c 3.445,-0.01 6.231,-2.81 6.219,-6.25 -0.008,-3.44 -2.797,-6.21 -6.227,-6.22 l -10.277,0.03 c -0.008,0 -0.016,0 -0.023,0 -3.438,0 -6.227,-2.78 -6.235,-6.22 -0.015,-3.45 2.774,-6.25 6.219,-6.26 l 74.746,-0.22 -70.734,0.21 c 3.441,-0.01 6.23,-2.81 6.218,-6.26 -0.007,-3.43 -2.8,-6.22 -6.234,-6.22 -0.008,0 -0.016,0 -0.02,0 m -10.769,49.94 c -3.434,0 -6.223,-2.78 -6.234,-6.22 -0.012,-3.44 2.773,-6.25 6.218,-6.25 l 0.68,-0.01 c 0.004,0 0.012,0 0.016,0 3.437,0 6.23,2.78 6.242,6.22 v 0 c 0.008,3.45 -2.774,6.25 -6.219,6.26 h -0.68 c -0.007,0 -0.011,0 -0.023,0 m -16.449,0.05 c -3.438,0 -6.227,-2.78 -6.242,-6.22 -0.008,-3.45 2.777,-6.25 6.222,-6.25 l 0.68,-0.01 c 0.008,0 0.012,0 0.019,0 3.438,0 6.227,2.78 6.239,6.22 0.008,3.45 -2.778,6.25 -6.223,6.26 h -0.68 c -0.004,0 -0.011,0 -0.015,0 m 43.273,-0.13 56.633,-0.17 c -3.445,0.01 -6.23,2.81 -6.223,6.26 0.012,3.44 2.805,6.21 6.243,6.21 0.003,0 0.011,0 0.015,0 v 0 0 l -2.18,0.01 c 3.395,0.05 6.129,2.81 6.145,6.22 0.008,3.45 -2.777,6.25 -6.223,6.26 l -5.785,0.01 c -3.433,0.03 -6.207,2.82 -6.195,6.26 0.012,3.44 2.801,6.22 6.238,6.22 0.004,0 0.012,0 0.02,0 v 0 0 h -0.418 c 3.429,0.02 6.207,2.79 6.218,6.22 0.012,3.45 -2.773,6.25 -6.218,6.26 l -41.871,0.12 c -0.008,0 -0.012,0 -0.02,0 -3.437,0 -6.226,-2.77 -6.238,-6.21 -0.008,-3.45 2.773,-6.25 6.219,-6.26 l 34.097,-0.1 -29.801,0.09 c 3.442,-0.01 6.231,-2.81 6.219,-6.26 -0.012,-3.43 -2.789,-6.21 -6.219,-6.22 l -12.128,0.04 c -0.004,0 -0.012,0 -0.016,0 -3.438,0 -6.231,-2.78 -6.238,-6.22 -0.012,-3.45 2.769,-6.25 6.214,-6.26 h 1.559 c 3.441,-0.02 6.219,-2.82 6.211,-6.26 -0.016,-3.44 -2.801,-6.22 -6.238,-6.22 -0.008,0 -0.012,0 -0.02,0 m -18.601,25.01 c -3.438,0 -6.231,-2.78 -6.239,-6.22 -0.007,-3.45 2.778,-6.25 6.223,-6.26 h 0.68 c 0.004,0 0.011,0 0.015,0 3.438,0 6.227,2.78 6.239,6.22 0.011,3.44 -2.774,6.25 -6.219,6.25 l -0.68,0.01 c -0.008,0 -0.012,0 -0.019,0 m -32.911,0.1 c -3.433,0 -6.222,-2.78 -6.23,-6.22 -0.016,-3.45 2.77,-6.25 6.215,-6.26 h 0.68 c 0.007,0 0.011,0 0.019,0 3.434,0 6.227,2.78 6.238,6.22 0.008,3.44 -2.773,6.24 -6.218,6.26 h -0.68 c -0.008,0 -0.012,0 -0.024,0 m 116.981,24.6 c -3.438,0 -6.231,-2.78 -6.242,-6.22 -0.008,-3.45 2.777,-6.25 6.222,-6.26 h 0.68 c 0.008,0 0.012,0 0.02,0 3.433,0 6.226,2.79 6.238,6.22 0.008,3.45 -2.777,6.25 -6.223,6.26 h -0.679 c -0.004,0 -0.012,0 -0.016,0 m -50.59,0.15 24.91,-0.07 c -3.445,0.01 -6.234,2.81 -6.219,6.25 0.008,3.44 2.797,6.23 6.235,6.23 0.012,0 0.015,0 0.023,0 v 0 0 l -24.914,0.07 c 3.446,-0.01 6.231,-2.81 6.223,-6.26 -0.012,-3.44 -2.801,-6.22 -6.238,-6.22 -0.008,0 -0.012,0 -0.02,0 m -0.43,24.95 c -3.437,0 -6.226,-2.78 -6.238,-6.21 -0.008,-3.45 2.774,-6.25 6.219,-6.26 l 25.883,-0.08 c 0.004,0 0.011,0 0.015,0 3.438,0 6.227,2.78 6.239,6.22 0.011,3.45 -2.774,6.25 -6.219,6.26 l -25.879,0.07 c -0.008,0 -0.012,0 -0.02,0 m -252.312,-26.35 0.016,5.22 -0.008,-2.34 -0.008,-2.88 m 162.152,27.17 -6.691,0.03 -154.332,0.46 h 0.039 l 155.828,-0.47 v 0 0 l 5.156,-0.02"
         id="path826" />
    </clipPath>
    <clipPath
       clipPathUnits="userSpaceOnUse"
       id="clipPath840">
      <path
         d="m 862.895,1791.67 v 0 l -133.247,0.4 v 0 l 133.243,-0.4 0.41,135.22 v -0.01 l -0.406,-135.21"
         id="path838" />
    </clipPath>
    <clipPath
       clipPathUnits="userSpaceOnUse"
       id="clipPath852">
      <path
         d="m 862.891,1791.67 -133.243,0.4 -27.074,9.74 -36.16,8.65 c -3.148,0.75 -6.211,1.8 -9.152,3.15 l -11.742,5.37 c -5.961,2.72 -12.344,4.41 -18.875,5.01 l -21.137,1.93 c -2.82,0.26 -5.586,0.95 -8.199,2.04 l -0.176,0.08 c -5.168,2.15 -10.68,3.37 -16.274,3.59 l -9.16,0.35 6.098,-1.87 c 5.164,-1.6 9.906,-4.33 13.867,-8.01 3.719,-3.45 8.344,-5.75 13.328,-6.65 v 0 c -4.984,0.9 -9.609,3.2 -13.328,6.65 -3.961,3.68 -8.703,6.41 -13.867,8.01 l -6.098,1.87 -13.941,4.29 c -3.055,0.94 -6.192,1.59 -9.367,1.93 l -8.621,0.94 0.269,88.72 323.262,-0.98 -0.41,-135.21"
         id="path850" />
    </clipPath>
    <clipPath
       clipPathUnits="userSpaceOnUse"
       id="clipPath910">
      <path
         d="m 539.59,1780.25 v 0 l 0.027,8.15 -0.027,-8.15"
         id="path908" />
    </clipPath>
    <linearGradient
       x1="0"
       y1="0"
       x2="1"
       y2="0"
       gradientUnits="userSpaceOnUse"
       gradientTransform="matrix(122.53542,-0.36770833,-0.36770833,-122.53542,799.45417,1679.9708)"
       spreadMethod="pad"
       id="linearGradient916">
      <stop
         style="stop-opacity:1;stop-color:#d4c4a4"
         offset="0"
         id="stop912" />
      <stop
         style="stop-opacity:1;stop-color:#b8a88b"
         offset="1"
         id="stop914" />
    </linearGradient>
    <clipPath
       clipPathUnits="userSpaceOnUse"
       id="clipPath928">
      <path
         d="m 540.676,1792.64 h -1.047 v 0 h 1.047"
         id="path926" />
    </clipPath>
    <clipPath
       clipPathUnits="userSpaceOnUse"
       id="clipPath940">
      <path
         d="m 727.434,1779.69 c -0.004,0 -0.012,0 -0.016,0 l -22.621,0.06 -165.207,0.5 0.039,12.39 h 1.047 l 154.332,-0.46 6.691,-0.03 25.778,-0.07 c 3.3,-0.03 5.964,-2.71 5.957,-6.02 l -0.004,-0.39 c -0.008,-3.31 -2.692,-5.98 -5.996,-5.98"
         id="path938" />
    </clipPath>
    <clipPath
       clipPathUnits="userSpaceOnUse"
       id="clipPath954">
      <path
         d="m 539.516,1755.47 v 0 l 0.023,6.09 -0.023,-6.09"
         id="path952" />
    </clipPath>
    <linearGradient
       x1="0"
       y1="0"
       x2="1"
       y2="0"
       gradientUnits="userSpaceOnUse"
       gradientTransform="matrix(122.53542,-0.36770833,-0.36770833,-122.53542,799.45417,1679.9708)"
       spreadMethod="pad"
       id="linearGradient960">
      <stop
         style="stop-opacity:1;stop-color:#d4c4a4"
         offset="0"
         id="stop956" />
      <stop
         style="stop-opacity:1;stop-color:#b8a88b"
         offset="1"
         id="stop958" />
    </linearGradient>
    <clipPath
       clipPathUnits="userSpaceOnUse"
       id="clipPath972">
      <path
         d="m 711.02,1754.96 c -0.008,0 -0.012,0 -0.02,0 l -34.059,0.1 -137.425,0.41 0.031,9.51 0.008,2.88 165.203,-0.49 6.281,-0.02 c 3.313,-0.01 5.988,-2.71 5.977,-6.02 v -0.39 c -0.008,-3.31 -2.692,-5.98 -5.996,-5.98 m -6.262,12.41 v 0 c -0.004,0 -0.004,0 -0.004,0 h 0.004"
         id="path970" />
    </clipPath>
    <clipPath
       clipPathUnits="userSpaceOnUse"
       id="clipPath984">
      <path
         d="m 539.441,1730.69 v 0 l 0.039,12.39 -0.035,-12.39"
         id="path982" />
    </clipPath>
    <linearGradient
       x1="0"
       y1="0"
       x2="1"
       y2="0"
       gradientUnits="userSpaceOnUse"
       gradientTransform="matrix(122.53542,-0.36770833,-0.36770833,-122.53542,799.45417,1679.9708)"
       spreadMethod="pad"
       id="linearGradient990">
      <stop
         style="stop-opacity:1;stop-color:#d4c4a4"
         offset="0"
         id="stop986" />
      <stop
         style="stop-opacity:1;stop-color:#b8a88b"
         offset="1"
         id="stop988" />
    </linearGradient>
    <clipPath
       clipPathUnits="userSpaceOnUse"
       id="clipPath1002">
      <path
         d="m 698.273,1730.21 c -0.007,0 -0.011,0 -0.019,0 l -109.527,0.33 v 0 l -49.286,0.15 0.039,12.39 137.422,-0.41 v 0 l 21.391,-0.06 c 3.312,-0.01 5.992,-2.71 5.98,-6.02 l -0.003,-0.39 c -0.008,-3.31 -2.692,-5.99 -5.997,-5.99"
         id="path1000" />
    </clipPath>
    <clipPath
       clipPathUnits="userSpaceOnUse"
       id="clipPath1014">
      <path
         d="m 539.371,1705.91 v 0 l 0.031,12.39 -0.031,-12.39"
         id="path1012" />
    </clipPath>
    <linearGradient
       x1="0"
       y1="0"
       x2="1"
       y2="0"
       gradientUnits="userSpaceOnUse"
       gradientTransform="matrix(122.53542,-0.36770833,-0.36770833,-122.53542,799.45417,1679.9708)"
       spreadMethod="pad"
       id="linearGradient1020">
      <stop
         style="stop-opacity:1;stop-color:#d4c4a4"
         offset="0"
         id="stop1016" />
      <stop
         style="stop-opacity:1;stop-color:#b8a88b"
         offset="1"
         id="stop1018" />
    </linearGradient>
    <clipPath
       clipPathUnits="userSpaceOnUse"
       id="clipPath1032">
      <path
         d="m 612.766,1705.69 c -0.004,0 -0.012,0 -0.016,0 l -73.379,0.22 0.039,12.39 49.278,-0.15 v 0 l 24.101,-0.07 c 3.313,-0.01 5.988,-2.7 5.977,-6.02 v -0.39 c -0.008,-3.3 -2.696,-5.98 -6,-5.98"
         id="path1030" />
    </clipPath>
    <clipPath
       clipPathUnits="userSpaceOnUse"
       id="clipPath1046">
      <path
         d="m 704.758,1767.37 -165.203,0.49 0.008,2.34 0.027,10.05 165.207,-0.5 c -0.008,0 -0.012,0 -0.024,0 -3.3,0 -5.984,-2.67 -5.996,-5.98 l -0.004,-0.39 c -0.007,-3.31 2.668,-6 5.981,-6.01 v 0"
         id="path1044" />
    </clipPath>
    <clipPath
       clipPathUnits="userSpaceOnUse"
       id="clipPath1058">
      <path
         d="m 704.758,1767.37 v 0 l -165.203,0.49 165.203,-0.49"
         id="path1056" />
    </clipPath>
    <clipPath
       clipPathUnits="userSpaceOnUse"
       id="clipPath1070">
      <path
         d="m 539.402,1718.3 v 0 l 0.039,12.39 -0.031,-12.39"
         id="path1068" />
    </clipPath>
    <linearGradient
       x1="0"
       y1="0"
       x2="1"
       y2="0"
       gradientUnits="userSpaceOnUse"
       gradientTransform="matrix(122.53542,-0.36770833,-0.36770833,-122.53542,799.45417,1679.9708)"
       spreadMethod="pad"
       id="linearGradient1076">
      <stop
         style="stop-opacity:1;stop-color:#d4c4a4"
         offset="0"
         id="stop1072" />
      <stop
         style="stop-opacity:1;stop-color:#b8a88b"
         offset="1"
         id="stop1074" />
    </linearGradient>
    <clipPath
       clipPathUnits="userSpaceOnUse"
       id="clipPath1088">
      <path
         d="m 588.688,1718.15 -49.286,0.15 0.043,12.39 49.282,-0.15 c -0.004,0 -0.016,0 -0.02,0 -3.305,0 -5.984,-2.67 -6,-5.98 v -0.39 c -0.008,-3.31 2.668,-6.01 5.981,-6.02 v 0"
         id="path1086" />
    </clipPath>
    <clipPath
       clipPathUnits="userSpaceOnUse"
       id="clipPath1100">
      <path
         d="m 588.727,1730.54 v 0 l -49.286,0.15 h 0.004 l 49.282,-0.15"
         id="path1098" />
    </clipPath>
    <clipPath
       clipPathUnits="userSpaceOnUse"
       id="clipPath1112">
      <path
         d="m 539.48,1743.08 v 0 l 0.036,12.39 -0.036,-12.39"
         id="path1110" />
    </clipPath>
    <linearGradient
       x1="0"
       y1="0"
       x2="1"
       y2="0"
       gradientUnits="userSpaceOnUse"
       gradientTransform="matrix(122.53542,-0.36770833,-0.36770833,-122.53542,799.45417,1679.9708)"
       spreadMethod="pad"
       id="linearGradient1118">
      <stop
         style="stop-opacity:1;stop-color:#d4c4a4"
         offset="0"
         id="stop1114" />
      <stop
         style="stop-opacity:1;stop-color:#b8a88b"
         offset="1"
         id="stop1116" />
    </linearGradient>
    <clipPath
       clipPathUnits="userSpaceOnUse"
       id="clipPath1130">
      <path
         d="m 676.902,1742.67 -137.422,0.41 0.036,12.39 137.425,-0.41 c -0.003,0 -0.011,0 -0.015,0 -3.305,0 -5.988,-2.68 -6,-5.98 v -0.39 c -0.012,-3.32 2.664,-6.01 5.976,-6.02 v 0"
         id="path1128" />
    </clipPath>
    <clipPath
       clipPathUnits="userSpaceOnUse"
       id="clipPath1142">
      <path
         d="m 817.738,1778.78 c -0.004,0 -0.011,0 -0.015,0 l -25.883,0.08 c -3.445,0.01 -6.227,2.81 -6.219,6.26 0.012,3.43 2.801,6.21 6.238,6.21 0.008,0 0.012,0 0.02,0 l 25.879,-0.07 c 3.445,-0.01 6.23,-2.81 6.219,-6.26 -0.012,-3.44 -2.801,-6.22 -6.239,-6.22"
         id="path1140" />
    </clipPath>
    <clipPath
       clipPathUnits="userSpaceOnUse"
       id="clipPath1154">
      <path
         d="m 843.559,1753.75 c -0.008,0 -0.012,0 -0.02,0 h -0.68 c -3.445,0.01 -6.23,2.81 -6.222,6.26 0.011,3.44 2.804,6.22 6.242,6.22 0.004,0 0.012,0 0.016,0 h 0.679 c 3.446,-0.01 6.231,-2.81 6.223,-6.26 -0.012,-3.43 -2.805,-6.22 -6.238,-6.22"
         id="path1152" />
    </clipPath>
    <clipPath
       clipPathUnits="userSpaceOnUse"
       id="clipPath1166">
      <path
         d="m 759.488,1729.05 c -0.004,0 -0.011,0 -0.015,0 h -0.68 c -3.445,0.01 -6.23,2.81 -6.223,6.26 0.008,3.44 2.801,6.22 6.239,6.22 0.007,0 0.011,0 0.019,0 l 0.68,-0.01 c 3.445,0 6.23,-2.81 6.219,-6.25 -0.012,-3.44 -2.801,-6.22 -6.239,-6.22"
         id="path1164" />
    </clipPath>
    <clipPath
       clipPathUnits="userSpaceOnUse"
       id="clipPath1178">
      <path
         d="m 726.582,1729.15 c -0.008,0 -0.012,0 -0.019,0 h -0.68 c -3.445,0.01 -6.231,2.81 -6.215,6.26 0.008,3.44 2.797,6.22 6.23,6.22 0.012,0 0.016,0 0.024,0 h 0.68 c 3.445,-0.02 6.226,-2.82 6.218,-6.26 -0.011,-3.44 -2.804,-6.22 -6.238,-6.22"
         id="path1176" />
    </clipPath>
    <clipPath
       clipPathUnits="userSpaceOnUse"
       id="clipPath1190">
      <path
         d="m 751.266,1704.12 c -0.004,0 -0.012,0 -0.016,0 l -0.68,0.01 c -3.445,0 -6.23,2.81 -6.218,6.25 0.011,3.44 2.8,6.22 6.234,6.22 0.012,0 0.016,0 0.023,0 h 0.68 c 3.445,-0.01 6.227,-2.81 6.219,-6.26 v 0 c -0.012,-3.44 -2.805,-6.22 -6.242,-6.22"
         id="path1188" />
    </clipPath>
    <clipPath
       clipPathUnits="userSpaceOnUse"
       id="clipPath1202">
      <path
         d="m 734.816,1704.17 c -0.007,0 -0.011,0 -0.019,0 l -0.68,0.01 c -3.445,0 -6.23,2.8 -6.222,6.25 0.015,3.44 2.804,6.22 6.242,6.22 0.004,0 0.011,0 0.015,0 h 0.68 c 3.445,-0.01 6.231,-2.81 6.223,-6.26 -0.012,-3.44 -2.801,-6.22 -6.239,-6.22"
         id="path1200" />
    </clipPath>
    <clipPath
       clipPathUnits="userSpaceOnUse"
       id="clipPath1214">
      <path
         d="m 817.199,1766.31 -24.91,0.07 c 0.008,0 0.012,0 0.02,0 3.437,0 6.226,2.78 6.238,6.22 0.008,3.45 -2.777,6.25 -6.223,6.26 l 24.914,-0.07 c -0.008,0 -0.011,0 -0.023,0 -3.438,0 -6.227,-2.79 -6.235,-6.23 -0.015,-3.44 2.774,-6.24 6.219,-6.25"
         id="path1212" />
    </clipPath>
    <clipPath
       clipPathUnits="userSpaceOnUse"
       id="clipPath1226">
      <path
         d="m 825.68,1753.8 -7.813,0.03 -34.097,0.1 c -3.446,0.01 -6.227,2.81 -6.219,6.26 0.012,3.44 2.801,6.21 6.238,6.21 0.008,0 0.012,0 0.02,0 l 41.871,-0.12 c 3.445,-0.01 6.23,-2.81 6.218,-6.26 -0.011,-3.43 -2.789,-6.2 -6.218,-6.22"
         id="path1224" />
    </clipPath>
    <clipPath
       clipPathUnits="userSpaceOnUse"
       id="clipPath1238">
      <path
         d="m 826.035,1741.32 -37.969,0.12 c 3.43,0.01 6.207,2.79 6.219,6.22 0.012,3.45 -2.777,6.25 -6.219,6.26 l 29.801,-0.09 7.813,-0.03 h 0.418 c -0.008,0 -0.016,0 -0.02,0 -3.437,0 -6.226,-2.78 -6.238,-6.22 -0.012,-3.44 2.762,-6.23 6.195,-6.26"
         id="path1236" />
    </clipPath>
    <clipPath
       clipPathUnits="userSpaceOnUse"
       id="clipPath1250">
      <path
         d="m 831.898,1728.83 -54.453,0.17 c 0.004,0 0.008,0 0.012,0 h -1.559 c -3.445,0.01 -6.226,2.81 -6.214,6.26 0.007,3.44 2.8,6.22 6.238,6.22 0.004,0 0.012,0 0.016,0 l 12.128,-0.04 37.969,-0.12 5.785,-0.01 c 3.446,-0.01 6.231,-2.81 6.223,-6.26 -0.016,-3.41 -2.75,-6.17 -6.145,-6.22"
         id="path1248" />
    </clipPath>
    <clipPath
       clipPathUnits="userSpaceOnUse"
       id="clipPath1262">
      <path
         d="m 834.043,1716.35 -56.633,0.17 c 0.008,0 0.012,0 0.02,0 3.437,0 6.222,2.78 6.238,6.22 0.008,3.44 -2.77,6.24 -6.211,6.26 -0.004,0 -0.008,0 -0.012,0 l 54.453,-0.17 2.18,-0.01 c -0.004,0 -0.012,0 -0.015,0 -3.438,0 -6.231,-2.77 -6.243,-6.21 -0.007,-3.45 2.778,-6.25 6.223,-6.26"
         id="path1260" />
    </clipPath>
    <clipPath
       clipPathUnits="userSpaceOnUse"
       id="clipPath1274">
      <path
         d="m 840.664,1703.86 c -0.004,0 -0.016,0 -0.019,0 l -15.165,0.04 c 0.004,0 0.008,0 0.016,0 0.004,0 0.012,0 0.016,0 v 0 0 l -54.594,0.16 -2.453,0.01 c -3.445,0.01 -6.227,2.81 -6.219,6.26 0.012,3.44 2.801,6.22 6.238,6.22 0.008,0 0.012,0 0.02,0 l 72.18,-0.22 c 3.445,-0.01 6.23,-2.81 6.218,-6.26 -0.011,-3.44 -2.8,-6.21 -6.238,-6.21"
         id="path1272" />
    </clipPath>
    <clipPath
       clipPathUnits="userSpaceOnUse"
       id="clipPath1286">
      <path
         d="m 825.395,1691.43 -57.7,0.17 c 3.43,0.01 6.219,2.78 6.227,6.22 0.012,3.44 -2.774,6.24 -6.219,6.25 l 3.215,-0.01 54.594,-0.16 c -0.004,0 -0.012,0 -0.016,0 -0.008,0 -0.012,0 -0.016,0 -3.429,-0.01 -6.214,-2.79 -6.222,-6.22 -0.008,-3.42 2.73,-6.2 6.137,-6.25"
         id="path1284" />
    </clipPath>
    <clipPath
       clipPathUnits="userSpaceOnUse"
       id="clipPath1298">
      <path
         d="m 854.988,1678.86 c -0.008,0 -0.011,0 -0.023,0 l -17.094,0.05 c 0.004,0 0.004,0 0.004,0 0.004,0 0.012,0 0.016,0 v 0 0 l -5.766,0.02 -74.746,0.22 c -3.445,0.01 -6.234,2.81 -6.219,6.26 0.008,3.44 2.797,6.22 6.235,6.22 0.007,0 0.015,0 0.023,0 l 10.277,-0.03 57.7,-0.17 29.609,-0.1 c 3.445,-0.01 6.23,-2.81 6.223,-6.25 -0.016,-3.44 -2.805,-6.22 -6.239,-6.22"
         id="path1296" />
    </clipPath>
    <clipPath
       clipPathUnits="userSpaceOnUse"
       id="clipPath1310">
      <path
         d="m 837.859,1666.43 -76.504,0.23 c 0.004,0 0.012,0 0.02,0 3.434,0 6.227,2.79 6.234,6.22 0.012,3.45 -2.777,6.25 -6.218,6.26 l 70.734,-0.21 5.766,-0.02 c -0.004,0 -0.012,0 -0.016,0 0,0 0,0 -0.004,0 -3.433,0 -6.226,-2.78 -6.234,-6.22 -0.012,-3.44 2.777,-6.24 6.222,-6.26"
         id="path1308" />
    </clipPath>
    <clipPath
       clipPathUnits="userSpaceOnUse"
       id="clipPath1322">
      <path
         d="m 853.25,1653.91 -29.836,0.09 -76.344,0.23 c -3.445,0.01 -6.23,2.81 -6.218,6.26 0.011,3.44 2.8,6.21 6.234,6.21 0.012,0 0.016,0 0.023,0 l 106.153,-0.31 c 3.445,-0.01 6.234,-2.82 6.222,-6.26 -0.007,-3.43 -2.8,-6.21 -6.234,-6.22"
         id="path1320" />
    </clipPath>
    <clipPath
       clipPathUnits="userSpaceOnUse"
       id="clipPath1334">
      <path
         d="m 848.262,1650.13 -90.199,0.26 v 0 l 90.199,-0.26 v 0"
         id="path1332" />
    </clipPath>
    <linearGradient
       x1="0"
       y1="0"
       x2="1"
       y2="0"
       gradientUnits="userSpaceOnUse"
       gradientTransform="matrix(122.53542,-0.36770833,-0.36770833,-122.53542,799.45417,1679.9708)"
       spreadMethod="pad"
       id="linearGradient1340">
      <stop
         style="stop-opacity:1;stop-color:#f9f5d5"
         offset="0"
         id="stop1336" />
      <stop
         style="stop-opacity:1;stop-color:#d4cfae"
         offset="1"
         id="stop1338" />
    </linearGradient>
    <clipPath
       clipPathUnits="userSpaceOnUse"
       id="clipPath1350">
      <path
         d="m 848.262,1650.13 -90.199,0.26 c 0,0 0,0 -0.004,0 l 90.203,-0.26 v 0"
         id="path1348" />
    </clipPath>
    <clipPath
       clipPathUnits="userSpaceOnUse"
       id="clipPath1362">
      <path
         d="m 848.262,1650.13 -90.203,0.26 c -0.942,2.24 -3.149,3.82 -5.731,3.82 l 71.086,-0.21 29.836,-0.09 h 0.766 c -0.004,0 -0.012,0 -0.016,0 -2.57,0 -4.785,-1.56 -5.738,-3.78"
         id="path1360" />
    </clipPath>
  </defs>
  <sodipodi:namedview
     id="namedview4"
     pagecolor="#ffffff"
     bordercolor="#000000"
     borderopacity="0.25"
     inkscape:showpageshadow="2"
     inkscape:pageopacity="0.0"
     inkscape:pagecheckerboard="0"
     inkscape:deskcolor="#d1d1d1"
     showgrid="false"
     inkscape:zoom="0.62175006"
     inkscape:cx="481.70482"
     inkscape:cy="337.7563"
     inkscape:window-width="1920"
     inkscape:window-height="1009"
     inkscape:window-x="-8"
     inkscape:window-y="-8"
     inkscape:window-maximized="1"
     inkscape:current-layer="g10">
    <inkscape:page
       x="0"
       y="0"
       id="page8"
       width="159.23911"
       height="57.436527" />
  </sodipodi:namedview>
  <g
     id="g10"
     inkscape:groupmode="layer"
     inkscape:label="Page 1"
     transform="matrix(1.3333333,0,0,-1.3333333,-1.3648989e-5,1333.3333)">
    <g
       id="g12"
       transform="scale(0.24)">
      <g
         id="g2121"
         style="display:inline"
         inkscape:label="shades"
         transform="translate(-3068.0188,2041.1392)">
        <path
           d="m 3532.94,2006.98 c -0.81,-8.28 -3.58,-15.93 -7.8,-22.52 4.22,6.59 6.99,14.24 7.8,22.52 l 1.58,16.16 -1.58,-16.16 m -210.43,67.29 c -4.51,0.77 -9.24,1.22 -14.14,1.31 -4.07,0.08 -7.99,-0.17 -11.83,-0.57 -1.2,12.2 -9.78,22.35 -21.41,25.67 l 69.8,-1.35 c -11.82,-2.88 -20.83,-12.79 -22.42,-25.06 m 5.22,1.46 c 0.51,2.34 1.35,4.56 2.47,6.6 -1.12,-2.04 -1.96,-4.26 -2.47,-6.6 m 10.15,15.14 c -1.27,-0.88 -2.46,-1.88 -3.54,-2.98 -1.09,-1.09 -2.07,-2.29 -2.93,-3.57 0.86,1.28 1.84,2.48 2.93,3.57 1.08,1.1 2.27,2.1 3.54,2.98 1.26,0.88 2.62,1.65 4.05,2.28 -1.43,-0.63 -2.79,-1.4 -4.05,-2.28 m 6.25,3.13 c 2.24,0.75 4.63,1.2 7.11,1.27 -2.48,-0.07 -4.87,-0.52 -7.11,-1.27 m -35.85,-23.33 c 4.83,-0.09 9.51,-0.57 13.94,-1.35 l -0.46,-24.08 -13.27,-0.69 -12.28,1.11 0.47,24.41 c 3.76,0.41 7.61,0.68 11.6,0.6 m 240.69,-19.49 c 0.07,3.23 -2.6,5.84 -5.8,5.67 l -1.17,-0.06 0.14,2.05 c 0.79,10.99 -2.86,21.52 -10.29,29.66 -7.43,8.13 -17.58,12.73 -28.6,12.94 l -70.28,1.35 -14.1,-0.45 0.01,0.49 -222.7,4.28 -0.01,-0.23 -8.88,0.62 -70.29,1.35 c -11.01,0.21 -21.33,-3.99 -29.07,-11.84 -7.73,-7.84 -11.79,-18.22 -11.42,-29.24 l 0.07,-2.13 -2.13,0.2 c -3.19,0.29 -5.95,-2.21 -6.01,-5.45 l -0.16,-8.19 -0.26,-13.86 c -0.06,-3.02 2.22,-5.57 5.19,-5.82 l 4.6,-0.37 1.01,-16.85 c 0.57,-9.72 3.72,-18.74 8.68,-26.51 l -5.32,-2.43 c -3.54,-1.62 -4.88,-6.01 -2.86,-9.37 l 0.38,-0.63 c -1.68,-2.07 -2.02,-5.09 -0.54,-7.56 l 1.65,-2.73 c 1.73,-2.87 3.88,-5.44 6.38,-7.65 l 0.51,-0.44 c 4.98,-4.38 12.12,-5.18 17.92,-1.99 l 15.42,8.48 c 4.03,-1.02 8.21,-1.66 12.52,-1.74 l 78.76,-1.52 c 34.98,-0.67 65.27,20.75 77.73,51.37 l 17.84,0.77 18.78,-1.53 c 11.29,-31.05 40.72,-53.58 75.67,-54.25 l 78.77,-1.51 c 4.07,-0.08 8.04,0.33 11.9,1.11 l 14.8,-8.89 c 5.67,-3.41 12.84,-2.89 17.99,1.29 l 0.52,0.43 c 2.58,2.11 4.83,4.6 6.67,7.4 l 1.75,2.66 c 1.58,2.41 1.36,5.44 -0.25,7.57 l 0.41,0.62 c 2.15,3.28 0.98,7.72 -2.51,9.48 l -4.5,2.27 c 5.39,7.64 8.97,16.66 9.94,26.5 l 1.65,16.86 3.65,0.15 c 2.99,0.13 5.36,2.59 5.42,5.62 l 0.15,8.18 0.27,13.87"
           style="fill:#af6364;fill-opacity:1;fill-rule:nonzero;stroke:none"
           id="path566" />
        <g
           id="g568">
          <g
             id="g570"
             clip-path="url(#clipPath574)">
            <path
               d="m 3534.49,1963.04 h 18.4961 v 21.2734 H 3534.49 Z"
               style="fill:#b36e53;fill-opacity:1;fill-rule:nonzero;stroke:none"
               id="path576" />
          </g>
        </g>
        <path
           d="m 3532.54,1962.7 c -2.77,0 -5.56,0.74 -8.06,2.25 l -14.74,8.85 c 3.18,0.64 6.28,1.56 9.26,2.72 l 5.63,-3.39 c 2.5,-1.5 5.29,-2.24 8.07,-2.24 1.09,0 2.18,0.11 3.25,0.34 -0.1,-1.03 -0.44,-2.05 -1.05,-2.98 l -0.41,-0.62 c 0.99,-1.31 1.45,-2.95 1.3,-4.59 -1.07,-0.22 -2.16,-0.34 -3.25,-0.34 m -189.3,65.79 -18.69,1.53 17.89,0.77 c 0.26,-0.77 0.52,-1.54 0.8,-2.3 m -248.76,20.33 -4.6,0.37 c -2.98,0.24 -5.26,2.79 -5.2,5.82 l 0.16,8.1 c -0.02,-2.99 2.25,-5.49 5.2,-5.73 l 4.05,-0.33 0.14,-4.07 0.25,-4.16"
           style="fill:#894e4f;fill-opacity:1;fill-rule:nonzero;stroke:none"
           id="path578" />
        <path
           d="m 3114.74,1970.71 c -3.73,0 -7.43,1.34 -10.37,3.93 l -0.51,0.45 c -2.5,2.2 -4.66,4.79 -6.38,7.65 l -1.65,2.73 c -1.49,2.47 -1.16,5.49 0.53,7.57 l 1.27,-2.11 c 1.73,-2.87 3.88,-5.45 6.39,-7.65 l 0.5,-0.45 c 2.94,-2.59 6.65,-3.93 10.38,-3.93 2.58,0 5.17,0.65 7.55,1.95 l 6.17,3.39 c 2.88,-1.29 5.9,-2.35 9.01,-3.14 l -15.34,-8.44 c -2.37,-1.3 -4.97,-1.95 -7.55,-1.95 m 192.07,58.54 c 0.29,0.71 0.57,1.43 0.84,2.15 l 16.9,-1.38 -17.74,-0.77"
           style="fill:#894e4f;fill-opacity:1;fill-rule:nonzero;stroke:none"
           id="path580" />
        <path
           d="m 3556.15,2040.02 0.4,4.09 0.3,4.12 3.1,0.14 c 2.99,0.13 5.36,2.58 5.42,5.61 l 0.11,5.76 c 0,-0.03 0,-0.06 0,-0.09 l -0.27,-13.86 c -0.05,-3.02 -2.43,-5.49 -5.42,-5.61 l -3.64,-0.16"
           style="fill:#b36e53;fill-opacity:1;fill-rule:nonzero;stroke:none"
           id="path582" />
        <path
           d="m 3324.55,2030.02 -16.9,1.38 c 0.75,2.01 1.43,4.07 2.03,6.16 l 15.03,0.64 15.98,-1.3 c 0.51,-2.07 1.1,-4.11 1.75,-6.11 l -17.89,-0.77"
           style="fill:#6c3e3e;fill-opacity:1;fill-rule:nonzero;stroke:none"
           id="path584" />
        <path
           d="m 3091.12,2082.51 328.27,-29.87 c 11.44,-1.04 22.57,-4.24 32.84,-9.41 l 96.83,-48.84 c 3.49,-1.75 4.65,-6.19 2.51,-9.47 l -1.75,-2.67 c -1.84,-2.79 -4.09,-5.29 -6.68,-7.39 l -0.52,-0.43 c -5.14,-4.19 -12.31,-4.7 -17.99,-1.3 l -87.98,52.87 c -3.88,2.33 -8.23,3.73 -12.73,4.1 l -333.88,27.28 c -2.98,0.25 -5.26,2.79 -5.2,5.82 l 0.27,13.86 c 0.06,3.24 2.82,5.74 6.01,5.45"
           style="fill:#522c18;fill-opacity:1;fill-rule:nonzero;stroke:none"
           id="path586" />
        <path
           d="m 3559.84,2073.52 -329.19,-17.26 c -11.46,-0.61 -22.71,-3.37 -33.17,-8.15 l -98.63,-45.08 c -3.55,-1.62 -4.89,-6.01 -2.86,-9.37 l 1.64,-2.73 c 1.73,-2.87 3.88,-5.45 6.39,-7.65 l 0.5,-0.45 c 4.98,-4.38 12.12,-5.17 17.93,-1.98 l 89.94,49.45 c 3.97,2.18 8.37,3.41 12.88,3.61 l 334.68,14.46 c 2.99,0.13 5.36,2.58 5.42,5.61 l 0.27,13.86 c 0.06,3.23 -2.6,5.84 -5.8,5.68"
           style="fill:#522c18;fill-opacity:1;fill-rule:nonzero;stroke:none"
           id="path588" />
        <path
           d="m 3307.89,2058.63 c -0.82,-42.7 -36.1,-76.65 -78.8,-75.84 l -78.77,1.51 c -26.61,0.52 -48.34,21.4 -49.93,47.96 l -1.26,21.01 -1.04,31.34 c -0.67,19.94 15.53,36.37 35.49,36 l 70.16,-1.36 81.6,-5.73 c 13.21,-0.92 23.37,-12.04 23.12,-25.28 l -0.57,-29.61 m -22.21,59.8 -81.73,5.74 -70.28,1.35 c -11.01,0.21 -21.33,-4 -29.07,-11.84 -7.73,-7.85 -11.79,-18.23 -11.42,-29.24 l 1.05,-31.46 1.25,-21.02 c 1.73,-28.92 25.78,-52.01 54.75,-52.57 l 78.77,-1.51 c 45.34,-0.87 82.93,35.31 83.8,80.66 l 0.57,29.6 c 0.31,15.88 -11.86,29.18 -27.69,30.29"
           style="fill:#522c18;fill-opacity:1;fill-rule:nonzero;stroke:none"
           id="path590" />
        <path
           d="m 3343.83,2087.56 c 0.26,13.24 10.85,23.96 24.08,24.38 l 81.76,2.6 70.15,-1.35 c 19.97,-0.38 35.52,-17.42 34.09,-37.33 l -2.25,-31.26 -2.05,-20.96 c -2.61,-26.48 -25.13,-46.51 -51.74,-46 l -78.77,1.51 c -42.7,0.81 -76.65,36.1 -75.83,78.8 l 0.56,29.61 m -4.91,0.1 -0.56,-29.61 c -0.88,-45.35 35.3,-82.94 80.65,-83.81 l 78.76,-1.51 c 28.98,-0.56 53.89,21.59 56.72,50.43 l 2.06,20.95 2.26,31.4 c 0.79,10.99 -2.86,21.52 -10.29,29.65 -7.43,8.14 -17.59,12.73 -28.6,12.95 l -70.28,1.34 -81.89,-2.59 c -15.86,-0.51 -28.52,-13.34 -28.83,-29.2"
           style="fill:#522c18;fill-opacity:1;fill-rule:nonzero;stroke:none"
           id="path592" />
        <path
           d="m 3288.36,2008.73 c 0.59,1.26 1.16,2.55 1.69,3.85 l 1.58,0.07 c -1.05,-1.35 -2.13,-2.65 -3.27,-3.92"
           style="fill:#6a3b20;fill-opacity:1;fill-rule:nonzero;stroke:none"
           id="path594" />
        <path
           d="m 3230.6,1982.78 c -0.5,0 -1.01,0.01 -1.51,0.01 l -78.77,1.51 c -2.03,0.04 -4.03,0.2 -6,0.47 l 67.91,37.34 c 3.97,2.18 8.38,3.42 12.88,3.61 l 76.29,3.3 c -2.58,-5.88 -5.88,-11.38 -9.77,-16.37 l -1.58,-0.07 c -0.53,-1.3 -1.1,-2.59 -1.69,-3.85 -14.18,-15.94 -34.85,-25.95 -57.76,-25.95 m -122.05,24.68 c -4.49,6.9 -7.37,14.97 -8.08,23.67 0.62,-7.61 2.91,-14.72 6.47,-21 l 36.08,34.72 13.5,-1.1 -28.4,-27.34 -19.57,-8.95 m 63.36,28.97 5.8,5.59 5.46,-0.45 -11.26,-5.14"
           style="fill:#653720;fill-opacity:1;fill-rule:nonzero;stroke:none"
           id="path596" />
        <path
           d="m 3307.97,2062.77 -11.41,1.04 0.12,6.26 c 3.32,0.36 6.72,0.61 10.22,0.61 0.41,0 0.81,0 1.22,0 l -0.15,-7.91 m -11.43,12.24 c -1.2,12.2 -9.78,22.35 -21.41,25.67 l 30.58,-0.59 c 1.77,-3.42 2.75,-7.3 2.75,-11.39 0,-0.15 0,-0.31 0,-0.46 l -0.25,-12.65 c -0.44,0.01 -0.88,0.01 -1.32,0.01 -3.55,0 -6.98,-0.24 -10.35,-0.59 m 5.79,30.06 -57.94,1.11 9.9,9.53 31.05,-2.19 c 6.81,-0.47 12.81,-3.66 16.99,-8.45 m -80.48,1.54 -14.37,0.28 11.72,11.28 16.15,-1.13 -2.49,0.17 -11.01,-10.6"
           style="fill:#6a3b20;fill-opacity:1;fill-rule:nonzero;stroke:none"
           id="path598" />
        <path
           d="m 3296.56,2063.81 -87.88,8 35.71,34.37 57.94,-1.11 c 1.32,-1.52 2.46,-3.19 3.38,-4.98 l -30.58,0.59 c 11.63,-3.32 20.21,-13.47 21.41,-25.67 3.37,0.35 6.8,0.59 10.35,0.59 0.44,0 0.88,0 1.32,-0.01 l -0.09,-4.91 c -0.41,0 -0.81,0 -1.22,0 -3.5,0 -6.9,-0.25 -10.22,-0.61 l -0.12,-6.26 m -108.89,9.91 -13.38,1.22 33.19,31.95 14.37,-0.28 -34.18,-32.89"
           style="fill:#653720;fill-opacity:1;fill-rule:nonzero;stroke:none"
           id="path600" />
        <path
           d="m 3183.17,2041.57 -5.46,0.45 7.86,7.55 12.83,-1.05 c -0.31,-0.13 -0.61,-0.27 -0.92,-0.41 l -14.31,-6.54 m -26.65,2.18 -13.5,1.1 7.86,7.56 13.5,-1.1 -7.86,-7.56"
           style="fill:#61341f;fill-opacity:1;fill-rule:nonzero;stroke:none"
           id="path602" />
        <path
           d="m 3144.32,1984.77 c -3.53,0.48 -6.94,1.33 -10.2,2.5 l 78.27,43.03 c 3.97,2.18 8.37,3.41 12.88,3.61 l 33.78,1.46 43.51,-3.56 c -0.36,-0.93 -0.76,-1.87 -1.16,-2.79 l -76.29,-3.3 c -4.5,-0.19 -8.91,-1.43 -12.88,-3.61 l -67.91,-37.34"
           style="fill:#61341f;fill-opacity:1;fill-rule:nonzero;stroke:none"
           id="path604" />
        <path
           d="m 3302.56,2031.81 -43.51,3.56 45.45,1.96 c -0.58,-1.87 -1.23,-3.71 -1.94,-5.52"
           style="fill:#5f341e;fill-opacity:1;fill-rule:nonzero;stroke:none"
           id="path606" />
        <path
           d="m 3198.4,2048.52 -12.83,1.05 23.11,22.24 87.88,-8 11.41,-1.04 -0.04,-2.46 -77.28,-4.05 c -11.12,-0.58 -22.05,-3.21 -32.25,-7.74 m -34.02,2.79 -13.5,1.1 23.41,22.53 13.38,-1.22 -23.29,-22.41"
           style="fill:#5c311b;fill-opacity:1;fill-rule:nonzero;stroke:none"
           id="path608" />
        <path
           d="m 3134.12,1987.27 c -10.56,3.77 -19.52,10.93 -25.57,20.19 l 19.57,8.95 -15.23,-14.66 c 3.53,-4.04 7.68,-7.51 12.31,-10.27 l 46.71,44.95 11.26,5.14 14.31,6.54 c 0.31,0.14 0.61,0.28 0.92,0.41 10.2,4.53 21.13,7.16 32.25,7.74 l 77.28,4.05 -0.04,-1.68 c -0.14,-7.41 -1.32,-14.55 -3.39,-21.3 l -45.45,-1.96 -33.78,-1.46 c -4.51,-0.2 -8.91,-1.43 -12.88,-3.61 l -78.27,-43.03"
           style="fill:#5c311b;fill-opacity:1;fill-rule:nonzero;stroke:none"
           id="path610" />
        <path
           d="m 3230.6,1982.78 c -0.5,0 -1.01,0.01 -1.51,0.01 l -78.77,1.51 c -26.22,0.51 -47.73,20.81 -49.85,46.83 v 0 c 0.71,-8.7 3.59,-16.77 8.08,-23.67 6.05,-9.26 15.01,-16.42 25.57,-20.19 3.26,-1.17 6.67,-2.02 10.2,-2.5 1.97,-0.27 3.97,-0.43 6,-0.47 l 78.77,-1.51 c 0.5,0 1.01,-0.01 1.51,-0.01 22.91,0 43.58,10.01 57.76,25.95 1.14,1.27 2.22,2.57 3.27,3.92 3.89,4.99 7.19,10.49 9.77,16.37 0.4,0.92 0.8,1.86 1.16,2.79 0.71,1.81 1.36,3.65 1.94,5.52 2.07,6.75 3.25,13.89 3.39,21.3 l 0.04,1.68 0.04,2.46 0.15,7.91 0.09,4.91 0.25,12.65 c 0,0.15 0,0.31 0,0.46 0,-0.15 0,-0.31 0,-0.46 l -0.57,-29.61 c -0.81,-42.2 -35.27,-75.85 -77.29,-75.85"
           style="fill:#5c311b;fill-opacity:1;fill-rule:nonzero;stroke:none"
           id="path612" />
        <path
           d="m 3100.46,2031.13 c 0,0.13 -0.01,0.25 -0.02,0.37 0.01,-0.12 0.02,-0.24 0.02,-0.37"
           style="fill:#653720;fill-opacity:1;fill-rule:nonzero;stroke:none"
           id="path614" />
        <path
           d="m 3100.44,2031.52 c -0.01,0.05 -0.01,0.11 -0.01,0.16 0,-0.06 0,-0.11 0.01,-0.16"
           style="fill:#653720;fill-opacity:1;fill-rule:nonzero;stroke:none"
           id="path616" />
        <path
           d="m 3100.43,2031.73 c -0.01,0.04 -0.01,0.08 -0.01,0.12 0,-0.04 0,-0.08 0.01,-0.12"
           style="fill:#653720;fill-opacity:1;fill-rule:nonzero;stroke:none"
           id="path618" />
        <path
           d="m 3100.41,2031.91 c 0,0.04 -0.01,0.08 -0.01,0.12 0,-0.04 0.01,-0.08 0.01,-0.12"
           style="fill:#653720;fill-opacity:1;fill-rule:nonzero;stroke:none"
           id="path620" />
        <path
           d="m 3100.4,2032.09 c -0.01,0.05 -0.01,0.11 -0.01,0.17 0,-0.06 0,-0.12 0.01,-0.17"
           style="fill:#653720;fill-opacity:1;fill-rule:nonzero;stroke:none"
           id="path622"
           inkscape:label="path622" />
        <path
           d="m 3099.75,2042.99 -0.32,5.42 5.49,-0.45 -5.17,-4.97"
           style="fill:#653720;fill-opacity:1;fill-rule:nonzero;stroke:none"
           id="path624" />
        <path
           d="m 3105.63,2107.44 c 6.38,8.02 16.22,13.17 27.26,13.17 0.24,0 0.46,0 0.69,0 l 70.16,-1.36 -24.26,0.47 -12.3,-11.83 -50.18,0.96 c -0.26,0.01 -0.52,0.01 -0.79,0.01 -3.63,0 -7.17,-0.48 -10.58,-1.42"
           style="fill:#6a3b20;fill-opacity:1;fill-rule:nonzero;stroke:none"
           id="path626" />
        <path
           d="m 3136.52,2078.38 -38.34,3.49 -0.09,2.74 c -0.02,0.38 -0.02,0.76 -0.02,1.14 -0.01,8.19 2.82,15.73 7.56,21.69 3.41,0.94 6.95,1.42 10.58,1.42 0.27,0 0.53,0 0.79,-0.01 l 50.18,-0.96 -30.66,-29.51"
           style="fill:#653720;fill-opacity:1;fill-rule:nonzero;stroke:none"
           id="path628" />
        <path
           d="m 3104.92,2047.96 -5.49,0.45 -0.3,4.86 -0.11,3.37 13.75,-1.12 -7.85,-7.56"
           style="fill:#61341f;fill-opacity:1;fill-rule:nonzero;stroke:none"
           id="path630" />
        <path
           d="m 3112.77,2055.52 -13.75,1.12 -0.84,25.23 38.34,-3.49 -23.75,-22.86"
           style="fill:#5c311b;fill-opacity:1;fill-rule:nonzero;stroke:none"
           id="path632" />
        <path
           d="m 3099.75,2042.99 -0.62,10.28 -1.04,31.34 c -0.02,0.38 -0.02,0.76 -0.02,1.14 0,-0.38 0,-0.76 0.02,-1.14 l 0.09,-2.74 0.84,-25.23 0.11,-3.37 0.3,-4.86 0.32,-5.42 v 0"
           style="fill:#5c311b;fill-opacity:1;fill-rule:nonzero;stroke:none"
           id="path634" />
        <path
           d="m 3100.47,2031.13 c -0.01,0 -0.01,0 -0.01,0 h 0.01 m -0.03,0.37 c 0,0.01 0,0.01 0,0.02 0,0 0,-0.01 0,-0.02 m -0.01,0.18 c 0,0.01 0,0.03 0,0.05 0,-0.02 0,-0.04 0,-0.05 m -0.01,0.17 c -0.01,0.02 -0.01,0.04 -0.01,0.06 0,-0.02 0,-0.04 0.01,-0.06 m -0.02,0.18 c 0,0.02 0,0.04 0,0.06 0,-0.02 0,-0.04 0,-0.06 m -0.01,0.23 v 0 l -0.64,10.73 0.64,-10.73 v 0"
           style="fill:#6e3818;fill-opacity:1;fill-rule:nonzero;stroke:none"
           id="path636" />
        <path
           d="m 3219.2,2118.17 -15.46,1.08 15.46,-1.08"
           style="fill:#6e3818;fill-opacity:1;fill-rule:nonzero;stroke:none"
           id="path638" />
        <path
           d="m 3106.94,2010.13 c -3.56,6.28 -5.85,13.39 -6.47,21 h -0.01 c 0,0.13 -0.01,0.25 -0.02,0.37 0,0.01 0,0.02 0,0.02 -0.01,0.05 -0.01,0.1 -0.01,0.16 0,0.01 0,0.03 0,0.05 -0.01,0.04 -0.01,0.08 -0.01,0.12 -0.01,0.02 -0.01,0.04 -0.01,0.06 0,0.04 -0.01,0.08 -0.01,0.12 0,0.02 0,0.04 0,0.06 -0.01,0.05 -0.01,0.11 -0.01,0.17 v 0 l -0.64,10.73 5.17,4.97 38.1,-3.11 -36.08,-34.72"
           style="fill:#783f1d;fill-opacity:1;fill-rule:nonzero;stroke:none"
           id="path640" />
        <path
           d="m 3196.17,2106.88 -8.88,0.62 -20.11,0.39 12.3,11.83 24.26,-0.47 15.46,-1.08 -11.72,-11.28 -11.3,0.22 -0.01,-0.23"
           style="fill:#7b431c;fill-opacity:1;fill-rule:nonzero;stroke:none"
           id="path642" />
        <path
           d="m 3174.29,2074.94 -37.77,3.44 30.66,29.51 20.11,-0.39 8.88,-0.62 0.01,0.23 11.3,-0.22 -33.19,-31.95"
           style="fill:#783f1d;fill-opacity:1;fill-rule:nonzero;stroke:none"
           id="path644" />
        <path
           d="m 3143.02,2044.85 -38.1,3.11 7.85,7.56 38.11,-3.11 -7.86,-7.56"
           style="fill:#763d1d;fill-opacity:1;fill-rule:nonzero;stroke:none"
           id="path646" />
        <path
           d="m 3150.88,2052.41 -38.11,3.11 23.75,22.86 37.77,-3.44 -23.41,-22.53"
           style="fill:#733c1a;fill-opacity:1;fill-rule:nonzero;stroke:none"
           id="path648" />
        <path
           d="m 3100.47,2031.13 v 0 h -0.01 v 0 h 0.01 m -0.03,0.37 v 0 c 0,0.01 0,0.02 0,0.02 v 0 c 0,0 0,-0.01 0,-0.02 m -0.01,0.18 v 0 c 0,0.01 0,0.03 0,0.05 v 0 c 0,-0.02 0,-0.04 0,-0.05 m -0.01,0.17 v 0 c -0.01,0.02 -0.01,0.04 -0.01,0.06 v 0 c 0,-0.02 0,-0.04 0.01,-0.06 m -0.02,0.18 v 0 c 0,0.02 0,0.04 0,0.06 v 0 c 0,-0.02 0,-0.04 0,-0.06 m -0.01,0.23 v 0 0 l -0.64,10.73 v 0 l 0.64,-10.73 v 0"
           style="fill:#733c1a;fill-opacity:1;fill-rule:nonzero;stroke:none"
           id="path650" />
        <path
           d="m 3254.29,2115.7 -18.94,1.34 18.94,-1.33"
           style="fill:#6e3818;fill-opacity:1;fill-rule:nonzero;stroke:none"
           id="path652" />
        <path
           d="m 3128.12,2016.41 28.4,27.34 21.19,-1.73 -5.8,-5.59 -43.79,-20.02"
           style="fill:#783f1d;fill-opacity:1;fill-rule:nonzero;stroke:none"
           id="path654" />
        <path
           d="m 3244.39,2106.18 -22.54,0.43 11.01,10.6 2.49,-0.17 18.94,-1.34 -9.9,-9.52"
           style="fill:#7b431c;fill-opacity:1;fill-rule:nonzero;stroke:none"
           id="path656" />
        <path
           d="m 3208.68,2071.81 -21.01,1.91 34.18,32.89 22.54,-0.43 -35.71,-34.37"
           style="fill:#783f1d;fill-opacity:1;fill-rule:nonzero;stroke:none"
           id="path658" />
        <path
           d="m 3177.71,2042.02 -21.19,1.73 7.86,7.56 21.19,-1.74 -7.86,-7.55"
           style="fill:#763d1d;fill-opacity:1;fill-rule:nonzero;stroke:none"
           id="path660" />
        <path
           d="m 3185.57,2049.57 -21.19,1.74 23.29,22.41 21.01,-1.91 -23.11,-22.24"
           style="fill:#733c1a;fill-opacity:1;fill-rule:nonzero;stroke:none"
           id="path662" />
        <path
           d="m 3125.2,1991.48 c -4.63,2.76 -8.78,6.23 -12.31,10.27 l 15.23,14.66 43.79,20.02 -46.71,-44.95"
           style="fill:#733c1a;fill-opacity:1;fill-rule:nonzero;stroke:none"
           id="path664" />
        <path
           d="m 3435.45,2114.58 -222.7,4.28 0.09,4.91 222.71,-4.27 -0.1,-4.92"
           style="fill:#522c18;fill-opacity:1;fill-rule:nonzero;stroke:none"
           id="path666" />
        <path
           d="m 3540.25,1998.84 -3.35,1.68 c 0.42,1.96 0.73,3.95 0.93,5.98 l 0.72,7.31 c 3.02,0 6.08,0 9.1,0 -1.64,-5.44 -4.17,-10.49 -7.4,-14.97 m 8.33,31.98 0.12,6.49 0.05,2.39 2.44,0.1 -0.88,-8.95 c -0.57,-0.01 -1.16,-0.02 -1.73,-0.03"
           style="fill:#6a3b20;fill-opacity:1;fill-rule:nonzero;stroke:none"
           id="path668" />
        <path
           d="m 3547.65,2013.81 c -3.02,0 -6.08,0 -9.1,0 l 0.4,4.17 c 3.27,0 6.51,0 9.78,0 -0.3,-1.41 -0.66,-2.8 -1.08,-4.17"
           style="fill:#6a3b21;fill-opacity:1;fill-rule:nonzero;stroke:none"
           id="path670" />
        <path
           d="m 3548.73,2017.98 c -3.27,0 -6.51,0 -9.78,0 l 0.53,5.38 3.65,0.15 c 2.99,0.13 5.36,2.59 5.42,5.62 l 0.03,1.69 c 0.57,0.01 1.16,0.02 1.73,0.03 l -0.7,-7.21 c -0.03,-0.19 -0.05,-0.39 -0.07,-0.58 0,-0.02 0,-0.05 0,-0.08 -0.01,-0.05 -0.02,-0.1 -0.02,-0.16 -0.02,-0.12 -0.03,-0.24 -0.05,-0.37 -0.18,-1.51 -0.43,-3 -0.74,-4.47"
           style="fill:#69391f;fill-opacity:1;fill-rule:nonzero;stroke:none"
           id="path672" />
        <path
           d="m 3540.77,2072.52 c -1.64,5.87 -4.66,11.31 -8.92,15.98 -7,7.66 -16.42,12.19 -26.71,12.86 l 12.35,11.88 -24.27,0.46 -12.3,-11.83 -19.17,0.36 12.3,11.84 45.77,-0.88 c 19.11,-0.37 34.18,-15.99 34.18,-34.78 0,-0.85 -0.03,-1.7 -0.09,-2.55 l -0.19,-2.66 -12.95,-0.68 m -123.15,30.34 -67.02,1.28 c 4.36,4.63 10.48,7.59 17.31,7.8 l 61.17,1.94 -11.46,-11.02"
           style="fill:#6a3b20;fill-opacity:1;fill-rule:nonzero;stroke:none"
           id="path674" />
        <path
           d="m 3498.86,1977.63 v 0 c -0.33,0 -0.66,0 -0.99,0.01 v 0 l -78.77,1.51 c -32.15,0.62 -59.33,20.76 -70.46,48.9 h 0.01 c 3.19,-8.05 7.69,-15.44 13.24,-21.92 l 19.96,19.21 18.02,-1.48 -28.27,-27.2 c 4.53,-3.72 9.49,-6.95 14.81,-9.57 l 36.27,34.91 1.08,-0.09 c 4.5,-0.36 8.86,-1.77 12.73,-4.1 l 66.59,-40.01 c -1.37,-0.11 -2.77,-0.17 -4.17,-0.17 -0.02,0 -0.03,0 -0.05,0 m 38.04,22.89 -4.54,2.3 c 0.25,1.36 0.44,2.75 0.58,4.16 l 1.58,16.16 -1.58,-16.16 c -0.14,-1.41 -0.33,-2.8 -0.58,-4.16 l -66.07,33.32 82.46,3.56 -0.05,-2.39 -0.12,-6.49 -0.03,-1.69 c -0.06,-3.03 -2.43,-5.49 -5.42,-5.62 l -3.65,-0.15 -0.53,-5.38 -0.4,-4.17 -0.72,-7.31 c -0.2,-2.03 -0.51,-4.02 -0.93,-5.98 m -193.55,61.65 0.48,25.39 c 0.05,2.32 0.41,4.56 1.05,6.68 2.02,0.61 4.16,0.96 6.36,1.03 -2.2,-0.07 -4.34,-0.42 -6.36,-1.03 1.12,3.75 3.1,7.13 5.72,9.9 l 67.02,-1.28 -40.44,-38.92 -33.83,-1.77 m 81.19,4.25 37.21,35.81 19.17,-0.36 -35.71,-34.36 -20.67,-1.09 m 46.85,2.46 33.75,32.48 c 10.29,-0.67 19.71,-5.2 26.71,-12.86 4.26,-4.67 7.28,-10.11 8.92,-15.98 l -69.38,-3.64"
           style="fill:#653720;fill-opacity:1;fill-rule:nonzero;stroke:none"
           id="path676" />
        <path
           d="m 3503.08,1977.8 -66.59,40.01 c -3.87,2.33 -8.23,3.74 -12.73,4.1 l -1.08,0.09 7.25,6.97 c 2.34,-0.7 4.61,-1.7 6.72,-2.97 l 76.91,-46.21 c -3.36,-1.02 -6.87,-1.69 -10.48,-1.99 m -103.21,46.06 -18.02,1.48 7.78,7.49 0.58,0.03 17.51,-1.43 -7.85,-7.57 m -51.22,4.19 h -0.01 c -0.39,0.97 -0.75,1.97 -1.1,2.96 h 0.01 c 0.35,-1 0.72,-1.99 1.1,-2.96"
           style="fill:#61341f;fill-opacity:1;fill-rule:nonzero;stroke:none"
           id="path678" />
        <path
           d="m 3548.75,2039.7 0.16,8.19 3,0.13 -0.25,-3.42 -0.47,-4.8 -2.44,-0.1"
           style="fill:#65391f;fill-opacity:1;fill-rule:nonzero;stroke:none"
           id="path680" />
        <path
           d="m 3466.29,2036.14 -14.06,7.09 c -0.3,0.15 -0.6,0.29 -0.9,0.45 l 97.58,4.21 -0.16,-8.19 -82.46,-3.56"
           style="fill:#61341f;fill-opacity:1;fill-rule:nonzero;stroke:none"
           id="path682" />
        <path
           d="m 3347.54,2031.01 c -0.62,1.79 -1.18,3.62 -1.68,5.47 l 2.57,-0.21 -1.97,-1.89 c 0.34,-1.14 0.71,-2.26 1.09,-3.37 h -0.01 m 42.09,1.82 0.07,0.06 0.51,-0.03 -0.58,-0.03"
           style="fill:#5f341e;fill-opacity:1;fill-rule:nonzero;stroke:none"
           id="path684" />
        <path
           d="m 3513.56,1979.79 -76.91,46.21 c -2.11,1.27 -4.38,2.27 -6.72,2.97 l 14.99,14.42 6.41,0.29 c 0.3,-0.16 0.6,-0.3 0.9,-0.45 l 14.06,-7.09 66.07,-33.32 4.54,-2.3 3.35,-1.68 c -6.51,-9.03 -15.87,-15.79 -26.69,-19.05 m -105.84,51.64 -17.51,1.43 -0.51,0.03 8.83,8.5 20.47,0.89 -11.28,-10.85 m -59.29,4.84 -2.57,0.21 c -0.23,0.87 -0.45,1.73 -0.65,2.61 l 6.44,0.28 -3.22,-3.1"
           style="fill:#5c311b;fill-opacity:1;fill-rule:nonzero;stroke:none"
           id="path686" />
        <path
           d="m 3345.21,2039.09 c -1.28,5.59 -1.96,11.4 -1.96,17.36 0,0.5 0.01,1 0.02,1.5 l 0.08,4.22 33.83,1.77 -25.53,-24.57 -6.44,-0.28 m 53.32,2.3 26.01,25.03 20.67,1.09 -26.21,-25.23 -20.47,-0.89 m 46.39,2 26.47,25.49 69.38,3.64 12.95,0.68 -1.81,-25.18 -3,-0.13 -97.58,-4.21 -6.41,-0.29"
           style="fill:#5c311b;fill-opacity:1;fill-rule:nonzero;stroke:none"
           id="path688" />
        <path
           d="m 3498.86,1977.63 v 0 0 0 m 0.05,0 c 1.4,0 2.8,0.06 4.17,0.17 3.61,0.3 7.12,0.97 10.48,1.99 10.82,3.26 20.18,10.02 26.69,19.05 3.23,4.48 5.76,9.53 7.4,14.97 0.42,1.37 0.78,2.76 1.08,4.17 0.31,1.47 0.56,2.96 0.74,4.47 -3.1,-25.54 -24.81,-44.79 -50.56,-44.82 m -1.04,0.01 v 0 l -78.77,1.51 c -42.2,0.81 -75.86,35.28 -75.85,77.3 0,-5.96 0.68,-11.77 1.96,-17.36 0.2,-0.88 0.42,-1.74 0.65,-2.61 0.5,-1.85 1.06,-3.68 1.68,-5.47 0.35,-0.99 0.71,-1.99 1.1,-2.96 11.13,-28.14 38.31,-48.28 70.46,-48.9 l 78.77,-1.51 v 0 m 51.65,45.18 c 0,0.06 0.01,0.11 0.02,0.16 -0.01,-0.05 -0.02,-0.1 -0.02,-0.16 m 0.02,0.24 c 0.02,0.19 0.04,0.39 0.07,0.58 l 0.7,7.21 0.88,8.95 0.47,4.8 0.25,3.42 1.81,25.18 0.19,2.66 c 0.06,0.85 0.09,1.7 0.09,2.55 0,-0.85 -0.03,-1.7 -0.09,-2.55 l -2.25,-31.26 -2.05,-20.96 c -0.03,-0.19 -0.05,-0.39 -0.07,-0.58"
           style="fill:#5c311b;fill-opacity:1;fill-rule:nonzero;stroke:none"
           id="path690" />
        <path
           d="m 3308.42,2086.14 c 5.21,0.88 10.78,1.31 16.53,1.2 6.63,-0.13 13,-0.96 18.84,-2.35 l 0.04,2.57 c 0.02,0.82 0.07,1.64 0.17,2.44 -5.9,1.33 -12.29,2.12 -18.96,2.25 -5.81,0.11 -11.43,-0.29 -16.71,-1.12 0.09,-0.95 0.15,-1.92 0.13,-2.89 l -0.04,-2.1"
           style="fill:#522c18;fill-opacity:1;fill-rule:nonzero;stroke:none"
           id="path692" />
        <path
           d="m 3429.08,2113.89 v 0 l 20.59,0.65 -20.59,-0.66"
           style="fill:#6e3818;fill-opacity:1;fill-rule:nonzero;stroke:none"
           id="path694" />
        <path
           d="m 3474.05,2114.07 -24.38,0.47 24.38,-0.47"
           style="fill:#6e3818;fill-opacity:1;fill-rule:nonzero;stroke:none"
           id="path696" />
        <path
           d="m 3461.75,2102.23 -28.78,0.56 -14.1,-0.45 0.01,0.49 -1.26,0.03 11.46,11.03 20.59,0.65 24.38,-0.47 -12.3,-11.84"
           style="fill:#7b431c;fill-opacity:1;fill-rule:nonzero;stroke:none"
           id="path698" />
        <path
           d="m 3361.89,2006.13 c -5.55,6.48 -10.05,13.87 -13.24,21.92 l 33.2,-2.71 -19.96,-19.21 m 15.29,57.81 40.44,38.92 1.26,-0.03 -0.01,-0.49 14.1,0.45 28.78,-0.56 -37.21,-35.81 -47.36,-2.48"
           style="fill:#783f1d;fill-opacity:1;fill-rule:nonzero;stroke:none"
           id="path700" />
        <path
           d="m 3381.85,2025.34 -33.2,2.71 c -0.38,0.97 -0.75,1.96 -1.1,2.96 l 42.08,1.82 -7.78,-7.49"
           style="fill:#763d1d;fill-opacity:1;fill-rule:nonzero;stroke:none"
           id="path702" />
        <path
           d="m 3347.55,2031.01 c -0.38,1.11 -0.75,2.23 -1.09,3.37 l 1.97,1.89 41.27,-3.38 -0.07,-0.06 -42.08,-1.82"
           style="fill:#753e1b;fill-opacity:1;fill-rule:nonzero;stroke:none"
           id="path704" />
        <path
           d="m 3389.7,2032.89 -41.27,3.38 3.22,3.1 46.88,2.02 -8.83,-8.5"
           style="fill:#733c1a;fill-opacity:1;fill-rule:nonzero;stroke:none"
           id="path706" />
        <path
           d="m 3351.65,2039.37 25.53,24.57 47.36,2.48 -26.01,-25.03 -46.88,-2.02"
           style="fill:#733c1a;fill-opacity:1;fill-rule:nonzero;stroke:none"
           id="path708" />
        <path
           d="m 3505.14,2101.36 c -0.62,0.04 -1.25,0.07 -1.89,0.08 l -22.33,0.43 12.3,11.83 24.27,-0.46 -12.35,-11.88"
           style="fill:#7b431c;fill-opacity:1;fill-rule:nonzero;stroke:none"
           id="path710" />
        <path
           d="m 3386.41,1987.09 c -5.32,2.62 -10.28,5.85 -14.81,9.57 l 28.27,27.2 22.81,-1.86 -36.27,-34.91 m 58.8,80.42 35.71,34.36 22.33,-0.43 c 0.64,-0.01 1.27,-0.04 1.89,-0.08 l -33.75,-32.48 -26.18,-1.37"
           style="fill:#783f1d;fill-opacity:1;fill-rule:nonzero;stroke:none"
           id="path712" />
        <path
           d="m 3422.68,2022 -22.81,1.86 7.85,7.57 16.2,-1.33 c 2.04,-0.17 4.06,-0.55 6.01,-1.13 l -7.25,-6.97"
           style="fill:#763d1d;fill-opacity:1;fill-rule:nonzero;stroke:none"
           id="path714" />
        <path
           d="m 3429.93,2028.97 c -1.95,0.58 -3.97,0.96 -6.01,1.13 l -16.2,1.33 11.28,10.85 25.92,1.11 -14.99,-14.42"
           style="fill:#733c1a;fill-opacity:1;fill-rule:nonzero;stroke:none"
           id="path716" />
        <path
           d="m 3419,2042.28 26.21,25.23 26.18,1.37 -26.47,-25.49 -25.92,-1.11"
           style="fill:#733c1a;fill-opacity:1;fill-rule:nonzero;stroke:none"
           id="path718" />
      </g>
    </g>
  </g>
</svg>
