<?xml version="1.0" encoding="UTF-8" standalone="no"?>
<!-- Created with Inkscape (http://www.inkscape.org/) -->

<svg
   version="1.1"
   id="svg2"
   width="1234.6047"
   height="672.24957"
   viewBox="0 0 1234.6048 672.2496"
   sodipodi:docname="table2.svg"
   inkscape:version="1.2 (dc2aedaf03, 2022-05-15)"
   xmlns:inkscape="http://www.inkscape.org/namespaces/inkscape"
   xmlns:sodipodi="http://sodipodi.sourceforge.net/DTD/sodipodi-0.dtd"
   xmlns="http://www.w3.org/2000/svg"
   xmlns:svg="http://www.w3.org/2000/svg">
  <defs
     id="defs6">
    <clipPath
       clipPathUnits="userSpaceOnUse"
       id="clipPath48">
      <path
         d="m 171.309,1180.93 h 3824.81 V 3248.38 H 171.309 Z"
         id="path46" />
    </clipPath>
    <clipPath
       clipPathUnits="userSpaceOnUse"
       id="clipPath574">
      <path
         d="m 3535.79,1963.04 c 0.15,1.64 -0.31,3.28 -1.3,4.59 l 0.41,0.62 c 0.61,0.93 0.95,1.95 1.05,2.98 2.39,0.51 4.68,1.58 6.67,3.2 l 0.52,0.43 c 2.59,2.1 4.84,4.6 6.68,7.39 l 1.35,2.07 c 1.6,-2.14 1.82,-5.18 0.24,-7.59 l -1.75,-2.67 c -1.84,-2.79 -4.09,-5.29 -6.68,-7.39 l -0.52,-0.43 c -1.98,-1.62 -4.28,-2.69 -6.67,-3.2"
         id="path572" />
    </clipPath>
    <clipPath
       clipPathUnits="userSpaceOnUse"
       id="clipPath736">
      <path
         d="m 890.316,1399.57 -378.488,1.14 1.684,560.24 378.488,-1.13 -1.684,-560.25 m -42.054,250.56 14.211,-0.05 0.757,252.81 0.071,23.99 -323.262,0.98 -0.004,-1.13 v 0 l -0.269,-88.21 -0.016,-5.31 -0.086,-29.2 -0.047,-15.61 -0.027,-8.15 v 0 0 l -0.02,-6.99 -0.031,-11.7 -0.023,-6.09 v 0 0 l -0.036,-12.39 -0.039,-12.39 h 0.004 -0.004 l -0.039,-12.39 -0.031,-12.39 -0.168,-54.86 218.86,-0.66 v 0 l 90.199,-0.26 v 0"
         id="path734" />
    </clipPath>
    <linearGradient
       x1="0"
       y1="0"
       x2="1"
       y2="0"
       gradientUnits="userSpaceOnUse"
       gradientTransform="matrix(122.53542,-0.36770833,-0.36770833,-122.53542,799.45417,1679.9708)"
       spreadMethod="pad"
       id="linearGradient742">
      <stop
         style="stop-opacity:1;stop-color:#f9f9f9"
         offset="0"
         id="stop738" />
      <stop
         style="stop-opacity:1;stop-color:#cac8c7"
         offset="1"
         id="stop740" />
    </linearGradient>
    <clipPath
       clipPathUnits="userSpaceOnUse"
       id="clipPath816">
      <path
         d="m 862.473,1650.08 -14.211,0.05 v 0 l 14.203,-0.05 0.426,141.59 h 0.004 l -0.422,-141.59 m -104.41,0.31 -217.887,0.66 217.883,-0.66 c 0.004,0 0.004,0 0.004,0 m -217.348,142.25 h -0.039 -1.047 1.086"
         id="path814" />
    </clipPath>
    <clipPath
       clipPathUnits="userSpaceOnUse"
       id="clipPath828">
      <path
         d="m 862.465,1650.08 -14.203,0.05 c 0.953,2.22 3.168,3.78 5.738,3.78 0.004,0 0.012,0 0.016,0 v 0 0 h -0.766 c 3.434,0.01 6.227,2.79 6.234,6.22 0.012,3.44 -2.777,6.25 -6.222,6.26 l -106.153,0.31 c -0.007,0 -0.011,0 -0.023,0 -3.434,0 -6.223,-2.77 -6.234,-6.21 -0.012,-3.45 2.773,-6.25 6.218,-6.26 l 76.344,-0.23 -71.086,0.21 c 2.582,0 4.789,-1.58 5.731,-3.82 l -217.883,0.66 h -0.973 l 0.168,54.86 73.379,-0.22 c 0.004,0 0.012,0 0.016,0 3.304,0 5.992,2.68 6,5.98 v 0.39 c 0.011,3.32 -2.664,6.01 -5.977,6.02 l -24.101,0.07 c -3.313,0.01 -5.989,2.71 -5.981,6.02 v 0.39 c 0.016,3.31 2.695,5.98 6,5.98 0.004,0 0.016,0 0.02,0 v 0 l 109.527,-0.33 c 0.008,0 0.012,0 0.019,0 3.305,0 5.989,2.68 5.997,5.99 l 0.003,0.39 c 0.012,3.31 -2.668,6.01 -5.98,6.02 l -21.391,0.06 c -3.312,0.01 -5.988,2.7 -5.976,6.02 v 0.39 c 0.012,3.3 2.695,5.98 6,5.98 0.004,0 0.012,0 0.015,0 v 0 0 l -137.425,0.41 v 0 l 137.425,-0.41 34.059,-0.1 c 0.008,0 0.012,0 0.02,0 3.304,0 5.988,2.67 5.996,5.98 v 0.39 c 0.011,3.31 -2.664,6.01 -5.977,6.02 l -6.281,0.02 v 0 c -3.317,0.01 -5.992,2.7 -5.985,6.01 l 0.004,0.39 c 0.012,3.31 2.696,5.98 5.996,5.98 0.012,0 0.016,0 0.024,0 v 0 0 l -165.207,0.5 v 0 l 165.207,-0.5 22.621,-0.06 c 0.004,0 0.012,0 0.016,0 3.304,0 5.988,2.67 5.996,5.98 l 0.004,0.39 c 0.007,3.31 -2.657,5.99 -5.957,6.02 l 1.832,-0.01 h 0.339 v 0 l 133.247,-0.4 -0.43,-141.59 m -101.11,16.58 76.504,-0.23 c -3.445,0.02 -6.234,2.82 -6.222,6.26 0.008,3.44 2.801,6.22 6.234,6.22 l 17.094,-0.05 c 0.012,0 0.015,0 0.023,0 3.434,0 6.223,2.78 6.239,6.22 0.007,3.44 -2.778,6.24 -6.223,6.25 l -29.609,0.1 c -3.407,0.05 -6.145,2.83 -6.137,6.25 0.008,3.43 2.793,6.21 6.222,6.22 l 15.165,-0.04 c 0.003,0 0.015,0 0.019,0 3.438,0 6.227,2.77 6.238,6.21 0.012,3.45 -2.773,6.25 -6.218,6.26 l -72.18,0.22 c -0.008,0 -0.012,0 -0.02,0 -3.437,0 -6.226,-2.78 -6.238,-6.22 -0.008,-3.45 2.774,-6.25 6.219,-6.26 l 2.453,-0.01 -3.215,0.01 c 3.445,-0.01 6.231,-2.81 6.219,-6.25 -0.008,-3.44 -2.797,-6.21 -6.227,-6.22 l -10.277,0.03 c -0.008,0 -0.016,0 -0.023,0 -3.438,0 -6.227,-2.78 -6.235,-6.22 -0.015,-3.45 2.774,-6.25 6.219,-6.26 l 74.746,-0.22 -70.734,0.21 c 3.441,-0.01 6.23,-2.81 6.218,-6.26 -0.007,-3.43 -2.8,-6.22 -6.234,-6.22 -0.008,0 -0.016,0 -0.02,0 m -10.769,49.94 c -3.434,0 -6.223,-2.78 -6.234,-6.22 -0.012,-3.44 2.773,-6.25 6.218,-6.25 l 0.68,-0.01 c 0.004,0 0.012,0 0.016,0 3.437,0 6.23,2.78 6.242,6.22 v 0 c 0.008,3.45 -2.774,6.25 -6.219,6.26 h -0.68 c -0.007,0 -0.011,0 -0.023,0 m -16.449,0.05 c -3.438,0 -6.227,-2.78 -6.242,-6.22 -0.008,-3.45 2.777,-6.25 6.222,-6.25 l 0.68,-0.01 c 0.008,0 0.012,0 0.019,0 3.438,0 6.227,2.78 6.239,6.22 0.008,3.45 -2.778,6.25 -6.223,6.26 h -0.68 c -0.004,0 -0.011,0 -0.015,0 m 43.273,-0.13 56.633,-0.17 c -3.445,0.01 -6.23,2.81 -6.223,6.26 0.012,3.44 2.805,6.21 6.243,6.21 0.003,0 0.011,0 0.015,0 v 0 0 l -2.18,0.01 c 3.395,0.05 6.129,2.81 6.145,6.22 0.008,3.45 -2.777,6.25 -6.223,6.26 l -5.785,0.01 c -3.433,0.03 -6.207,2.82 -6.195,6.26 0.012,3.44 2.801,6.22 6.238,6.22 0.004,0 0.012,0 0.02,0 v 0 0 h -0.418 c 3.429,0.02 6.207,2.79 6.218,6.22 0.012,3.45 -2.773,6.25 -6.218,6.26 l -41.871,0.12 c -0.008,0 -0.012,0 -0.02,0 -3.437,0 -6.226,-2.77 -6.238,-6.21 -0.008,-3.45 2.773,-6.25 6.219,-6.26 l 34.097,-0.1 -29.801,0.09 c 3.442,-0.01 6.231,-2.81 6.219,-6.26 -0.012,-3.43 -2.789,-6.21 -6.219,-6.22 l -12.128,0.04 c -0.004,0 -0.012,0 -0.016,0 -3.438,0 -6.231,-2.78 -6.238,-6.22 -0.012,-3.45 2.769,-6.25 6.214,-6.26 h 1.559 c 3.441,-0.02 6.219,-2.82 6.211,-6.26 -0.016,-3.44 -2.801,-6.22 -6.238,-6.22 -0.008,0 -0.012,0 -0.02,0 m -18.601,25.01 c -3.438,0 -6.231,-2.78 -6.239,-6.22 -0.007,-3.45 2.778,-6.25 6.223,-6.26 h 0.68 c 0.004,0 0.011,0 0.015,0 3.438,0 6.227,2.78 6.239,6.22 0.011,3.44 -2.774,6.25 -6.219,6.25 l -0.68,0.01 c -0.008,0 -0.012,0 -0.019,0 m -32.911,0.1 c -3.433,0 -6.222,-2.78 -6.23,-6.22 -0.016,-3.45 2.77,-6.25 6.215,-6.26 h 0.68 c 0.007,0 0.011,0 0.019,0 3.434,0 6.227,2.78 6.238,6.22 0.008,3.44 -2.773,6.24 -6.218,6.26 h -0.68 c -0.008,0 -0.012,0 -0.024,0 m 116.981,24.6 c -3.438,0 -6.231,-2.78 -6.242,-6.22 -0.008,-3.45 2.777,-6.25 6.222,-6.26 h 0.68 c 0.008,0 0.012,0 0.02,0 3.433,0 6.226,2.79 6.238,6.22 0.008,3.45 -2.777,6.25 -6.223,6.26 h -0.679 c -0.004,0 -0.012,0 -0.016,0 m -50.59,0.15 24.91,-0.07 c -3.445,0.01 -6.234,2.81 -6.219,6.25 0.008,3.44 2.797,6.23 6.235,6.23 0.012,0 0.015,0 0.023,0 v 0 0 l -24.914,0.07 c 3.446,-0.01 6.231,-2.81 6.223,-6.26 -0.012,-3.44 -2.801,-6.22 -6.238,-6.22 -0.008,0 -0.012,0 -0.02,0 m -0.43,24.95 c -3.437,0 -6.226,-2.78 -6.238,-6.21 -0.008,-3.45 2.774,-6.25 6.219,-6.26 l 25.883,-0.08 c 0.004,0 0.011,0 0.015,0 3.438,0 6.227,2.78 6.239,6.22 0.011,3.45 -2.774,6.25 -6.219,6.26 l -25.879,0.07 c -0.008,0 -0.012,0 -0.02,0 m -252.312,-26.35 0.016,5.22 -0.008,-2.34 -0.008,-2.88 m 162.152,27.17 -6.691,0.03 -154.332,0.46 h 0.039 l 155.828,-0.47 v 0 0 l 5.156,-0.02"
         id="path826" />
    </clipPath>
    <clipPath
       clipPathUnits="userSpaceOnUse"
       id="clipPath840">
      <path
         d="m 862.895,1791.67 v 0 l -133.247,0.4 v 0 l 133.243,-0.4 0.41,135.22 v -0.01 l -0.406,-135.21"
         id="path838" />
    </clipPath>
    <clipPath
       clipPathUnits="userSpaceOnUse"
       id="clipPath852">
      <path
         d="m 862.891,1791.67 -133.243,0.4 -27.074,9.74 -36.16,8.65 c -3.148,0.75 -6.211,1.8 -9.152,3.15 l -11.742,5.37 c -5.961,2.72 -12.344,4.41 -18.875,5.01 l -21.137,1.93 c -2.82,0.26 -5.586,0.95 -8.199,2.04 l -0.176,0.08 c -5.168,2.15 -10.68,3.37 -16.274,3.59 l -9.16,0.35 6.098,-1.87 c 5.164,-1.6 9.906,-4.33 13.867,-8.01 3.719,-3.45 8.344,-5.75 13.328,-6.65 v 0 c -4.984,0.9 -9.609,3.2 -13.328,6.65 -3.961,3.68 -8.703,6.41 -13.867,8.01 l -6.098,1.87 -13.941,4.29 c -3.055,0.94 -6.192,1.59 -9.367,1.93 l -8.621,0.94 0.269,88.72 323.262,-0.98 -0.41,-135.21"
         id="path850" />
    </clipPath>
    <clipPath
       clipPathUnits="userSpaceOnUse"
       id="clipPath910">
      <path
         d="m 539.59,1780.25 v 0 l 0.027,8.15 -0.027,-8.15"
         id="path908" />
    </clipPath>
    <linearGradient
       x1="0"
       y1="0"
       x2="1"
       y2="0"
       gradientUnits="userSpaceOnUse"
       gradientTransform="matrix(122.53542,-0.36770833,-0.36770833,-122.53542,799.45417,1679.9708)"
       spreadMethod="pad"
       id="linearGradient916">
      <stop
         style="stop-opacity:1;stop-color:#d4c4a4"
         offset="0"
         id="stop912" />
      <stop
         style="stop-opacity:1;stop-color:#b8a88b"
         offset="1"
         id="stop914" />
    </linearGradient>
    <clipPath
       clipPathUnits="userSpaceOnUse"
       id="clipPath928">
      <path
         d="m 540.676,1792.64 h -1.047 v 0 h 1.047"
         id="path926" />
    </clipPath>
    <clipPath
       clipPathUnits="userSpaceOnUse"
       id="clipPath940">
      <path
         d="m 727.434,1779.69 c -0.004,0 -0.012,0 -0.016,0 l -22.621,0.06 -165.207,0.5 0.039,12.39 h 1.047 l 154.332,-0.46 6.691,-0.03 25.778,-0.07 c 3.3,-0.03 5.964,-2.71 5.957,-6.02 l -0.004,-0.39 c -0.008,-3.31 -2.692,-5.98 -5.996,-5.98"
         id="path938" />
    </clipPath>
    <clipPath
       clipPathUnits="userSpaceOnUse"
       id="clipPath954">
      <path
         d="m 539.516,1755.47 v 0 l 0.023,6.09 -0.023,-6.09"
         id="path952" />
    </clipPath>
    <linearGradient
       x1="0"
       y1="0"
       x2="1"
       y2="0"
       gradientUnits="userSpaceOnUse"
       gradientTransform="matrix(122.53542,-0.36770833,-0.36770833,-122.53542,799.45417,1679.9708)"
       spreadMethod="pad"
       id="linearGradient960">
      <stop
         style="stop-opacity:1;stop-color:#d4c4a4"
         offset="0"
         id="stop956" />
      <stop
         style="stop-opacity:1;stop-color:#b8a88b"
         offset="1"
         id="stop958" />
    </linearGradient>
    <clipPath
       clipPathUnits="userSpaceOnUse"
       id="clipPath972">
      <path
         d="m 711.02,1754.96 c -0.008,0 -0.012,0 -0.02,0 l -34.059,0.1 -137.425,0.41 0.031,9.51 0.008,2.88 165.203,-0.49 6.281,-0.02 c 3.313,-0.01 5.988,-2.71 5.977,-6.02 v -0.39 c -0.008,-3.31 -2.692,-5.98 -5.996,-5.98 m -6.262,12.41 v 0 c -0.004,0 -0.004,0 -0.004,0 h 0.004"
         id="path970" />
    </clipPath>
    <clipPath
       clipPathUnits="userSpaceOnUse"
       id="clipPath984">
      <path
         d="m 539.441,1730.69 v 0 l 0.039,12.39 -0.035,-12.39"
         id="path982" />
    </clipPath>
    <linearGradient
       x1="0"
       y1="0"
       x2="1"
       y2="0"
       gradientUnits="userSpaceOnUse"
       gradientTransform="matrix(122.53542,-0.36770833,-0.36770833,-122.53542,799.45417,1679.9708)"
       spreadMethod="pad"
       id="linearGradient990">
      <stop
         style="stop-opacity:1;stop-color:#d4c4a4"
         offset="0"
         id="stop986" />
      <stop
         style="stop-opacity:1;stop-color:#b8a88b"
         offset="1"
         id="stop988" />
    </linearGradient>
    <clipPath
       clipPathUnits="userSpaceOnUse"
       id="clipPath1002">
      <path
         d="m 698.273,1730.21 c -0.007,0 -0.011,0 -0.019,0 l -109.527,0.33 v 0 l -49.286,0.15 0.039,12.39 137.422,-0.41 v 0 l 21.391,-0.06 c 3.312,-0.01 5.992,-2.71 5.98,-6.02 l -0.003,-0.39 c -0.008,-3.31 -2.692,-5.99 -5.997,-5.99"
         id="path1000" />
    </clipPath>
    <clipPath
       clipPathUnits="userSpaceOnUse"
       id="clipPath1014">
      <path
         d="m 539.371,1705.91 v 0 l 0.031,12.39 -0.031,-12.39"
         id="path1012" />
    </clipPath>
    <linearGradient
       x1="0"
       y1="0"
       x2="1"
       y2="0"
       gradientUnits="userSpaceOnUse"
       gradientTransform="matrix(122.53542,-0.36770833,-0.36770833,-122.53542,799.45417,1679.9708)"
       spreadMethod="pad"
       id="linearGradient1020">
      <stop
         style="stop-opacity:1;stop-color:#d4c4a4"
         offset="0"
         id="stop1016" />
      <stop
         style="stop-opacity:1;stop-color:#b8a88b"
         offset="1"
         id="stop1018" />
    </linearGradient>
    <clipPath
       clipPathUnits="userSpaceOnUse"
       id="clipPath1032">
      <path
         d="m 612.766,1705.69 c -0.004,0 -0.012,0 -0.016,0 l -73.379,0.22 0.039,12.39 49.278,-0.15 v 0 l 24.101,-0.07 c 3.313,-0.01 5.988,-2.7 5.977,-6.02 v -0.39 c -0.008,-3.3 -2.696,-5.98 -6,-5.98"
         id="path1030" />
    </clipPath>
    <clipPath
       clipPathUnits="userSpaceOnUse"
       id="clipPath1046">
      <path
         d="m 704.758,1767.37 -165.203,0.49 0.008,2.34 0.027,10.05 165.207,-0.5 c -0.008,0 -0.012,0 -0.024,0 -3.3,0 -5.984,-2.67 -5.996,-5.98 l -0.004,-0.39 c -0.007,-3.31 2.668,-6 5.981,-6.01 v 0"
         id="path1044" />
    </clipPath>
    <clipPath
       clipPathUnits="userSpaceOnUse"
       id="clipPath1058">
      <path
         d="m 704.758,1767.37 v 0 l -165.203,0.49 165.203,-0.49"
         id="path1056" />
    </clipPath>
    <clipPath
       clipPathUnits="userSpaceOnUse"
       id="clipPath1070">
      <path
         d="m 539.402,1718.3 v 0 l 0.039,12.39 -0.031,-12.39"
         id="path1068" />
    </clipPath>
    <linearGradient
       x1="0"
       y1="0"
       x2="1"
       y2="0"
       gradientUnits="userSpaceOnUse"
       gradientTransform="matrix(122.53542,-0.36770833,-0.36770833,-122.53542,799.45417,1679.9708)"
       spreadMethod="pad"
       id="linearGradient1076">
      <stop
         style="stop-opacity:1;stop-color:#d4c4a4"
         offset="0"
         id="stop1072" />
      <stop
         style="stop-opacity:1;stop-color:#b8a88b"
         offset="1"
         id="stop1074" />
    </linearGradient>
    <clipPath
       clipPathUnits="userSpaceOnUse"
       id="clipPath1088">
      <path
         d="m 588.688,1718.15 -49.286,0.15 0.043,12.39 49.282,-0.15 c -0.004,0 -0.016,0 -0.02,0 -3.305,0 -5.984,-2.67 -6,-5.98 v -0.39 c -0.008,-3.31 2.668,-6.01 5.981,-6.02 v 0"
         id="path1086" />
    </clipPath>
    <clipPath
       clipPathUnits="userSpaceOnUse"
       id="clipPath1100">
      <path
         d="m 588.727,1730.54 v 0 l -49.286,0.15 h 0.004 l 49.282,-0.15"
         id="path1098" />
    </clipPath>
    <clipPath
       clipPathUnits="userSpaceOnUse"
       id="clipPath1112">
      <path
         d="m 539.48,1743.08 v 0 l 0.036,12.39 -0.036,-12.39"
         id="path1110" />
    </clipPath>
    <linearGradient
       x1="0"
       y1="0"
       x2="1"
       y2="0"
       gradientUnits="userSpaceOnUse"
       gradientTransform="matrix(122.53542,-0.36770833,-0.36770833,-122.53542,799.45417,1679.9708)"
       spreadMethod="pad"
       id="linearGradient1118">
      <stop
         style="stop-opacity:1;stop-color:#d4c4a4"
         offset="0"
         id="stop1114" />
      <stop
         style="stop-opacity:1;stop-color:#b8a88b"
         offset="1"
         id="stop1116" />
    </linearGradient>
    <clipPath
       clipPathUnits="userSpaceOnUse"
       id="clipPath1130">
      <path
         d="m 676.902,1742.67 -137.422,0.41 0.036,12.39 137.425,-0.41 c -0.003,0 -0.011,0 -0.015,0 -3.305,0 -5.988,-2.68 -6,-5.98 v -0.39 c -0.012,-3.32 2.664,-6.01 5.976,-6.02 v 0"
         id="path1128" />
    </clipPath>
    <clipPath
       clipPathUnits="userSpaceOnUse"
       id="clipPath1142">
      <path
         d="m 817.738,1778.78 c -0.004,0 -0.011,0 -0.015,0 l -25.883,0.08 c -3.445,0.01 -6.227,2.81 -6.219,6.26 0.012,3.43 2.801,6.21 6.238,6.21 0.008,0 0.012,0 0.02,0 l 25.879,-0.07 c 3.445,-0.01 6.23,-2.81 6.219,-6.26 -0.012,-3.44 -2.801,-6.22 -6.239,-6.22"
         id="path1140" />
    </clipPath>
    <clipPath
       clipPathUnits="userSpaceOnUse"
       id="clipPath1154">
      <path
         d="m 843.559,1753.75 c -0.008,0 -0.012,0 -0.02,0 h -0.68 c -3.445,0.01 -6.23,2.81 -6.222,6.26 0.011,3.44 2.804,6.22 6.242,6.22 0.004,0 0.012,0 0.016,0 h 0.679 c 3.446,-0.01 6.231,-2.81 6.223,-6.26 -0.012,-3.43 -2.805,-6.22 -6.238,-6.22"
         id="path1152" />
    </clipPath>
    <clipPath
       clipPathUnits="userSpaceOnUse"
       id="clipPath1166">
      <path
         d="m 759.488,1729.05 c -0.004,0 -0.011,0 -0.015,0 h -0.68 c -3.445,0.01 -6.23,2.81 -6.223,6.26 0.008,3.44 2.801,6.22 6.239,6.22 0.007,0 0.011,0 0.019,0 l 0.68,-0.01 c 3.445,0 6.23,-2.81 6.219,-6.25 -0.012,-3.44 -2.801,-6.22 -6.239,-6.22"
         id="path1164" />
    </clipPath>
    <clipPath
       clipPathUnits="userSpaceOnUse"
       id="clipPath1178">
      <path
         d="m 726.582,1729.15 c -0.008,0 -0.012,0 -0.019,0 h -0.68 c -3.445,0.01 -6.231,2.81 -6.215,6.26 0.008,3.44 2.797,6.22 6.23,6.22 0.012,0 0.016,0 0.024,0 h 0.68 c 3.445,-0.02 6.226,-2.82 6.218,-6.26 -0.011,-3.44 -2.804,-6.22 -6.238,-6.22"
         id="path1176" />
    </clipPath>
    <clipPath
       clipPathUnits="userSpaceOnUse"
       id="clipPath1190">
      <path
         d="m 751.266,1704.12 c -0.004,0 -0.012,0 -0.016,0 l -0.68,0.01 c -3.445,0 -6.23,2.81 -6.218,6.25 0.011,3.44 2.8,6.22 6.234,6.22 0.012,0 0.016,0 0.023,0 h 0.68 c 3.445,-0.01 6.227,-2.81 6.219,-6.26 v 0 c -0.012,-3.44 -2.805,-6.22 -6.242,-6.22"
         id="path1188" />
    </clipPath>
    <clipPath
       clipPathUnits="userSpaceOnUse"
       id="clipPath1202">
      <path
         d="m 734.816,1704.17 c -0.007,0 -0.011,0 -0.019,0 l -0.68,0.01 c -3.445,0 -6.23,2.8 -6.222,6.25 0.015,3.44 2.804,6.22 6.242,6.22 0.004,0 0.011,0 0.015,0 h 0.68 c 3.445,-0.01 6.231,-2.81 6.223,-6.26 -0.012,-3.44 -2.801,-6.22 -6.239,-6.22"
         id="path1200" />
    </clipPath>
    <clipPath
       clipPathUnits="userSpaceOnUse"
       id="clipPath1214">
      <path
         d="m 817.199,1766.31 -24.91,0.07 c 0.008,0 0.012,0 0.02,0 3.437,0 6.226,2.78 6.238,6.22 0.008,3.45 -2.777,6.25 -6.223,6.26 l 24.914,-0.07 c -0.008,0 -0.011,0 -0.023,0 -3.438,0 -6.227,-2.79 -6.235,-6.23 -0.015,-3.44 2.774,-6.24 6.219,-6.25"
         id="path1212" />
    </clipPath>
    <clipPath
       clipPathUnits="userSpaceOnUse"
       id="clipPath1226">
      <path
         d="m 825.68,1753.8 -7.813,0.03 -34.097,0.1 c -3.446,0.01 -6.227,2.81 -6.219,6.26 0.012,3.44 2.801,6.21 6.238,6.21 0.008,0 0.012,0 0.02,0 l 41.871,-0.12 c 3.445,-0.01 6.23,-2.81 6.218,-6.26 -0.011,-3.43 -2.789,-6.2 -6.218,-6.22"
         id="path1224" />
    </clipPath>
    <clipPath
       clipPathUnits="userSpaceOnUse"
       id="clipPath1238">
      <path
         d="m 826.035,1741.32 -37.969,0.12 c 3.43,0.01 6.207,2.79 6.219,6.22 0.012,3.45 -2.777,6.25 -6.219,6.26 l 29.801,-0.09 7.813,-0.03 h 0.418 c -0.008,0 -0.016,0 -0.02,0 -3.437,0 -6.226,-2.78 -6.238,-6.22 -0.012,-3.44 2.762,-6.23 6.195,-6.26"
         id="path1236" />
    </clipPath>
    <clipPath
       clipPathUnits="userSpaceOnUse"
       id="clipPath1250">
      <path
         d="m 831.898,1728.83 -54.453,0.17 c 0.004,0 0.008,0 0.012,0 h -1.559 c -3.445,0.01 -6.226,2.81 -6.214,6.26 0.007,3.44 2.8,6.22 6.238,6.22 0.004,0 0.012,0 0.016,0 l 12.128,-0.04 37.969,-0.12 5.785,-0.01 c 3.446,-0.01 6.231,-2.81 6.223,-6.26 -0.016,-3.41 -2.75,-6.17 -6.145,-6.22"
         id="path1248" />
    </clipPath>
    <clipPath
       clipPathUnits="userSpaceOnUse"
       id="clipPath1262">
      <path
         d="m 834.043,1716.35 -56.633,0.17 c 0.008,0 0.012,0 0.02,0 3.437,0 6.222,2.78 6.238,6.22 0.008,3.44 -2.77,6.24 -6.211,6.26 -0.004,0 -0.008,0 -0.012,0 l 54.453,-0.17 2.18,-0.01 c -0.004,0 -0.012,0 -0.015,0 -3.438,0 -6.231,-2.77 -6.243,-6.21 -0.007,-3.45 2.778,-6.25 6.223,-6.26"
         id="path1260" />
    </clipPath>
    <clipPath
       clipPathUnits="userSpaceOnUse"
       id="clipPath1274">
      <path
         d="m 840.664,1703.86 c -0.004,0 -0.016,0 -0.019,0 l -15.165,0.04 c 0.004,0 0.008,0 0.016,0 0.004,0 0.012,0 0.016,0 v 0 0 l -54.594,0.16 -2.453,0.01 c -3.445,0.01 -6.227,2.81 -6.219,6.26 0.012,3.44 2.801,6.22 6.238,6.22 0.008,0 0.012,0 0.02,0 l 72.18,-0.22 c 3.445,-0.01 6.23,-2.81 6.218,-6.26 -0.011,-3.44 -2.8,-6.21 -6.238,-6.21"
         id="path1272" />
    </clipPath>
    <clipPath
       clipPathUnits="userSpaceOnUse"
       id="clipPath1286">
      <path
         d="m 825.395,1691.43 -57.7,0.17 c 3.43,0.01 6.219,2.78 6.227,6.22 0.012,3.44 -2.774,6.24 -6.219,6.25 l 3.215,-0.01 54.594,-0.16 c -0.004,0 -0.012,0 -0.016,0 -0.008,0 -0.012,0 -0.016,0 -3.429,-0.01 -6.214,-2.79 -6.222,-6.22 -0.008,-3.42 2.73,-6.2 6.137,-6.25"
         id="path1284" />
    </clipPath>
    <clipPath
       clipPathUnits="userSpaceOnUse"
       id="clipPath1298">
      <path
         d="m 854.988,1678.86 c -0.008,0 -0.011,0 -0.023,0 l -17.094,0.05 c 0.004,0 0.004,0 0.004,0 0.004,0 0.012,0 0.016,0 v 0 0 l -5.766,0.02 -74.746,0.22 c -3.445,0.01 -6.234,2.81 -6.219,6.26 0.008,3.44 2.797,6.22 6.235,6.22 0.007,0 0.015,0 0.023,0 l 10.277,-0.03 57.7,-0.17 29.609,-0.1 c 3.445,-0.01 6.23,-2.81 6.223,-6.25 -0.016,-3.44 -2.805,-6.22 -6.239,-6.22"
         id="path1296" />
    </clipPath>
    <clipPath
       clipPathUnits="userSpaceOnUse"
       id="clipPath1310">
      <path
         d="m 837.859,1666.43 -76.504,0.23 c 0.004,0 0.012,0 0.02,0 3.434,0 6.227,2.79 6.234,6.22 0.012,3.45 -2.777,6.25 -6.218,6.26 l 70.734,-0.21 5.766,-0.02 c -0.004,0 -0.012,0 -0.016,0 0,0 0,0 -0.004,0 -3.433,0 -6.226,-2.78 -6.234,-6.22 -0.012,-3.44 2.777,-6.24 6.222,-6.26"
         id="path1308" />
    </clipPath>
    <clipPath
       clipPathUnits="userSpaceOnUse"
       id="clipPath1322">
      <path
         d="m 853.25,1653.91 -29.836,0.09 -76.344,0.23 c -3.445,0.01 -6.23,2.81 -6.218,6.26 0.011,3.44 2.8,6.21 6.234,6.21 0.012,0 0.016,0 0.023,0 l 106.153,-0.31 c 3.445,-0.01 6.234,-2.82 6.222,-6.26 -0.007,-3.43 -2.8,-6.21 -6.234,-6.22"
         id="path1320" />
    </clipPath>
    <clipPath
       clipPathUnits="userSpaceOnUse"
       id="clipPath1334">
      <path
         d="m 848.262,1650.13 -90.199,0.26 v 0 l 90.199,-0.26 v 0"
         id="path1332" />
    </clipPath>
    <linearGradient
       x1="0"
       y1="0"
       x2="1"
       y2="0"
       gradientUnits="userSpaceOnUse"
       gradientTransform="matrix(122.53542,-0.36770833,-0.36770833,-122.53542,799.45417,1679.9708)"
       spreadMethod="pad"
       id="linearGradient1340">
      <stop
         style="stop-opacity:1;stop-color:#f9f5d5"
         offset="0"
         id="stop1336" />
      <stop
         style="stop-opacity:1;stop-color:#d4cfae"
         offset="1"
         id="stop1338" />
    </linearGradient>
    <clipPath
       clipPathUnits="userSpaceOnUse"
       id="clipPath1350">
      <path
         d="m 848.262,1650.13 -90.199,0.26 c 0,0 0,0 -0.004,0 l 90.203,-0.26 v 0"
         id="path1348" />
    </clipPath>
    <clipPath
       clipPathUnits="userSpaceOnUse"
       id="clipPath1362">
      <path
         d="m 848.262,1650.13 -90.203,0.26 c -0.942,2.24 -3.149,3.82 -5.731,3.82 l 71.086,-0.21 29.836,-0.09 h 0.766 c -0.004,0 -0.012,0 -0.016,0 -2.57,0 -4.785,-1.56 -5.738,-3.78"
         id="path1360" />
    </clipPath>
  </defs>
  <sodipodi:namedview
     id="namedview4"
     pagecolor="#ffffff"
     bordercolor="#000000"
     borderopacity="0.25"
     inkscape:showpageshadow="2"
     inkscape:pageopacity="0.0"
     inkscape:pagecheckerboard="0"
     inkscape:deskcolor="#d1d1d1"
     showgrid="false"
     inkscape:zoom="0.62175006"
     inkscape:cx="654.60388"
     inkscape:cy="262.16322"
     inkscape:window-width="1920"
     inkscape:window-height="1009"
     inkscape:window-x="-8"
     inkscape:window-y="-8"
     inkscape:window-maximized="1"
     inkscape:current-layer="g10">
    <inkscape:page
       x="0"
       y="0"
       id="page8"
       width="1234.6049"
       height="672.24957" />
  </sodipodi:namedview>
  <g
     id="g10"
     inkscape:groupmode="layer"
     inkscape:label="Page 1"
     transform="matrix(1.3333333,0,0,-1.3333333,0,1333.3333)">
    <g
       id="g12"
       transform="scale(0.24)">
      <g
         id="g2392"
         style="display:inline"
         inkscape:label="table"
         transform="translate(-154.641,901.6267)">
        <path
           d="m 154.641,1164.26 h 3858.14 V 3265.04 H 154.641 Z"
           style="fill:#af6364;fill-opacity:1;fill-rule:nonzero;stroke:none"
           id="path40" />
        <g
           id="g42">
          <g
             id="g44"
             clip-path="url(#clipPath48)">
            <path
               d="m -20.832,166.668 h 4166.66 v 4166.66 H -20.832 Z"
               style="fill:#e28c66;fill-opacity:1;fill-rule:nonzero;stroke:none"
               id="path50" />
            <path
               d="m 2219.95,1612.52 c -303.83,0 -609.18,4.12 -914.07,9.03 l 0.01,4.24 c 306.29,-4.95 612.99,-9.11 918.22,-9.1 289.4,0 577.42,3.74 862.21,14.09 -0.96,-1.35 -1.91,-2.73 -2.83,-4.12 -285.22,-10.39 -573.69,-14.14 -863.54,-14.14 m -1760.434,22.09 c -34.496,0.39 -68.942,0.77 -103.371,1.1 7.425,1.33 14.863,2.65 22.324,3.99 27.027,-0.28 53.992,-0.57 81.058,-0.88 l -0.011,-4.21 m 2058.614,41.94 c -2.54,0 -5.08,0 -7.62,0 -1.08,1.31 -2.15,2.61 -3.24,3.91 -257.88,0 -515.79,0 -773.68,0 -0.04,1.4 -0.09,2.79 -0.13,4.17 259.33,0 518.65,0 777.98,0 2.23,-2.69 4.46,-5.38 6.69,-8.08 m -566.89,40.7 c -145.84,10.14 -305.11,21.12 -464.15,32.41 -40.28,2.86 -111.26,5.17 -114.66,10.72 -14.32,23.35 -37.23,38.12 -66,47.02 l 0.02,5.4 c 30.72,-8.75 55.14,-23.79 70.15,-48.25 3.4,-5.55 74.38,-7.86 114.66,-10.72 169.89,-12.07 340.07,-23.77 493.84,-34.47 -11.3,-0.69 -22.57,-1.4 -33.86,-2.11 m 1321.06,0.9 c -370.12,0 -740.28,0 -1110.41,0 0.27,1.39 0.54,2.78 0.81,4.17 369.67,0 739.33,0 1109,0 0.2,-1.39 0.4,-2.78 0.6,-4.17 m -1756.59,60.15 c -0.17,1.34 -0.35,2.69 -0.52,4.04 496.18,12.86 992.35,25.73 1488.54,38.59 0.07,-1.35 0.13,-2.7 0.2,-4.05 -496.05,-12.86 -992.16,-25.72 -1488.22,-38.58 m -1344.401,5.42 v 4.07 c 96.226,2.17 192.461,4.33 288.687,6.51 l -0.012,-4.08 c -96.226,-2.18 -192.449,-4.33 -288.675,-6.5 m 288.793,45.36 c -96.27,0 -192.528,0 -288.793,0 v 4.17 c 96.265,0 192.535,0 288.804,0 l -0.011,-4.17 m 1263.028,10.38 c -0.8,0 -1.63,0 -2.43,0 0.51,1.25 1.03,2.49 1.55,3.74 -70.67,2.01 -141.34,4.03 -212.01,6.05 2.55,7.79 5.08,15.57 7.63,23.36 0.94,-0.03 1.84,-0.06 2.78,-0.08 -2.08,-6.37 -4.16,-12.74 -6.25,-19.11 70.67,-2.02 141.35,-4.04 212.02,-6.06 -1.1,-2.63 -2.19,-5.26 -3.29,-7.9 m -376.78,8.23 c -13.26,0 -26.54,0 -39.8,0 l 0.02,4.17 c 12.97,0 25.95,0 38.92,0 0.28,-1.39 0.57,-2.78 0.86,-4.17"
               style="fill:#e3906c;fill-opacity:1;fill-rule:nonzero;stroke:none"
               id="path52" />
            <path
               d="m 2932.61,2445.32 c -17.84,0 -30.65,0.42 -31.22,1.23 -46.87,66.33 -311.83,33.52 -367.62,64.75 -43.73,24.48 -101.72,29.22 -163.76,29.22 -19.62,0 -39.65,-0.47 -59.77,-0.95 -20.11,-0.47 -40.32,-0.95 -60.28,-0.95 -57.52,0 -113.06,3.94 -158.96,23.16 5.39,-0.1 10.67,-0.21 15.84,-0.33 43.5,-15.35 94.57,-18.66 147.29,-18.66 19.97,0 40.17,0.47 60.28,0.95 20.11,0.47 40.14,0.95 59.77,0.95 62.04,0 120.02,-4.74 163.75,-29.23 55.8,-31.22 320.75,1.58 367.62,-64.74 0.58,-0.81 13.38,-1.23 31.22,-1.23 28.15,0 68.82,1.05 93.73,3.24 78.16,6.9 152.85,20.1 230.58,25.38 l 6.32,-3.5 c -81.52,-4.75 -159.4,-18.84 -241.07,-26.04 -24.91,-2.2 -65.58,-3.25 -93.72,-3.25 m 748.71,40.69 -7.06,3.92 c 107.23,2.42 214.56,4.59 321.86,6.82 v -4.08 c -104.96,-2.18 -209.9,-4.31 -314.8,-6.66 m -633.4,30.75 c -0.54,1.31 -1.08,2.62 -1.62,3.93 42.87,1.75 85.74,3.49 128.55,5.24 l 6.71,-3.73 c -44.49,-1.81 -89.08,-3.63 -133.64,-5.44 m 603.46,19.73 c -0.42,0 -2.02,0.91 -4.97,3.47 3.77,-1.6 5.58,-3.47 4.97,-3.47 m -65.03,2.18 -6.72,3.72 c 18.01,0.74 35.96,1.47 53.88,2.2 3.41,-1.15 6.79,-2.35 10.17,-3.59 -19.06,-0.77 -38.17,-1.55 -57.33,-2.33 m 60.06,1.29 c -0.34,0.15 -0.71,0.29 -1.09,0.43 -0.55,0.22 -1.09,0.41 -1.64,0.61 0.5,0.02 0.99,0.05 1.5,0.07 0.43,-0.4 0.84,-0.77 1.23,-1.11 m -1214.39,35.66 c -37.26,11.11 -76.38,28.62 -110.44,28.62 -0.85,0 -1.69,-0.01 -2.53,-0.04 -247.29,-6.49 -492.49,-20.85 -739.89,-26 -7.86,-0.16 -15.75,-0.24 -23.64,-0.24 -41.3,0 -83.07,2.18 -125.16,6.03 l -0.03,4.56 c 43.51,-4.09 86.69,-6.42 129.36,-6.42 7.89,0 15.78,0.08 23.64,0.24 247.4,5.14 492.6,19.52 739.88,26 0.85,0.02 1.69,0.03 2.54,0.03 36.87,0 79.65,-20.51 119.61,-31.21 -4.46,-0.5 -8.9,-1.02 -13.34,-1.57 m 139.43,10.58 c -1,1.32 -2,2.65 -3,3.98 156.32,3.99 312.62,7.97 468.94,11.96 l 7,-3.88 c -157.66,-4.02 -315.28,-8.05 -472.94,-12.06 m 888.32,22.66 -7,3.88 c 126.75,3.23 253.56,6.46 380.32,9.7 0.54,-1.34 1.07,-2.68 1.61,-4.02 -124.97,-3.19 -249.96,-6.38 -374.93,-9.56"
               style="fill:#e3906c;fill-opacity:1;fill-rule:nonzero;stroke:none"
               id="path54" />
            <path
               d="m 1712,2307.2 c -93.43,2.71 -186.83,5.41 -280.25,8.12 l -0.02,4.29 c 93.89,-2.72 187.78,-5.45 281.66,-8.17 -0.46,-1.42 -0.93,-2.83 -1.39,-4.24 m -707.75,20.51 c -57.543,1.67 -115.047,3.34 -172.586,5.01 l 0.004,4.29 c 57.508,-1.67 115.047,-3.34 172.562,-5.01 l 0.02,-4.29 m -217.855,6.33 c -18.141,0.52 -36.297,1.04 -54.442,1.57 l 0.051,4.28 c 18.109,-0.52 36.289,-1.04 54.394,-1.57 l -0.003,-4.28 m -99.524,2.88 c -169.008,4.9 -337.992,9.79 -507,14.7 -0.414,3.46 -0.824,6.92 -1.234,10.38 1.558,0 3.101,0 4.66,0 0.246,-2.07 0.492,-4.14 0.738,-6.21 167.641,-4.86 335.25,-9.72 502.887,-14.59 l -0.051,-4.28 m 744.749,3.29 -0.01,3.56 c 149.48,21.93 300.54,40 455.29,49.65 25.05,0 49.96,0 75.03,0 -181.11,-7.73 -356.79,-27.84 -530.31,-53.21 m -672.581,25.96 c -1.387,0 -2.75,0 -4.137,0 0.016,1.53 0.028,3.06 0.036,4.58 -7.528,0.6 -15.051,1.19 -22.567,1.79 l 0.051,4.48 c 8.879,-0.7 17.781,-1.4 26.683,-2.1 -0.023,-2.92 -0.042,-5.84 -0.066,-8.75 m 2669.281,0.6 c -78.28,0 -156.43,0.53 -234.3,2.25 -201.67,4.48 -400.82,19.16 -602.34,24.4 42.01,0 83.96,0 125.99,0 160.22,-6.59 319.58,-16.66 480.52,-20.23 77.85,-1.73 155.99,-2.25 234.26,-2.25 7.3,0 14.6,0 21.9,0.01 l 7.48,-4.15 c -11.17,-0.02 -22.34,-0.03 -33.51,-0.03 m 282.92,1.12 2.3,4.16 c 27.63,0.1 55.25,0.18 82.85,0.18 0.13,-1.39 0.26,-2.78 0.39,-4.16 -28.49,0 -57.02,-0.07 -85.54,-0.18 m -3023.927,8.2 c -85.668,6.75 -165.899,13.08 -219.79,17.33 18.993,0 38,0 57.016,0 46.813,-3.69 103.422,-8.16 162.824,-12.85 l -0.05,-4.48 m 1904.367,17.33 c -210.36,0 -420.39,0 -629.75,0 3.41,0.14 6.84,0.28 10.25,0.42 44.38,1.78 89.14,2.99 134.12,3.74 90.29,0 180.63,0 271.11,0 65.23,-0.87 130.39,-2.21 195.03,-3.69 6.41,-0.15 12.83,-0.31 19.24,-0.47"
               style="fill:#e3906c;fill-opacity:1;fill-rule:nonzero;stroke:none"
               id="path56" />
            <path
               d="m 335.945,2697.9 c -3.675,7.02 -7.347,14.04 -11.027,21.06 2.051,0.12 4.109,0.24 6.16,0.36 3.012,-5.75 6.024,-11.5 9.031,-17.25 686.721,22.95 1362.931,71.41 2059.031,71.41 50.86,0 101.99,-0.26 153.09,-0.81 0.42,-1.41 0.84,-2.81 1.27,-4.22 -52.94,0.59 -105.83,0.86 -158.53,0.86 -696.09,0 -1372.3,-48.46 -2059.025,-71.41 m 1251.105,99.18 c -156.11,0 -279.5,0 -402.91,0 -1.12,4.71 -2.24,9.42 -3.37,14.12 1.71,0.07 3.41,0.15 5.11,0.22 0.82,-3.39 1.62,-6.78 2.43,-10.17 140.46,0 280.92,0 469.61,0 -23.76,-1.4 -47.37,-2.79 -70.87,-4.17 m -191.34,27.21 c -0.01,2.61 -0.03,5.23 -0.04,7.85 -229.77,0 -459.533,0 -689.299,0 0.359,2.99 0.715,5.97 1.074,8.96 1.207,0.01 2.465,0.03 3.676,0.05 -0.195,-1.61 -0.391,-3.22 -0.582,-4.84 229.766,0 459.531,0 689.301,0 0.02,-3.95 0.04,-7.9 0.06,-11.85 -1.4,-0.06 -2.79,-0.11 -4.19,-0.17 m 386.71,4.78 c 0.48,1.36 0.96,2.71 1.45,4.06 282.11,10.77 564.2,21.55 846.31,32.32 1.11,-1.3 2.2,-2.59 3.3,-3.88 -283.69,-10.83 -567.37,-21.67 -851.06,-32.5"
               style="fill:#e3906c;fill-opacity:1;fill-rule:nonzero;stroke:none"
               id="path58" />
            <path
               d="m 3374.61,1285.55 c -687.36,8.46 -1374.72,16.93 -2062.07,25.39 -0.83,6.15 -1.66,12.3 -2.5,18.45 1.58,0 3.16,0 4.73,0 0.65,-4.76 1.29,-9.52 1.94,-14.28 686.22,-8.46 1372.46,-16.9 2058.68,-25.35 -0.26,-1.4 -0.52,-2.81 -0.78,-4.21 m -39.48,44.88 c -105.5,0 -210.99,0 -316.49,0 0.07,1.38 0.15,2.77 0.22,4.16 105.46,0 210.91,0 316.37,0 -0.04,-1.39 -0.07,-2.78 -0.1,-4.16"
               style="fill:#e3906c;fill-opacity:1;fill-rule:nonzero;stroke:none"
               id="path60" />
            <path
               d="m 171.309,2648.05 v 4.01 c 63.933,2.3 127.754,5.89 191.851,6.43 687.86,5.77 1375.82,10.67 2063.54,17.65 26.8,0.27 52.01,14.79 77.71,24.86 1.62,-0.3 3.23,-0.59 4.84,-0.87 -28.86,-9.79 -56.8,-27.86 -86.71,-28.16 -687.73,-6.97 -1375.68,-11.87 -2063.548,-17.65 -62.703,-0.53 -125.14,-3.97 -187.683,-6.27 m 1253.571,36.63 c -132.11,1.78 -264.23,3.57 -396.34,5.34 0.53,4.35 1.07,8.69 1.6,13.04 1.21,0 2.44,0 3.65,0 -0.36,-2.95 -0.72,-5.91 -1.09,-8.87 157.34,-2.12 314.67,-4.24 472.01,-6.36 -26.69,-1.33 -53.28,-2.36 -79.83,-3.15"
               style="fill:#e3906c;fill-opacity:1;fill-rule:nonzero;stroke:none"
               id="path62" />
            <path
               d="m 3949.54,2097.28 c -236.73,-0.01 -481.54,30.4 -744.25,47.55 12.41,0.72 24.21,1.41 35.45,2.06 250.92,-17.42 485.65,-45.45 712.97,-45.44 14.17,0 28.3,0.1 42.41,0.33 v -4.1 c -15.49,-0.27 -31.02,-0.4 -46.58,-0.4 m -913.13,65.17 -2.07,0.68 c 0.15,0 0.29,0.01 0.45,0.01 0.53,-0.23 1.08,-0.46 1.62,-0.69 m 413.57,0.51 c -1.69,4.24 -3.39,8.48 -5.09,12.72 -136.7,-4.18 -273.41,-8.36 -410.1,-12.54 -2.98,1.27 -5.91,2.53 -8.77,3.77 4.77,-0.07 9.54,-0.15 14.31,-0.23 l -1.82,0.62 c -4.21,-0.11 -8.42,-0.22 -12.63,-0.33 -26.25,11.41 -46.07,21.46 -32.84,27.92 -1.25,-7.12 20.86,-16.89 45.91,-27.58 -0.15,-0.01 -0.29,-0.01 -0.44,-0.01 l 2.07,-0.68 c -0.54,0.23 -1.09,0.46 -1.63,0.69 136.7,4.18 273.41,8.36 410.1,12.54 2.22,-5.52 4.43,-11.04 6.64,-16.55 -1.9,-0.12 -3.8,-0.23 -5.71,-0.34 m 488.09,2.66 c -4.2,0.54 -8.41,1.05 -12.59,1.51 23.73,3.48 46.81,8.28 70.64,11.59 v -3.6 c -19.65,-2.57 -38.74,-6.26 -58.05,-9.5"
               style="fill:#e3906c;fill-opacity:1;fill-rule:nonzero;stroke:none"
               id="path64" />
            <path
               d="m 171.309,1996.7 v 4.01 c 94.254,3.58 188.277,9.53 282.968,11.06 51.793,0.85 103.668,1.09 155.586,1.09 36.77,0 73.567,-0.12 110.344,-0.24 36.805,-0.13 73.57,-0.25 110.34,-0.25 199.373,0 397.913,3.64 592.023,30.64 133.19,18.53 296.2,17.56 446.16,25.12 0.36,-1.3 0.72,-2.59 1.09,-3.89 -151.4,-7.86 -316.66,-6.66 -451.42,-25.4 -194.1,-27 -392.65,-30.64 -592.021,-30.64 -36.766,0 -73.531,0.12 -110.336,0.25 -36.781,0.12 -73.578,0.25 -110.348,0.25 -51.918,0 -103.793,-0.25 -155.582,-1.09 -93.3,-1.51 -185.945,-7.32 -278.804,-10.91 m 1081.461,62.34 c -1.2,3.02 -2.39,6.06 -3.59,9.09 -139.26,0 -278.539,0 -417.805,0 v 2.09 l 0.004,2.07 c 140.656,0 281.321,0 421.971,0 1.7,-4.31 3.4,-8.62 5.1,-12.93 -1.89,-0.11 -3.78,-0.22 -5.68,-0.32 m -466.661,9.09 c -19.05,0 -38.105,0 -57.16,0 l 0.043,3.7 0.008,0.46 c 19.039,0 38.074,0 57.113,0 l -0.004,-4.16 m -102.254,0 c -58.714,0 -117.425,0 -176.14,0 0.789,8.1 1.578,16.2 2.363,24.31 1.242,-0.02 2.512,-0.04 3.758,-0.06 -0.652,-6.69 -1.301,-13.39 -1.953,-20.09 57.34,0 114.68,0 172.015,0 l -0.043,-4.16"
               style="fill:#e3906c;fill-opacity:1;fill-rule:nonzero;stroke:none"
               id="path66" />
            <path
               d="m 3195.77,2212 c -10.16,9.61 -20.33,19.21 -30.49,28.82 2.48,0.36 4.96,0.72 7.44,1.07 9.07,-8.57 18.14,-17.14 27.21,-25.72 265.39,12.34 530.8,24.68 796.19,37.01 v -3.97 c -266.78,-12.4 -533.57,-24.8 -800.35,-37.21 m 198.99,65.52 c 2.12,5.05 4.24,10.1 6.35,15.15 -159.4,5.18 -318.81,10.35 -478.2,15.52 l -3.69,4.42 c 162.01,-5.25 324.04,-10.51 486.06,-15.77 -2.65,-6.32 -5.29,-12.63 -7.94,-18.95 -0.86,-0.12 -1.72,-0.25 -2.58,-0.37 m 358.88,8.44 c -31.09,0 -62.48,1.4 -93.96,3.18 1.03,1.32 1.97,2.74 2.82,4.25 31.93,-1.83 63.77,-3.26 95.3,-3.26 6.46,0 12.91,0.06 19.34,0.19 27.25,0.54 51.53,14.55 76.72,24.41 1.43,-0.37 2.85,-0.72 4.29,-1.05 -28.28,-9.69 -54.88,-26.92 -85.17,-27.53 -6.43,-0.13 -12.89,-0.19 -19.34,-0.19 m -158.8,7.09 c -9.75,0.58 -19.49,1.12 -29.22,1.61 0.03,1.45 0.06,2.91 0.08,4.36 6.76,-0.32 13.51,-0.68 20.28,-1.06 l 8.86,-4.91 m -707.28,16.29 c -149.28,4.85 -298.57,9.69 -447.85,14.54 -0.69,2.3 -1.38,4.6 -2.07,6.89 1.81,0 3.61,0 5.42,0 0.27,-0.91 0.54,-1.82 0.82,-2.73 149.55,-4.85 299.08,-9.7 448.64,-14.56 l -4.96,-4.14"
               style="fill:#e3906c;fill-opacity:1;fill-rule:nonzero;stroke:none"
               id="path68" />
            <path
               d="m 1306.66,1882.39 0.01,4.02 c 150.04,5.5 298.13,20.73 446.93,32.36 13.56,-0.26 27.15,-0.52 40.71,-0.79 -162.57,-11.74 -323.95,-29.38 -487.65,-35.59 m -846.398,0.75 c -77.989,1.71 -156.203,3.77 -234.715,6.15 20.461,0.83 40.93,1.66 61.394,2.48 57.922,-1.64 115.692,-3.1 173.332,-4.37 l -0.011,-4.26 m -5.828,19.42 c 1.203,1.73 2.406,3.46 3.613,5.19 -95.578,5.23 -191.16,10.45 -286.738,15.67 v 4.4 c 96.343,-5.27 192.695,-10.53 289.043,-15.8 l -0.012,-2.79 c -1.535,-2.21 -3.07,-4.41 -4.606,-6.61 -0.433,-0.02 -0.867,-0.04 -1.3,-0.06 m 1348.996,15.25 c -3.04,0.06 -6.08,0.12 -9.12,0.17 2.34,0.17 4.71,0.34 7.05,0.51 l 2.07,-0.68"
               style="fill:#e3906c;fill-opacity:1;fill-rule:nonzero;stroke:none"
               id="path70" />
            <path
               d="m 1324.13,3203.74 c -271.94,0 -558.927,14.52 -900.525,44.64 h 52.258 c 320.633,-27.3 593.337,-40.48 852.427,-40.48 134.06,0 264.54,3.54 395.98,10.48 17.39,-0.32 34.96,-0.64 52.75,-0.96 -150.84,-9.06 -299.5,-13.68 -452.89,-13.68 m -360.021,38.92 c -0.726,1.34 -1.445,2.67 -2.171,4.01 21.847,0.57 43.702,1.14 65.552,1.71 h 155.34 c -72.92,-1.91 -145.79,-3.81 -218.721,-5.72"
               style="fill:#e3906c;fill-opacity:1;fill-rule:nonzero;stroke:none"
               id="path72" />
            <path
               d="m 3996.12,1762.47 c -105.79,0 -211.59,0 -317.38,0 l -0.04,4.17 c 105.82,0 211.59,0 317.42,0 v -4.17 m -715.52,0 c -257.18,0 -514.39,0 -771.56,0 -0.49,4.1 -0.97,8.2 -1.45,12.29 1.54,0.05 3.11,0.1 4.64,0.14 0.32,-2.75 0.65,-5.51 0.97,-8.26 255.8,0 511.55,0 767.35,0 l 0.05,-4.17"
               style="fill:#e3906c;fill-opacity:1;fill-rule:nonzero;stroke:none"
               id="path74" />
            <path
               d="m 3048.29,3248.21 c -5.69,0 -11.45,0.05 -17.29,0.17 h 34.13 c -5.55,-0.12 -11.15,-0.17 -16.84,-0.17"
               style="fill:#e3906c;fill-opacity:1;fill-rule:nonzero;stroke:none"
               id="path76" />
            <path
               d="m 3910.29,1180.93 h -13.61 c 23.52,5.47 46.99,11.14 71.25,16.49 4.41,-0.14 8.84,-0.28 13.27,-0.42 -24.32,-5.08 -47.7,-10.61 -70.91,-16.07 m -1072.1,0 h -31.18 c -78.03,8.39 -198.28,-2.7 -248.19,25.42 4.91,-0.28 9.84,-0.56 14.73,-0.83 62.06,-24.67 194.95,-9.57 264.64,-24.59 m 916.31,32.61 c 0.07,1.35 0.14,2.71 0.21,4.07 72.95,1.89 145.91,3.8 218.86,5.7 0.38,-1.35 0.76,-2.68 1.14,-4.02 -73.41,-1.92 -146.81,-3.84 -220.21,-5.75"
               style="fill:#e3906c;fill-opacity:1;fill-rule:nonzero;stroke:none"
               id="path78" />
            <path
               d="m 171.309,1533.05 v 3.84 c 56.421,4.22 111.308,12.68 162.629,16.46 41.539,3.04 83.332,5.79 125.359,8.27 l -0.012,-3.92 c -43.426,-2.55 -86.605,-5.37 -129.515,-8.52 -50.051,-3.68 -103.508,-11.83 -158.461,-16.13 m 1134.461,51.82 0.01,4.08 c 36.99,0.8 73.92,1.62 110.83,2.49 64.55,1.52 129.37,2 194.33,2 106.12,0 212.6,-1.27 318.74,-1.31 0.09,-1.38 0.18,-2.77 0.28,-4.17 -107.61,0 -215.58,1.31 -323.19,1.31 -64.96,0 -129.77,-0.47 -194.33,-2 -35.51,-0.84 -71.08,-1.63 -106.67,-2.4"
               style="fill:#e3906c;fill-opacity:1;fill-rule:nonzero;stroke:none"
               id="path80" />
            <path
               d="m 3457.42,1390.79 c -129.78,0 -259.66,4.96 -389.61,16.77 l 4.61,4.13 c 129.81,-11.79 259.51,-16.74 389.16,-16.74 178.32,0 356.47,9.37 534.54,23.2 v -3.84 c -179.43,-14.01 -359.02,-23.52 -538.7,-23.52 m -446.27,22.36 c -54.56,5.81 -109.19,12.9 -163.79,21.36 9.72,0.13 19.43,0.26 29.15,0.39 45.41,-6.69 90.82,-12.43 136.2,-17.3 -0.67,-1.43 -1.19,-2.92 -1.56,-4.45"
               style="fill:#e3906c;fill-opacity:1;fill-rule:nonzero;stroke:none"
               id="path82" />
            <path
               d="m 3734.39,3076.29 c -0.12,0 -0.23,0 -0.35,0 -325.99,3.64 -651.65,10.02 -980.37,28.44 27.49,0 54.97,0 82.46,0 302.16,-15.25 601.99,-20.93 902.08,-24.28 0.11,0 0.23,0 0.35,0 19.37,0 43.54,17.78 60.52,29.71 0.21,-0.67 0.04,-1.24 -0.58,-1.67 -17.02,-11.74 -43.33,-32.2 -64.11,-32.2 m -512.39,32.6 c -1.84,0 -3.66,0 -5.49,0 -0.41,1.31 -0.82,2.61 -1.23,3.91 -223.76,12 -447.51,24.01 -671.26,36.02 44.8,-0.94 89.65,-1.89 134.46,-2.83 180.32,-9.67 360.63,-19.35 540.97,-29.03 0.84,-2.69 1.69,-5.38 2.55,-8.07 m -677.98,39.93 c -30.33,0.63 -60.64,1.27 -90.96,1.91 l 0.57,0.16 c -0.04,-0.01 -0.08,-0.03 -0.12,-0.04 -0.03,-0.02 -0.05,-0.02 -0.04,-0.02 0,0 0.01,0 0.01,0 0.02,0.01 0.02,0.01 0.03,0.02 0.38,0.11 3.37,0.99 5.6,1.65 l 2.52,0.74 c 27.47,-1.48 54.92,-2.95 82.39,-4.42"
               style="fill:#e3906c;fill-opacity:1;fill-rule:nonzero;stroke:none"
               id="path84" />
            <path
               d="m 2198,2976.67 c -636.62,0 -1273.25,0 -1909.879,0 0.051,8.59 0.098,17.18 0.149,25.76 1.398,0 2.742,0 4.14,0 -0.039,-7.2 -0.082,-14.39 -0.121,-21.59 635.227,0 1270.511,0 1905.731,0 0,-1.39 -0.01,-2.78 -0.02,-4.17"
               style="fill:#e3906c;fill-opacity:1;fill-rule:nonzero;stroke:none"
               id="path86" />
            <path
               d="m 3481.39,1244.19 c -723.35,0 -1446.72,0 -2170.08,0 -0.17,5 -0.35,9.99 -0.51,14.99 1.45,0 2.85,0 4.31,0 0.12,-3.61 0.24,-7.22 0.37,-10.82 721.98,0 1443.95,0 2165.95,0 -0.01,-1.4 -0.03,-2.78 -0.04,-4.17"
               style="fill:#e3906c;fill-opacity:1;fill-rule:nonzero;stroke:none"
               id="path88" />
            <path
               d="m 1004.61,2259.01 c -57.688,0.87 -115.348,1.76 -173.028,2.65 l 0.004,4.23 c 57.664,-0.89 115.336,-1.77 173.004,-2.65 l 0.02,-4.23 m -218.29,3.37 c -18.398,0.29 -36.777,0.58 -55.179,0.87 l 0.05,4.24 c 18.379,-0.3 36.75,-0.59 55.133,-0.88 l -0.004,-4.23 m -100.265,1.6 c -107.114,1.76 -214.203,3.63 -321.242,5.71 -64.829,1.26 -129.583,4.85 -193.504,9.24 v 4.45 c 65.269,-4.51 131.433,-8.24 197.668,-9.52 105.668,-2.06 211.386,-3.91 317.125,-5.64 l -0.047,-4.24"
               style="fill:#e3906c;fill-opacity:1;fill-rule:nonzero;stroke:none"
               id="path90" />
            <path
               d="m 3996.12,3182.69 c -325.6,9.06 -650.31,18.1 -972.28,27.06 9.62,1.2 19.26,2.37 28.88,3.48 312.5,-8.69 627.52,-17.46 943.4,-26.25 v -4.29"
               style="fill:#e3906c;fill-opacity:1;fill-rule:nonzero;stroke:none"
               id="path92" />
            <path
               d="m 3996.12,2833.8 c -104.98,2.96 -209.92,5.91 -314.91,8.87 -0.01,1.43 -0.03,2.86 -0.08,4.29 105.01,-2.96 209.98,-5.91 314.99,-8.87 v -4.29 m -660.06,18.59 c -87.31,2.46 -174.64,4.92 -261.95,7.38 2.95,8.86 5.9,17.73 8.85,26.59 0.93,-0.03 1.83,-0.06 2.75,-0.09 -2.48,-7.45 -4.96,-14.89 -7.44,-22.34 86.19,-2.43 172.37,-4.85 258.56,-7.28 -0.27,-1.42 -0.53,-2.84 -0.77,-4.26"
               style="fill:#e3906c;fill-opacity:1;fill-rule:nonzero;stroke:none"
               id="path94" />
            <path
               d="m 2453.47,3150.83 c -0.01,0 0.01,0 0.04,0.02 -0.01,-0.01 -0.01,-0.01 -0.03,-0.02 0,0 -0.01,0 -0.01,0 m 0.04,0.02 c 0.04,0.01 0.08,0.03 0.12,0.04 1.82,0.79 3.66,1.56 5.49,2.35 0.84,0 1.67,0 2.51,0 0,0 -1.11,-0.33 -2.52,-0.74 -2.23,-0.66 -5.22,-1.54 -5.6,-1.65 m 5.61,2.39 c -293.77,0 -587.56,0 -881.32,0 -3.71,5.26 -7.42,10.53 -11.13,15.8 2.3,0.09 4.6,0.17 6.9,0.27 2.8,-3.97 5.6,-7.94 8.39,-11.91 293.77,0 587.55,0 881.33,0 -1.84,-0.78 -3.67,-1.56 -5.5,-2.34 l -0.56,-0.17 c 1.82,-0.03 3.67,-0.07 5.5,-0.11 -1.21,-0.52 -2.41,-1.03 -3.61,-1.54 m 9.41,4.02 c -0.9,0.04 -1.83,0.1 -2.73,0.14 v 0 c -0.85,0 -1.67,0 -2.51,0 32.96,14.08 66.81,28.59 122.86,52.62 2.04,0.09 4.1,0.17 6.14,0.25 -56.74,-24.33 -91.6,-39.27 -123.76,-53.01 m -2.99,0.06 c 0.16,0.06 0.26,0.08 0.26,0.08 l -0.26,-0.08"
               style="fill:#e3906c;fill-opacity:1;fill-rule:nonzero;stroke:none"
               id="path96" />
            <path
               d="m 3996.12,2654.25 c -75.72,2.48 -151.49,6.73 -227.33,13.74 17.76,0 35.51,0 53.27,0 58.05,-4.49 116.08,-7.49 174.06,-9.44 v -4.3 m 0,34.7 c -95.64,0 -191.26,0 -286.91,0 -1.61,5.96 -3.22,11.92 -4.84,17.88 1.76,0.03 3.51,0.06 5.27,0.09 1.25,-4.6 2.49,-9.21 3.74,-13.81 94.25,0 188.49,0 282.74,0 v -4.16"
               style="fill:#e3906c;fill-opacity:1;fill-rule:nonzero;stroke:none"
               id="path98" />
            <path
               d="m 3996.12,2013.81 c -147.79,0 -295.58,0 -443.37,0 0.38,1.37 0.71,2.76 0.98,4.17 147.47,0 294.92,0 442.39,0 v -4.17 m -917.19,0 c -2.43,0 -4.86,0 -7.29,0 2.19,1.39 4.39,2.78 6.58,4.17 0.14,0 0.3,0 0.44,0 l 0.16,-2.68 c 0.03,-0.5 0.06,-0.99 0.11,-1.49"
               style="fill:#e3906c;fill-opacity:1;fill-rule:nonzero;stroke:none"
               id="path100" />
            <path
               d="m 1978.58,1220.03 c -529.85,0 -1059.701,0 -1589.553,0 -0.047,2.69 -0.093,5.38 -0.136,8.08 1.418,0 2.816,0 4.238,0 0.019,-1.31 0.043,-2.61 0.066,-3.92 527.489,0 1055.005,0 1582.505,0 0.96,-1.39 1.92,-2.77 2.88,-4.16"
               style="fill:#e3906c;fill-opacity:1;fill-rule:nonzero;stroke:none"
               id="path102" />
            <path
               d="m 171.309,1374.96 v 4.13 c 95.828,0.94 191.648,2.2 287.449,3.56 l -0.012,-4.11 c -95.801,-1.36 -191.609,-2.63 -287.437,-3.58 m 64.32,47.83 c -5.375,0.85 -10.754,1.68 -16.156,2.48 35.953,2.98 71.902,5.98 126.976,10.55 5.492,-0.77 11.031,-1.57 16.645,-2.43 -55.973,-4.66 -93.281,-7.76 -127.465,-10.6"
               style="fill:#e3906c;fill-opacity:1;fill-rule:nonzero;stroke:none"
               id="path104" />
            <path
               d="m 3996.12,2966.15 c -123.79,0 -247.54,0 -371.32,0 -1.62,1.42 -3.28,2.8 -4.96,4.17 125.43,0 250.84,0 376.28,0 v -4.17 m -387.38,12.37 c -2.05,1.4 -4.14,2.75 -6.28,4.05 -0.23,0.89 -0.45,1.78 -0.68,2.66 1.74,0.03 3.48,0.06 5.22,0.08 0.58,-2.26 1.16,-4.52 1.74,-6.79"
               style="fill:#e3906c;fill-opacity:1;fill-rule:nonzero;stroke:none"
               id="path106" />
            <path
               d="m 2998.49,1454.22 c -364.66,0 -729.31,0 -1093.97,0 -0.12,2.56 -0.23,5.13 -0.36,7.69 1.46,0 2.91,0 4.36,0 0.06,-1.18 0.11,-2.35 0.17,-3.53 361.87,0 723.74,0 1085.62,0 1.39,-1.38 2.79,-2.77 4.18,-4.16"
               style="fill:#e3906c;fill-opacity:1;fill-rule:nonzero;stroke:none"
               id="path108" />
            <path
               d="m 171.309,1668.01 v 3.97 c 83.648,3.95 167.289,7.9 250.937,11.86 1.656,0 3.328,0 4.988,0 0.016,0.08 0.032,0.16 0.043,0.23 10.789,0.51 21.602,1.03 32.391,1.54 l -0.008,-3.98 c -96.113,-4.54 -192.238,-9.08 -288.351,-13.62 M 431.398,1688 c -1.109,0 -2.226,0 -3.339,0 0.656,3.32 1.316,6.65 1.98,9.98 -86.246,1.44 -172.488,2.88 -258.73,4.32 v 4.24 c 87.632,-1.47 175.261,-2.93 262.894,-4.4 -0.937,-4.71 -1.871,-9.43 -2.805,-14.14"
               style="fill:#e3906c;fill-opacity:1;fill-rule:nonzero;stroke:none"
               id="path110" />
            <path
               d="m 3739.83,2445.16 c -0.56,1.39 -1.22,2.73 -1.96,4.04 86.08,1.78 172.17,3.56 258.25,5.35 v -4.09 c -85.42,-1.76 -170.86,-3.53 -256.29,-5.3"
               style="fill:#e3906c;fill-opacity:1;fill-rule:nonzero;stroke:none"
               id="path112" />
            <path
               d="m 2505.71,1884.19 c -27.08,0 -55.87,11.05 -83.85,16.83 4,0.75 8,1.57 12.02,2.43 25.48,-6.01 51.45,-15.09 76,-15.09 0.46,0 0.92,0 1.39,0 318.16,4.52 636.05,10.76 954.02,16.56 4.94,-0.1 9.89,-0.21 14.83,-0.31 -2.59,-1.22 -5.17,-2.43 -7.74,-3.65 -321.72,-5.86 -643.36,-12.19 -965.28,-16.76 -0.46,-0.01 -0.92,-0.01 -1.39,-0.01"
               style="fill:#e3906c;fill-opacity:1;fill-rule:nonzero;stroke:none"
               id="path114" />
            <path
               d="m 1621.74,2158.89 c -45.72,0 -106.29,1.12 -189.62,3.34 0.21,1.4 0.33,2.83 0.38,4.27 85.31,-2.29 147,-3.44 193.4,-3.44 97.26,0 127.28,5.04 166.29,15.12 3.87,0 7.74,0 11.6,0 -48.14,-12.86 -72.21,-19.29 -182.05,-19.29 m -616.7,16.66 c -25.735,0.84 -52.356,1.72 -80.005,2.63 26.664,0 53.34,0 79.995,0 l 0.01,-2.63"
               style="fill:#e3906c;fill-opacity:1;fill-rule:nonzero;stroke:none"
               id="path116" />
            <path
               d="m 2113.54,2930.79 c -2,6.64 -3.99,13.27 -5.99,19.91 1.81,0 3.61,0 5.42,0 1.58,-5.25 3.16,-10.5 4.73,-15.75 294.54,5.2 589.07,10.4 883.6,15.6 0.1,0.05 0.21,0.1 0.31,0.15 1.49,0 2.95,0 4.44,0 -2.98,-1.44 -5.94,-2.88 -8.92,-4.32 -294.53,-5.2 -589.06,-10.39 -883.59,-15.59"
               style="fill:#e3906c;fill-opacity:1;fill-rule:nonzero;stroke:none"
               id="path118" />
            <path
               d="m 3996.12,3033.3 c -206.79,0 -413.55,0 -620.33,0 0.43,5.54 0.86,11.08 1.3,16.62 1.28,0 2.56,0 3.84,0 -0.32,-4.15 -0.66,-8.3 -0.98,-12.46 205.4,0 410.76,0 616.17,0 v -4.16"
               style="fill:#e3906c;fill-opacity:1;fill-rule:nonzero;stroke:none"
               id="path120" />
            <path
               d="m 3996.12,1931.14 c -236.04,0 -472.05,0 -708.09,0 -0.07,2.48 -0.12,4.96 -0.18,7.43 1.42,0 2.85,0 4.27,0 0.02,-1.09 0.05,-2.18 0.08,-3.27 234.64,0 469.28,0 703.92,0 v -4.16"
               style="fill:#e3906c;fill-opacity:1;fill-rule:nonzero;stroke:none"
               id="path122" />
            <path
               d="m 3996.12,1888.18 c -77.2,1.7 -154.38,3.39 -231.58,5.07 2.09,4.02 4.18,8.05 6.27,12.07 0.67,0 1.33,0 2,0 -1.37,-2.64 -2.74,-5.27 -4.1,-7.9 75.8,-1.66 151.61,-3.32 227.41,-4.98 v -4.26"
               style="fill:#e3906c;fill-opacity:1;fill-rule:nonzero;stroke:none"
               id="path124" />
            <path
               d="m 2877.62,1999.34 c -184.99,0 -369.99,0 -554.98,0 1.34,8.8 2.68,17.6 4.02,26.39 1.17,-0.02 2.34,-0.03 3.52,-0.05 -1.13,-7.39 -2.25,-14.78 -3.38,-22.17 183.62,0 367.22,0 550.83,0 l -0.01,-4.17"
               style="fill:#e3906c;fill-opacity:1;fill-rule:nonzero;stroke:none"
               id="path126" />
            <path
               d="m 598.035,3030.26 c -142.238,0 -284.488,0 -426.726,0 v 4.17 c 142.558,0 285.136,0 427.699,0 -0.324,-1.39 -0.649,-2.78 -0.973,-4.17"
               style="fill:#e3906c;fill-opacity:1;fill-rule:nonzero;stroke:none"
               id="path128" />
            <path
               d="m 1305.39,1462.1 0.02,3.78 c 30.41,-0.72 60.8,-1.31 91.13,-1.65 -30.39,-0.71 -60.76,-1.42 -91.15,-2.13"
               style="fill:#e3906c;fill-opacity:1;fill-rule:nonzero;stroke:none"
               id="path130" />
            <path
               d="m 729.457,2774.96 c -186.055,0 -372.098,0 -558.148,0 v 4.17 c 187.433,0 374.879,0 562.316,0 1.039,0.2 2.074,0.39 3.117,0.58 5.442,-0.1 10.895,-0.22 16.336,-0.33 -7.875,-1.47 -15.75,-2.94 -23.621,-4.42"
               style="fill:#e3906c;fill-opacity:1;fill-rule:nonzero;stroke:none"
               id="path132" />
            <path
               d="m 967.129,2452.83 c -49.113,0 -98.242,0 -147.356,0 l -1.144,4.17 c 46.941,0 93.887,0 140.828,0 2.559,-1.39 5.117,-2.78 7.672,-4.17 m -151.941,0 c -27.301,0 -54.614,0 -81.918,0 l 0.046,4.17 c 27.676,0 55.36,0 83.032,0 l -1.16,-4.17 m -127.012,0 c -170.141,0 -340.293,0 -510.434,0 1.875,8.44 3.754,16.89 5.629,25.34 1.067,-0.03 2.152,-0.06 3.223,-0.08 -1.563,-7.03 -3.125,-14.06 -4.684,-21.09 168.774,0 337.535,0 506.313,0 l -0.047,-4.17"
               style="fill:#e3906c;fill-opacity:1;fill-rule:nonzero;stroke:none"
               id="path134" />
            <path
               d="m 1766.59,2429.22 c -111.82,0 -223.62,0 -335.43,0 l -0.02,4.17 c 111.57,0 223.16,0 334.73,0 0.24,-1.39 0.48,-2.78 0.72,-4.17"
               style="fill:#e3906c;fill-opacity:1;fill-rule:nonzero;stroke:none"
               id="path136" />
            <path
               d="m 3945.7,1263.62 c -2.4,7.59 -4.8,15.18 -7.2,22.77 1.81,0.07 3.62,0.13 5.42,0.2 1.98,-6.27 3.96,-12.54 5.95,-18.8 15.42,0.32 30.83,0.62 46.25,0.92 v -4.08 c -16.81,-0.33 -33.62,-0.67 -50.42,-1.01"
               style="fill:#e3906c;fill-opacity:1;fill-rule:nonzero;stroke:none"
               id="path138" />
            <path
               d="m 171.309,2117.07 v 4.05 c 86.414,2.56 172.691,5.7 259.054,8.48 -1.277,-1.39 -2.547,-2.78 -3.82,-4.16 -85.09,-2.74 -170.098,-5.83 -255.234,-8.37"
               style="fill:#e3906c;fill-opacity:1;fill-rule:nonzero;stroke:none"
               id="path140" />
            <path
               d="m 459.102,1495.55 c -37.918,0 -75.844,0 -113.758,0 -0.266,2.07 -0.531,4.14 -0.797,6.21 1.566,0 3.137,0 4.703,0 0.086,-0.69 0.176,-1.37 0.262,-2.05 36.535,0 73.062,0 109.601,0 l -0.011,-4.16"
               style="fill:#e3906c;fill-opacity:1;fill-rule:nonzero;stroke:none"
               id="path142" />
            <path
               d="m 2197.34,2012.6 c -259.39,0 -518.78,0 -778.17,0 -2.68,2.69 -5.36,5.38 -8.04,8.08 2.76,0 5.55,0 8.31,0 1.3,-1.31 2.6,-2.61 3.89,-3.92 257.97,0 515.94,0 773.9,0 0.04,-1.38 0.07,-2.77 0.11,-4.16"
               style="fill:#e3906c;fill-opacity:1;fill-rule:nonzero;stroke:none"
               id="path144" />
            <path
               d="m 1985.32,1559.86 c -226.55,0 -453.08,0 -679.63,0 l 0.01,4.16 c 226.46,0 452.88,0 679.34,0 0.09,-1.38 0.19,-2.77 0.28,-4.16"
               style="fill:#e3906c;fill-opacity:1;fill-rule:nonzero;stroke:none"
               id="path146" />
            <path
               d="m 922.832,2201.04 c -0.766,4.47 -1.531,8.96 -2.297,13.44 1.61,0.06 3.235,0.11 4.848,0.16 0.539,-3.14 1.078,-6.29 1.617,-9.44 25.957,0.53 51.922,1.05 77.88,1.57 l 0.02,-4.08 c -27.353,-0.55 -54.712,-1.11 -82.068,-1.65 m 509.458,10.28 -0.02,4.08 c 39.75,0.81 79.52,1.61 119.28,2.42 0.14,-1.36 0.28,-2.72 0.42,-4.08 -39.9,-0.8 -79.78,-1.61 -119.68,-2.42"
               style="fill:#e3906c;fill-opacity:1;fill-rule:nonzero;stroke:none"
               id="path148" />
            <path
               d="m 3367.26,2982.24 c -243.08,0 -486.16,0 -729.24,0 0.06,2.69 0.11,5.39 0.17,8.08 1.36,0 2.72,0 4.08,0 -0.03,-1.31 -0.06,-2.61 -0.08,-3.92 242.32,0 484.64,0 726.96,0 -0.63,-1.38 -1.26,-2.77 -1.89,-4.16"
               style="fill:#e3906c;fill-opacity:1;fill-rule:nonzero;stroke:none"
               id="path150" />
            <path
               d="m 2405.08,1948.46 c 1.46,8.25 2.91,16.5 4.36,24.76 1.14,0 2.29,0 3.43,0 -1.21,-6.86 -2.42,-13.73 -3.62,-20.59 181.8,4.68 363.59,9.37 545.39,14.05 0.1,-1.35 0.2,-2.7 0.3,-4.05 -183.29,-4.72 -366.57,-9.45 -549.86,-14.17"
               style="fill:#e3906c;fill-opacity:1;fill-rule:nonzero;stroke:none"
               id="path152" />
            <path
               d="m 3063.8,1512.74 c -160.09,0 -320.19,0 -480.27,0 2.66,4.34 5.33,8.67 7.99,13.01 0.54,0 1.07,0 1.61,0 -1.81,-2.95 -3.62,-5.89 -5.43,-8.84 158.38,0 316.75,0 475.13,0 0.3,-1.4 0.62,-2.78 0.97,-4.17"
               style="fill:#e3906c;fill-opacity:1;fill-rule:nonzero;stroke:none"
               id="path154" />
            <path
               d="m 2083.1,2126.62 c -207.79,0 -415.59,0 -623.38,0 -0.17,2.12 -0.34,4.24 -0.51,6.36 1.5,0 3,0 4.5,0 0.06,-0.73 0.12,-1.46 0.17,-2.19 206.19,0 412.39,0 618.57,0 0.22,-1.39 0.44,-2.78 0.65,-4.17"
               style="fill:#e3906c;fill-opacity:1;fill-rule:nonzero;stroke:none"
               id="path156" />
            <path
               d="m 2569.43,2272.21 c -122.51,0 -245.03,0 -367.54,0 -1.77,3.1 -3.54,6.19 -5.32,9.29 2.13,0.11 4.25,0.21 6.37,0.32 1.04,-1.81 2.08,-3.63 3.12,-5.44 120.77,0 241.55,0 362.33,0 0.34,-1.39 0.69,-2.78 1.04,-4.17"
               style="fill:#e3906c;fill-opacity:1;fill-rule:nonzero;stroke:none"
               id="path158" />
            <path
               d="m 688.461,2545.08 c -2.348,8.3 -4.699,16.61 -7.051,24.91 1.778,0 3.567,0 5.344,0 1.957,-6.92 3.918,-13.83 5.875,-20.74 0.332,0.01 0.672,0.02 1.004,0.04 l -1.172,-4.06 c -1.332,-0.05 -2.66,-0.1 -4,-0.15 m 45.867,1.77 0.031,3 -0.261,1 c 89.652,3.46 179.293,6.92 268.942,10.38 l 0.02,-4 c -89.576,-3.46 -179.158,-6.92 -268.732,-10.38"
               style="fill:#e3906c;fill-opacity:1;fill-rule:nonzero;stroke:none"
               id="path160" />
            <path
               d="m 3996.12,1537.47 c -8.88,0.45 -17.77,0.89 -26.65,1.34 8.89,0 17.76,0 26.65,0 v -1.34 m -26.65,1.34 c -19,0 -38.01,0 -57,0 l 7.94,2.46 v 0 c 16.36,-0.82 32.71,-1.64 49.06,-2.46 m -57.02,0 c -0.02,0 -0.04,0 -0.06,0 l 0.06,0.01 c 0,0 0,-0.01 0,-0.01"
               style="fill:#e3906c;fill-opacity:1;fill-rule:nonzero;stroke:none"
               id="path162" />
            <path
               d="m 479.012,1188.99 c -102.567,0 -205.137,0 -307.703,0 v 4.17 c 102.578,0 205.16,0 307.738,0 -0.012,-1.39 -0.024,-2.78 -0.035,-4.17"
               style="fill:#e3906c;fill-opacity:1;fill-rule:nonzero;stroke:none"
               id="path164" />
            <path
               d="m 2214.89,1369.03 c -132.24,0 -264.49,0 -396.73,0 3.18,9.65 6.36,19.3 9.55,28.95 0.91,-0.07 1.82,-0.13 2.72,-0.21 -2.7,-8.19 -5.4,-16.38 -8.11,-24.57 112.89,0 225.79,0 338.68,0 18.21,-1.34 36.41,-2.68 54.64,-4.02 -0.25,-0.05 -0.5,-0.1 -0.75,-0.15"
               style="fill:#e3906c;fill-opacity:1;fill-rule:nonzero;stroke:none"
               id="path166" />
            <path
               d="m 2647.24,1555.89 c -146.11,0 -292.21,0 -438.32,0 -0.04,3.92 -0.09,7.84 -0.13,11.75 1.41,0 2.81,0 4.21,0 0.03,-2.52 0.06,-5.06 0.09,-7.59 144.68,0 289.36,0 434.04,0 0.04,-1.38 0.07,-2.77 0.11,-4.16"
               style="fill:#e3906c;fill-opacity:1;fill-rule:nonzero;stroke:none"
               id="path168" />
            <path
               d="m 2993.04,3041.9 c -96.67,4.48 -193.35,8.96 -290.02,13.45 3.43,6.8 6.86,13.61 10.3,20.42 0.67,-0.02 1.36,-0.04 2.04,-0.06 -2.73,-5.4 -5.45,-10.8 -8.17,-16.2 95.99,-4.45 191.98,-8.9 287.98,-13.34 -0.72,-1.42 -1.42,-2.85 -2.13,-4.27"
               style="fill:#e3906c;fill-opacity:1;fill-rule:nonzero;stroke:none"
               id="path170" />
            <path
               d="m 3912.45,1538.8 c 0,0 0,0 0,0.01 0,0 0,0.01 0,0.01 0.19,0.82 0.38,1.63 0.57,2.45 2.46,0 4.93,0 7.39,0 v 0 l -7.94,-2.46 -0.02,-0.01 m 0.57,2.47 c -77.27,0 -154.54,0 -231.81,0 l -0.04,4.16 c 77.6,0 155.21,0 232.81,0 -0.32,-1.39 -0.64,-2.78 -0.96,-4.16"
               style="fill:#e3906c;fill-opacity:1;fill-rule:nonzero;stroke:none"
               id="path172" />
            <path
               d="m 3996.12,1700.71 c -5.99,0 -11.98,0 -17.96,0 1.45,1.4 2.89,2.78 4.34,4.17 4.54,0 9.08,0 13.62,0 v -4.17"
               style="fill:#e3906c;fill-opacity:1;fill-rule:nonzero;stroke:none"
               id="path174" />
            <path
               d="m 1443.52,3112.13 c -155.97,0 -311.94,0 -467.911,0 3.895,1.39 7.789,2.78 11.692,4.17 152.129,0 304.249,0 456.379,0 -0.05,-1.39 -0.11,-2.78 -0.16,-4.17"
               style="fill:#e3906c;fill-opacity:1;fill-rule:nonzero;stroke:none"
               id="path176" />
            <path
               d="m 1762.17,1512.87 c -132.92,0 -265.84,0 -398.76,0 -3.03,2.37 -6.06,4.74 -9.09,7.11 3.16,0 6.33,0 9.49,0 1.26,-0.98 2.51,-1.96 3.77,-2.94 131.17,0 262.35,0 393.53,0 0.35,-1.4 0.7,-2.78 1.06,-4.17"
               style="fill:#e3906c;fill-opacity:1;fill-rule:nonzero;stroke:none"
               id="path178" />
            <path
               d="m 2299.31,1910.58 c -160.56,2.51 -321.1,5.02 -481.88,7.59 33.84,0.87 67.69,1.74 101.53,2.62 126.74,-2.02 253.35,-3.99 379.97,-5.97 0.13,-1.42 0.26,-2.83 0.38,-4.24 m -495.88,7.23 v 0 l -1.82,0.61 c 5.27,-0.08 10.55,-0.17 15.82,-0.25 -4.67,-0.12 -9.33,-0.24 -14,-0.36"
               style="fill:#e3906c;fill-opacity:1;fill-rule:nonzero;stroke:none"
               id="path180" />
            <path
               d="m 2248.77,3241.46 c -137.88,0 -275.76,0 -413.64,0 -0.24,2.31 -0.46,4.61 -0.69,6.92 h 4.58 c 0.09,-0.92 0.18,-1.83 0.27,-2.75 136.38,0 272.75,0 409.12,0 0.13,-1.39 0.24,-2.77 0.36,-4.17"
               style="fill:#e3906c;fill-opacity:1;fill-rule:nonzero;stroke:none"
               id="path182" />
            <path
               d="m 2647.74,2783.89 c -3.97,8.77 -7.93,17.54 -11.89,26.3 2,0.04 3.98,0.1 5.98,0.14 3.36,-7.42 6.72,-14.84 10.07,-22.27 84.44,4.17 168.87,8.33 253.3,12.5 -0.47,-1.34 -0.94,-2.68 -1.41,-4.02 -85.35,-4.22 -170.7,-8.43 -256.05,-12.65"
               style="fill:#e3906c;fill-opacity:1;fill-rule:nonzero;stroke:none"
               id="path184" />
            <path
               d="m 2540.25,2150.39 c -0.59,6.66 -1.19,13.31 -1.79,19.97 1.52,-0.03 3.03,-0.05 4.54,-0.07 0.48,-5.24 0.95,-10.49 1.42,-15.73 114.68,2.96 229.36,5.92 344.03,8.87 l -0.01,-4.06 c -116.06,-2.99 -232.12,-5.98 -348.19,-8.98 m 422.14,10.88 0.01,2.42 c 19.31,-0.3 38.62,-0.61 57.94,-0.92 -19.32,-0.5 -38.63,-1 -57.95,-1.5 m 73.78,1.25 c -5.28,0.08 -10.56,0.17 -15.83,0.25 4.67,0.12 9.34,0.24 14,0.36 l 1.83,-0.61"
               style="fill:#e3906c;fill-opacity:1;fill-rule:nonzero;stroke:none"
               id="path186" />
            <path
               d="m 2224.11,1616.69 c -305.23,-0.01 -611.93,4.15 -918.22,9.1 l 0.16,52.2 c 216.61,7.96 430.49,25.7 645.19,39.26 11.29,0.71 22.56,1.42 33.86,2.11 -153.77,10.7 -323.95,22.4 -493.84,34.47 -40.28,2.86 -111.26,5.17 -114.66,10.72 -15.01,24.46 -39.43,39.5 -70.15,48.25 l 0.08,26.66 h 414.17 2.43 c 1.1,2.64 2.19,5.27 3.29,7.9 -70.67,2.02 -141.35,4.04 -212.02,6.06 2.09,6.37 4.17,12.74 6.25,19.11 0.46,1.42 0.92,2.83 1.39,4.24 495.09,-13.45 1425.5368,-32.231 1920.6368,-45.681 0.26,-5.13 -434.8368,-4.919 -434.5768,-10.039 -1.46,-0.04 -2.92,-0.08 -4.37,-0.12 -496.19,-12.86 -992.36,-25.73 -1488.54,-38.59 0.17,-1.35 0.35,-2.7 0.52,-4.04 0.16,-1.21 0.32,-2.42 0.48,-3.64 586.48,-15.52 2104.1118,-31.9185 2073.0818,-56.3235 l -20.6718,2.0002 -296.9,1.9833 h -1109 l -0.81,-4.17 c -0.57,-3.01 -1.15,-6.03 -1.73,-9.04 324.77,-15.17 706.094,-48.5597 1013.564,-62.9197 -2.33,-2.39 342.8616,-9.8862 340.6916,-12.4362 28.6261,1.1058 255.2628,-2.5703 248.3228,-12.2903 -284.79,-10.35 -1249.2284,-4.7738 -1538.6284,-4.7738 m 286.4,59.86 h 7.62 c -2.23,2.7 -4.46,5.39 -6.69,8.08 h -777.98 c 0.04,-1.38 0.09,-2.77 0.13,-4.17 0.04,-1.3 0.09,-2.6 0.12,-3.91 h 776.8 M 459.527,1638.82 c -27.066,0.31 -54.031,0.6 -81.058,0.88 -6.035,0.06 -12.125,0.12 -18.156,0.18 0.76387,30.7281 913.1734,-42.9592 946.5604,-36.9892 l -0.3961,-14.0649 M 171.309,1787.79 v 21.73 c 96.257,3.1 1044.575,26.8477 1135.9452,29.2814 l -0.5142,-25.6207 C 1210.514,1811.0007 267.535,1789.96 171.309,1787.79 m 288.804,45.46 H 171.309 v 17.02 c 96.296,1.69 1037.7631,18.7167 1135.8371,19.9624 l -0.5113,-18.546 m 43.8752,0.1736 h -5.02 -38.92 l 0.05,18.37 c 13.32,0.23 26.66,0.47 39.98,0.7 1.3,-6.36 2.61,-12.72 3.91,-19.07"
               style="fill:#d0805a;fill-opacity:1;fill-rule:nonzero;stroke:none"
               id="path188"
               sodipodi:nodetypes="ccccccccccccccccccccccccccccccccccccccccccccccccccccccccccc" />
            <path
               d="m 2936.77,2449.49 c -17.84,0 -30.64,0.42 -31.22,1.23 -46.87,66.32 -311.82,33.52 -367.62,64.74 -43.73,24.49 -101.71,29.23 -163.75,29.23 -19.63,0 -39.66,-0.48 -59.77,-0.95 -20.11,-0.48 -40.31,-0.95 -60.28,-0.95 -52.72,0 -103.79,3.31 -147.29,18.66 -3.95,1.4 -7.84,2.9 -11.66,4.5 73.36,-1.41 127.23,-3.89 176.21,-3.89 12.42,0 24.52,0.15 36.55,0.53 42.4,1.34 82.96,7.99 124.08,13.03 4.44,0.55 8.88,1.07 13.34,1.57 -39.96,10.7 -82.74,31.21 -119.61,31.21 -0.85,0 -1.69,-0.01 -2.54,-0.03 -247.28,-6.48 -492.48,-20.86 -739.88,-26 -7.86,-0.16 -15.75,-0.24 -23.64,-0.24 -42.67,0 -85.85,2.33 -129.36,6.42 l -0.14,27.01 c 516.45,6.23 1502.8237,16.8379 2019.2837,23.0579 l 5.7138,-25.7974 c -156.32,-3.99 -730.4175,-18.6505 -886.7375,-22.6405 1,-1.33 2,-2.66 3,-3.98 7.16,-9.52 14.32,-19.03 21.48,-28.55 85.17,4.2 186.96,17.55 264.51,17.55 22.93,0 43.73,-1.17 61.36,-4.08 46.57,-7.7 94.68,-10.44 143.52,-10.44 16.06,0 446.7677,11.2947 462.9577,11.8047 l 54.8045,-29.5915 c -42.81,-1.75 -490.9122,-20.4532 -533.7822,-22.2032 l 1.62,-3.93 c 1.56,-3.81 3.13,-7.61 4.69,-11.41 l 594.0593,-0.1032 27.5649,-15.142 c -77.73,-5.28 -565.5742,-30.4748 -643.7342,-37.3748 -24.91,-2.19 -65.58,-3.24 -93.73,-3.24 m 737.49,40.44 -27.81,15.42 h 349.67 v -8.6 c -107.3,-2.23 -214.63,-4.4 -321.86,-6.82 m -18.71,50.73 c -0.42,0 -2.03,0.91 -4.97,3.47 3.77,-1.6 5.58,-3.47 4.97,-3.47 m -75.92,1.73 -54.57,30.26 c 42.8,-4.7 83.96,-13.24 122.78,-27.48 -4.76,-0.19 -9.56,-0.38 -14.33,-0.58 -17.92,-0.73 -35.87,-1.46 -53.88,-2.2 m 70.95,1.74 c -0.35,0.15 -0.71,0.29 -1.09,0.43 -0.55,0.21 -1.1,0.41 -1.65,0.61 0.51,0.02 1,0.04 1.51,0.06 0.43,-0.39 0.84,-0.76 1.23,-1.1 m -197.81,68.61 -14.02,7.77 10.74,19.37 c 126.87,1.53 253.72,3.06 380.59,4.58 l 8.79,-21.87 c -1.94,-0.05 -3.85,-0.1 -5.78,-0.15 -126.76,-3.24 -253.57,-6.47 -380.32,-9.7"
               style="fill:#d0805a;fill-opacity:1;fill-rule:nonzero;stroke:none"
               id="path190"
               sodipodi:nodetypes="cccscsccscccsccscccccccscscccccccccccccccccccccccccccccccccc" />
            <path
               d="m 1716.16,2311.36 c -0.93,0.03 -1.83,0.06 -2.77,0.08 -93.88,2.72 -187.77,5.45 -281.66,8.17 l -0.1,19.39 291.24,-7.32 c -2.24,-6.77 -4.48,-13.54 -6.71,-20.32 M 1004.23,2332 c -57.515,1.67 -115.054,3.34 -172.562,5.01 v 0.2 l 0.035,34.76 0.027,25.61 600.4188,-0.8885 -0.6973,-76.6286 M 786.398,2338.32 c -18.105,0.53 -36.285,1.05 -54.394,1.57 l 0.297,26.28 h 22.601 4.137 c 0.024,2.91 0.043,5.83 0.066,8.75 -8.902,0.7 -17.804,1.4 -26.683,2.1 l 0.226,20.56 h 55.168 l 44.39894,-0.8817 v -24.7884 l 0.38525,-34.9227 M 686.922,2341.2 c -167.637,4.87 -335.246,9.73 -502.887,14.59 l -0.738,6.21 c -0.164,1.39 -0.328,2.77 -0.492,4.17 l 550.15194,-1.3328 1.5,-24.97 m 697.15306,3.9028 -0.29,53.81 h 534.78 c -26.51,-1.13 -52.91,-2.53 -79.2,-4.16 -154.75,-9.65 -305.81,-27.72 -455.29,-49.65 m 2000.84,27.17 c -78.27,0 -156.41,0.52 -234.26,2.25 -160.94,3.57 -320.3,13.64 -480.52,20.23 -40.56,1.66 -81.15,3.1 -121.86,4.16 h 810.5 l 48.04,-26.63 c -7.3,-0.01 -14.6,-0.01 -21.9,-0.01 m 281.09,1.11 14.16,25.53 h 70.92 c 0.77,-8.45 1.55,-16.9 2.33,-25.35 h -4.56 c -27.6,0 -55.22,-0.08 -82.85,-0.18 m -3026.177,8.52 c -59.402,4.69 -116.011,9.16 -162.824,12.85 -19.484,1.53 -37.269,2.94 -52.848,4.16 l 261.62194,-0.8885 0.25225,-19.2313 M 2595.81,2397.58 h -218.4 -271.11 -140.2 c 3.41,0.15 6.83,0.29 10.25,0.43 86.28,3.45 173.94,4.76 261.98,4.76 112.84,0 226.3,-2.15 338.28,-4.72 6.39,-0.14 12.8,-0.3 19.2,-0.47"
               style="fill:#d0805a;fill-opacity:1;fill-rule:nonzero;stroke:none"
               id="path192"
               sodipodi:nodetypes="cccccccccccccccccccccccccccccccccccccccccccccccscccccccccccscc" />
            <path
               d="m 340.109,2702.07 c -3.007,5.75 -6.019,11.5 -9.031,17.25 -0.664,1.28 -1.328,2.54 -1.992,3.81 404.172,23.76 808.364,47.52 1257.964,73.95 23.5,1.38 47.11,2.77 70.87,4.17 -188.69,0 -329.15,0 -469.61,0 -0.81,3.39 -1.61,6.78 -2.43,10.17 -0.31,1.31 -0.63,2.63 -0.94,3.95 70.26,2.97 140.51,5.94 210.77,8.92 1.4,0.06 2.79,0.11 4.19,0.17 -0.02,3.95 -0.04,7.9 -0.06,11.85 -229.77,0 -459.535,0 -689.301,0 0.191,1.62 0.387,3.23 0.582,4.84 0.164,1.37 0.328,2.74 0.492,4.11 639.177,10.17 1278.347,20.33 1917.527,30.5 2.84,-3.34 5.67,-6.69 8.5,-10.03 -2.48,-0.09 -4.97,-0.18 -7.46,-0.28 -282.11,-10.77 -564.2,-21.55 -846.31,-32.32 -0.49,-1.35 -0.97,-2.7 -1.45,-4.06 -1.51,-4.26 -3.03,-8.52 -4.54,-12.78 257.35,-6.02 514.71,-12.03 772.06,-18.04 2.58,-8.55 5.15,-17.09 7.73,-25.64 -1.84,0.02 -3.61,0.04 -5.44,0.06 -51.1,0.55 -102.23,0.81 -153.09,0.81 -696.1,0 -1372.31,-48.46 -2059.031,-71.41"
               style="fill:#d2825c;fill-opacity:1;fill-rule:nonzero;stroke:none"
               id="path194" />
            <path
               d="m 3378.77,1289.71 c -1.13,0.02 -2.25,0.04 -3.38,0.05 -686.22,8.45 -1372.46,16.89 -2058.68,25.35 -0.65,4.76 -347.80642,-1.5863 -348.45642,3.1737 -38.39566,-30.5861 -736.67373,8.6446 -736.85373,10.0346 L 1503.94,1333.56 h 142.3 c 37.01,0 74.27,-0.42 111.53,-0.83 37.22,-0.42 74.44,-0.84 111.42,-0.84 50.39,0 100.32,0.78 149.19,3.39 69.92,3.73 132.03,20.76 196.51,33.75 l 0.75,0.15 c 5.56,1.12 11.13,2.2 16.73,3.25 0.45,-0.04 0.9,-0.07 1.34,-0.1 0.56,0.12 2.18,0.66 2.68,0.82 l -2.01,-0.67 c 368.49,-5.01 736.98,-10.02 1105.47,-15.02 -0.19,-7.62 -0.37,-15.24 -0.56,-22.87 h -4.06 -316.37 c -0.07,-1.39 -0.15,-2.78 -0.22,-4.16 -0.16,-3.26 -0.34,-6.52 -0.51,-9.77 121.75,-2.12 243.5,-4.25 365.24,-6.37 -1.54,-8.19 -3.07,-16.38 -4.6,-24.58"
               style="fill:#d0805a;fill-opacity:1;fill-rule:nonzero;stroke:none"
               id="path196"
               sodipodi:nodetypes="ccccccscsccccccccccccccc" />
            <path
               d="m 171.309,2652.06 v 29.26 c 183.027,2.98 366.367,8.53 549.074,8.53 26.34,0 52.633,-0.12 78.941,-0.37 155.617,-1.5 310.826,-6.98 467.696,-6.98 52.41,0 105,0.61 157.86,2.18 26.55,0.79 53.14,1.82 79.83,3.15 -157.34,2.12 -314.67,4.24 -472.01,6.36 0.37,2.96 0.73,5.92 1.09,8.87 0.17,1.39 0.34,2.78 0.51,4.17 176.33,0 352.75,-0.59 529.08,-0.59 124.44,0 248.81,0.29 373.17,1.3 156.14,1.27 311.36,11.21 467.64,14.17 0.92,0.02 1.84,0.02 2.76,0.02 34.25,0 70.94,-11.72 106.47,-17.83 -3.02,-1.02 -6.01,-2.13 -9.01,-3.3 -25.7,-10.07 -50.91,-24.59 -77.71,-24.86 -687.72,-6.98 -1375.68,-11.88 -2063.54,-17.65 -64.097,-0.54 -127.918,-4.13 -191.851,-6.43"
               style="fill:#d0805a;fill-opacity:1;fill-rule:nonzero;stroke:none"
               id="path198" />
            <path
               d="m 3953.71,2101.45 c -227.32,-0.01 -462.05,28.02 -712.97,45.44 -10.38,0.72 -20.85,1.43 -31.29,2.11 117.26,6.8 179.73,10.43 240.53,13.96 1.91,0.11 3.81,0.22 5.71,0.34 -2.21,5.51 -4.42,11.03 -6.64,16.55 -136.69,-4.18 -273.4,-8.36 -410.1,-12.54 -25.05,10.69 -47.16,20.46 -45.91,27.58 1.28,7.24 26.69,11.75 97.67,11.75 1.72,0 3.45,0 5.22,-0.01 299.73,-0.89 599.5,-0.77 900.19,-4.06 v -23.85 c -23.83,-3.31 -46.91,-8.11 -70.64,-11.59 4.18,-0.46 8.39,-0.97 12.59,-1.51 19.36,-2.51 38.89,-5.76 58.05,-7.49 v -56.35 c -14.11,-0.23 -28.24,-0.33 -42.41,-0.33 m -913.13,65.17 -2.07,0.68 c 0.15,0 0.29,0 0.44,0.01 0.54,-0.23 1.09,-0.46 1.63,-0.69"
               style="fill:#d0805a;fill-opacity:1;fill-rule:nonzero;stroke:none"
               id="path200" />
            <path
               d="m 171.309,2000.71 v 44.15 c 40.461,0.06 80.937,0.09 121.402,0.09 67.324,0 134.641,-0.07 201.965,-0.14 62.965,-0.06 125.953,-0.12 188.914,-0.13 l 10.44704,-0.5714 c -0.012,-1.31 8.63623,0.5266 8.17798,-0.9138 l 9.9079,0.6391 c 0.863,-0.88 21.87707,2.1156 24.14648,-0.508 8.14421,2.4138 0.76764,-25.0336 0.0862,-22.0493 L 705.613,2018.89 h 0.051 0.035 c 0.406,0 0.801,0.04 1.184,0.12 l 0.902,0.27 0.067,0.02 c 0.453,0.16 0.89,0.37 1.293,0.63 l 0.503,0.41 0.028,0.02 v 0 c 1.383,1.14 2.289,2.84 2.316,4.77 l -5.65827,10.1057 15.94327,0.3243 h 0.075 c 3.437,0 6.265,2.79 6.308,6.23 v 0 l 0.028,2.9 c 19.14,0 38.257,0.01 57.394,0.04 l -0.019,-20.27 c -0.004,-0.87 0.175,-1.7 0.492,-2.45 0.64,-1.51 1.847,-2.72 3.359,-3.37 l 0.102,-0.03 h 0.011 l 1.071,-0.34 h 0.047 c 0.394,-0.08 0.8,-0.13 1.218,-0.13 l -15.01402,0.2221 8.13905,25.7566 3.82714,-0.6663 2.33232,-0.1111 c 0.74523,-0.035 1.11982,0.2711 1.78382,0.5211 l 1.50681,0.01 c 0.66,0.26 2.36763,-0.8239 2.89963,-0.3739 l 4.2474,0.1211 2.33232,-0.5453 c 0.441,0.37 1.85156,-0.6538 2.17556,-0.1738 0.683,1.01 2.3077,-0.6677 2.3117,0.6323 l 6.67177,-0.07 2.90579,0.2221 4.00226,0.8885 c 4.33586,0.9626 2.30274,-3.5005 2.31074,-0.031 l 6.55671,0.247 c 54.39,0.09 108.785,0.26 163.168,0.53 86.31,0.44 172.19,8.76 258.25,13.72 1.9,0.1 3.79,0.21 5.68,0.32 l -5.1,12.93 H 831.379 v 0.95 l 0.019,18.96 c 346.652,-4.81 693.302,-9.62 1039.952,-14.43 0.88,-3.13 1.76,-6.25 2.64,-9.37 -1.76,-0.09 -3.51,-0.18 -5.26,-0.27 -149.96,-7.56 -312.97,-6.59 -446.16,-25.12 -194.11,-27 -392.65,-30.64 -592.023,-30.64 -36.77,0 -73.535,0.12 -110.34,0.25 -36.777,0.12 -73.574,0.24 -110.344,0.24 -51.918,0 -103.793,-0.24 -155.586,-1.09 -94.691,-1.53 -188.714,-7.48 -282.968,-11.06 m 614.804,71.58 H 729 l -6.89494,0.2364 0.0649,21.2507 c 18.942,-0.26 90.84608,-1.7597 109.78808,-2.0197 l -0.25728,-19.3103 m -147.8028,-0.1571 -374.81595,4.4425 c 0.652,6.7 31.95437,8.2911 32.60637,14.9811 0.137,1.41 172.42058,3.4864 172.55758,4.8964 56.629,-0.79 151.47966,-2.0243 208.10466,-2.8043 l 1.08575,-21.5157"
               style="fill:#d0805a;fill-opacity:1;fill-rule:nonzero;stroke:none"
               id="path202"
               sodipodi:nodetypes="ccscccccccccsccccccscccssccccccccccscccscccccccccscccccccccccccscscccccccccccccc" />
            <path
               d="m 3199.93,2216.17 c -9.07,8.58 -18.14,17.15 -27.21,25.72 l -3.27,3.09 c 75.1,10.85 150.21,21.7 225.31,32.54 0.86,0.12 1.72,0.25 2.58,0.37 2.65,6.32 5.29,12.63 7.94,18.95 -162.02,5.26 -324.05,10.52 -486.06,15.77 l -0.06,0.07 c -3.5,4.2 -8.52,6.36 -13.59,6.36 -3.99,0 -8.01,-1.35 -11.32,-4.11 l -1.73,-1.45 c -149.56,4.86 -299.09,9.71 -448.64,14.56 -0.28,0.91 -0.55,1.82 -0.82,2.73 -0.42,1.39 -0.83,2.78 -1.25,4.17 157.28,0 314.57,0.03 471.86,0.03 202.04,0 583.7699,1.9491 780.0446,-1.4106 l -30.4348,-39.3755 c -6.77,0.38 -90.8198,4.5161 -97.5798,4.8361 -0.02,-1.45 -0.05,-2.91 -0.08,-4.36 -0.17,-9.2 -0.35,-18.4 -0.51,-27.6 143.66,4.25 287.34,8.5 431.01,12.75 v -26.63 c -265.39,-12.33 -530.8,-24.67 -796.19,-37.01 m 557.87,73.96 c -31.53,0 -63.37,1.43 -95.3,3.26 0.02,0.04 0.05,0.09 0.07,0.13 l 1.45,2.6 c 6.11,2.79 -15.8915,23.6452 -18.1068,26.5333 -0.8685,2.4834 24.696,-11.7027 12.9333,-9.6735 -19.6992,0.11 16.5574,8.4286 16.6174,8.5386 l 16.2061,11.0916 1,1.79 c 32.15,-0.05 64.27,-0.12 96.43,-0.19 24.53,-0.06 48.82,-10.67 73.22,-16.37 -2.84,-0.97 -5.66,-2.02 -8.46,-3.11 -25.19,-9.86 -49.47,-23.87 -76.72,-24.41 -6.43,-0.13 -12.88,-0.19 -19.34,-0.19"
               style="fill:#d0805a;fill-opacity:1;fill-rule:nonzero;stroke:none"
               id="path204"
               sodipodi:nodetypes="csccccccscccccscccccccccccccccccccccc" />
            <path
               d="m 1306.67,1886.41 0.13,45.22 c 163.88,-3.15 327.8,-6.32 491.68,-9.48 -14.98,-1.08 -29.92,-2.21 -44.88,-3.38 -148.8,-11.63 -296.89,-26.86 -446.93,-32.36 m -846.397,0.99 c -57.64,1.27 -115.41,2.73 -173.332,4.37 -19.07,0.55 -38.125,1.11 -57.226,1.68 74.906,3.04 149.812,6.08 224.719,9.11 0.433,0.02 383.36781,-5.7353 380.02467,-7.1591 0.42537,1.8668 29.94824,-2.1527 24.7084,-3.4967 L 460.273,1887.4 m 0.079,24.62 c -96.348,5.27 -192.7,10.53 -289.043,15.8 v 25.72 c 96.347,-1.86 1039.3218,-20.1573 1135.6658,-22.0173 l 0.3433,-45.0472 M 1807.6,1921.98 c -3.04,0.06 -6.09,0.11 -9.12,0.17 2.34,0.17 4.7,0.34 7.04,0.5 l 2.08,-0.67"
               style="fill:#d0805a;fill-opacity:1;fill-rule:nonzero;stroke:none"
               id="path206"
               sodipodi:nodetypes="ccccccccccccccccccccc" />
            <path
               d="m 1328.29,3207.9 c -259.09,0 -531.794,13.18 -852.427,40.48 h 551.627 c -21.85,-0.57 -43.705,-1.14 -65.552,-1.71 0.726,-1.34 1.445,-2.67 2.171,-4.01 1.149,-2.11 2.293,-4.22 3.442,-6.34 249.549,-4.52 499.099,-9.03 813.639,-14.73 -19.01,-1.14 -37.97,-2.21 -56.92,-3.21 -131.44,-6.94 -261.92,-10.48 -395.98,-10.48"
               style="fill:#d0805a;fill-opacity:1;fill-rule:nonzero;stroke:none"
               id="path208" />
            <path
               d="M 3996.12,1766.64 H 3678.7 l -0.54,47.89 c 105.98,3.24 211.98,6.47 317.96,9.71 v -57.6 m -715.57,0 H 2513.2 c -0.32,2.75 -0.65,5.51 -0.97,8.26 -0.16,1.35 -0.31,2.69 -0.47,4.03 256.12,7.82 911.2181,26.302 1167.3281,34.112 l 7.5081,-47.2905"
               style="fill:#d0805a;fill-opacity:1;fill-rule:nonzero;stroke:none"
               id="path210"
               sodipodi:nodetypes="ccccccccccc" />
            <path
               d="M 3896.68,1180.93 H 2838.19 c -69.69,15.02 -202.58,-0.08 -264.64,24.59 -3.79,1.52 -7.32,3.17 -10.56,4.99 145.06,-8.27 287.35,-11.87 427.53,-11.87 335.73,0 659.6,20.62 982.09,47.02 2.09,-7.4 4.18,-14.8 6.27,-22.21 -1.77,-0.05 -3.54,-0.09 -5.31,-0.14 -72.95,-1.9 -145.91,-3.81 -218.86,-5.7 -0.07,-1.36 -0.14,-2.72 -0.21,-4.07 -0.1,-1.7 -0.19,-3.4 -0.27,-5.09 75.95,-2.4 151.91,-4.79 231.14,-7.28 -5.87,-1.23 -11.68,-2.48 -17.44,-3.75 -24.26,-5.35 -47.73,-11.02 -71.25,-16.49"
               style="fill:#d0805a;fill-opacity:1;fill-rule:nonzero;stroke:none"
               id="path212" />
            <path
               d="m 171.309,1536.89 v 65.44 c 96.05,0.17 1038.8158,-32.1034 1134.8708,-32.0034 l -0.2082,-6.1443 c -4.0953,-2.8726 -930.4946,-7.7923 -972.0336,-10.8323 -51.321,-3.78 -106.208,-12.24 -162.629,-16.46 m 1134.471,52.06 0.04,14.15 c 209.24,0 418.32,-0.04 627.57,-0.04 0.24,-3.64 0.49,-7.29 0.74,-10.93 h -4.45 c -106.14,0.04 -212.62,1.31 -318.74,1.31 -64.96,0 -129.78,-0.48 -194.33,-2 -36.91,-0.87 -73.84,-1.69 -110.83,-2.49"
               style="fill:#d0805a;fill-opacity:1;fill-rule:nonzero;stroke:none"
               id="path214"
               sodipodi:nodetypes="cccccccccccscc" />
            <path
               d="m 3461.58,1394.95 c -129.65,0 -259.35,4.95 -389.16,16.74 l 33.37,29.91 c 4.2837,-6.3133 125.0917,-0.3889 129.4908,-6.3826 -0.672,4.6357 27.2332,-0.6328 33.1407,0.7225 6.0971,1.3988 8.2437,-3.118 36.2285,8.7901 230.55,3.07 461.03,6.15 691.47,9.22 v -35.8 c -178.07,-13.83 -356.22,-23.2 -534.54,-23.2 m -448.87,22.65 c -45.38,4.87 -90.79,10.61 -136.2,17.3 -8.34,1.23 -16.65,2.48 -24.99,3.78 61.59,0.82 191.357,1.64 252.937,2.46 l -5.2706,-17.2024 c -2.34,-2.1 -21.7514,-8.9879 -23.0214,-11.6779"
               style="fill:#d0805a;fill-opacity:1;fill-rule:nonzero;stroke:none"
               id="path216"
               sodipodi:nodetypes="ccccscccccccccc" />
            <path
               d="m 3738.56,3080.45 c -0.12,0 -0.24,0 -0.35,0 -300.09,3.35 -599.92,9.03 -902.08,24.28 -26.09,1.31 -52.17,2.7 -78.29,4.16 152.89,0 305.79,0 458.67,0 1.83,0 3.65,0 5.49,0 -0.86,2.69 -1.71,5.38 -2.55,8.07 -180.34,9.68 -360.65,19.36 -540.97,29.03 -43.41,2.33 -86.86,4.66 -130.27,6.99 409.75,-8.6 819.52,-17.18 1229.11,-26.43 10.25,-0.23 29.87,-10.77 25.34,-13.89 -1.15,-0.8 -2.35,-1.64 -3.58,-2.5 -16.98,-11.93 -41.15,-29.71 -60.52,-29.71 m -1190.35,72.53 c -28.5,0.6 -56.98,1.2 -85.48,1.8 -1.83,0.04 -3.68,0.08 -5.5,0.11 l 0.56,0.17 c -0.04,-0.02 -0.08,-0.04 -0.11,-0.05 -0.04,-0.01 -0.05,-0.01 -0.04,-0.01 0,0 0,0 0.01,0 0.01,0 0.02,0.01 0.03,0.01 0.53,0.17 6.51,1.92 7.86,2.31 l 0.26,0.08 v 0 0 c 0.9,-0.04 1.83,-0.1 2.73,-0.14 26.57,-1.43 53.11,-2.85 79.68,-4.28"
               style="fill:#d0805a;fill-opacity:1;fill-rule:nonzero;stroke:none"
               id="path218" />
            <path
               d="m 2202.17,2980.84 c -1.4,0 -2.74,0 -4.15,0 -635.22,0 -1270.504,0 -1905.731,0 0.039,7.2 0.082,14.39 0.121,21.59 0.008,1.39 0.016,2.78 0.024,4.17 636.625,0 1273.246,0 1909.866,0 -0.04,-8.59 -0.09,-17.17 -0.13,-25.76"
               style="fill:#d0805a;fill-opacity:1;fill-rule:nonzero;stroke:none"
               id="path220" />
            <path
               d="m 3485.56,1248.36 c -1.37,0 -2.76,0 -4.13,0 -722,0 -1443.97,0 -2165.95,0 -0.13,3.6 -0.25,7.21 -0.37,10.82 -0.05,1.39 -0.1,2.78 -0.15,4.17 723.58,0 1447.15,0 2170.72,0 -0.04,-5 -0.08,-9.99 -0.12,-14.99"
               style="fill:#d0805a;fill-opacity:1;fill-rule:nonzero;stroke:none"
               id="path222" />
            <path
               d="m 1004.59,2263.24 c -57.668,0.88 -115.34,1.76 -173.004,2.65 l 0.039,35.13 c 57.566,-2.75 115.184,-5.41 172.805,-8.06 l 790.5198,-24.6939 M 786.324,2266.61 c -18.383,0.29 -36.754,0.58 -55.133,0.88 l 0.43,38.42 c 18.242,-0.92 82.35549,-4.9613 100.60549,-5.8513 l -0.039,-34.077 M 686.102,2268.22 c -105.739,1.73 -211.457,3.58 -317.125,5.64 -66.235,1.28 -132.399,5.01 -197.668,9.52 v 49.08 c 172.48,-5.99 389.26035,-18.2972 560.79135,-27.0872 l -0.76313,-38.0952"
               style="fill:#d0805a;fill-opacity:1;fill-rule:nonzero;stroke:none"
               id="path224"
               sodipodi:nodetypes="cccccccccccccccc" />
            <path
               d="m 3996.12,3186.98 c -315.88,8.79 -630.9,17.56 -943.4,26.25 -8.24,0.23 -16.48,0.46 -24.72,0.69 164.6,20.57 328.39,28.1 491.67,28.1 159.12,0 317.77,-7.14 476.45,-16.32 v -38.72"
               style="fill:#d0805a;fill-opacity:1;fill-rule:nonzero;stroke:none"
               id="path226" />
            <path
               d="m 3996.12,2838.09 c -105.01,2.96 -209.98,5.91 -314.99,8.87 -0.27,8.17 -1.14,16.31 -2.59,24.31 105.84,-3.45 211.73,-6.89 317.58,-10.34 v -22.84 m -659.29,18.56 c -86.19,2.43 -172.37,4.85 -258.56,7.28 2.48,7.45 4.96,14.89 7.44,22.34 0.48,1.42 0.95,2.84 1.42,4.25 85.63,-2.78 171.23,-5.57 256.85,-8.36 -3.1,-8.39 -5.48,-16.92 -7.15,-25.51"
               style="fill:#d0805a;fill-opacity:1;fill-rule:nonzero;stroke:none"
               id="path228" />
            <path
               d="m 2457.64,3155 c -0.01,0 0,0 0.04,0.01 -0.01,0 -0.02,-0.01 -0.03,-0.01 -0.01,0 -0.01,0 -0.01,0 m 0.04,0.01 c 0.03,0.01 0.07,0.03 0.11,0.05 1.83,0.78 3.66,1.56 5.5,2.34 0.84,0 1.66,0 2.51,0 v 0 0 c 0,0 -0.1,-0.02 -0.26,-0.08 -1.35,-0.39 -7.33,-2.14 -7.86,-2.31 m 5.61,2.39 c -293.78,0 -587.56,0 -881.33,0 -2.79,3.97 -5.59,7.94 -8.39,11.91 -0.91,1.3 -1.82,2.59 -2.74,3.89 325.33,13.08 650.66,26.16 1025.62,41.24 -3.52,-1.51 -6.95,-2.98 -10.3,-4.42 -56.05,-24.03 -89.9,-38.54 -122.86,-52.62"
               style="fill:#cf7e58;fill-opacity:1;fill-rule:nonzero;stroke:none"
               id="path230" />
            <path
               d="m 3996.12,2658.55 c -57.98,1.95 -116.01,4.95 -174.06,9.44 -16.36,1.27 -32.73,2.65 -49.11,4.17 74.4,0 148.78,0 223.17,0 v -13.61 m 0,34.56 c -94.25,0 -188.49,0 -282.74,0 -1.25,4.6 -2.49,9.21 -3.74,13.81 -0.37,1.36 -0.73,2.72 -1.1,4.08 95.85,1.67 191.73,3.7 287.58,5.42 v -23.31"
               style="fill:#d0805a;fill-opacity:1;fill-rule:nonzero;stroke:none"
               id="path232" />
            <path
               d="m 3996.12,2017.98 c -147.47,0 -294.92,0 -442.39,0 0.34,1.7 0.59,3.43 0.76,5.18 l 0.76,7.75 c 146.96,2.01 293.91,4.01 440.87,6.02 v -18.95 m -917.46,0 c -0.14,0 -0.3,0 -0.44,0 -0.82,0 -1.59,0 -2.41,0 0.92,0.58 1.83,1.16 2.74,1.73 l 0.11,-1.73 m 470.81,4.47 c 0.02,0.13 0.03,0.25 0.05,0.37 -0.02,-0.12 -0.03,-0.24 -0.05,-0.37 m 0.07,0.53 c 0,0.03 0,0.06 0,0.08 0,-0.02 0,-0.05 0,-0.08"
               style="fill:#d0805a;fill-opacity:1;fill-rule:nonzero;stroke:none"
               id="path234" />
            <path
               d="m 1982.75,1224.19 c -2.36,0 -4.7,0 -7.05,0 -527.5,0 -1055.016,0 -1582.505,0 -0.023,1.31 -0.047,2.61 -0.066,3.92 -0.027,1.39 -0.051,2.77 -0.074,4.16 528.031,0 1056.065,0 1584.095,0 1.87,-2.69 3.73,-5.38 5.6,-8.08"
               style="fill:#d0805a;fill-opacity:1;fill-rule:nonzero;stroke:none"
               id="path236" />
            <path
               d="m 171.309,1379.09 v 71.06 c 11.214,0.51 22.769,0.77 34.687,0.77 47.613,0 100.949,-4.17 161.262,-13.37 -7.235,-0.6 -14.164,-1.17 -20.809,-1.73 -55.074,-4.57 -91.023,-7.57 -126.976,-10.55 5.402,-0.8 10.781,-1.63 16.156,-2.48 55.699,-8.87 109.914,-20.61 168.789,-23.4 17.992,-0.85 36.125,-1.43 54.387,-1.87 l -0.047,-14.87 c -95.801,-1.36 -191.621,-2.62 -287.449,-3.56"
               style="fill:#d0805a;fill-opacity:1;fill-rule:nonzero;stroke:none"
               id="path238" />
            <path
               d="m 3996.12,2970.32 c -125.44,0 -250.85,0 -376.28,0 -3.56,2.86 -7.26,5.61 -11.1,8.2 -0.58,2.27 -1.16,4.53 -1.74,6.79 -0.36,1.37 -0.7,2.73 -1.05,4.09 130.05,1.92 260.11,3.85 390.17,5.78 v -24.86"
               style="fill:#d0805a;fill-opacity:1;fill-rule:nonzero;stroke:none"
               id="path240" />
            <path
               d="m 3002.65,1458.38 c -2.78,0 -5.56,0 -8.34,0 -361.88,0 -723.75,0 -1085.62,0 -0.06,1.18 -0.11,2.35 -0.17,3.53 -0.06,1.39 -0.13,2.77 -0.19,4.16 362.21,0 724.41,0 1086.61,0 2.57,-2.56 5.14,-5.12 7.71,-7.69"
               style="fill:#d0805a;fill-opacity:1;fill-rule:nonzero;stroke:none"
               id="path242" />
            <path
               d="M 171.309,1671.98 V 1688 h 256.75 3.339 c 0.934,4.71 1.868,9.43 2.805,14.14 -87.633,1.47 -175.262,2.93 -262.894,4.4 v 19.66 c 96.101,-6.47 1041.6315,-42.6948 1137.8345,-49.1448 l -0.9546,-50.0864 c -10.789,-0.51 -870.1229,57.6112 -880.9119,57.1012 -1.672,-0.07 -3.355,-0.15 -5.031,-0.23 -83.648,-3.96 -167.289,-7.91 -250.937,-11.86"
               style="fill:#d0805a;fill-opacity:1;fill-rule:nonzero;stroke:none"
               id="path244"
               sodipodi:nodetypes="cccccccccccc" />
            <path
               d="m 3737.87,2449.2 c -2.92,5.07 -7.19,9.44 -12.66,12.48 l -13.54,7.5 c 94.83,2.54 189.62,5.08 284.45,7.61 v -22.24 c -86.08,-1.79 -172.17,-3.57 -258.25,-5.35"
               style="fill:#d0805a;fill-opacity:1;fill-rule:nonzero;stroke:none"
               id="path246" />
            <path
               d="m 2509.88,1888.36 c -24.55,0 -50.52,9.08 -76,15.09 -2.63,0.62 -5.25,1.2 -7.86,1.74 40.41,7.56 81.89,21.98 121.11,21.98 0.75,0 1.5,-0.01 2.25,-0.02 311.89,-4.46 623.33,-11.87 934.91,-18.37 -2.59,-1.22 -5.17,-2.43 -7.75,-3.65 -3.75,-0.07 -7.5,-0.14 -11.25,-0.21 -317.97,-5.8 -635.86,-12.04 -954.02,-16.56 -0.47,0 -0.93,0 -1.39,0"
               style="fill:#d0805a;fill-opacity:1;fill-rule:nonzero;stroke:none"
               id="path248" />
            <path
               d="m 1625.9,2163.06 c -46.4,0 -108.09,1.15 -193.4,3.44 0.01,0.44 -427.3502,15.5403 -427.3602,15.9703 L 1432.44,2182.35 h 375.52 c -5.52,-1.48 -10.72,-2.87 -15.77,-4.17 -39.01,-10.08 -69.03,-15.12 -166.29,-15.12 m -620.88,16.8 c -24.411,0.8 -49.696,1.63 -75.821,2.49 H 1005 l 0.02,-2.49"
               style="fill:#d0805a;fill-opacity:1;fill-rule:nonzero;stroke:none"
               id="path250"
               sodipodi:nodetypes="ccccccccccc" />
            <path
               d="m 2117.7,2934.95 c -1.57,5.25 -3.15,10.5 -4.73,15.75 -0.42,1.39 -0.83,2.78 -1.25,4.17 299.49,0 598.99,0 898.49,0 -2.86,-1.39 -5.73,-2.78 -8.6,-4.17 -0.1,-0.05 -0.21,-0.1 -0.31,-0.15 -294.53,-5.2 -589.06,-10.4 -883.6,-15.6"
               style="fill:#d0805a;fill-opacity:1;fill-rule:nonzero;stroke:none"
               id="path252" />
            <path
               d="m 3996.12,3037.46 c -205.41,0 -410.77,0 -616.17,0 0.32,4.16 0.66,8.31 0.98,12.46 0.11,1.39 0.22,2.78 0.33,4.17 204.96,0 409.9,0 614.86,0 v -16.63"
               style="fill:#d0805a;fill-opacity:1;fill-rule:nonzero;stroke:none"
               id="path254" />
            <path
               d="m 3996.12,1935.3 c -234.64,0 -469.28,0 -703.92,0 -0.03,1.09 -0.06,2.18 -0.08,3.27 -0.04,1.39 -0.07,2.78 -0.11,4.17 234.71,0 469.4,0 704.11,0 v -7.44"
               style="fill:#d0805a;fill-opacity:1;fill-rule:nonzero;stroke:none"
               id="path256" />
            <path
               d="m 3996.12,1892.44 c -75.8,1.66 -151.61,3.32 -227.41,4.98 1.36,2.63 2.73,5.26 4.1,7.9 0.73,1.38 1.44,2.77 2.17,4.16 73.71,0 147.42,0 221.14,0 v -17.04"
               style="fill:#d0805a;fill-opacity:1;fill-rule:nonzero;stroke:none"
               id="path258" />
            <path
               d="M 2877.63,2003.51 H 2326.8 c 1.13,7.39 2.25,14.78 3.38,22.17 0.21,1.41 0.43,2.82 0.64,4.22 182.3,-2.64 904.8102,1.838 1087.1002,-0.802 L 2877.63,2003.51"
               style="fill:#d0805a;fill-opacity:1;fill-rule:nonzero;stroke:none"
               id="path260"
               sodipodi:nodetypes="cccccc" />
            <path
               d="m 602.199,3034.43 c -1.066,0 -2.129,0 -3.191,0 -142.563,0 -285.141,0 -427.699,0 v 24.65 c 144.722,-3.53 289.457,-7.05 434.183,-10.57 -1.101,-4.7 -2.195,-9.39 -3.293,-14.08"
               style="fill:#d0805a;fill-opacity:1;fill-rule:nonzero;stroke:none"
               id="path262" />
            <path
               d="m 495.57391,1476.2223 282.10186,3.97 c 31.81,-0.76 591.32423,-11.4423 623.02423,-11.8023 -31.76,-0.74 -620.17451,-10.2757 -651.93451,-11.0157"
               style="fill:#d0805a;fill-opacity:1;fill-rule:nonzero;stroke:none"
               id="path264"
               sodipodi:nodetypes="cccc" />
            <path
               d="m 733.625,2779.13 c -187.437,0 -374.883,0 -562.316,0 v 16.52 c 195.304,-4.03 390.632,-8.07 585.937,-12.1 -6.832,-1.28 -13.672,-2.55 -20.504,-3.84 -1.043,-0.19 -2.078,-0.38 -3.117,-0.58"
               style="fill:#d0805a;fill-opacity:1;fill-rule:nonzero;stroke:none"
               id="path266" />
            <path
               d="m 971.297,2457 h -11.84 -140.828 l -1.137,4.13 -1.144,-4.13 h -83.032 l 0.133,11.76 c 75.516,-1.88 620.9907,-12.5557 696.5067,-14.4257 3.761,-2.05 2.0446,-19.9503 5.8066,-21.9903 M 688.223,2457 H 181.91 c 1.559,7.03 3.121,14.06 4.684,21.09 0.312,1.41 0.629,2.83 0.941,4.24 166.938,-4.15 379.20869,-9.6228 546.14169,-13.7828 l 2.35038,-5.1581 -1.11063,-1.777 -1.37975,-4.39"
               style="fill:#d0805a;fill-opacity:1;fill-rule:nonzero;stroke:none"
               id="path268"
               sodipodi:nodetypes="ccccccccccccccccc" />
            <path
               d="m 1770.75,2433.39 c -1.62,0 -3.25,0 -4.88,0 -111.57,0 -223.16,0 -334.73,0 l -0.12,21.94 c 112.43,-2.59 224.87,-5.18 337.29,-7.77 0.82,-4.73 1.63,-9.45 2.44,-14.17"
               style="fill:#d0805a;fill-opacity:1;fill-rule:nonzero;stroke:none"
               id="path270" />
            <path
               d="m 3949.87,1267.79 c -1.99,6.26 -3.97,12.53 -5.95,18.8 -0.42,1.32 -0.83,2.64 -1.25,3.96 17.82,0.68 35.63,1.35 53.45,2.03 v -23.87 c -15.42,-0.3 -30.83,-0.6 -46.25,-0.92"
               style="fill:#d0805a;fill-opacity:1;fill-rule:nonzero;stroke:none"
               id="path272" />
            <path
               d="m 171.309,2121.12 v 31.84 c 90.765,-2.6 646.9579,-16.2135 737.6689,-19.3035 -4.226,-4.61 -474.0369,0.5535 -478.2709,-4.0465 -0.117,0 -0.227,-0.01 -0.344,-0.01 -86.363,-2.78 -172.64,-5.92 -259.054,-8.48"
               style="fill:#d0805a;fill-opacity:1;fill-rule:nonzero;stroke:none"
               id="path274"
               sodipodi:nodetypes="cccccc" />
            <path
               d="M 459.113,1499.71 H 349.512 c -0.086,0.68 -0.176,1.36 -0.262,2.05 -0.18,1.39 -0.355,2.78 -0.535,4.17 l 1011.2456,17.8812 8.0916,-6.5532"
               style="fill:#d0805a;fill-opacity:1;fill-rule:nonzero;stroke:none"
               id="path276"
               sodipodi:nodetypes="cccccc" />
            <path
               d="m 2201.51,2016.76 c -1.43,0 -2.85,0 -4.28,0 -257.96,0 -515.93,0 -773.9,0 -1.29,1.31 -2.59,2.61 -3.89,3.92 -1.38,1.39 -2.76,2.77 -4.14,4.17 262,0 524,0 786,0 0.07,-2.7 0.14,-5.39 0.21,-8.09"
               style="fill:#d0805a;fill-opacity:1;fill-rule:nonzero;stroke:none"
               id="path278" />
            <path
               d="m 1989.49,1564.02 c -1.48,0 -2.97,0 -4.45,0 -226.46,0 -452.88,0 -679.34,0 l 0.02,6.56 c 227.78,0 455.55,0 683.32,0 0.15,-2.19 0.3,-4.37 0.45,-6.56"
               style="fill:#d0805a;fill-opacity:1;fill-rule:nonzero;stroke:none"
               id="path280" />
            <path
               d="m 927,2205.2 c -96.49739,-0.404 -439.9988,40.5074 -440.5378,43.6474 -0.231,1.34 444.24307,-18.2098 440.45806,-21.3224 26.699,0.93 456.56454,15.1776 505.69424,7.2126 l 0.5243,-19.5268 C 1407.1808,2214.6908 952.957,2205.73 927,2205.2 m 505.27,10.2 -0.11,20.75 121.65,4.2 c 0.77,-7.48 1.55,-14.96 2.33,-22.44 l -4.59,-0.09 c -39.76,-0.81 -79.53,-1.61 -119.28,-2.42"
               style="fill:#d0805a;fill-opacity:1;fill-rule:nonzero;stroke:none"
               id="path282"
               sodipodi:nodetypes="cccccccccccc" />
            <path
               d="m 3371.43,2986.4 c -0.76,0 -1.52,0 -2.28,0 -242.32,0 -484.64,0 -726.96,0 0.02,1.31 0.05,2.61 0.08,3.92 0.03,1.39 0.06,2.78 0.09,4.16 244.25,0 488.49,0 732.74,0 -1.23,-2.69 -2.45,-5.38 -3.67,-8.08"
               style="fill:#d0805a;fill-opacity:1;fill-rule:nonzero;stroke:none"
               id="path284" />
            <path
               d="m 2409.25,1952.63 c 1.2,6.86 2.41,13.73 3.62,20.59 0.25,1.39 0.49,2.78 0.74,4.17 h 476.03 c 0.24,-0.06 0.48,-0.12 0.72,-0.16 1.04,-0.23 2.12,-0.34 3.23,-0.35 l 17.39,-0.07 17.97,-0.08 h 0.07 c 1.58,0 3.11,0.23 4.55,0.66 l 623.9773,52.7744 c 0.26,-3.53 1.0427,-7.8569 1.3027,-11.3869 L 2954.64,1966.68 c -181.8,-4.68 -363.59,-9.37 -545.39,-14.05"
               style="fill:#d0805a;fill-opacity:1;fill-rule:nonzero;stroke:none"
               id="path286"
               sodipodi:nodetypes="ccccccccsccccc" />
            <path
               d="M 3062.83,1516.91 H 2587.7 c 1.81,2.95 3.62,5.89 5.43,8.84 0.85,1.39 1.71,2.77 2.56,4.16 h 464.96 c 0.53,-4.39 392.2016,-7.8415 393.1216,-12.1115"
               style="fill:#d0805a;fill-opacity:1;fill-rule:nonzero;stroke:none"
               id="path288"
               sodipodi:nodetypes="cccccc" />
            <path
               d="m 2087.27,2130.79 c -1.61,0 -3.21,0 -4.82,0 -206.18,0 -412.38,0 -618.57,0 -0.05,0.73 -0.11,1.46 -0.17,2.19 -0.1,1.38 -0.22,2.77 -0.33,4.16 207.64,0 415.26,0 622.9,0 0.33,-2.12 0.66,-4.23 0.99,-6.35"
               style="fill:#d0805a;fill-opacity:1;fill-rule:nonzero;stroke:none"
               id="path290" />
            <path
               d="m 2573.6,2276.38 c -1.74,0 -3.48,0 -5.21,0 -120.78,0 -241.56,0 -362.33,0 -1.04,1.81 -2.08,3.63 -3.12,5.44 -0.73,1.29 -1.46,2.57 -2.2,3.85 121.96,6.19 243.92,12.38 365.88,18.58 2.33,-9.29 4.65,-18.58 6.98,-27.87"
               style="fill:#d0805a;fill-opacity:1;fill-rule:nonzero;stroke:none"
               id="path292" />
            <path
               d="m 692.629,2549.25 c -1.957,6.91 -390.6163,-5.6563 -392.5733,1.2637 -0.391,1.39 1.0958,5.6072 0.7048,6.9972 l 400.0485,16.6491 0.0653,-0.2223 27.32961,-0.157 6.5806,-22.763 c -0.332,-0.02 -41.82348,-1.7577 -42.15548,-1.7677 m 41.469,1.6 -6.164,23.31 703.30477,40.8712 0.06,-26.7018 c -89.649,-3.46 -607.54877,-34.0194 -697.20077,-37.4794 m -24.461,12.81 -2.774,10.5 h 5.805 l -3.031,-10.5"
               style="fill:#d0805a;fill-opacity:1;fill-rule:nonzero;stroke:none"
               id="path294"
               sodipodi:nodetypes="ccccccccccccccccc" />
            <path
               d="m 3996.12,1541.85 c -7.51,0.38 -15,0.75 -22.51,1.13 7.51,0 15,0 22.51,0 v -1.13 m -22.51,1.13 c -18.98,0 -37.98,0 -56.97,0 l 7.94,2.45 v 0 c 16.35,-0.82 32.69,-1.64 49.03,-2.45 m -57,0 c -0.02,0 -0.03,0 -0.05,0 l 0.06,0.01 c 0,0 0,-0.01 -0.01,-0.01"
               style="fill:#d0805a;fill-opacity:1;fill-rule:nonzero;stroke:none"
               id="path296" />
            <path
               d="m 483.18,1193.16 c -1.379,0 -2.754,0 -4.133,0 -102.578,0 -205.16,0 -307.738,0 v 8.08 c 103.972,0 207.957,0 311.929,0 -0.023,-2.69 -0.039,-5.39 -0.058,-8.08"
               style="fill:#d0805a;fill-opacity:1;fill-rule:nonzero;stroke:none"
               id="path298" />
            <path
               d="m 2233.71,1372.33 c -0.44,0.03 -0.89,0.06 -1.34,0.1 -3.51,0.25 -7.01,0.51 -10.51,0.77 h 14.68 v 0 0 l -0.15,-0.05 c -0.5,-0.16 -2.12,-0.7 -2.68,-0.82 m -11.85,0.87 H 2161 l -1687.42851,14.2161 c 2.71,8.19 39.82406,13.4727 122.94223,20.4062 35.86956,21.0071 1234.87628,-7.1323 1235.36628,-5.6723 129.79,-9.7 259.58,-19.39 389.98,-28.95"
               style="fill:#d0805a;fill-opacity:1;fill-rule:nonzero;stroke:none"
               id="path300"
               sodipodi:nodetypes="cccccccccccccc" />
            <path
               d="m 2651.41,1560.05 c -1.43,0 -2.86,0 -4.28,0 -144.68,0 -289.36,0 -434.04,0 -0.03,2.53 -0.06,5.07 -0.09,7.59 -0.01,1.4 -0.03,2.78 -0.04,4.17 146.04,0 292.08,0 438.12,0 0.11,-3.92 0.22,-7.83 0.33,-11.76"
               style="fill:#d0805a;fill-opacity:1;fill-rule:nonzero;stroke:none"
               id="path302" />
            <path
               d="m 2997.2,3046.07 c -0.68,0.04 -1.36,0.06 -2.03,0.1 -96,4.44 -191.99,8.89 -287.98,13.34 2.72,5.4 5.44,10.8 8.17,16.2 0.7,1.41 1.41,2.82 2.12,4.23 97.45,-2.87 194.89,-5.74 292.34,-8.62 -4.21,-8.41 -8.41,-16.83 -12.62,-25.25"
               style="fill:#d0805a;fill-opacity:1;fill-rule:nonzero;stroke:none"
               id="path304" />
            <path
               d="m 3916.61,1542.96 v 0.02 c 0.01,0 0.01,0.01 0.01,0.01 0.19,0.81 0.38,1.63 0.56,2.44 h 7.4 v 0 l -7.94,-2.45 -0.03,-0.02 m 0.57,2.47 h -3.2 l -765.0237,-0.8885 24.7081,11.076 c 80.9,4.57 669.1256,13.5825 750.0156,18.1425 -2.15,-9.44 -4.3,-18.89 -6.5,-28.33"
               style="fill:#d0805a;fill-opacity:1;fill-rule:nonzero;stroke:none"
               id="path306"
               sodipodi:nodetypes="cccccccccccccc" />
            <path
               d="m 3996.12,1704.88 c -4.54,0 -9.08,0 -13.62,0 -0.05,0 -0.12,0 -0.18,0 3.79,3.63 7.57,7.26 11.36,10.9 0.81,0 1.62,0 2.44,0 v -10.9"
               style="fill:#d0805a;fill-opacity:1;fill-rule:nonzero;stroke:none"
               id="path308" />
            <path
               d="m 1447.69,3116.3 c -1.34,0 -2.67,0 -4.01,0 -152.13,0 -304.25,0 -456.379,0 -2.504,0 -5.024,0 -7.528,0 7.559,2.69 15.114,5.38 22.677,8.08 148.51,0 297.02,0 445.53,0 -0.09,-2.7 -0.19,-5.39 -0.29,-8.08"
               style="fill:#d0805a;fill-opacity:1;fill-rule:nonzero;stroke:none"
               id="path310" />
            <path
               d="m 1766.33,1517.04 c -1.74,0 -3.48,0 -5.22,0 -131.18,0 -262.36,0 -393.53,0 -1.26,0.98 -2.51,1.96 -3.77,2.94 -1.77,1.39 -3.55,2.78 -5.33,4.16 135.35,0 270.7,0 406.04,0 0.61,-2.37 1.21,-4.74 1.81,-7.1"
               style="fill:#d0805a;fill-opacity:1;fill-rule:nonzero;stroke:none"
               id="path312" />
            <path
               d="m 2303.48,1914.75 c -1.52,0.02 -3.03,0.04 -4.55,0.07 -126.62,1.98 -253.23,3.95 -379.97,5.97 -32.44,0.51 -64.91,1.03 -97.37,1.54 160.04,4.13 320.06,8.25 480.09,12.38 0.61,-6.66 1.2,-13.31 1.8,-19.96 m -495.88,7.23 v 0 l -1.83,0.61 c 5.27,-0.09 10.55,-0.17 15.82,-0.26 -4.66,-0.12 -9.33,-0.23 -13.99,-0.35"
               style="fill:#d0805a;fill-opacity:1;fill-rule:nonzero;stroke:none"
               id="path314" />
            <path
               d="m 2252.94,3245.63 c -1.51,0 -3.02,0 -4.53,0 -136.37,0 -272.74,0 -409.12,0 -0.09,0.92 -0.18,1.83 -0.27,2.75 h 413.68 c 0.08,-0.92 0.16,-1.83 0.24,-2.75"
               style="fill:#d0805a;fill-opacity:1;fill-rule:nonzero;stroke:none"
               id="path316" />
            <path
               d="m 2651.9,2788.06 c -3.35,7.43 -6.71,14.85 -10.07,22.27 -0.6,1.34 -1.21,2.68 -1.82,4.03 91.69,2.21 183.38,4.42 275.06,6.63 -2.37,-6.76 -4.74,-13.53 -7.12,-20.29 -0.91,-0.05 -1.83,-0.09 -2.75,-0.14 -84.43,-4.17 -168.86,-8.33 -253.3,-12.5"
               style="fill:#d0805a;fill-opacity:1;fill-rule:nonzero;stroke:none"
               id="path318" />
            <path
               d="m 2544.42,2154.56 c -0.47,5.24 -0.94,10.49 -1.42,15.73 -0.12,1.41 -0.25,2.82 -0.37,4.23 115.25,-1.8 230.51,-3.6 345.85,-5.42 l -0.03,-5.67 c -114.67,-2.95 -229.35,-5.91 -344.03,-8.87 m 417.99,10.78 v 0.01 l -24.18,0.1 v 0 l 16.59,-0.07 0.01,2.67 c 23.22,-0.37 46.46,-0.74 69.68,-1.11 -20.7,-0.53 -41.4,-1.07 -62.1,-1.6 m 77.92,1.34 c -4.77,0.08 -9.54,0.16 -14.31,0.23 -0.5,0.01 -1.01,0.02 -1.51,0.03 0.45,0.01 0.92,0.02 1.37,0.03 4.21,0.11 8.42,0.22 12.63,0.33 l 1.82,-0.62"
               style="fill:#d0805a;fill-opacity:1;fill-rule:nonzero;stroke:none"
               id="path320" />
          </g>
        </g>
      </g>
    </g>
  </g>
</svg>
